G04 #@! TF.GenerationSoftware,KiCad,Pcbnew,5.99.0-unknown-06c979d~86~ubuntu18.04.1*
G04 #@! TF.CreationDate,2020-01-24T18:15:59+02:00*
G04 #@! TF.ProjectId,lora-bridge,6c6f7261-2d62-4726-9964-67652e6b6963,1.1*
G04 #@! TF.SameCoordinates,Original*
G04 #@! TF.FileFunction,Copper,L2,Inr*
G04 #@! TF.FilePolarity,Positive*
%FSLAX46Y46*%
G04 Gerber Fmt 4.6, Leading zero omitted, Abs format (unit mm)*
G04 Created by KiCad (PCBNEW 5.99.0-unknown-06c979d~86~ubuntu18.04.1) date 2020-01-24 18:15:59*
%MOMM*%
%LPD*%
G04 APERTURE LIST*
%ADD10R,2.500000X2.500000*%
%ADD11C,2.500000*%
%ADD12O,1.100000X1.800000*%
%ADD13O,1.100000X2.200000*%
%ADD14C,0.800000*%
%ADD15C,0.254000*%
G04 APERTURE END LIST*
D10*
X135400000Y-138562495D03*
D11*
X140480000Y-138562495D03*
D10*
X114000000Y-138562495D03*
D11*
X119080000Y-138562495D03*
X124160000Y-138562495D03*
X129240000Y-138562495D03*
D10*
X92500000Y-138562495D03*
D11*
X97580000Y-138562495D03*
X102660000Y-138562495D03*
X107740000Y-138562495D03*
D12*
X143805000Y-121950000D03*
X143805000Y-116350000D03*
D13*
X145955000Y-119150000D03*
D14*
X128250000Y-98250000D03*
X128250000Y-99250000D03*
X129500000Y-100000000D03*
X130500000Y-100000000D03*
X131250000Y-99250000D03*
X131250000Y-98250000D03*
X131000000Y-97250000D03*
X130000000Y-97250000D03*
X129000000Y-97250000D03*
X128197500Y-131202500D03*
X121100000Y-110600000D03*
X116500000Y-109200000D03*
X116400000Y-105200000D03*
X90300000Y-123600000D03*
X90300000Y-116000000D03*
X90100000Y-122600000D03*
X89600000Y-124300000D03*
X89800000Y-121100000D03*
X89600000Y-115300000D03*
X90100000Y-117000000D03*
X89800000Y-118500000D03*
X88600000Y-124300000D03*
X87600000Y-124300000D03*
X86600000Y-124300000D03*
X85600000Y-124300000D03*
X88700000Y-122600000D03*
X87700000Y-122600000D03*
X86700000Y-122600000D03*
X85700000Y-122600000D03*
X88800000Y-118500000D03*
X87800000Y-118500000D03*
X86800000Y-118500000D03*
X85800000Y-118500000D03*
X88800000Y-121100000D03*
X87800000Y-121100000D03*
X86800000Y-121100000D03*
X85800000Y-121100000D03*
X88700000Y-117000000D03*
X87700000Y-117000000D03*
X86700000Y-117000000D03*
X85700000Y-117000000D03*
X88600000Y-115300000D03*
X87600000Y-115300000D03*
X86600000Y-115300000D03*
X85600000Y-115300000D03*
X134100000Y-119700000D03*
X135600000Y-116300000D03*
X135676333Y-117600000D03*
X134380983Y-116437157D03*
X137002520Y-112197480D03*
X121900000Y-113600000D03*
X121600000Y-119900000D03*
X121500000Y-106400000D03*
X137600000Y-100000000D03*
X122800000Y-107600000D03*
X124000000Y-107500000D03*
X86300000Y-126900000D03*
X127400000Y-123100000D03*
X127600000Y-119000000D03*
X127200000Y-118000000D03*
X113900000Y-141800000D03*
X126500000Y-128099998D03*
X125600000Y-119700000D03*
X124587490Y-119700879D03*
X118600000Y-119700000D03*
X119700000Y-119700000D03*
X124000000Y-118200000D03*
X118600000Y-116500000D03*
X119700000Y-116400000D03*
X124900000Y-117700000D03*
X114400000Y-110000000D03*
X111100000Y-102200000D03*
X112400000Y-103800000D03*
X111100000Y-105400000D03*
X140400000Y-140700000D03*
X109200000Y-130900000D03*
X122600000Y-123700000D03*
X123400000Y-125800000D03*
X141800000Y-133300000D03*
X141800000Y-132200000D03*
X138700000Y-132800000D03*
X132900000Y-125700000D03*
X101327284Y-116336034D03*
X105127284Y-116336034D03*
X107327284Y-111336034D03*
X101327284Y-111336034D03*
X97327284Y-111336034D03*
X92327284Y-111336034D03*
X92327284Y-106336034D03*
X106000000Y-102100000D03*
X119000000Y-102100000D03*
X106060000Y-137100000D03*
X109260000Y-137100000D03*
X109060000Y-140200000D03*
X105960000Y-140200000D03*
X130600000Y-140200000D03*
X127700000Y-140400000D03*
X127700000Y-137200000D03*
X130500000Y-137200000D03*
X141400000Y-140700000D03*
X139400000Y-140700000D03*
X142400000Y-140700000D03*
X142400000Y-139700000D03*
X142400000Y-138700000D03*
X142400000Y-137700000D03*
X142400000Y-136700000D03*
X141400000Y-136700000D03*
X140400000Y-136700000D03*
X139400000Y-136700000D03*
X138400000Y-136700000D03*
X138400000Y-137700000D03*
X138400000Y-138700000D03*
X138400000Y-139700000D03*
X138400000Y-140700000D03*
X138400000Y-141700000D03*
X139400000Y-141700000D03*
X141400000Y-141700000D03*
X142400000Y-141700000D03*
X145980000Y-116450000D03*
X145980000Y-121450000D03*
X112600000Y-119700000D03*
X96800000Y-129500000D03*
X123200000Y-115600000D03*
X123300000Y-110600000D03*
X127500000Y-106900000D03*
X137300000Y-105500000D03*
X134900000Y-106100000D03*
X128000000Y-110100000D03*
X132800000Y-112500000D03*
X129800000Y-113000000D03*
X129900000Y-115500000D03*
X140400000Y-141700000D03*
X130000000Y-141700000D03*
X105000000Y-141700000D03*
X95000000Y-141700000D03*
X97000000Y-94075000D03*
X102000000Y-94075000D03*
X106000000Y-94075000D03*
X112000000Y-94000000D03*
X116000000Y-94000000D03*
X123000000Y-94000000D03*
X137800000Y-97200000D03*
X146000000Y-105000000D03*
X146000000Y-125000000D03*
X147000000Y-141900000D03*
X87000000Y-105000000D03*
X85900000Y-142000000D03*
X95827284Y-116736034D03*
X95827284Y-115736034D03*
X95827284Y-114736034D03*
X96700000Y-118000000D03*
X97700000Y-121200000D03*
X128200000Y-104900000D03*
X130101994Y-109503067D03*
X129800000Y-105800000D03*
X139400000Y-119300000D03*
X145180000Y-117150000D03*
X139831585Y-121850000D03*
X140600000Y-122600000D03*
X131050000Y-125700000D03*
X133450000Y-127500000D03*
X127450000Y-128800000D03*
X140800000Y-132800000D03*
X130600000Y-133700000D03*
X116100000Y-132900000D03*
X115100000Y-131300000D03*
X114000000Y-131700000D03*
X118000000Y-128900000D03*
X120900000Y-129900000D03*
X122000000Y-132400000D03*
X109300000Y-129899999D03*
X127800000Y-112500000D03*
X131700000Y-109600000D03*
X134000000Y-112900000D03*
X133100000Y-115700000D03*
X131137500Y-123012500D03*
X130050000Y-121800000D03*
X130950000Y-121800000D03*
X131950000Y-121800000D03*
X133300000Y-122962495D03*
X104627284Y-122836034D03*
X105527284Y-122936034D03*
X106227284Y-122236034D03*
X102427284Y-121836034D03*
X103427284Y-122836034D03*
X99127284Y-121336034D03*
X99127284Y-118336034D03*
X100227284Y-118336034D03*
X97127284Y-102236034D03*
X97127284Y-105336034D03*
X95727284Y-103836034D03*
X98127284Y-118336034D03*
X100227284Y-121336034D03*
X96700000Y-121200000D03*
X124569238Y-114300010D03*
X124600000Y-112900000D03*
X124800000Y-110900000D03*
X123300000Y-114300000D03*
X125200000Y-107999979D03*
X125400000Y-116300000D03*
X128200000Y-114300000D03*
X129000000Y-111000000D03*
X124500000Y-115800000D03*
X138600000Y-116500000D03*
X137000000Y-108700000D03*
X140400000Y-109900000D03*
X135600000Y-109100000D03*
X132100000Y-103800000D03*
X134800000Y-102200000D03*
X137400000Y-102200000D03*
X132500000Y-102200000D03*
X133700000Y-101100000D03*
X136100000Y-101100000D03*
X135700000Y-108000000D03*
X134007117Y-111732847D03*
X133300000Y-110950000D03*
X136700000Y-107300000D03*
X133350000Y-118750000D03*
X116100000Y-124500000D03*
X120700000Y-124500000D03*
X136600000Y-118700000D03*
X135700000Y-119700000D03*
X140380000Y-119350000D03*
X95700000Y-132500000D03*
X100600000Y-134600000D03*
X99800000Y-133800000D03*
X101500000Y-133700000D03*
X98299998Y-129800000D03*
X139700000Y-113900000D03*
X139400000Y-98700000D03*
X139400000Y-97500000D03*
X136300000Y-99900000D03*
X136300000Y-98700000D03*
X136300000Y-97500000D03*
X140600000Y-99300000D03*
X141800000Y-99900000D03*
X141900000Y-101100000D03*
X141900000Y-102300000D03*
X141900000Y-103500000D03*
X141800000Y-105900000D03*
X132237500Y-123012500D03*
X140600000Y-121000000D03*
X134000000Y-128800000D03*
X128400000Y-124400000D03*
X128450000Y-122000000D03*
X128450000Y-127600000D03*
X128000000Y-94000000D03*
X134200000Y-93700000D03*
X147000000Y-94000000D03*
X86000000Y-94000000D03*
X123300000Y-131200000D03*
X118300000Y-134500000D03*
X116700000Y-138700000D03*
X116500000Y-122100000D03*
X129100000Y-133700000D03*
X126000000Y-132900000D03*
X125200000Y-136800000D03*
X122000000Y-139900000D03*
X134900000Y-103400000D03*
X130600000Y-103800000D03*
X125200000Y-100800000D03*
X140400000Y-111100000D03*
X140400000Y-112300000D03*
X140800000Y-113400000D03*
X140700000Y-114600000D03*
X140100000Y-115600000D03*
X137400000Y-116800000D03*
X138300000Y-117600000D03*
X139700000Y-116700000D03*
X137400000Y-103800000D03*
X142000000Y-104700000D03*
X141300000Y-107400000D03*
X138497461Y-108717454D03*
X95698555Y-118500000D03*
X93800000Y-118500000D03*
X94727284Y-118500000D03*
X90800000Y-118500000D03*
X95674694Y-121100000D03*
X93800000Y-121100000D03*
X91800000Y-118500000D03*
X90800000Y-121100000D03*
X92800000Y-118500000D03*
X91800000Y-121100000D03*
X92800000Y-121100000D03*
X94727284Y-121100000D03*
G36*
X147366000Y-142366000D02*
G01*
X85634000Y-142366000D01*
X85634000Y-137301471D01*
X90608163Y-137301471D01*
X90608163Y-139829083D01*
X90688795Y-140130007D01*
X90836185Y-140305660D01*
X91029814Y-140417451D01*
X91238976Y-140454332D01*
X93766588Y-140454332D01*
X94067512Y-140373700D01*
X94243165Y-140226310D01*
X94354956Y-140032681D01*
X94391837Y-139823519D01*
X94391837Y-138653139D01*
X95692899Y-138653139D01*
X95727025Y-138931074D01*
X95801859Y-139200913D01*
X95915754Y-139456727D01*
X96066210Y-139692896D01*
X96249922Y-139904231D01*
X96462853Y-140086092D01*
X96700326Y-140234481D01*
X96957123Y-140346140D01*
X97227604Y-140418615D01*
X97505828Y-140450315D01*
X97785680Y-140440542D01*
X98061013Y-140389512D01*
X98325780Y-140298346D01*
X98574164Y-140169046D01*
X98800707Y-140004452D01*
X99000433Y-139808182D01*
X99168955Y-139584546D01*
X99302571Y-139338456D01*
X99398344Y-139075321D01*
X99454502Y-138799293D01*
X99458329Y-138653139D01*
X100772899Y-138653139D01*
X100807025Y-138931074D01*
X100881859Y-139200913D01*
X100995754Y-139456727D01*
X101146210Y-139692896D01*
X101329922Y-139904231D01*
X101542853Y-140086092D01*
X101780326Y-140234481D01*
X102037123Y-140346140D01*
X102307604Y-140418615D01*
X102585828Y-140450315D01*
X102865680Y-140440542D01*
X103141013Y-140389512D01*
X103405780Y-140298346D01*
X103654164Y-140169046D01*
X103880707Y-140004452D01*
X103903298Y-139982251D01*
X106501264Y-139982251D01*
X106622854Y-140086093D01*
X106860326Y-140234481D01*
X107117123Y-140346140D01*
X107387604Y-140418615D01*
X107665828Y-140450315D01*
X107945680Y-140440542D01*
X108221013Y-140389512D01*
X108485780Y-140298346D01*
X108734164Y-140169046D01*
X108984007Y-139987523D01*
X107740000Y-138743514D01*
X106501264Y-139982251D01*
X103903298Y-139982251D01*
X104080433Y-139808182D01*
X104248955Y-139584546D01*
X104382571Y-139338456D01*
X104478344Y-139075321D01*
X104534502Y-138799293D01*
X104538329Y-138653139D01*
X105852899Y-138653139D01*
X105887025Y-138931074D01*
X105961859Y-139200913D01*
X106075754Y-139456726D01*
X106304961Y-139816513D01*
X107558981Y-138562495D01*
X107921019Y-138562495D01*
X109163129Y-139804604D01*
X109328955Y-139584546D01*
X109462571Y-139338456D01*
X109558344Y-139075321D01*
X109614502Y-138799293D01*
X109624326Y-138424126D01*
X109582691Y-138145537D01*
X109500821Y-137877749D01*
X109380268Y-137625005D01*
X109170099Y-137313416D01*
X107921019Y-138562495D01*
X107558981Y-138562495D01*
X106313865Y-137317380D01*
X106124835Y-137582389D01*
X105997707Y-137831891D01*
X105908855Y-138097443D01*
X105860229Y-138373212D01*
X105852899Y-138653139D01*
X104538329Y-138653139D01*
X104544326Y-138424126D01*
X104502691Y-138145537D01*
X104420821Y-137877749D01*
X104300268Y-137625005D01*
X104143681Y-137392855D01*
X103954500Y-137186401D01*
X103897397Y-137140159D01*
X106498684Y-137140159D01*
X107740000Y-138381476D01*
X108820004Y-137301471D01*
X112108163Y-137301471D01*
X112108163Y-139829083D01*
X112188795Y-140130007D01*
X112336185Y-140305660D01*
X112529814Y-140417451D01*
X112738976Y-140454332D01*
X115266588Y-140454332D01*
X115567512Y-140373700D01*
X115743165Y-140226310D01*
X115854956Y-140032681D01*
X115891837Y-139823519D01*
X115891837Y-138653139D01*
X117192899Y-138653139D01*
X117227025Y-138931074D01*
X117301859Y-139200913D01*
X117415754Y-139456727D01*
X117566210Y-139692896D01*
X117749922Y-139904231D01*
X117962853Y-140086092D01*
X118200326Y-140234481D01*
X118457123Y-140346140D01*
X118727604Y-140418615D01*
X119005828Y-140450315D01*
X119285680Y-140440542D01*
X119561013Y-140389512D01*
X119825780Y-140298346D01*
X120074164Y-140169046D01*
X120300707Y-140004452D01*
X120500433Y-139808182D01*
X120668955Y-139584546D01*
X120802571Y-139338456D01*
X120898344Y-139075321D01*
X120954502Y-138799293D01*
X120958329Y-138653139D01*
X122272899Y-138653139D01*
X122307025Y-138931074D01*
X122381859Y-139200913D01*
X122495754Y-139456727D01*
X122646210Y-139692896D01*
X122829922Y-139904231D01*
X123042853Y-140086092D01*
X123280326Y-140234481D01*
X123537123Y-140346140D01*
X123807604Y-140418615D01*
X124085828Y-140450315D01*
X124365680Y-140440542D01*
X124641013Y-140389512D01*
X124905780Y-140298346D01*
X125154164Y-140169046D01*
X125380707Y-140004452D01*
X125403298Y-139982251D01*
X128001264Y-139982251D01*
X128122854Y-140086093D01*
X128360326Y-140234481D01*
X128617123Y-140346140D01*
X128887604Y-140418615D01*
X129165828Y-140450315D01*
X129445680Y-140440542D01*
X129721013Y-140389512D01*
X129985780Y-140298346D01*
X130234164Y-140169046D01*
X130484007Y-139987523D01*
X129240000Y-138743514D01*
X128001264Y-139982251D01*
X125403298Y-139982251D01*
X125580433Y-139808182D01*
X125748955Y-139584546D01*
X125882571Y-139338456D01*
X125978344Y-139075321D01*
X126034502Y-138799293D01*
X126038329Y-138653139D01*
X127352899Y-138653139D01*
X127387025Y-138931074D01*
X127461859Y-139200913D01*
X127575754Y-139456726D01*
X127804961Y-139816513D01*
X129058981Y-138562495D01*
X129421019Y-138562495D01*
X130663129Y-139804604D01*
X130828955Y-139584546D01*
X130962571Y-139338456D01*
X131058344Y-139075321D01*
X131114502Y-138799293D01*
X131124326Y-138424126D01*
X131082691Y-138145537D01*
X131000821Y-137877749D01*
X130880268Y-137625005D01*
X130670099Y-137313416D01*
X129421019Y-138562495D01*
X129058981Y-138562495D01*
X127813865Y-137317380D01*
X127624835Y-137582389D01*
X127497707Y-137831891D01*
X127408855Y-138097443D01*
X127360229Y-138373212D01*
X127352899Y-138653139D01*
X126038329Y-138653139D01*
X126044326Y-138424126D01*
X126002691Y-138145537D01*
X125920821Y-137877749D01*
X125800268Y-137625005D01*
X125643681Y-137392855D01*
X125454500Y-137186401D01*
X125397397Y-137140159D01*
X127998684Y-137140159D01*
X129240000Y-138381476D01*
X130320004Y-137301471D01*
X133508163Y-137301471D01*
X133508163Y-139829083D01*
X133588795Y-140130007D01*
X133736185Y-140305660D01*
X133929814Y-140417451D01*
X134138976Y-140454332D01*
X136666588Y-140454332D01*
X136967512Y-140373700D01*
X137143165Y-140226310D01*
X137254956Y-140032681D01*
X137263848Y-139982251D01*
X139241264Y-139982251D01*
X139362854Y-140086093D01*
X139600326Y-140234481D01*
X139857123Y-140346140D01*
X140127604Y-140418615D01*
X140405828Y-140450315D01*
X140685680Y-140440542D01*
X140961013Y-140389512D01*
X141225780Y-140298346D01*
X141474164Y-140169046D01*
X141724007Y-139987523D01*
X140480000Y-138743514D01*
X139241264Y-139982251D01*
X137263848Y-139982251D01*
X137291837Y-139823519D01*
X137291837Y-138653139D01*
X138592899Y-138653139D01*
X138627025Y-138931074D01*
X138701859Y-139200913D01*
X138815754Y-139456726D01*
X139044961Y-139816513D01*
X140298981Y-138562495D01*
X140661019Y-138562495D01*
X141903129Y-139804604D01*
X142068955Y-139584546D01*
X142202571Y-139338456D01*
X142298344Y-139075321D01*
X142354502Y-138799293D01*
X142364326Y-138424126D01*
X142322691Y-138145537D01*
X142240821Y-137877749D01*
X142120268Y-137625005D01*
X141910099Y-137313416D01*
X140661019Y-138562495D01*
X140298981Y-138562495D01*
X139053865Y-137317380D01*
X138864835Y-137582389D01*
X138737707Y-137831891D01*
X138648855Y-138097443D01*
X138600229Y-138373212D01*
X138592899Y-138653139D01*
X137291837Y-138653139D01*
X137291837Y-137295907D01*
X137250105Y-137140159D01*
X139238684Y-137140159D01*
X140480000Y-138381476D01*
X141719562Y-137141913D01*
X141556882Y-137010177D01*
X141315606Y-136868054D01*
X141055973Y-136763156D01*
X140783687Y-136697786D01*
X140504730Y-136673380D01*
X140225229Y-136690476D01*
X139951325Y-136748695D01*
X139689036Y-136846761D01*
X139444122Y-136982519D01*
X139238684Y-137140159D01*
X137250105Y-137140159D01*
X137211205Y-136994984D01*
X137063815Y-136819330D01*
X136870186Y-136707539D01*
X136661024Y-136670658D01*
X134133412Y-136670658D01*
X133832489Y-136751290D01*
X133656835Y-136898680D01*
X133545044Y-137092309D01*
X133508163Y-137301471D01*
X130320004Y-137301471D01*
X130479562Y-137141913D01*
X130316882Y-137010177D01*
X130075606Y-136868054D01*
X129815973Y-136763156D01*
X129543687Y-136697786D01*
X129264730Y-136673380D01*
X128985229Y-136690476D01*
X128711325Y-136748695D01*
X128449036Y-136846761D01*
X128204122Y-136982519D01*
X127998684Y-137140159D01*
X125397397Y-137140159D01*
X125236882Y-137010177D01*
X124995606Y-136868054D01*
X124735973Y-136763156D01*
X124463687Y-136697786D01*
X124184730Y-136673380D01*
X123905229Y-136690476D01*
X123631325Y-136748695D01*
X123369036Y-136846761D01*
X123124123Y-136982519D01*
X122901966Y-137152986D01*
X122707445Y-137354418D01*
X122544835Y-137582389D01*
X122417707Y-137831891D01*
X122328855Y-138097443D01*
X122280229Y-138373212D01*
X122272899Y-138653139D01*
X120958329Y-138653139D01*
X120964326Y-138424126D01*
X120922691Y-138145537D01*
X120840821Y-137877749D01*
X120720268Y-137625005D01*
X120563681Y-137392855D01*
X120374500Y-137186401D01*
X120156882Y-137010177D01*
X119915606Y-136868054D01*
X119655973Y-136763156D01*
X119383687Y-136697786D01*
X119104730Y-136673380D01*
X118825229Y-136690476D01*
X118551325Y-136748695D01*
X118289036Y-136846761D01*
X118044123Y-136982519D01*
X117821966Y-137152986D01*
X117627445Y-137354418D01*
X117464835Y-137582389D01*
X117337707Y-137831891D01*
X117248855Y-138097443D01*
X117200229Y-138373212D01*
X117192899Y-138653139D01*
X115891837Y-138653139D01*
X115891837Y-137295907D01*
X115811205Y-136994984D01*
X115663815Y-136819330D01*
X115470186Y-136707539D01*
X115261024Y-136670658D01*
X112733412Y-136670658D01*
X112432489Y-136751290D01*
X112256835Y-136898680D01*
X112145044Y-137092309D01*
X112108163Y-137301471D01*
X108820004Y-137301471D01*
X108979562Y-137141913D01*
X108816882Y-137010177D01*
X108575606Y-136868054D01*
X108315973Y-136763156D01*
X108043687Y-136697786D01*
X107764730Y-136673380D01*
X107485229Y-136690476D01*
X107211325Y-136748695D01*
X106949036Y-136846761D01*
X106704122Y-136982519D01*
X106498684Y-137140159D01*
X103897397Y-137140159D01*
X103736882Y-137010177D01*
X103495606Y-136868054D01*
X103235973Y-136763156D01*
X102963687Y-136697786D01*
X102684730Y-136673380D01*
X102405229Y-136690476D01*
X102131325Y-136748695D01*
X101869036Y-136846761D01*
X101624123Y-136982519D01*
X101401966Y-137152986D01*
X101207445Y-137354418D01*
X101044835Y-137582389D01*
X100917707Y-137831891D01*
X100828855Y-138097443D01*
X100780229Y-138373212D01*
X100772899Y-138653139D01*
X99458329Y-138653139D01*
X99464326Y-138424126D01*
X99422691Y-138145537D01*
X99340821Y-137877749D01*
X99220268Y-137625005D01*
X99063681Y-137392855D01*
X98874500Y-137186401D01*
X98656882Y-137010177D01*
X98415606Y-136868054D01*
X98155973Y-136763156D01*
X97883687Y-136697786D01*
X97604730Y-136673380D01*
X97325229Y-136690476D01*
X97051325Y-136748695D01*
X96789036Y-136846761D01*
X96544123Y-136982519D01*
X96321966Y-137152986D01*
X96127445Y-137354418D01*
X95964835Y-137582389D01*
X95837707Y-137831891D01*
X95748855Y-138097443D01*
X95700229Y-138373212D01*
X95692899Y-138653139D01*
X94391837Y-138653139D01*
X94391837Y-137295907D01*
X94311205Y-136994984D01*
X94163815Y-136819330D01*
X93970186Y-136707539D01*
X93761024Y-136670658D01*
X91233412Y-136670658D01*
X90932489Y-136751290D01*
X90756835Y-136898680D01*
X90645044Y-137092309D01*
X90608163Y-137301471D01*
X85634000Y-137301471D01*
X85634000Y-131428898D01*
X85764496Y-131428898D01*
X85802672Y-131731098D01*
X85881510Y-132025321D01*
X85999547Y-132306122D01*
X86154602Y-132568307D01*
X86343805Y-132807021D01*
X86563655Y-133017849D01*
X86810083Y-133196890D01*
X87078530Y-133340830D01*
X87364028Y-133447006D01*
X87661294Y-133513452D01*
X87964828Y-133538941D01*
X88269012Y-133523000D01*
X88568220Y-133465923D01*
X88856911Y-133368767D01*
X89129747Y-133233330D01*
X89381678Y-133062119D01*
X89608041Y-132858300D01*
X89804649Y-132625646D01*
X89967863Y-132368463D01*
X89969964Y-132363872D01*
X94666000Y-132363872D01*
X94666000Y-132636128D01*
X94736466Y-132899109D01*
X94872594Y-133134891D01*
X95065109Y-133327406D01*
X95300891Y-133463534D01*
X95563872Y-133534000D01*
X95836128Y-133534000D01*
X96099109Y-133463534D01*
X96334891Y-133327406D01*
X96527406Y-133134891D01*
X96663534Y-132899109D01*
X96734000Y-132636128D01*
X96734000Y-132363872D01*
X96707205Y-132263872D01*
X120966000Y-132263872D01*
X120966000Y-132536128D01*
X121036466Y-132799109D01*
X121172594Y-133034891D01*
X121365109Y-133227406D01*
X121600891Y-133363534D01*
X121863872Y-133434000D01*
X122136128Y-133434000D01*
X122399109Y-133363534D01*
X122634891Y-133227406D01*
X122827406Y-133034891D01*
X122963534Y-132799109D01*
X123034000Y-132536128D01*
X123034000Y-132263872D01*
X122963534Y-132000891D01*
X122827406Y-131765109D01*
X122634891Y-131572594D01*
X122399109Y-131436466D01*
X122136128Y-131366000D01*
X121863872Y-131366000D01*
X121600891Y-131436466D01*
X121365109Y-131572594D01*
X121172594Y-131765109D01*
X121036466Y-132000891D01*
X120966000Y-132263872D01*
X96707205Y-132263872D01*
X96663534Y-132100891D01*
X96527406Y-131865109D01*
X96334891Y-131672594D01*
X96099109Y-131536466D01*
X95836128Y-131466000D01*
X95563872Y-131466000D01*
X95300891Y-131536466D01*
X95065109Y-131672594D01*
X94872594Y-131865109D01*
X94736466Y-132100891D01*
X94666000Y-132363872D01*
X89969964Y-132363872D01*
X90094663Y-132091507D01*
X90182702Y-131799906D01*
X90230456Y-131498399D01*
X90234122Y-131148356D01*
X90192692Y-130845916D01*
X90110780Y-130552534D01*
X89989808Y-130272984D01*
X89832015Y-130012438D01*
X89640323Y-129775718D01*
X89521219Y-129663872D01*
X97265998Y-129663872D01*
X97265998Y-129936128D01*
X97336464Y-130199109D01*
X97472592Y-130434891D01*
X97665107Y-130627406D01*
X97900889Y-130763534D01*
X98163870Y-130834000D01*
X98436126Y-130834000D01*
X98697845Y-130763872D01*
X108166000Y-130763872D01*
X108166000Y-131036128D01*
X108236466Y-131299109D01*
X108372594Y-131534891D01*
X108565109Y-131727406D01*
X108800891Y-131863534D01*
X109063872Y-131934000D01*
X109336128Y-131934000D01*
X109599109Y-131863534D01*
X109834891Y-131727406D01*
X110027406Y-131534891D01*
X110163534Y-131299109D01*
X110225896Y-131066372D01*
X127163500Y-131066372D01*
X127163500Y-131338628D01*
X127233966Y-131601609D01*
X127370094Y-131837391D01*
X127562609Y-132029906D01*
X127798391Y-132166034D01*
X128061372Y-132236500D01*
X128333628Y-132236500D01*
X128596609Y-132166034D01*
X128832391Y-132029906D01*
X129024906Y-131837391D01*
X129161034Y-131601609D01*
X129207312Y-131428898D01*
X142764496Y-131428898D01*
X142802672Y-131731098D01*
X142881510Y-132025321D01*
X142999547Y-132306122D01*
X143154602Y-132568307D01*
X143343805Y-132807021D01*
X143563655Y-133017849D01*
X143810083Y-133196890D01*
X144078530Y-133340830D01*
X144364028Y-133447006D01*
X144661294Y-133513452D01*
X144964828Y-133538941D01*
X145269012Y-133523000D01*
X145568220Y-133465923D01*
X145856911Y-133368767D01*
X146129747Y-133233330D01*
X146381678Y-133062119D01*
X146608041Y-132858300D01*
X146804649Y-132625646D01*
X146967863Y-132368463D01*
X147094663Y-132091507D01*
X147182702Y-131799906D01*
X147230456Y-131498399D01*
X147234122Y-131148356D01*
X147192692Y-130845916D01*
X147110780Y-130552534D01*
X146989808Y-130272984D01*
X146832015Y-130012438D01*
X146640323Y-129775718D01*
X146418277Y-129567204D01*
X146169988Y-129390753D01*
X145900049Y-129249633D01*
X145613454Y-129146452D01*
X145315509Y-129083121D01*
X145011724Y-129060813D01*
X144707723Y-129079939D01*
X144409131Y-129140147D01*
X144121472Y-129240319D01*
X143850070Y-129378606D01*
X143599946Y-129552446D01*
X143375729Y-129758624D01*
X143181568Y-129993324D01*
X143021057Y-130252203D01*
X142897163Y-130530471D01*
X142812183Y-130822979D01*
X142767685Y-131124313D01*
X142764496Y-131428898D01*
X129207312Y-131428898D01*
X129231500Y-131338628D01*
X129231500Y-131066372D01*
X129161034Y-130803391D01*
X129024906Y-130567609D01*
X128832391Y-130375094D01*
X128596609Y-130238966D01*
X128333628Y-130168500D01*
X128061372Y-130168500D01*
X127798391Y-130238966D01*
X127562609Y-130375094D01*
X127370094Y-130567609D01*
X127233966Y-130803391D01*
X127163500Y-131066372D01*
X110225896Y-131066372D01*
X110234000Y-131036128D01*
X110234000Y-130763872D01*
X110163534Y-130500891D01*
X110155285Y-130486603D01*
X110263534Y-130299108D01*
X110334000Y-130036127D01*
X110334000Y-129763871D01*
X110263534Y-129500890D01*
X110127406Y-129265108D01*
X109934891Y-129072593D01*
X109699109Y-128936465D01*
X109436128Y-128865999D01*
X109163872Y-128865999D01*
X108900891Y-128936465D01*
X108665109Y-129072593D01*
X108472594Y-129265108D01*
X108336466Y-129500890D01*
X108266000Y-129763871D01*
X108266000Y-130036127D01*
X108336466Y-130299108D01*
X108344715Y-130313396D01*
X108236466Y-130500891D01*
X108166000Y-130763872D01*
X98697845Y-130763872D01*
X98699107Y-130763534D01*
X98934889Y-130627406D01*
X99127404Y-130434891D01*
X99263532Y-130199109D01*
X99333998Y-129936128D01*
X99333998Y-129663872D01*
X99263532Y-129400891D01*
X99127404Y-129165109D01*
X98934889Y-128972594D01*
X98699107Y-128836466D01*
X98436126Y-128766000D01*
X98163870Y-128766000D01*
X97900889Y-128836466D01*
X97665107Y-128972594D01*
X97472592Y-129165109D01*
X97336464Y-129400891D01*
X97265998Y-129663872D01*
X89521219Y-129663872D01*
X89418277Y-129567204D01*
X89169988Y-129390753D01*
X88900049Y-129249633D01*
X88613454Y-129146452D01*
X88315509Y-129083121D01*
X88011724Y-129060813D01*
X87707723Y-129079939D01*
X87409131Y-129140147D01*
X87121472Y-129240319D01*
X86850070Y-129378606D01*
X86599946Y-129552446D01*
X86375729Y-129758624D01*
X86181568Y-129993324D01*
X86021057Y-130252203D01*
X85897163Y-130530471D01*
X85812183Y-130822979D01*
X85767685Y-131124313D01*
X85764496Y-131428898D01*
X85634000Y-131428898D01*
X85634000Y-127963870D01*
X125466000Y-127963870D01*
X125466000Y-128236126D01*
X125536466Y-128499107D01*
X125672594Y-128734889D01*
X125865109Y-128927404D01*
X126100891Y-129063532D01*
X126363872Y-129133998D01*
X126636128Y-129133998D01*
X126899109Y-129063532D01*
X127134891Y-128927404D01*
X127327406Y-128734889D01*
X127463534Y-128499107D01*
X127534000Y-128236126D01*
X127534000Y-127963870D01*
X127463534Y-127700889D01*
X127327406Y-127465107D01*
X127134891Y-127272592D01*
X126899109Y-127136464D01*
X126636128Y-127065998D01*
X126363872Y-127065998D01*
X126100891Y-127136464D01*
X125865109Y-127272592D01*
X125672594Y-127465107D01*
X125536466Y-127700889D01*
X125466000Y-127963870D01*
X85634000Y-127963870D01*
X85634000Y-124363872D01*
X115066000Y-124363872D01*
X115066000Y-124636128D01*
X115136466Y-124899109D01*
X115272594Y-125134891D01*
X115465109Y-125327406D01*
X115700891Y-125463534D01*
X115963872Y-125534000D01*
X116236128Y-125534000D01*
X116499109Y-125463534D01*
X116734891Y-125327406D01*
X116927406Y-125134891D01*
X117063534Y-124899109D01*
X117134000Y-124636128D01*
X117134000Y-124363872D01*
X119666000Y-124363872D01*
X119666000Y-124636128D01*
X119736466Y-124899109D01*
X119872594Y-125134891D01*
X120065109Y-125327406D01*
X120300891Y-125463534D01*
X120563872Y-125534000D01*
X120836128Y-125534000D01*
X121099109Y-125463534D01*
X121334891Y-125327406D01*
X121527406Y-125134891D01*
X121663534Y-124899109D01*
X121734000Y-124636128D01*
X121734000Y-124363872D01*
X121663534Y-124100891D01*
X121527406Y-123865109D01*
X121334891Y-123672594D01*
X121099109Y-123536466D01*
X120836128Y-123466000D01*
X120563872Y-123466000D01*
X120300891Y-123536466D01*
X120065109Y-123672594D01*
X119872594Y-123865109D01*
X119736466Y-124100891D01*
X119666000Y-124363872D01*
X117134000Y-124363872D01*
X117063534Y-124100891D01*
X116927406Y-123865109D01*
X116734891Y-123672594D01*
X116499109Y-123536466D01*
X116236128Y-123466000D01*
X115963872Y-123466000D01*
X115700891Y-123536466D01*
X115465109Y-123672594D01*
X115272594Y-123865109D01*
X115136466Y-124100891D01*
X115066000Y-124363872D01*
X85634000Y-124363872D01*
X85634000Y-122699906D01*
X103593284Y-122699906D01*
X103593284Y-122972162D01*
X103663750Y-123235143D01*
X103799878Y-123470925D01*
X103992393Y-123663440D01*
X104228175Y-123799568D01*
X104491156Y-123870034D01*
X104763412Y-123870034D01*
X104977611Y-123812640D01*
X105128175Y-123899568D01*
X105391156Y-123970034D01*
X105663412Y-123970034D01*
X105926393Y-123899568D01*
X106162175Y-123763440D01*
X106354690Y-123570925D01*
X106490818Y-123335143D01*
X106519469Y-123228219D01*
X106626393Y-123199568D01*
X106862175Y-123063440D01*
X107054690Y-122870925D01*
X107190818Y-122635143D01*
X107261284Y-122372162D01*
X107261284Y-122099906D01*
X107190818Y-121836925D01*
X107090907Y-121663872D01*
X129016000Y-121663872D01*
X129016000Y-121936128D01*
X129086466Y-122199109D01*
X129222594Y-122434891D01*
X129415109Y-122627406D01*
X129650891Y-122763534D01*
X129913872Y-122834000D01*
X130114853Y-122834000D01*
X130103500Y-122876372D01*
X130103500Y-123148628D01*
X130173966Y-123411609D01*
X130310094Y-123647391D01*
X130502609Y-123839906D01*
X130738391Y-123976034D01*
X131001372Y-124046500D01*
X131273628Y-124046500D01*
X131536609Y-123976034D01*
X131687500Y-123888918D01*
X131838391Y-123976034D01*
X132101372Y-124046500D01*
X132373628Y-124046500D01*
X132636609Y-123976034D01*
X132812056Y-123874740D01*
X132900891Y-123926029D01*
X133163872Y-123996495D01*
X133436128Y-123996495D01*
X133699109Y-123926029D01*
X133934891Y-123789901D01*
X134127406Y-123597386D01*
X134263534Y-123361604D01*
X134334000Y-123098623D01*
X134334000Y-122826367D01*
X134263534Y-122563386D01*
X134145169Y-122358369D01*
X142621000Y-122358369D01*
X142637935Y-122531085D01*
X142705048Y-122753368D01*
X142814056Y-122958383D01*
X142960808Y-123138319D01*
X143139716Y-123286326D01*
X143343965Y-123396762D01*
X143677000Y-123499853D01*
X143677000Y-123496589D01*
X143932999Y-123496589D01*
X144250678Y-123403093D01*
X144456449Y-123295518D01*
X144637405Y-123150024D01*
X144786657Y-122972154D01*
X144898516Y-122768682D01*
X144968859Y-122546933D01*
X144989000Y-122355305D01*
X144989000Y-122078000D01*
X143933000Y-122077999D01*
X143932999Y-123496589D01*
X143677000Y-123496589D01*
X143677001Y-122078000D01*
X142621000Y-122077999D01*
X142621000Y-122358369D01*
X134145169Y-122358369D01*
X134127406Y-122327604D01*
X133934891Y-122135089D01*
X133699109Y-121998961D01*
X133436128Y-121928495D01*
X133163872Y-121928495D01*
X132972290Y-121979830D01*
X132984000Y-121936128D01*
X132984000Y-121663872D01*
X132952067Y-121544695D01*
X142621000Y-121544695D01*
X142621000Y-121822000D01*
X143677000Y-121822001D01*
X143677000Y-121822000D01*
X143932999Y-121822000D01*
X144989000Y-121822001D01*
X144989000Y-121541631D01*
X144972065Y-121368915D01*
X144904953Y-121146632D01*
X144795945Y-120941617D01*
X144649193Y-120761681D01*
X144470285Y-120613674D01*
X144266035Y-120503238D01*
X143933000Y-120400147D01*
X143932999Y-121822000D01*
X143677000Y-121822000D01*
X143677001Y-120403411D01*
X143359322Y-120496907D01*
X143153551Y-120604482D01*
X142972595Y-120749976D01*
X142823343Y-120927846D01*
X142711484Y-121131320D01*
X142641141Y-121353067D01*
X142621000Y-121544695D01*
X132952067Y-121544695D01*
X132913534Y-121400891D01*
X132777406Y-121165109D01*
X132584891Y-120972594D01*
X132349109Y-120836466D01*
X132086128Y-120766000D01*
X131813872Y-120766000D01*
X131550891Y-120836466D01*
X131450000Y-120894715D01*
X131349109Y-120836466D01*
X131086128Y-120766000D01*
X130813872Y-120766000D01*
X130550891Y-120836466D01*
X130500000Y-120865848D01*
X130449109Y-120836466D01*
X130186128Y-120766000D01*
X129913872Y-120766000D01*
X129650891Y-120836466D01*
X129415109Y-120972594D01*
X129222594Y-121165109D01*
X129086466Y-121400891D01*
X129016000Y-121663872D01*
X107090907Y-121663872D01*
X107054690Y-121601143D01*
X106862175Y-121408628D01*
X106626393Y-121272500D01*
X106363412Y-121202034D01*
X106091156Y-121202034D01*
X105828175Y-121272500D01*
X105592393Y-121408628D01*
X105399878Y-121601143D01*
X105263750Y-121836925D01*
X105235099Y-121943849D01*
X105176957Y-121959428D01*
X105026393Y-121872500D01*
X104763412Y-121802034D01*
X104491156Y-121802034D01*
X104228175Y-121872500D01*
X103992393Y-122008628D01*
X103799878Y-122201143D01*
X103663750Y-122436925D01*
X103593284Y-122699906D01*
X85634000Y-122699906D01*
X85634000Y-119563872D01*
X117566000Y-119563872D01*
X117566000Y-119836128D01*
X117636466Y-120099109D01*
X117772594Y-120334891D01*
X117965109Y-120527406D01*
X118200891Y-120663534D01*
X118463872Y-120734000D01*
X118736128Y-120734000D01*
X118999109Y-120663534D01*
X119150000Y-120576418D01*
X119300891Y-120663534D01*
X119563872Y-120734000D01*
X119836128Y-120734000D01*
X120099109Y-120663534D01*
X120334891Y-120527406D01*
X120527406Y-120334891D01*
X120663534Y-120099109D01*
X120734000Y-119836128D01*
X120734000Y-119563872D01*
X120663534Y-119300891D01*
X120527406Y-119065109D01*
X120334891Y-118872594D01*
X120099109Y-118736466D01*
X119836128Y-118666000D01*
X119563872Y-118666000D01*
X119300891Y-118736466D01*
X119150000Y-118823582D01*
X118999109Y-118736466D01*
X118736128Y-118666000D01*
X118463872Y-118666000D01*
X118200891Y-118736466D01*
X117965109Y-118872594D01*
X117772594Y-119065109D01*
X117636466Y-119300891D01*
X117566000Y-119563872D01*
X85634000Y-119563872D01*
X85634000Y-116363872D01*
X117566000Y-116363872D01*
X117566000Y-116636128D01*
X117636466Y-116899109D01*
X117772594Y-117134891D01*
X117965109Y-117327406D01*
X118200891Y-117463534D01*
X118463872Y-117534000D01*
X118736128Y-117534000D01*
X118999109Y-117463534D01*
X119234891Y-117327406D01*
X119236144Y-117326153D01*
X119300891Y-117363534D01*
X119563872Y-117434000D01*
X119836128Y-117434000D01*
X120099109Y-117363534D01*
X120334891Y-117227406D01*
X120527406Y-117034891D01*
X120663534Y-116799109D01*
X120734000Y-116536128D01*
X120734000Y-116263872D01*
X120663534Y-116000891D01*
X120527406Y-115765109D01*
X120334891Y-115572594D01*
X120099109Y-115436466D01*
X119836128Y-115366000D01*
X119563872Y-115366000D01*
X119300891Y-115436466D01*
X119065109Y-115572594D01*
X119063856Y-115573847D01*
X118999109Y-115536466D01*
X118736128Y-115466000D01*
X118463872Y-115466000D01*
X118200891Y-115536466D01*
X117965109Y-115672594D01*
X117772594Y-115865109D01*
X117636466Y-116100891D01*
X117566000Y-116363872D01*
X85634000Y-116363872D01*
X85634000Y-113463872D01*
X120866000Y-113463872D01*
X120866000Y-113736128D01*
X120936466Y-113999109D01*
X121072594Y-114234891D01*
X121265109Y-114427406D01*
X121500891Y-114563534D01*
X121763872Y-114634000D01*
X122036128Y-114634000D01*
X122299109Y-114563534D01*
X122300001Y-114563019D01*
X122336466Y-114699109D01*
X122472594Y-114934891D01*
X122665109Y-115127406D01*
X122900891Y-115263534D01*
X123163872Y-115334000D01*
X123436128Y-115334000D01*
X123600516Y-115289952D01*
X123536466Y-115400891D01*
X123466000Y-115663872D01*
X123466000Y-115936128D01*
X123536466Y-116199109D01*
X123672594Y-116434891D01*
X123865109Y-116627406D01*
X124100891Y-116763534D01*
X124342073Y-116828159D01*
X124265109Y-116872594D01*
X124072594Y-117065109D01*
X124014345Y-117166000D01*
X123863872Y-117166000D01*
X123600891Y-117236466D01*
X123365109Y-117372594D01*
X123172594Y-117565109D01*
X123036466Y-117800891D01*
X122966000Y-118063872D01*
X122966000Y-118336128D01*
X123036466Y-118599109D01*
X123172594Y-118834891D01*
X123365109Y-119027406D01*
X123600891Y-119163534D01*
X123689983Y-119187406D01*
X123623956Y-119301770D01*
X123553490Y-119564751D01*
X123553490Y-119837007D01*
X123623956Y-120099988D01*
X123760084Y-120335770D01*
X123952599Y-120528285D01*
X124188381Y-120664413D01*
X124451362Y-120734879D01*
X124723618Y-120734879D01*
X124986599Y-120664413D01*
X125094506Y-120602113D01*
X125200891Y-120663534D01*
X125463872Y-120734000D01*
X125736128Y-120734000D01*
X125999109Y-120663534D01*
X126234891Y-120527406D01*
X126427406Y-120334891D01*
X126563534Y-120099109D01*
X126634000Y-119836128D01*
X126634000Y-119563872D01*
X126563534Y-119300891D01*
X126427406Y-119065109D01*
X126234891Y-118872594D01*
X125999109Y-118736466D01*
X125736128Y-118666000D01*
X125463872Y-118666000D01*
X125200891Y-118736466D01*
X125092984Y-118798766D01*
X124986599Y-118737345D01*
X124974115Y-118734000D01*
X125036128Y-118734000D01*
X125299109Y-118663534D01*
X125534891Y-118527406D01*
X125727406Y-118334891D01*
X125863534Y-118099109D01*
X125926565Y-117863872D01*
X126166000Y-117863872D01*
X126166000Y-118136128D01*
X126236466Y-118399109D01*
X126372594Y-118634891D01*
X126565109Y-118827406D01*
X126574343Y-118832737D01*
X126566000Y-118863872D01*
X126566000Y-119136128D01*
X126636466Y-119399109D01*
X126772594Y-119634891D01*
X126965109Y-119827406D01*
X127200891Y-119963534D01*
X127463872Y-120034000D01*
X127736128Y-120034000D01*
X127999109Y-119963534D01*
X128234891Y-119827406D01*
X128427406Y-119634891D01*
X128563534Y-119399109D01*
X128634000Y-119136128D01*
X128634000Y-118863872D01*
X128567013Y-118613872D01*
X132316000Y-118613872D01*
X132316000Y-118886128D01*
X132386466Y-119149109D01*
X132522594Y-119384891D01*
X132715109Y-119577406D01*
X132950891Y-119713534D01*
X133066000Y-119744378D01*
X133066000Y-119836128D01*
X133136466Y-120099109D01*
X133272594Y-120334891D01*
X133465109Y-120527406D01*
X133700891Y-120663534D01*
X133963872Y-120734000D01*
X134236128Y-120734000D01*
X134499109Y-120663534D01*
X134734891Y-120527406D01*
X134927406Y-120334891D01*
X135063534Y-120099109D01*
X135134000Y-119836128D01*
X135134000Y-119758370D01*
X144771000Y-119758370D01*
X144787936Y-119931085D01*
X144855048Y-120153368D01*
X144964056Y-120358383D01*
X145110808Y-120538319D01*
X145289716Y-120686326D01*
X145493965Y-120796762D01*
X145827000Y-120899853D01*
X145827000Y-120896589D01*
X146082999Y-120896589D01*
X146400678Y-120803093D01*
X146606449Y-120695518D01*
X146787405Y-120550024D01*
X146936657Y-120372154D01*
X147048516Y-120168682D01*
X147118859Y-119946934D01*
X147139000Y-119755306D01*
X147139000Y-119278000D01*
X146083000Y-119277999D01*
X146082999Y-120896589D01*
X145827000Y-120896589D01*
X145827001Y-119278000D01*
X144771000Y-119277999D01*
X144771000Y-119758370D01*
X135134000Y-119758370D01*
X135134000Y-119563872D01*
X135063534Y-119300891D01*
X134927406Y-119065109D01*
X134734891Y-118872594D01*
X134499109Y-118736466D01*
X134384000Y-118705622D01*
X134384000Y-118613872D01*
X134365464Y-118544695D01*
X144771000Y-118544695D01*
X144771000Y-119022000D01*
X145827000Y-119022001D01*
X145827000Y-119022000D01*
X146082999Y-119022000D01*
X147139000Y-119022001D01*
X147139000Y-118541631D01*
X147122065Y-118368915D01*
X147054953Y-118146632D01*
X146945945Y-117941617D01*
X146799193Y-117761681D01*
X146620285Y-117613674D01*
X146416035Y-117503238D01*
X146083000Y-117400147D01*
X146082999Y-119022000D01*
X145827000Y-119022000D01*
X145827001Y-117403411D01*
X145509322Y-117496907D01*
X145303551Y-117604482D01*
X145122595Y-117749976D01*
X144973343Y-117927846D01*
X144861484Y-118131320D01*
X144791141Y-118353067D01*
X144771000Y-118544695D01*
X134365464Y-118544695D01*
X134313534Y-118350891D01*
X134177406Y-118115109D01*
X133984891Y-117922594D01*
X133749109Y-117786466D01*
X133486128Y-117716000D01*
X133213872Y-117716000D01*
X132950891Y-117786466D01*
X132715109Y-117922594D01*
X132522594Y-118115109D01*
X132386466Y-118350891D01*
X132316000Y-118613872D01*
X128567013Y-118613872D01*
X128563534Y-118600891D01*
X128427406Y-118365109D01*
X128234891Y-118172594D01*
X128225657Y-118167263D01*
X128234000Y-118136128D01*
X128234000Y-117863872D01*
X128163534Y-117600891D01*
X128027406Y-117365109D01*
X127834891Y-117172594D01*
X127599109Y-117036466D01*
X127336128Y-116966000D01*
X127063872Y-116966000D01*
X126800891Y-117036466D01*
X126565109Y-117172594D01*
X126372594Y-117365109D01*
X126236466Y-117600891D01*
X126166000Y-117863872D01*
X125926565Y-117863872D01*
X125934000Y-117836128D01*
X125934000Y-117563872D01*
X125863534Y-117300891D01*
X125831252Y-117244976D01*
X126034891Y-117127406D01*
X126227406Y-116934891D01*
X126363534Y-116699109D01*
X126434000Y-116436128D01*
X126434000Y-116301029D01*
X133346983Y-116301029D01*
X133346983Y-116573285D01*
X133417449Y-116836266D01*
X133553577Y-117072048D01*
X133746092Y-117264563D01*
X133981874Y-117400691D01*
X134244855Y-117471157D01*
X134517111Y-117471157D01*
X134780092Y-117400691D01*
X135015874Y-117264563D01*
X135084247Y-117196190D01*
X135200891Y-117263534D01*
X135463872Y-117334000D01*
X135736128Y-117334000D01*
X135999109Y-117263534D01*
X136234891Y-117127406D01*
X136427406Y-116934891D01*
X136563534Y-116699109D01*
X136634000Y-116436128D01*
X136634000Y-116363872D01*
X137566000Y-116363872D01*
X137566000Y-116636128D01*
X137636466Y-116899109D01*
X137772594Y-117134891D01*
X137965109Y-117327406D01*
X138200891Y-117463534D01*
X138463872Y-117534000D01*
X138736128Y-117534000D01*
X138999109Y-117463534D01*
X139234891Y-117327406D01*
X139427406Y-117134891D01*
X139563534Y-116899109D01*
X139601245Y-116758369D01*
X142621000Y-116758369D01*
X142637935Y-116931085D01*
X142705048Y-117153368D01*
X142814056Y-117358383D01*
X142960808Y-117538319D01*
X143139716Y-117686326D01*
X143343965Y-117796762D01*
X143677000Y-117899853D01*
X143677000Y-117896589D01*
X143932999Y-117896589D01*
X144250678Y-117803093D01*
X144456449Y-117695518D01*
X144637405Y-117550024D01*
X144786657Y-117372154D01*
X144898516Y-117168682D01*
X144968859Y-116946933D01*
X144989000Y-116755305D01*
X144989000Y-116478000D01*
X143933000Y-116477999D01*
X143932999Y-117896589D01*
X143677000Y-117896589D01*
X143677001Y-116478000D01*
X142621000Y-116477999D01*
X142621000Y-116758369D01*
X139601245Y-116758369D01*
X139634000Y-116636128D01*
X139634000Y-116363872D01*
X139563534Y-116100891D01*
X139473355Y-115944695D01*
X142621000Y-115944695D01*
X142621000Y-116222000D01*
X143677000Y-116222001D01*
X143677000Y-116222000D01*
X143932999Y-116222000D01*
X144989000Y-116222001D01*
X144989000Y-115941631D01*
X144972065Y-115768915D01*
X144904953Y-115546632D01*
X144795945Y-115341617D01*
X144649193Y-115161681D01*
X144470285Y-115013674D01*
X144266035Y-114903238D01*
X143933000Y-114800147D01*
X143932999Y-116222000D01*
X143677000Y-116222000D01*
X143677001Y-114803411D01*
X143359322Y-114896907D01*
X143153551Y-115004482D01*
X142972595Y-115149976D01*
X142823343Y-115327846D01*
X142711484Y-115531320D01*
X142641141Y-115753067D01*
X142621000Y-115944695D01*
X139473355Y-115944695D01*
X139427406Y-115865109D01*
X139234891Y-115672594D01*
X138999109Y-115536466D01*
X138736128Y-115466000D01*
X138463872Y-115466000D01*
X138200891Y-115536466D01*
X137965109Y-115672594D01*
X137772594Y-115865109D01*
X137636466Y-116100891D01*
X137566000Y-116363872D01*
X136634000Y-116363872D01*
X136634000Y-116163872D01*
X136563534Y-115900891D01*
X136427406Y-115665109D01*
X136234891Y-115472594D01*
X135999109Y-115336466D01*
X135736128Y-115266000D01*
X135463872Y-115266000D01*
X135200891Y-115336466D01*
X134965109Y-115472594D01*
X134896736Y-115540967D01*
X134780092Y-115473623D01*
X134517111Y-115403157D01*
X134244855Y-115403157D01*
X133981874Y-115473623D01*
X133746092Y-115609751D01*
X133553577Y-115802266D01*
X133417449Y-116038048D01*
X133346983Y-116301029D01*
X126434000Y-116301029D01*
X126434000Y-116163872D01*
X126363534Y-115900891D01*
X126227406Y-115665109D01*
X126034891Y-115472594D01*
X125799109Y-115336466D01*
X125536128Y-115266000D01*
X125385655Y-115266000D01*
X125327406Y-115165109D01*
X125246921Y-115084624D01*
X125396644Y-114934901D01*
X125532772Y-114699119D01*
X125603238Y-114436138D01*
X125603238Y-114163882D01*
X125603236Y-114163872D01*
X127166000Y-114163872D01*
X127166000Y-114436128D01*
X127236466Y-114699109D01*
X127372594Y-114934891D01*
X127565109Y-115127406D01*
X127800891Y-115263534D01*
X128063872Y-115334000D01*
X128336128Y-115334000D01*
X128599109Y-115263534D01*
X128834891Y-115127406D01*
X129027406Y-114934891D01*
X129163534Y-114699109D01*
X129234000Y-114436128D01*
X129234000Y-114163872D01*
X129163534Y-113900891D01*
X129084427Y-113763872D01*
X138666000Y-113763872D01*
X138666000Y-114036128D01*
X138736466Y-114299109D01*
X138872594Y-114534891D01*
X139065109Y-114727406D01*
X139300891Y-114863534D01*
X139563872Y-114934000D01*
X139836128Y-114934000D01*
X140099109Y-114863534D01*
X140334891Y-114727406D01*
X140527406Y-114534891D01*
X140663534Y-114299109D01*
X140734000Y-114036128D01*
X140734000Y-113763872D01*
X140663534Y-113500891D01*
X140527406Y-113265109D01*
X140334891Y-113072594D01*
X140099109Y-112936466D01*
X139836128Y-112866000D01*
X139563872Y-112866000D01*
X139300891Y-112936466D01*
X139065109Y-113072594D01*
X138872594Y-113265109D01*
X138736466Y-113500891D01*
X138666000Y-113763872D01*
X129084427Y-113763872D01*
X129027406Y-113665109D01*
X128834891Y-113472594D01*
X128599109Y-113336466D01*
X128336128Y-113266000D01*
X128063872Y-113266000D01*
X127800891Y-113336466D01*
X127565109Y-113472594D01*
X127372594Y-113665109D01*
X127236466Y-113900891D01*
X127166000Y-114163872D01*
X125603236Y-114163872D01*
X125532772Y-113900901D01*
X125396644Y-113665119D01*
X125346911Y-113615386D01*
X125427406Y-113534891D01*
X125563534Y-113299109D01*
X125634000Y-113036128D01*
X125634000Y-112763872D01*
X125563534Y-112500891D01*
X125427406Y-112265109D01*
X125234891Y-112072594D01*
X124999109Y-111936466D01*
X124963017Y-111926795D01*
X125199109Y-111863534D01*
X125434891Y-111727406D01*
X125627406Y-111534891D01*
X125763534Y-111299109D01*
X125834000Y-111036128D01*
X125834000Y-110863872D01*
X127966000Y-110863872D01*
X127966000Y-111136128D01*
X128036466Y-111399109D01*
X128172594Y-111634891D01*
X128365109Y-111827406D01*
X128600891Y-111963534D01*
X128863872Y-112034000D01*
X129136128Y-112034000D01*
X129399109Y-111963534D01*
X129634891Y-111827406D01*
X129827406Y-111634891D01*
X129963534Y-111399109D01*
X130034000Y-111136128D01*
X130034000Y-110863872D01*
X130020603Y-110813872D01*
X132266000Y-110813872D01*
X132266000Y-111086128D01*
X132336466Y-111349109D01*
X132472594Y-111584891D01*
X132665109Y-111777406D01*
X132900891Y-111913534D01*
X132991567Y-111937831D01*
X133043583Y-112131956D01*
X133179711Y-112367738D01*
X133372226Y-112560253D01*
X133608008Y-112696381D01*
X133870989Y-112766847D01*
X134143245Y-112766847D01*
X134406226Y-112696381D01*
X134642008Y-112560253D01*
X134834523Y-112367738D01*
X134970651Y-112131956D01*
X134989569Y-112061352D01*
X135968520Y-112061352D01*
X135968520Y-112333608D01*
X136038986Y-112596589D01*
X136175114Y-112832371D01*
X136367629Y-113024886D01*
X136603411Y-113161014D01*
X136866392Y-113231480D01*
X137138648Y-113231480D01*
X137401629Y-113161014D01*
X137637411Y-113024886D01*
X137829926Y-112832371D01*
X137966054Y-112596589D01*
X138036520Y-112333608D01*
X138036520Y-112061352D01*
X137966054Y-111798371D01*
X137829926Y-111562589D01*
X137637411Y-111370074D01*
X137401629Y-111233946D01*
X137138648Y-111163480D01*
X136866392Y-111163480D01*
X136603411Y-111233946D01*
X136367629Y-111370074D01*
X136175114Y-111562589D01*
X136038986Y-111798371D01*
X135968520Y-112061352D01*
X134989569Y-112061352D01*
X135041117Y-111868975D01*
X135041117Y-111596719D01*
X134970651Y-111333738D01*
X134834523Y-111097956D01*
X134642008Y-110905441D01*
X134406226Y-110769313D01*
X134315550Y-110745016D01*
X134263534Y-110550891D01*
X134127406Y-110315109D01*
X133934891Y-110122594D01*
X133699109Y-109986466D01*
X133436128Y-109916000D01*
X133163872Y-109916000D01*
X132900891Y-109986466D01*
X132665109Y-110122594D01*
X132472594Y-110315109D01*
X132336466Y-110550891D01*
X132266000Y-110813872D01*
X130020603Y-110813872D01*
X129963534Y-110600891D01*
X129919515Y-110524647D01*
X129965866Y-110537067D01*
X130238122Y-110537067D01*
X130501103Y-110466601D01*
X130736885Y-110330473D01*
X130929400Y-110137958D01*
X131065528Y-109902176D01*
X131135994Y-109639195D01*
X131135994Y-109366939D01*
X131065528Y-109103958D01*
X130929400Y-108868176D01*
X130736885Y-108675661D01*
X130501103Y-108539533D01*
X130238122Y-108469067D01*
X129965866Y-108469067D01*
X129702885Y-108539533D01*
X129467103Y-108675661D01*
X129274588Y-108868176D01*
X129138460Y-109103958D01*
X129067994Y-109366939D01*
X129067994Y-109639195D01*
X129138460Y-109902176D01*
X129182479Y-109978420D01*
X129136128Y-109966000D01*
X128863872Y-109966000D01*
X128600891Y-110036466D01*
X128365109Y-110172594D01*
X128172594Y-110365109D01*
X128036466Y-110600891D01*
X127966000Y-110863872D01*
X125834000Y-110863872D01*
X125834000Y-110763872D01*
X125763534Y-110500891D01*
X125627406Y-110265109D01*
X125434891Y-110072594D01*
X125199109Y-109936466D01*
X124936128Y-109866000D01*
X124663872Y-109866000D01*
X124400891Y-109936466D01*
X124165109Y-110072594D01*
X123972594Y-110265109D01*
X123836466Y-110500891D01*
X123766000Y-110763872D01*
X123766000Y-111036128D01*
X123836466Y-111299109D01*
X123972594Y-111534891D01*
X124165109Y-111727406D01*
X124400891Y-111863534D01*
X124436983Y-111873205D01*
X124200891Y-111936466D01*
X123965109Y-112072594D01*
X123772594Y-112265109D01*
X123636466Y-112500891D01*
X123566000Y-112763872D01*
X123566000Y-113036128D01*
X123636466Y-113299109D01*
X123650517Y-113323446D01*
X123436128Y-113266000D01*
X123163872Y-113266000D01*
X122900891Y-113336466D01*
X122899999Y-113336981D01*
X122863534Y-113200891D01*
X122727406Y-112965109D01*
X122534891Y-112772594D01*
X122299109Y-112636466D01*
X122036128Y-112566000D01*
X121763872Y-112566000D01*
X121500891Y-112636466D01*
X121265109Y-112772594D01*
X121072594Y-112965109D01*
X120936466Y-113200891D01*
X120866000Y-113463872D01*
X85634000Y-113463872D01*
X85634000Y-110463872D01*
X120066000Y-110463872D01*
X120066000Y-110736128D01*
X120136466Y-110999109D01*
X120272594Y-111234891D01*
X120465109Y-111427406D01*
X120700891Y-111563534D01*
X120963872Y-111634000D01*
X121236128Y-111634000D01*
X121499109Y-111563534D01*
X121734891Y-111427406D01*
X121927406Y-111234891D01*
X122063534Y-110999109D01*
X122134000Y-110736128D01*
X122134000Y-110463872D01*
X122063534Y-110200891D01*
X121927406Y-109965109D01*
X121734891Y-109772594D01*
X121499109Y-109636466D01*
X121236128Y-109566000D01*
X120963872Y-109566000D01*
X120700891Y-109636466D01*
X120465109Y-109772594D01*
X120272594Y-109965109D01*
X120136466Y-110200891D01*
X120066000Y-110463872D01*
X85634000Y-110463872D01*
X85634000Y-109063872D01*
X115466000Y-109063872D01*
X115466000Y-109336128D01*
X115536466Y-109599109D01*
X115672594Y-109834891D01*
X115865109Y-110027406D01*
X116100891Y-110163534D01*
X116363872Y-110234000D01*
X116636128Y-110234000D01*
X116899109Y-110163534D01*
X117134891Y-110027406D01*
X117327406Y-109834891D01*
X117463534Y-109599109D01*
X117534000Y-109336128D01*
X117534000Y-109063872D01*
X117463534Y-108800891D01*
X117327406Y-108565109D01*
X117134891Y-108372594D01*
X116899109Y-108236466D01*
X116636128Y-108166000D01*
X116363872Y-108166000D01*
X116100891Y-108236466D01*
X115865109Y-108372594D01*
X115672594Y-108565109D01*
X115536466Y-108800891D01*
X115466000Y-109063872D01*
X85634000Y-109063872D01*
X85634000Y-106263872D01*
X120466000Y-106263872D01*
X120466000Y-106536128D01*
X120536466Y-106799109D01*
X120672594Y-107034891D01*
X120865109Y-107227406D01*
X121100891Y-107363534D01*
X121363872Y-107434000D01*
X121636128Y-107434000D01*
X121784669Y-107394198D01*
X121766000Y-107463872D01*
X121766000Y-107736128D01*
X121836466Y-107999109D01*
X121972594Y-108234891D01*
X122165109Y-108427406D01*
X122400891Y-108563534D01*
X122663872Y-108634000D01*
X122936128Y-108634000D01*
X123199109Y-108563534D01*
X123434891Y-108427406D01*
X123472746Y-108389550D01*
X123600891Y-108463534D01*
X123863872Y-108534000D01*
X124136128Y-108534000D01*
X124290479Y-108492642D01*
X124372594Y-108634870D01*
X124565109Y-108827385D01*
X124800891Y-108963513D01*
X125063872Y-109033979D01*
X125336128Y-109033979D01*
X125599109Y-108963513D01*
X125834891Y-108827385D01*
X126027406Y-108634870D01*
X126163534Y-108399088D01*
X126234000Y-108136107D01*
X126234000Y-107863872D01*
X134666000Y-107863872D01*
X134666000Y-108136128D01*
X134736466Y-108399109D01*
X134872594Y-108634891D01*
X135065109Y-108827406D01*
X135300891Y-108963534D01*
X135563872Y-109034000D01*
X135836128Y-109034000D01*
X136099109Y-108963534D01*
X136334891Y-108827406D01*
X136527406Y-108634891D01*
X136663534Y-108399109D01*
X136680980Y-108334000D01*
X136836128Y-108334000D01*
X137099109Y-108263534D01*
X137334891Y-108127406D01*
X137527406Y-107934891D01*
X137663534Y-107699109D01*
X137734000Y-107436128D01*
X137734000Y-107263872D01*
X140266000Y-107263872D01*
X140266000Y-107536128D01*
X140336466Y-107799109D01*
X140472594Y-108034891D01*
X140665109Y-108227406D01*
X140900891Y-108363534D01*
X141163872Y-108434000D01*
X141436128Y-108434000D01*
X141699109Y-108363534D01*
X141934891Y-108227406D01*
X142127406Y-108034891D01*
X142263534Y-107799109D01*
X142334000Y-107536128D01*
X142334000Y-107263872D01*
X142263534Y-107000891D01*
X142127406Y-106765109D01*
X141934891Y-106572594D01*
X141699109Y-106436466D01*
X141436128Y-106366000D01*
X141163872Y-106366000D01*
X140900891Y-106436466D01*
X140665109Y-106572594D01*
X140472594Y-106765109D01*
X140336466Y-107000891D01*
X140266000Y-107263872D01*
X137734000Y-107263872D01*
X137734000Y-107163872D01*
X137663534Y-106900891D01*
X137527406Y-106665109D01*
X137334891Y-106472594D01*
X137099109Y-106336466D01*
X136836128Y-106266000D01*
X136563872Y-106266000D01*
X136300891Y-106336466D01*
X136065109Y-106472594D01*
X135872594Y-106665109D01*
X135736466Y-106900891D01*
X135719020Y-106966000D01*
X135563872Y-106966000D01*
X135300891Y-107036466D01*
X135065109Y-107172594D01*
X134872594Y-107365109D01*
X134736466Y-107600891D01*
X134666000Y-107863872D01*
X126234000Y-107863872D01*
X126234000Y-107863851D01*
X126163534Y-107600870D01*
X126027406Y-107365088D01*
X125834891Y-107172573D01*
X125599109Y-107036445D01*
X125336128Y-106965979D01*
X125063872Y-106965979D01*
X124909521Y-107007337D01*
X124827406Y-106865109D01*
X124634891Y-106672594D01*
X124399109Y-106536466D01*
X124136128Y-106466000D01*
X123863872Y-106466000D01*
X123600891Y-106536466D01*
X123365109Y-106672594D01*
X123327254Y-106710450D01*
X123199109Y-106636466D01*
X122936128Y-106566000D01*
X122663872Y-106566000D01*
X122515331Y-106605802D01*
X122534000Y-106536128D01*
X122534000Y-106263872D01*
X122463534Y-106000891D01*
X122327406Y-105765109D01*
X122134891Y-105572594D01*
X121899109Y-105436466D01*
X121636128Y-105366000D01*
X121363872Y-105366000D01*
X121100891Y-105436466D01*
X120865109Y-105572594D01*
X120672594Y-105765109D01*
X120536466Y-106000891D01*
X120466000Y-106263872D01*
X85634000Y-106263872D01*
X85634000Y-104763872D01*
X127166000Y-104763872D01*
X127166000Y-105036128D01*
X127236466Y-105299109D01*
X127372594Y-105534891D01*
X127565109Y-105727406D01*
X127800891Y-105863534D01*
X128063872Y-105934000D01*
X128336128Y-105934000D01*
X128599109Y-105863534D01*
X128766000Y-105767180D01*
X128766000Y-105936128D01*
X128836466Y-106199109D01*
X128972594Y-106434891D01*
X129165109Y-106627406D01*
X129400891Y-106763534D01*
X129663872Y-106834000D01*
X129936128Y-106834000D01*
X130199109Y-106763534D01*
X130434891Y-106627406D01*
X130627406Y-106434891D01*
X130763534Y-106199109D01*
X130834000Y-105936128D01*
X130834000Y-105663872D01*
X130815872Y-105596216D01*
X138615946Y-105596216D01*
X138637327Y-105814273D01*
X138702118Y-106023576D01*
X138807670Y-106215576D01*
X138949675Y-106382432D01*
X139122330Y-106517324D01*
X139318583Y-106614745D01*
X139530416Y-106670714D01*
X139749176Y-106682944D01*
X139965928Y-106650938D01*
X140171816Y-106576000D01*
X140358432Y-106461193D01*
X140518151Y-106311208D01*
X140644449Y-106132169D01*
X140732166Y-105931392D01*
X140777766Y-105716861D01*
X140778556Y-105490666D01*
X140734454Y-105275822D01*
X140648140Y-105074437D01*
X140523096Y-104894522D01*
X140364429Y-104743424D01*
X140178619Y-104627318D01*
X139973258Y-104550945D01*
X139756735Y-104517425D01*
X139537894Y-104528129D01*
X139325675Y-104582617D01*
X139128748Y-104678665D01*
X138955156Y-104812349D01*
X138811990Y-104978209D01*
X138705099Y-105169468D01*
X138638849Y-105378314D01*
X138615946Y-105596216D01*
X130815872Y-105596216D01*
X130763534Y-105400891D01*
X130627406Y-105165109D01*
X130434891Y-104972594D01*
X130199109Y-104836466D01*
X129936128Y-104766000D01*
X129663872Y-104766000D01*
X129400891Y-104836466D01*
X129234000Y-104932820D01*
X129234000Y-104763872D01*
X129163534Y-104500891D01*
X129027406Y-104265109D01*
X128834891Y-104072594D01*
X128599109Y-103936466D01*
X128336128Y-103866000D01*
X128063872Y-103866000D01*
X127800891Y-103936466D01*
X127565109Y-104072594D01*
X127372594Y-104265109D01*
X127236466Y-104500891D01*
X127166000Y-104763872D01*
X85634000Y-104763872D01*
X85634000Y-99863872D01*
X136566000Y-99863872D01*
X136566000Y-100136128D01*
X136636466Y-100399109D01*
X136772594Y-100634891D01*
X136965109Y-100827406D01*
X137200891Y-100963534D01*
X137463872Y-101034000D01*
X137735828Y-101034000D01*
X137791670Y-101135576D01*
X137933675Y-101302432D01*
X138106330Y-101437324D01*
X138302583Y-101534745D01*
X138514416Y-101590714D01*
X138733176Y-101602944D01*
X138949928Y-101570938D01*
X139155816Y-101496000D01*
X139342432Y-101381193D01*
X139502151Y-101231208D01*
X139628449Y-101052169D01*
X139700607Y-100887006D01*
X139718118Y-100943576D01*
X139823670Y-101135576D01*
X139965675Y-101302432D01*
X140138330Y-101437324D01*
X140334583Y-101534745D01*
X140546416Y-101590714D01*
X140765176Y-101602944D01*
X140981928Y-101570938D01*
X141187816Y-101496000D01*
X141374432Y-101381193D01*
X141534151Y-101231208D01*
X141660449Y-101052169D01*
X141748166Y-100851392D01*
X141793766Y-100636861D01*
X141794556Y-100410666D01*
X141750454Y-100195822D01*
X141664140Y-99994437D01*
X141539096Y-99814522D01*
X141380429Y-99663424D01*
X141194619Y-99547318D01*
X140989258Y-99470945D01*
X140772735Y-99437425D01*
X140553894Y-99448129D01*
X140341675Y-99502617D01*
X140144748Y-99598665D01*
X139971156Y-99732349D01*
X139827990Y-99898209D01*
X139721099Y-100089468D01*
X139700586Y-100154133D01*
X139632140Y-99994437D01*
X139507096Y-99814522D01*
X139348429Y-99663424D01*
X139162619Y-99547318D01*
X138957258Y-99470945D01*
X138740735Y-99437425D01*
X138521895Y-99448129D01*
X138481348Y-99458539D01*
X138427406Y-99365109D01*
X138234891Y-99172594D01*
X137999109Y-99036466D01*
X137736128Y-98966000D01*
X137463872Y-98966000D01*
X137200891Y-99036466D01*
X136965109Y-99172594D01*
X136772594Y-99365109D01*
X136636466Y-99600891D01*
X136566000Y-99863872D01*
X85634000Y-99863872D01*
X85634000Y-96428898D01*
X86764496Y-96428898D01*
X86802672Y-96731098D01*
X86881510Y-97025321D01*
X86999547Y-97306122D01*
X87154602Y-97568307D01*
X87343805Y-97807021D01*
X87563655Y-98017849D01*
X87810083Y-98196890D01*
X88078530Y-98340830D01*
X88364028Y-98447006D01*
X88661294Y-98513452D01*
X88964828Y-98538941D01*
X89269012Y-98523000D01*
X89568220Y-98465923D01*
X89856911Y-98368767D01*
X90129747Y-98233330D01*
X90381678Y-98062119D01*
X90608041Y-97858300D01*
X90804649Y-97625646D01*
X90967863Y-97368463D01*
X91094663Y-97091507D01*
X91182702Y-96799906D01*
X91230456Y-96498399D01*
X91231183Y-96428898D01*
X141764496Y-96428898D01*
X141802672Y-96731098D01*
X141881510Y-97025321D01*
X141999547Y-97306122D01*
X142154602Y-97568307D01*
X142343805Y-97807021D01*
X142563655Y-98017849D01*
X142810083Y-98196890D01*
X143078530Y-98340830D01*
X143364028Y-98447006D01*
X143661294Y-98513452D01*
X143964828Y-98538941D01*
X144269012Y-98523000D01*
X144568220Y-98465923D01*
X144856911Y-98368767D01*
X145129747Y-98233330D01*
X145381678Y-98062119D01*
X145608041Y-97858300D01*
X145804649Y-97625646D01*
X145967863Y-97368463D01*
X146094663Y-97091507D01*
X146182702Y-96799906D01*
X146230456Y-96498399D01*
X146234122Y-96148356D01*
X146192692Y-95845916D01*
X146110780Y-95552534D01*
X145989808Y-95272984D01*
X145832015Y-95012438D01*
X145640323Y-94775718D01*
X145418277Y-94567204D01*
X145169988Y-94390753D01*
X144900049Y-94249633D01*
X144613454Y-94146452D01*
X144315509Y-94083121D01*
X144011724Y-94060813D01*
X143707723Y-94079939D01*
X143409131Y-94140147D01*
X143121472Y-94240319D01*
X142850070Y-94378606D01*
X142599946Y-94552446D01*
X142375729Y-94758624D01*
X142181568Y-94993324D01*
X142021057Y-95252203D01*
X141897163Y-95530471D01*
X141812183Y-95822979D01*
X141767685Y-96124313D01*
X141764496Y-96428898D01*
X91231183Y-96428898D01*
X91234122Y-96148356D01*
X91192692Y-95845916D01*
X91110780Y-95552534D01*
X90989808Y-95272984D01*
X90832015Y-95012438D01*
X90640323Y-94775718D01*
X90418277Y-94567204D01*
X90169988Y-94390753D01*
X89900049Y-94249633D01*
X89613454Y-94146452D01*
X89315509Y-94083121D01*
X89011724Y-94060813D01*
X88707723Y-94079939D01*
X88409131Y-94140147D01*
X88121472Y-94240319D01*
X87850070Y-94378606D01*
X87599946Y-94552446D01*
X87375729Y-94758624D01*
X87181568Y-94993324D01*
X87021057Y-95252203D01*
X86897163Y-95530471D01*
X86812183Y-95822979D01*
X86767685Y-96124313D01*
X86764496Y-96428898D01*
X85634000Y-96428898D01*
X85634000Y-93634000D01*
X147366001Y-93634000D01*
X147366000Y-142366000D01*
G37*
D15*
X147366000Y-142366000D02*
X85634000Y-142366000D01*
X85634000Y-137301471D01*
X90608163Y-137301471D01*
X90608163Y-139829083D01*
X90688795Y-140130007D01*
X90836185Y-140305660D01*
X91029814Y-140417451D01*
X91238976Y-140454332D01*
X93766588Y-140454332D01*
X94067512Y-140373700D01*
X94243165Y-140226310D01*
X94354956Y-140032681D01*
X94391837Y-139823519D01*
X94391837Y-138653139D01*
X95692899Y-138653139D01*
X95727025Y-138931074D01*
X95801859Y-139200913D01*
X95915754Y-139456727D01*
X96066210Y-139692896D01*
X96249922Y-139904231D01*
X96462853Y-140086092D01*
X96700326Y-140234481D01*
X96957123Y-140346140D01*
X97227604Y-140418615D01*
X97505828Y-140450315D01*
X97785680Y-140440542D01*
X98061013Y-140389512D01*
X98325780Y-140298346D01*
X98574164Y-140169046D01*
X98800707Y-140004452D01*
X99000433Y-139808182D01*
X99168955Y-139584546D01*
X99302571Y-139338456D01*
X99398344Y-139075321D01*
X99454502Y-138799293D01*
X99458329Y-138653139D01*
X100772899Y-138653139D01*
X100807025Y-138931074D01*
X100881859Y-139200913D01*
X100995754Y-139456727D01*
X101146210Y-139692896D01*
X101329922Y-139904231D01*
X101542853Y-140086092D01*
X101780326Y-140234481D01*
X102037123Y-140346140D01*
X102307604Y-140418615D01*
X102585828Y-140450315D01*
X102865680Y-140440542D01*
X103141013Y-140389512D01*
X103405780Y-140298346D01*
X103654164Y-140169046D01*
X103880707Y-140004452D01*
X103903298Y-139982251D01*
X106501264Y-139982251D01*
X106622854Y-140086093D01*
X106860326Y-140234481D01*
X107117123Y-140346140D01*
X107387604Y-140418615D01*
X107665828Y-140450315D01*
X107945680Y-140440542D01*
X108221013Y-140389512D01*
X108485780Y-140298346D01*
X108734164Y-140169046D01*
X108984007Y-139987523D01*
X107740000Y-138743514D01*
X106501264Y-139982251D01*
X103903298Y-139982251D01*
X104080433Y-139808182D01*
X104248955Y-139584546D01*
X104382571Y-139338456D01*
X104478344Y-139075321D01*
X104534502Y-138799293D01*
X104538329Y-138653139D01*
X105852899Y-138653139D01*
X105887025Y-138931074D01*
X105961859Y-139200913D01*
X106075754Y-139456726D01*
X106304961Y-139816513D01*
X107558981Y-138562495D01*
X107921019Y-138562495D01*
X109163129Y-139804604D01*
X109328955Y-139584546D01*
X109462571Y-139338456D01*
X109558344Y-139075321D01*
X109614502Y-138799293D01*
X109624326Y-138424126D01*
X109582691Y-138145537D01*
X109500821Y-137877749D01*
X109380268Y-137625005D01*
X109170099Y-137313416D01*
X107921019Y-138562495D01*
X107558981Y-138562495D01*
X106313865Y-137317380D01*
X106124835Y-137582389D01*
X105997707Y-137831891D01*
X105908855Y-138097443D01*
X105860229Y-138373212D01*
X105852899Y-138653139D01*
X104538329Y-138653139D01*
X104544326Y-138424126D01*
X104502691Y-138145537D01*
X104420821Y-137877749D01*
X104300268Y-137625005D01*
X104143681Y-137392855D01*
X103954500Y-137186401D01*
X103897397Y-137140159D01*
X106498684Y-137140159D01*
X107740000Y-138381476D01*
X108820004Y-137301471D01*
X112108163Y-137301471D01*
X112108163Y-139829083D01*
X112188795Y-140130007D01*
X112336185Y-140305660D01*
X112529814Y-140417451D01*
X112738976Y-140454332D01*
X115266588Y-140454332D01*
X115567512Y-140373700D01*
X115743165Y-140226310D01*
X115854956Y-140032681D01*
X115891837Y-139823519D01*
X115891837Y-138653139D01*
X117192899Y-138653139D01*
X117227025Y-138931074D01*
X117301859Y-139200913D01*
X117415754Y-139456727D01*
X117566210Y-139692896D01*
X117749922Y-139904231D01*
X117962853Y-140086092D01*
X118200326Y-140234481D01*
X118457123Y-140346140D01*
X118727604Y-140418615D01*
X119005828Y-140450315D01*
X119285680Y-140440542D01*
X119561013Y-140389512D01*
X119825780Y-140298346D01*
X120074164Y-140169046D01*
X120300707Y-140004452D01*
X120500433Y-139808182D01*
X120668955Y-139584546D01*
X120802571Y-139338456D01*
X120898344Y-139075321D01*
X120954502Y-138799293D01*
X120958329Y-138653139D01*
X122272899Y-138653139D01*
X122307025Y-138931074D01*
X122381859Y-139200913D01*
X122495754Y-139456727D01*
X122646210Y-139692896D01*
X122829922Y-139904231D01*
X123042853Y-140086092D01*
X123280326Y-140234481D01*
X123537123Y-140346140D01*
X123807604Y-140418615D01*
X124085828Y-140450315D01*
X124365680Y-140440542D01*
X124641013Y-140389512D01*
X124905780Y-140298346D01*
X125154164Y-140169046D01*
X125380707Y-140004452D01*
X125403298Y-139982251D01*
X128001264Y-139982251D01*
X128122854Y-140086093D01*
X128360326Y-140234481D01*
X128617123Y-140346140D01*
X128887604Y-140418615D01*
X129165828Y-140450315D01*
X129445680Y-140440542D01*
X129721013Y-140389512D01*
X129985780Y-140298346D01*
X130234164Y-140169046D01*
X130484007Y-139987523D01*
X129240000Y-138743514D01*
X128001264Y-139982251D01*
X125403298Y-139982251D01*
X125580433Y-139808182D01*
X125748955Y-139584546D01*
X125882571Y-139338456D01*
X125978344Y-139075321D01*
X126034502Y-138799293D01*
X126038329Y-138653139D01*
X127352899Y-138653139D01*
X127387025Y-138931074D01*
X127461859Y-139200913D01*
X127575754Y-139456726D01*
X127804961Y-139816513D01*
X129058981Y-138562495D01*
X129421019Y-138562495D01*
X130663129Y-139804604D01*
X130828955Y-139584546D01*
X130962571Y-139338456D01*
X131058344Y-139075321D01*
X131114502Y-138799293D01*
X131124326Y-138424126D01*
X131082691Y-138145537D01*
X131000821Y-137877749D01*
X130880268Y-137625005D01*
X130670099Y-137313416D01*
X129421019Y-138562495D01*
X129058981Y-138562495D01*
X127813865Y-137317380D01*
X127624835Y-137582389D01*
X127497707Y-137831891D01*
X127408855Y-138097443D01*
X127360229Y-138373212D01*
X127352899Y-138653139D01*
X126038329Y-138653139D01*
X126044326Y-138424126D01*
X126002691Y-138145537D01*
X125920821Y-137877749D01*
X125800268Y-137625005D01*
X125643681Y-137392855D01*
X125454500Y-137186401D01*
X125397397Y-137140159D01*
X127998684Y-137140159D01*
X129240000Y-138381476D01*
X130320004Y-137301471D01*
X133508163Y-137301471D01*
X133508163Y-139829083D01*
X133588795Y-140130007D01*
X133736185Y-140305660D01*
X133929814Y-140417451D01*
X134138976Y-140454332D01*
X136666588Y-140454332D01*
X136967512Y-140373700D01*
X137143165Y-140226310D01*
X137254956Y-140032681D01*
X137263848Y-139982251D01*
X139241264Y-139982251D01*
X139362854Y-140086093D01*
X139600326Y-140234481D01*
X139857123Y-140346140D01*
X140127604Y-140418615D01*
X140405828Y-140450315D01*
X140685680Y-140440542D01*
X140961013Y-140389512D01*
X141225780Y-140298346D01*
X141474164Y-140169046D01*
X141724007Y-139987523D01*
X140480000Y-138743514D01*
X139241264Y-139982251D01*
X137263848Y-139982251D01*
X137291837Y-139823519D01*
X137291837Y-138653139D01*
X138592899Y-138653139D01*
X138627025Y-138931074D01*
X138701859Y-139200913D01*
X138815754Y-139456726D01*
X139044961Y-139816513D01*
X140298981Y-138562495D01*
X140661019Y-138562495D01*
X141903129Y-139804604D01*
X142068955Y-139584546D01*
X142202571Y-139338456D01*
X142298344Y-139075321D01*
X142354502Y-138799293D01*
X142364326Y-138424126D01*
X142322691Y-138145537D01*
X142240821Y-137877749D01*
X142120268Y-137625005D01*
X141910099Y-137313416D01*
X140661019Y-138562495D01*
X140298981Y-138562495D01*
X139053865Y-137317380D01*
X138864835Y-137582389D01*
X138737707Y-137831891D01*
X138648855Y-138097443D01*
X138600229Y-138373212D01*
X138592899Y-138653139D01*
X137291837Y-138653139D01*
X137291837Y-137295907D01*
X137250105Y-137140159D01*
X139238684Y-137140159D01*
X140480000Y-138381476D01*
X141719562Y-137141913D01*
X141556882Y-137010177D01*
X141315606Y-136868054D01*
X141055973Y-136763156D01*
X140783687Y-136697786D01*
X140504730Y-136673380D01*
X140225229Y-136690476D01*
X139951325Y-136748695D01*
X139689036Y-136846761D01*
X139444122Y-136982519D01*
X139238684Y-137140159D01*
X137250105Y-137140159D01*
X137211205Y-136994984D01*
X137063815Y-136819330D01*
X136870186Y-136707539D01*
X136661024Y-136670658D01*
X134133412Y-136670658D01*
X133832489Y-136751290D01*
X133656835Y-136898680D01*
X133545044Y-137092309D01*
X133508163Y-137301471D01*
X130320004Y-137301471D01*
X130479562Y-137141913D01*
X130316882Y-137010177D01*
X130075606Y-136868054D01*
X129815973Y-136763156D01*
X129543687Y-136697786D01*
X129264730Y-136673380D01*
X128985229Y-136690476D01*
X128711325Y-136748695D01*
X128449036Y-136846761D01*
X128204122Y-136982519D01*
X127998684Y-137140159D01*
X125397397Y-137140159D01*
X125236882Y-137010177D01*
X124995606Y-136868054D01*
X124735973Y-136763156D01*
X124463687Y-136697786D01*
X124184730Y-136673380D01*
X123905229Y-136690476D01*
X123631325Y-136748695D01*
X123369036Y-136846761D01*
X123124123Y-136982519D01*
X122901966Y-137152986D01*
X122707445Y-137354418D01*
X122544835Y-137582389D01*
X122417707Y-137831891D01*
X122328855Y-138097443D01*
X122280229Y-138373212D01*
X122272899Y-138653139D01*
X120958329Y-138653139D01*
X120964326Y-138424126D01*
X120922691Y-138145537D01*
X120840821Y-137877749D01*
X120720268Y-137625005D01*
X120563681Y-137392855D01*
X120374500Y-137186401D01*
X120156882Y-137010177D01*
X119915606Y-136868054D01*
X119655973Y-136763156D01*
X119383687Y-136697786D01*
X119104730Y-136673380D01*
X118825229Y-136690476D01*
X118551325Y-136748695D01*
X118289036Y-136846761D01*
X118044123Y-136982519D01*
X117821966Y-137152986D01*
X117627445Y-137354418D01*
X117464835Y-137582389D01*
X117337707Y-137831891D01*
X117248855Y-138097443D01*
X117200229Y-138373212D01*
X117192899Y-138653139D01*
X115891837Y-138653139D01*
X115891837Y-137295907D01*
X115811205Y-136994984D01*
X115663815Y-136819330D01*
X115470186Y-136707539D01*
X115261024Y-136670658D01*
X112733412Y-136670658D01*
X112432489Y-136751290D01*
X112256835Y-136898680D01*
X112145044Y-137092309D01*
X112108163Y-137301471D01*
X108820004Y-137301471D01*
X108979562Y-137141913D01*
X108816882Y-137010177D01*
X108575606Y-136868054D01*
X108315973Y-136763156D01*
X108043687Y-136697786D01*
X107764730Y-136673380D01*
X107485229Y-136690476D01*
X107211325Y-136748695D01*
X106949036Y-136846761D01*
X106704122Y-136982519D01*
X106498684Y-137140159D01*
X103897397Y-137140159D01*
X103736882Y-137010177D01*
X103495606Y-136868054D01*
X103235973Y-136763156D01*
X102963687Y-136697786D01*
X102684730Y-136673380D01*
X102405229Y-136690476D01*
X102131325Y-136748695D01*
X101869036Y-136846761D01*
X101624123Y-136982519D01*
X101401966Y-137152986D01*
X101207445Y-137354418D01*
X101044835Y-137582389D01*
X100917707Y-137831891D01*
X100828855Y-138097443D01*
X100780229Y-138373212D01*
X100772899Y-138653139D01*
X99458329Y-138653139D01*
X99464326Y-138424126D01*
X99422691Y-138145537D01*
X99340821Y-137877749D01*
X99220268Y-137625005D01*
X99063681Y-137392855D01*
X98874500Y-137186401D01*
X98656882Y-137010177D01*
X98415606Y-136868054D01*
X98155973Y-136763156D01*
X97883687Y-136697786D01*
X97604730Y-136673380D01*
X97325229Y-136690476D01*
X97051325Y-136748695D01*
X96789036Y-136846761D01*
X96544123Y-136982519D01*
X96321966Y-137152986D01*
X96127445Y-137354418D01*
X95964835Y-137582389D01*
X95837707Y-137831891D01*
X95748855Y-138097443D01*
X95700229Y-138373212D01*
X95692899Y-138653139D01*
X94391837Y-138653139D01*
X94391837Y-137295907D01*
X94311205Y-136994984D01*
X94163815Y-136819330D01*
X93970186Y-136707539D01*
X93761024Y-136670658D01*
X91233412Y-136670658D01*
X90932489Y-136751290D01*
X90756835Y-136898680D01*
X90645044Y-137092309D01*
X90608163Y-137301471D01*
X85634000Y-137301471D01*
X85634000Y-131428898D01*
X85764496Y-131428898D01*
X85802672Y-131731098D01*
X85881510Y-132025321D01*
X85999547Y-132306122D01*
X86154602Y-132568307D01*
X86343805Y-132807021D01*
X86563655Y-133017849D01*
X86810083Y-133196890D01*
X87078530Y-133340830D01*
X87364028Y-133447006D01*
X87661294Y-133513452D01*
X87964828Y-133538941D01*
X88269012Y-133523000D01*
X88568220Y-133465923D01*
X88856911Y-133368767D01*
X89129747Y-133233330D01*
X89381678Y-133062119D01*
X89608041Y-132858300D01*
X89804649Y-132625646D01*
X89967863Y-132368463D01*
X89969964Y-132363872D01*
X94666000Y-132363872D01*
X94666000Y-132636128D01*
X94736466Y-132899109D01*
X94872594Y-133134891D01*
X95065109Y-133327406D01*
X95300891Y-133463534D01*
X95563872Y-133534000D01*
X95836128Y-133534000D01*
X96099109Y-133463534D01*
X96334891Y-133327406D01*
X96527406Y-133134891D01*
X96663534Y-132899109D01*
X96734000Y-132636128D01*
X96734000Y-132363872D01*
X96707205Y-132263872D01*
X120966000Y-132263872D01*
X120966000Y-132536128D01*
X121036466Y-132799109D01*
X121172594Y-133034891D01*
X121365109Y-133227406D01*
X121600891Y-133363534D01*
X121863872Y-133434000D01*
X122136128Y-133434000D01*
X122399109Y-133363534D01*
X122634891Y-133227406D01*
X122827406Y-133034891D01*
X122963534Y-132799109D01*
X123034000Y-132536128D01*
X123034000Y-132263872D01*
X122963534Y-132000891D01*
X122827406Y-131765109D01*
X122634891Y-131572594D01*
X122399109Y-131436466D01*
X122136128Y-131366000D01*
X121863872Y-131366000D01*
X121600891Y-131436466D01*
X121365109Y-131572594D01*
X121172594Y-131765109D01*
X121036466Y-132000891D01*
X120966000Y-132263872D01*
X96707205Y-132263872D01*
X96663534Y-132100891D01*
X96527406Y-131865109D01*
X96334891Y-131672594D01*
X96099109Y-131536466D01*
X95836128Y-131466000D01*
X95563872Y-131466000D01*
X95300891Y-131536466D01*
X95065109Y-131672594D01*
X94872594Y-131865109D01*
X94736466Y-132100891D01*
X94666000Y-132363872D01*
X89969964Y-132363872D01*
X90094663Y-132091507D01*
X90182702Y-131799906D01*
X90230456Y-131498399D01*
X90234122Y-131148356D01*
X90192692Y-130845916D01*
X90110780Y-130552534D01*
X89989808Y-130272984D01*
X89832015Y-130012438D01*
X89640323Y-129775718D01*
X89521219Y-129663872D01*
X97265998Y-129663872D01*
X97265998Y-129936128D01*
X97336464Y-130199109D01*
X97472592Y-130434891D01*
X97665107Y-130627406D01*
X97900889Y-130763534D01*
X98163870Y-130834000D01*
X98436126Y-130834000D01*
X98697845Y-130763872D01*
X108166000Y-130763872D01*
X108166000Y-131036128D01*
X108236466Y-131299109D01*
X108372594Y-131534891D01*
X108565109Y-131727406D01*
X108800891Y-131863534D01*
X109063872Y-131934000D01*
X109336128Y-131934000D01*
X109599109Y-131863534D01*
X109834891Y-131727406D01*
X110027406Y-131534891D01*
X110163534Y-131299109D01*
X110225896Y-131066372D01*
X127163500Y-131066372D01*
X127163500Y-131338628D01*
X127233966Y-131601609D01*
X127370094Y-131837391D01*
X127562609Y-132029906D01*
X127798391Y-132166034D01*
X128061372Y-132236500D01*
X128333628Y-132236500D01*
X128596609Y-132166034D01*
X128832391Y-132029906D01*
X129024906Y-131837391D01*
X129161034Y-131601609D01*
X129207312Y-131428898D01*
X142764496Y-131428898D01*
X142802672Y-131731098D01*
X142881510Y-132025321D01*
X142999547Y-132306122D01*
X143154602Y-132568307D01*
X143343805Y-132807021D01*
X143563655Y-133017849D01*
X143810083Y-133196890D01*
X144078530Y-133340830D01*
X144364028Y-133447006D01*
X144661294Y-133513452D01*
X144964828Y-133538941D01*
X145269012Y-133523000D01*
X145568220Y-133465923D01*
X145856911Y-133368767D01*
X146129747Y-133233330D01*
X146381678Y-133062119D01*
X146608041Y-132858300D01*
X146804649Y-132625646D01*
X146967863Y-132368463D01*
X147094663Y-132091507D01*
X147182702Y-131799906D01*
X147230456Y-131498399D01*
X147234122Y-131148356D01*
X147192692Y-130845916D01*
X147110780Y-130552534D01*
X146989808Y-130272984D01*
X146832015Y-130012438D01*
X146640323Y-129775718D01*
X146418277Y-129567204D01*
X146169988Y-129390753D01*
X145900049Y-129249633D01*
X145613454Y-129146452D01*
X145315509Y-129083121D01*
X145011724Y-129060813D01*
X144707723Y-129079939D01*
X144409131Y-129140147D01*
X144121472Y-129240319D01*
X143850070Y-129378606D01*
X143599946Y-129552446D01*
X143375729Y-129758624D01*
X143181568Y-129993324D01*
X143021057Y-130252203D01*
X142897163Y-130530471D01*
X142812183Y-130822979D01*
X142767685Y-131124313D01*
X142764496Y-131428898D01*
X129207312Y-131428898D01*
X129231500Y-131338628D01*
X129231500Y-131066372D01*
X129161034Y-130803391D01*
X129024906Y-130567609D01*
X128832391Y-130375094D01*
X128596609Y-130238966D01*
X128333628Y-130168500D01*
X128061372Y-130168500D01*
X127798391Y-130238966D01*
X127562609Y-130375094D01*
X127370094Y-130567609D01*
X127233966Y-130803391D01*
X127163500Y-131066372D01*
X110225896Y-131066372D01*
X110234000Y-131036128D01*
X110234000Y-130763872D01*
X110163534Y-130500891D01*
X110155285Y-130486603D01*
X110263534Y-130299108D01*
X110334000Y-130036127D01*
X110334000Y-129763871D01*
X110263534Y-129500890D01*
X110127406Y-129265108D01*
X109934891Y-129072593D01*
X109699109Y-128936465D01*
X109436128Y-128865999D01*
X109163872Y-128865999D01*
X108900891Y-128936465D01*
X108665109Y-129072593D01*
X108472594Y-129265108D01*
X108336466Y-129500890D01*
X108266000Y-129763871D01*
X108266000Y-130036127D01*
X108336466Y-130299108D01*
X108344715Y-130313396D01*
X108236466Y-130500891D01*
X108166000Y-130763872D01*
X98697845Y-130763872D01*
X98699107Y-130763534D01*
X98934889Y-130627406D01*
X99127404Y-130434891D01*
X99263532Y-130199109D01*
X99333998Y-129936128D01*
X99333998Y-129663872D01*
X99263532Y-129400891D01*
X99127404Y-129165109D01*
X98934889Y-128972594D01*
X98699107Y-128836466D01*
X98436126Y-128766000D01*
X98163870Y-128766000D01*
X97900889Y-128836466D01*
X97665107Y-128972594D01*
X97472592Y-129165109D01*
X97336464Y-129400891D01*
X97265998Y-129663872D01*
X89521219Y-129663872D01*
X89418277Y-129567204D01*
X89169988Y-129390753D01*
X88900049Y-129249633D01*
X88613454Y-129146452D01*
X88315509Y-129083121D01*
X88011724Y-129060813D01*
X87707723Y-129079939D01*
X87409131Y-129140147D01*
X87121472Y-129240319D01*
X86850070Y-129378606D01*
X86599946Y-129552446D01*
X86375729Y-129758624D01*
X86181568Y-129993324D01*
X86021057Y-130252203D01*
X85897163Y-130530471D01*
X85812183Y-130822979D01*
X85767685Y-131124313D01*
X85764496Y-131428898D01*
X85634000Y-131428898D01*
X85634000Y-127963870D01*
X125466000Y-127963870D01*
X125466000Y-128236126D01*
X125536466Y-128499107D01*
X125672594Y-128734889D01*
X125865109Y-128927404D01*
X126100891Y-129063532D01*
X126363872Y-129133998D01*
X126636128Y-129133998D01*
X126899109Y-129063532D01*
X127134891Y-128927404D01*
X127327406Y-128734889D01*
X127463534Y-128499107D01*
X127534000Y-128236126D01*
X127534000Y-127963870D01*
X127463534Y-127700889D01*
X127327406Y-127465107D01*
X127134891Y-127272592D01*
X126899109Y-127136464D01*
X126636128Y-127065998D01*
X126363872Y-127065998D01*
X126100891Y-127136464D01*
X125865109Y-127272592D01*
X125672594Y-127465107D01*
X125536466Y-127700889D01*
X125466000Y-127963870D01*
X85634000Y-127963870D01*
X85634000Y-124363872D01*
X115066000Y-124363872D01*
X115066000Y-124636128D01*
X115136466Y-124899109D01*
X115272594Y-125134891D01*
X115465109Y-125327406D01*
X115700891Y-125463534D01*
X115963872Y-125534000D01*
X116236128Y-125534000D01*
X116499109Y-125463534D01*
X116734891Y-125327406D01*
X116927406Y-125134891D01*
X117063534Y-124899109D01*
X117134000Y-124636128D01*
X117134000Y-124363872D01*
X119666000Y-124363872D01*
X119666000Y-124636128D01*
X119736466Y-124899109D01*
X119872594Y-125134891D01*
X120065109Y-125327406D01*
X120300891Y-125463534D01*
X120563872Y-125534000D01*
X120836128Y-125534000D01*
X121099109Y-125463534D01*
X121334891Y-125327406D01*
X121527406Y-125134891D01*
X121663534Y-124899109D01*
X121734000Y-124636128D01*
X121734000Y-124363872D01*
X121663534Y-124100891D01*
X121527406Y-123865109D01*
X121334891Y-123672594D01*
X121099109Y-123536466D01*
X120836128Y-123466000D01*
X120563872Y-123466000D01*
X120300891Y-123536466D01*
X120065109Y-123672594D01*
X119872594Y-123865109D01*
X119736466Y-124100891D01*
X119666000Y-124363872D01*
X117134000Y-124363872D01*
X117063534Y-124100891D01*
X116927406Y-123865109D01*
X116734891Y-123672594D01*
X116499109Y-123536466D01*
X116236128Y-123466000D01*
X115963872Y-123466000D01*
X115700891Y-123536466D01*
X115465109Y-123672594D01*
X115272594Y-123865109D01*
X115136466Y-124100891D01*
X115066000Y-124363872D01*
X85634000Y-124363872D01*
X85634000Y-122699906D01*
X103593284Y-122699906D01*
X103593284Y-122972162D01*
X103663750Y-123235143D01*
X103799878Y-123470925D01*
X103992393Y-123663440D01*
X104228175Y-123799568D01*
X104491156Y-123870034D01*
X104763412Y-123870034D01*
X104977611Y-123812640D01*
X105128175Y-123899568D01*
X105391156Y-123970034D01*
X105663412Y-123970034D01*
X105926393Y-123899568D01*
X106162175Y-123763440D01*
X106354690Y-123570925D01*
X106490818Y-123335143D01*
X106519469Y-123228219D01*
X106626393Y-123199568D01*
X106862175Y-123063440D01*
X107054690Y-122870925D01*
X107190818Y-122635143D01*
X107261284Y-122372162D01*
X107261284Y-122099906D01*
X107190818Y-121836925D01*
X107090907Y-121663872D01*
X129016000Y-121663872D01*
X129016000Y-121936128D01*
X129086466Y-122199109D01*
X129222594Y-122434891D01*
X129415109Y-122627406D01*
X129650891Y-122763534D01*
X129913872Y-122834000D01*
X130114853Y-122834000D01*
X130103500Y-122876372D01*
X130103500Y-123148628D01*
X130173966Y-123411609D01*
X130310094Y-123647391D01*
X130502609Y-123839906D01*
X130738391Y-123976034D01*
X131001372Y-124046500D01*
X131273628Y-124046500D01*
X131536609Y-123976034D01*
X131687500Y-123888918D01*
X131838391Y-123976034D01*
X132101372Y-124046500D01*
X132373628Y-124046500D01*
X132636609Y-123976034D01*
X132812056Y-123874740D01*
X132900891Y-123926029D01*
X133163872Y-123996495D01*
X133436128Y-123996495D01*
X133699109Y-123926029D01*
X133934891Y-123789901D01*
X134127406Y-123597386D01*
X134263534Y-123361604D01*
X134334000Y-123098623D01*
X134334000Y-122826367D01*
X134263534Y-122563386D01*
X134145169Y-122358369D01*
X142621000Y-122358369D01*
X142637935Y-122531085D01*
X142705048Y-122753368D01*
X142814056Y-122958383D01*
X142960808Y-123138319D01*
X143139716Y-123286326D01*
X143343965Y-123396762D01*
X143677000Y-123499853D01*
X143677000Y-123496589D01*
X143932999Y-123496589D01*
X144250678Y-123403093D01*
X144456449Y-123295518D01*
X144637405Y-123150024D01*
X144786657Y-122972154D01*
X144898516Y-122768682D01*
X144968859Y-122546933D01*
X144989000Y-122355305D01*
X144989000Y-122078000D01*
X143933000Y-122077999D01*
X143932999Y-123496589D01*
X143677000Y-123496589D01*
X143677001Y-122078000D01*
X142621000Y-122077999D01*
X142621000Y-122358369D01*
X134145169Y-122358369D01*
X134127406Y-122327604D01*
X133934891Y-122135089D01*
X133699109Y-121998961D01*
X133436128Y-121928495D01*
X133163872Y-121928495D01*
X132972290Y-121979830D01*
X132984000Y-121936128D01*
X132984000Y-121663872D01*
X132952067Y-121544695D01*
X142621000Y-121544695D01*
X142621000Y-121822000D01*
X143677000Y-121822001D01*
X143677000Y-121822000D01*
X143932999Y-121822000D01*
X144989000Y-121822001D01*
X144989000Y-121541631D01*
X144972065Y-121368915D01*
X144904953Y-121146632D01*
X144795945Y-120941617D01*
X144649193Y-120761681D01*
X144470285Y-120613674D01*
X144266035Y-120503238D01*
X143933000Y-120400147D01*
X143932999Y-121822000D01*
X143677000Y-121822000D01*
X143677001Y-120403411D01*
X143359322Y-120496907D01*
X143153551Y-120604482D01*
X142972595Y-120749976D01*
X142823343Y-120927846D01*
X142711484Y-121131320D01*
X142641141Y-121353067D01*
X142621000Y-121544695D01*
X132952067Y-121544695D01*
X132913534Y-121400891D01*
X132777406Y-121165109D01*
X132584891Y-120972594D01*
X132349109Y-120836466D01*
X132086128Y-120766000D01*
X131813872Y-120766000D01*
X131550891Y-120836466D01*
X131450000Y-120894715D01*
X131349109Y-120836466D01*
X131086128Y-120766000D01*
X130813872Y-120766000D01*
X130550891Y-120836466D01*
X130500000Y-120865848D01*
X130449109Y-120836466D01*
X130186128Y-120766000D01*
X129913872Y-120766000D01*
X129650891Y-120836466D01*
X129415109Y-120972594D01*
X129222594Y-121165109D01*
X129086466Y-121400891D01*
X129016000Y-121663872D01*
X107090907Y-121663872D01*
X107054690Y-121601143D01*
X106862175Y-121408628D01*
X106626393Y-121272500D01*
X106363412Y-121202034D01*
X106091156Y-121202034D01*
X105828175Y-121272500D01*
X105592393Y-121408628D01*
X105399878Y-121601143D01*
X105263750Y-121836925D01*
X105235099Y-121943849D01*
X105176957Y-121959428D01*
X105026393Y-121872500D01*
X104763412Y-121802034D01*
X104491156Y-121802034D01*
X104228175Y-121872500D01*
X103992393Y-122008628D01*
X103799878Y-122201143D01*
X103663750Y-122436925D01*
X103593284Y-122699906D01*
X85634000Y-122699906D01*
X85634000Y-119563872D01*
X117566000Y-119563872D01*
X117566000Y-119836128D01*
X117636466Y-120099109D01*
X117772594Y-120334891D01*
X117965109Y-120527406D01*
X118200891Y-120663534D01*
X118463872Y-120734000D01*
X118736128Y-120734000D01*
X118999109Y-120663534D01*
X119150000Y-120576418D01*
X119300891Y-120663534D01*
X119563872Y-120734000D01*
X119836128Y-120734000D01*
X120099109Y-120663534D01*
X120334891Y-120527406D01*
X120527406Y-120334891D01*
X120663534Y-120099109D01*
X120734000Y-119836128D01*
X120734000Y-119563872D01*
X120663534Y-119300891D01*
X120527406Y-119065109D01*
X120334891Y-118872594D01*
X120099109Y-118736466D01*
X119836128Y-118666000D01*
X119563872Y-118666000D01*
X119300891Y-118736466D01*
X119150000Y-118823582D01*
X118999109Y-118736466D01*
X118736128Y-118666000D01*
X118463872Y-118666000D01*
X118200891Y-118736466D01*
X117965109Y-118872594D01*
X117772594Y-119065109D01*
X117636466Y-119300891D01*
X117566000Y-119563872D01*
X85634000Y-119563872D01*
X85634000Y-116363872D01*
X117566000Y-116363872D01*
X117566000Y-116636128D01*
X117636466Y-116899109D01*
X117772594Y-117134891D01*
X117965109Y-117327406D01*
X118200891Y-117463534D01*
X118463872Y-117534000D01*
X118736128Y-117534000D01*
X118999109Y-117463534D01*
X119234891Y-117327406D01*
X119236144Y-117326153D01*
X119300891Y-117363534D01*
X119563872Y-117434000D01*
X119836128Y-117434000D01*
X120099109Y-117363534D01*
X120334891Y-117227406D01*
X120527406Y-117034891D01*
X120663534Y-116799109D01*
X120734000Y-116536128D01*
X120734000Y-116263872D01*
X120663534Y-116000891D01*
X120527406Y-115765109D01*
X120334891Y-115572594D01*
X120099109Y-115436466D01*
X119836128Y-115366000D01*
X119563872Y-115366000D01*
X119300891Y-115436466D01*
X119065109Y-115572594D01*
X119063856Y-115573847D01*
X118999109Y-115536466D01*
X118736128Y-115466000D01*
X118463872Y-115466000D01*
X118200891Y-115536466D01*
X117965109Y-115672594D01*
X117772594Y-115865109D01*
X117636466Y-116100891D01*
X117566000Y-116363872D01*
X85634000Y-116363872D01*
X85634000Y-113463872D01*
X120866000Y-113463872D01*
X120866000Y-113736128D01*
X120936466Y-113999109D01*
X121072594Y-114234891D01*
X121265109Y-114427406D01*
X121500891Y-114563534D01*
X121763872Y-114634000D01*
X122036128Y-114634000D01*
X122299109Y-114563534D01*
X122300001Y-114563019D01*
X122336466Y-114699109D01*
X122472594Y-114934891D01*
X122665109Y-115127406D01*
X122900891Y-115263534D01*
X123163872Y-115334000D01*
X123436128Y-115334000D01*
X123600516Y-115289952D01*
X123536466Y-115400891D01*
X123466000Y-115663872D01*
X123466000Y-115936128D01*
X123536466Y-116199109D01*
X123672594Y-116434891D01*
X123865109Y-116627406D01*
X124100891Y-116763534D01*
X124342073Y-116828159D01*
X124265109Y-116872594D01*
X124072594Y-117065109D01*
X124014345Y-117166000D01*
X123863872Y-117166000D01*
X123600891Y-117236466D01*
X123365109Y-117372594D01*
X123172594Y-117565109D01*
X123036466Y-117800891D01*
X122966000Y-118063872D01*
X122966000Y-118336128D01*
X123036466Y-118599109D01*
X123172594Y-118834891D01*
X123365109Y-119027406D01*
X123600891Y-119163534D01*
X123689983Y-119187406D01*
X123623956Y-119301770D01*
X123553490Y-119564751D01*
X123553490Y-119837007D01*
X123623956Y-120099988D01*
X123760084Y-120335770D01*
X123952599Y-120528285D01*
X124188381Y-120664413D01*
X124451362Y-120734879D01*
X124723618Y-120734879D01*
X124986599Y-120664413D01*
X125094506Y-120602113D01*
X125200891Y-120663534D01*
X125463872Y-120734000D01*
X125736128Y-120734000D01*
X125999109Y-120663534D01*
X126234891Y-120527406D01*
X126427406Y-120334891D01*
X126563534Y-120099109D01*
X126634000Y-119836128D01*
X126634000Y-119563872D01*
X126563534Y-119300891D01*
X126427406Y-119065109D01*
X126234891Y-118872594D01*
X125999109Y-118736466D01*
X125736128Y-118666000D01*
X125463872Y-118666000D01*
X125200891Y-118736466D01*
X125092984Y-118798766D01*
X124986599Y-118737345D01*
X124974115Y-118734000D01*
X125036128Y-118734000D01*
X125299109Y-118663534D01*
X125534891Y-118527406D01*
X125727406Y-118334891D01*
X125863534Y-118099109D01*
X125926565Y-117863872D01*
X126166000Y-117863872D01*
X126166000Y-118136128D01*
X126236466Y-118399109D01*
X126372594Y-118634891D01*
X126565109Y-118827406D01*
X126574343Y-118832737D01*
X126566000Y-118863872D01*
X126566000Y-119136128D01*
X126636466Y-119399109D01*
X126772594Y-119634891D01*
X126965109Y-119827406D01*
X127200891Y-119963534D01*
X127463872Y-120034000D01*
X127736128Y-120034000D01*
X127999109Y-119963534D01*
X128234891Y-119827406D01*
X128427406Y-119634891D01*
X128563534Y-119399109D01*
X128634000Y-119136128D01*
X128634000Y-118863872D01*
X128567013Y-118613872D01*
X132316000Y-118613872D01*
X132316000Y-118886128D01*
X132386466Y-119149109D01*
X132522594Y-119384891D01*
X132715109Y-119577406D01*
X132950891Y-119713534D01*
X133066000Y-119744378D01*
X133066000Y-119836128D01*
X133136466Y-120099109D01*
X133272594Y-120334891D01*
X133465109Y-120527406D01*
X133700891Y-120663534D01*
X133963872Y-120734000D01*
X134236128Y-120734000D01*
X134499109Y-120663534D01*
X134734891Y-120527406D01*
X134927406Y-120334891D01*
X135063534Y-120099109D01*
X135134000Y-119836128D01*
X135134000Y-119758370D01*
X144771000Y-119758370D01*
X144787936Y-119931085D01*
X144855048Y-120153368D01*
X144964056Y-120358383D01*
X145110808Y-120538319D01*
X145289716Y-120686326D01*
X145493965Y-120796762D01*
X145827000Y-120899853D01*
X145827000Y-120896589D01*
X146082999Y-120896589D01*
X146400678Y-120803093D01*
X146606449Y-120695518D01*
X146787405Y-120550024D01*
X146936657Y-120372154D01*
X147048516Y-120168682D01*
X147118859Y-119946934D01*
X147139000Y-119755306D01*
X147139000Y-119278000D01*
X146083000Y-119277999D01*
X146082999Y-120896589D01*
X145827000Y-120896589D01*
X145827001Y-119278000D01*
X144771000Y-119277999D01*
X144771000Y-119758370D01*
X135134000Y-119758370D01*
X135134000Y-119563872D01*
X135063534Y-119300891D01*
X134927406Y-119065109D01*
X134734891Y-118872594D01*
X134499109Y-118736466D01*
X134384000Y-118705622D01*
X134384000Y-118613872D01*
X134365464Y-118544695D01*
X144771000Y-118544695D01*
X144771000Y-119022000D01*
X145827000Y-119022001D01*
X145827000Y-119022000D01*
X146082999Y-119022000D01*
X147139000Y-119022001D01*
X147139000Y-118541631D01*
X147122065Y-118368915D01*
X147054953Y-118146632D01*
X146945945Y-117941617D01*
X146799193Y-117761681D01*
X146620285Y-117613674D01*
X146416035Y-117503238D01*
X146083000Y-117400147D01*
X146082999Y-119022000D01*
X145827000Y-119022000D01*
X145827001Y-117403411D01*
X145509322Y-117496907D01*
X145303551Y-117604482D01*
X145122595Y-117749976D01*
X144973343Y-117927846D01*
X144861484Y-118131320D01*
X144791141Y-118353067D01*
X144771000Y-118544695D01*
X134365464Y-118544695D01*
X134313534Y-118350891D01*
X134177406Y-118115109D01*
X133984891Y-117922594D01*
X133749109Y-117786466D01*
X133486128Y-117716000D01*
X133213872Y-117716000D01*
X132950891Y-117786466D01*
X132715109Y-117922594D01*
X132522594Y-118115109D01*
X132386466Y-118350891D01*
X132316000Y-118613872D01*
X128567013Y-118613872D01*
X128563534Y-118600891D01*
X128427406Y-118365109D01*
X128234891Y-118172594D01*
X128225657Y-118167263D01*
X128234000Y-118136128D01*
X128234000Y-117863872D01*
X128163534Y-117600891D01*
X128027406Y-117365109D01*
X127834891Y-117172594D01*
X127599109Y-117036466D01*
X127336128Y-116966000D01*
X127063872Y-116966000D01*
X126800891Y-117036466D01*
X126565109Y-117172594D01*
X126372594Y-117365109D01*
X126236466Y-117600891D01*
X126166000Y-117863872D01*
X125926565Y-117863872D01*
X125934000Y-117836128D01*
X125934000Y-117563872D01*
X125863534Y-117300891D01*
X125831252Y-117244976D01*
X126034891Y-117127406D01*
X126227406Y-116934891D01*
X126363534Y-116699109D01*
X126434000Y-116436128D01*
X126434000Y-116301029D01*
X133346983Y-116301029D01*
X133346983Y-116573285D01*
X133417449Y-116836266D01*
X133553577Y-117072048D01*
X133746092Y-117264563D01*
X133981874Y-117400691D01*
X134244855Y-117471157D01*
X134517111Y-117471157D01*
X134780092Y-117400691D01*
X135015874Y-117264563D01*
X135084247Y-117196190D01*
X135200891Y-117263534D01*
X135463872Y-117334000D01*
X135736128Y-117334000D01*
X135999109Y-117263534D01*
X136234891Y-117127406D01*
X136427406Y-116934891D01*
X136563534Y-116699109D01*
X136634000Y-116436128D01*
X136634000Y-116363872D01*
X137566000Y-116363872D01*
X137566000Y-116636128D01*
X137636466Y-116899109D01*
X137772594Y-117134891D01*
X137965109Y-117327406D01*
X138200891Y-117463534D01*
X138463872Y-117534000D01*
X138736128Y-117534000D01*
X138999109Y-117463534D01*
X139234891Y-117327406D01*
X139427406Y-117134891D01*
X139563534Y-116899109D01*
X139601245Y-116758369D01*
X142621000Y-116758369D01*
X142637935Y-116931085D01*
X142705048Y-117153368D01*
X142814056Y-117358383D01*
X142960808Y-117538319D01*
X143139716Y-117686326D01*
X143343965Y-117796762D01*
X143677000Y-117899853D01*
X143677000Y-117896589D01*
X143932999Y-117896589D01*
X144250678Y-117803093D01*
X144456449Y-117695518D01*
X144637405Y-117550024D01*
X144786657Y-117372154D01*
X144898516Y-117168682D01*
X144968859Y-116946933D01*
X144989000Y-116755305D01*
X144989000Y-116478000D01*
X143933000Y-116477999D01*
X143932999Y-117896589D01*
X143677000Y-117896589D01*
X143677001Y-116478000D01*
X142621000Y-116477999D01*
X142621000Y-116758369D01*
X139601245Y-116758369D01*
X139634000Y-116636128D01*
X139634000Y-116363872D01*
X139563534Y-116100891D01*
X139473355Y-115944695D01*
X142621000Y-115944695D01*
X142621000Y-116222000D01*
X143677000Y-116222001D01*
X143677000Y-116222000D01*
X143932999Y-116222000D01*
X144989000Y-116222001D01*
X144989000Y-115941631D01*
X144972065Y-115768915D01*
X144904953Y-115546632D01*
X144795945Y-115341617D01*
X144649193Y-115161681D01*
X144470285Y-115013674D01*
X144266035Y-114903238D01*
X143933000Y-114800147D01*
X143932999Y-116222000D01*
X143677000Y-116222000D01*
X143677001Y-114803411D01*
X143359322Y-114896907D01*
X143153551Y-115004482D01*
X142972595Y-115149976D01*
X142823343Y-115327846D01*
X142711484Y-115531320D01*
X142641141Y-115753067D01*
X142621000Y-115944695D01*
X139473355Y-115944695D01*
X139427406Y-115865109D01*
X139234891Y-115672594D01*
X138999109Y-115536466D01*
X138736128Y-115466000D01*
X138463872Y-115466000D01*
X138200891Y-115536466D01*
X137965109Y-115672594D01*
X137772594Y-115865109D01*
X137636466Y-116100891D01*
X137566000Y-116363872D01*
X136634000Y-116363872D01*
X136634000Y-116163872D01*
X136563534Y-115900891D01*
X136427406Y-115665109D01*
X136234891Y-115472594D01*
X135999109Y-115336466D01*
X135736128Y-115266000D01*
X135463872Y-115266000D01*
X135200891Y-115336466D01*
X134965109Y-115472594D01*
X134896736Y-115540967D01*
X134780092Y-115473623D01*
X134517111Y-115403157D01*
X134244855Y-115403157D01*
X133981874Y-115473623D01*
X133746092Y-115609751D01*
X133553577Y-115802266D01*
X133417449Y-116038048D01*
X133346983Y-116301029D01*
X126434000Y-116301029D01*
X126434000Y-116163872D01*
X126363534Y-115900891D01*
X126227406Y-115665109D01*
X126034891Y-115472594D01*
X125799109Y-115336466D01*
X125536128Y-115266000D01*
X125385655Y-115266000D01*
X125327406Y-115165109D01*
X125246921Y-115084624D01*
X125396644Y-114934901D01*
X125532772Y-114699119D01*
X125603238Y-114436138D01*
X125603238Y-114163882D01*
X125603236Y-114163872D01*
X127166000Y-114163872D01*
X127166000Y-114436128D01*
X127236466Y-114699109D01*
X127372594Y-114934891D01*
X127565109Y-115127406D01*
X127800891Y-115263534D01*
X128063872Y-115334000D01*
X128336128Y-115334000D01*
X128599109Y-115263534D01*
X128834891Y-115127406D01*
X129027406Y-114934891D01*
X129163534Y-114699109D01*
X129234000Y-114436128D01*
X129234000Y-114163872D01*
X129163534Y-113900891D01*
X129084427Y-113763872D01*
X138666000Y-113763872D01*
X138666000Y-114036128D01*
X138736466Y-114299109D01*
X138872594Y-114534891D01*
X139065109Y-114727406D01*
X139300891Y-114863534D01*
X139563872Y-114934000D01*
X139836128Y-114934000D01*
X140099109Y-114863534D01*
X140334891Y-114727406D01*
X140527406Y-114534891D01*
X140663534Y-114299109D01*
X140734000Y-114036128D01*
X140734000Y-113763872D01*
X140663534Y-113500891D01*
X140527406Y-113265109D01*
X140334891Y-113072594D01*
X140099109Y-112936466D01*
X139836128Y-112866000D01*
X139563872Y-112866000D01*
X139300891Y-112936466D01*
X139065109Y-113072594D01*
X138872594Y-113265109D01*
X138736466Y-113500891D01*
X138666000Y-113763872D01*
X129084427Y-113763872D01*
X129027406Y-113665109D01*
X128834891Y-113472594D01*
X128599109Y-113336466D01*
X128336128Y-113266000D01*
X128063872Y-113266000D01*
X127800891Y-113336466D01*
X127565109Y-113472594D01*
X127372594Y-113665109D01*
X127236466Y-113900891D01*
X127166000Y-114163872D01*
X125603236Y-114163872D01*
X125532772Y-113900901D01*
X125396644Y-113665119D01*
X125346911Y-113615386D01*
X125427406Y-113534891D01*
X125563534Y-113299109D01*
X125634000Y-113036128D01*
X125634000Y-112763872D01*
X125563534Y-112500891D01*
X125427406Y-112265109D01*
X125234891Y-112072594D01*
X124999109Y-111936466D01*
X124963017Y-111926795D01*
X125199109Y-111863534D01*
X125434891Y-111727406D01*
X125627406Y-111534891D01*
X125763534Y-111299109D01*
X125834000Y-111036128D01*
X125834000Y-110863872D01*
X127966000Y-110863872D01*
X127966000Y-111136128D01*
X128036466Y-111399109D01*
X128172594Y-111634891D01*
X128365109Y-111827406D01*
X128600891Y-111963534D01*
X128863872Y-112034000D01*
X129136128Y-112034000D01*
X129399109Y-111963534D01*
X129634891Y-111827406D01*
X129827406Y-111634891D01*
X129963534Y-111399109D01*
X130034000Y-111136128D01*
X130034000Y-110863872D01*
X130020603Y-110813872D01*
X132266000Y-110813872D01*
X132266000Y-111086128D01*
X132336466Y-111349109D01*
X132472594Y-111584891D01*
X132665109Y-111777406D01*
X132900891Y-111913534D01*
X132991567Y-111937831D01*
X133043583Y-112131956D01*
X133179711Y-112367738D01*
X133372226Y-112560253D01*
X133608008Y-112696381D01*
X133870989Y-112766847D01*
X134143245Y-112766847D01*
X134406226Y-112696381D01*
X134642008Y-112560253D01*
X134834523Y-112367738D01*
X134970651Y-112131956D01*
X134989569Y-112061352D01*
X135968520Y-112061352D01*
X135968520Y-112333608D01*
X136038986Y-112596589D01*
X136175114Y-112832371D01*
X136367629Y-113024886D01*
X136603411Y-113161014D01*
X136866392Y-113231480D01*
X137138648Y-113231480D01*
X137401629Y-113161014D01*
X137637411Y-113024886D01*
X137829926Y-112832371D01*
X137966054Y-112596589D01*
X138036520Y-112333608D01*
X138036520Y-112061352D01*
X137966054Y-111798371D01*
X137829926Y-111562589D01*
X137637411Y-111370074D01*
X137401629Y-111233946D01*
X137138648Y-111163480D01*
X136866392Y-111163480D01*
X136603411Y-111233946D01*
X136367629Y-111370074D01*
X136175114Y-111562589D01*
X136038986Y-111798371D01*
X135968520Y-112061352D01*
X134989569Y-112061352D01*
X135041117Y-111868975D01*
X135041117Y-111596719D01*
X134970651Y-111333738D01*
X134834523Y-111097956D01*
X134642008Y-110905441D01*
X134406226Y-110769313D01*
X134315550Y-110745016D01*
X134263534Y-110550891D01*
X134127406Y-110315109D01*
X133934891Y-110122594D01*
X133699109Y-109986466D01*
X133436128Y-109916000D01*
X133163872Y-109916000D01*
X132900891Y-109986466D01*
X132665109Y-110122594D01*
X132472594Y-110315109D01*
X132336466Y-110550891D01*
X132266000Y-110813872D01*
X130020603Y-110813872D01*
X129963534Y-110600891D01*
X129919515Y-110524647D01*
X129965866Y-110537067D01*
X130238122Y-110537067D01*
X130501103Y-110466601D01*
X130736885Y-110330473D01*
X130929400Y-110137958D01*
X131065528Y-109902176D01*
X131135994Y-109639195D01*
X131135994Y-109366939D01*
X131065528Y-109103958D01*
X130929400Y-108868176D01*
X130736885Y-108675661D01*
X130501103Y-108539533D01*
X130238122Y-108469067D01*
X129965866Y-108469067D01*
X129702885Y-108539533D01*
X129467103Y-108675661D01*
X129274588Y-108868176D01*
X129138460Y-109103958D01*
X129067994Y-109366939D01*
X129067994Y-109639195D01*
X129138460Y-109902176D01*
X129182479Y-109978420D01*
X129136128Y-109966000D01*
X128863872Y-109966000D01*
X128600891Y-110036466D01*
X128365109Y-110172594D01*
X128172594Y-110365109D01*
X128036466Y-110600891D01*
X127966000Y-110863872D01*
X125834000Y-110863872D01*
X125834000Y-110763872D01*
X125763534Y-110500891D01*
X125627406Y-110265109D01*
X125434891Y-110072594D01*
X125199109Y-109936466D01*
X124936128Y-109866000D01*
X124663872Y-109866000D01*
X124400891Y-109936466D01*
X124165109Y-110072594D01*
X123972594Y-110265109D01*
X123836466Y-110500891D01*
X123766000Y-110763872D01*
X123766000Y-111036128D01*
X123836466Y-111299109D01*
X123972594Y-111534891D01*
X124165109Y-111727406D01*
X124400891Y-111863534D01*
X124436983Y-111873205D01*
X124200891Y-111936466D01*
X123965109Y-112072594D01*
X123772594Y-112265109D01*
X123636466Y-112500891D01*
X123566000Y-112763872D01*
X123566000Y-113036128D01*
X123636466Y-113299109D01*
X123650517Y-113323446D01*
X123436128Y-113266000D01*
X123163872Y-113266000D01*
X122900891Y-113336466D01*
X122899999Y-113336981D01*
X122863534Y-113200891D01*
X122727406Y-112965109D01*
X122534891Y-112772594D01*
X122299109Y-112636466D01*
X122036128Y-112566000D01*
X121763872Y-112566000D01*
X121500891Y-112636466D01*
X121265109Y-112772594D01*
X121072594Y-112965109D01*
X120936466Y-113200891D01*
X120866000Y-113463872D01*
X85634000Y-113463872D01*
X85634000Y-110463872D01*
X120066000Y-110463872D01*
X120066000Y-110736128D01*
X120136466Y-110999109D01*
X120272594Y-111234891D01*
X120465109Y-111427406D01*
X120700891Y-111563534D01*
X120963872Y-111634000D01*
X121236128Y-111634000D01*
X121499109Y-111563534D01*
X121734891Y-111427406D01*
X121927406Y-111234891D01*
X122063534Y-110999109D01*
X122134000Y-110736128D01*
X122134000Y-110463872D01*
X122063534Y-110200891D01*
X121927406Y-109965109D01*
X121734891Y-109772594D01*
X121499109Y-109636466D01*
X121236128Y-109566000D01*
X120963872Y-109566000D01*
X120700891Y-109636466D01*
X120465109Y-109772594D01*
X120272594Y-109965109D01*
X120136466Y-110200891D01*
X120066000Y-110463872D01*
X85634000Y-110463872D01*
X85634000Y-109063872D01*
X115466000Y-109063872D01*
X115466000Y-109336128D01*
X115536466Y-109599109D01*
X115672594Y-109834891D01*
X115865109Y-110027406D01*
X116100891Y-110163534D01*
X116363872Y-110234000D01*
X116636128Y-110234000D01*
X116899109Y-110163534D01*
X117134891Y-110027406D01*
X117327406Y-109834891D01*
X117463534Y-109599109D01*
X117534000Y-109336128D01*
X117534000Y-109063872D01*
X117463534Y-108800891D01*
X117327406Y-108565109D01*
X117134891Y-108372594D01*
X116899109Y-108236466D01*
X116636128Y-108166000D01*
X116363872Y-108166000D01*
X116100891Y-108236466D01*
X115865109Y-108372594D01*
X115672594Y-108565109D01*
X115536466Y-108800891D01*
X115466000Y-109063872D01*
X85634000Y-109063872D01*
X85634000Y-106263872D01*
X120466000Y-106263872D01*
X120466000Y-106536128D01*
X120536466Y-106799109D01*
X120672594Y-107034891D01*
X120865109Y-107227406D01*
X121100891Y-107363534D01*
X121363872Y-107434000D01*
X121636128Y-107434000D01*
X121784669Y-107394198D01*
X121766000Y-107463872D01*
X121766000Y-107736128D01*
X121836466Y-107999109D01*
X121972594Y-108234891D01*
X122165109Y-108427406D01*
X122400891Y-108563534D01*
X122663872Y-108634000D01*
X122936128Y-108634000D01*
X123199109Y-108563534D01*
X123434891Y-108427406D01*
X123472746Y-108389550D01*
X123600891Y-108463534D01*
X123863872Y-108534000D01*
X124136128Y-108534000D01*
X124290479Y-108492642D01*
X124372594Y-108634870D01*
X124565109Y-108827385D01*
X124800891Y-108963513D01*
X125063872Y-109033979D01*
X125336128Y-109033979D01*
X125599109Y-108963513D01*
X125834891Y-108827385D01*
X126027406Y-108634870D01*
X126163534Y-108399088D01*
X126234000Y-108136107D01*
X126234000Y-107863872D01*
X134666000Y-107863872D01*
X134666000Y-108136128D01*
X134736466Y-108399109D01*
X134872594Y-108634891D01*
X135065109Y-108827406D01*
X135300891Y-108963534D01*
X135563872Y-109034000D01*
X135836128Y-109034000D01*
X136099109Y-108963534D01*
X136334891Y-108827406D01*
X136527406Y-108634891D01*
X136663534Y-108399109D01*
X136680980Y-108334000D01*
X136836128Y-108334000D01*
X137099109Y-108263534D01*
X137334891Y-108127406D01*
X137527406Y-107934891D01*
X137663534Y-107699109D01*
X137734000Y-107436128D01*
X137734000Y-107263872D01*
X140266000Y-107263872D01*
X140266000Y-107536128D01*
X140336466Y-107799109D01*
X140472594Y-108034891D01*
X140665109Y-108227406D01*
X140900891Y-108363534D01*
X141163872Y-108434000D01*
X141436128Y-108434000D01*
X141699109Y-108363534D01*
X141934891Y-108227406D01*
X142127406Y-108034891D01*
X142263534Y-107799109D01*
X142334000Y-107536128D01*
X142334000Y-107263872D01*
X142263534Y-107000891D01*
X142127406Y-106765109D01*
X141934891Y-106572594D01*
X141699109Y-106436466D01*
X141436128Y-106366000D01*
X141163872Y-106366000D01*
X140900891Y-106436466D01*
X140665109Y-106572594D01*
X140472594Y-106765109D01*
X140336466Y-107000891D01*
X140266000Y-107263872D01*
X137734000Y-107263872D01*
X137734000Y-107163872D01*
X137663534Y-106900891D01*
X137527406Y-106665109D01*
X137334891Y-106472594D01*
X137099109Y-106336466D01*
X136836128Y-106266000D01*
X136563872Y-106266000D01*
X136300891Y-106336466D01*
X136065109Y-106472594D01*
X135872594Y-106665109D01*
X135736466Y-106900891D01*
X135719020Y-106966000D01*
X135563872Y-106966000D01*
X135300891Y-107036466D01*
X135065109Y-107172594D01*
X134872594Y-107365109D01*
X134736466Y-107600891D01*
X134666000Y-107863872D01*
X126234000Y-107863872D01*
X126234000Y-107863851D01*
X126163534Y-107600870D01*
X126027406Y-107365088D01*
X125834891Y-107172573D01*
X125599109Y-107036445D01*
X125336128Y-106965979D01*
X125063872Y-106965979D01*
X124909521Y-107007337D01*
X124827406Y-106865109D01*
X124634891Y-106672594D01*
X124399109Y-106536466D01*
X124136128Y-106466000D01*
X123863872Y-106466000D01*
X123600891Y-106536466D01*
X123365109Y-106672594D01*
X123327254Y-106710450D01*
X123199109Y-106636466D01*
X122936128Y-106566000D01*
X122663872Y-106566000D01*
X122515331Y-106605802D01*
X122534000Y-106536128D01*
X122534000Y-106263872D01*
X122463534Y-106000891D01*
X122327406Y-105765109D01*
X122134891Y-105572594D01*
X121899109Y-105436466D01*
X121636128Y-105366000D01*
X121363872Y-105366000D01*
X121100891Y-105436466D01*
X120865109Y-105572594D01*
X120672594Y-105765109D01*
X120536466Y-106000891D01*
X120466000Y-106263872D01*
X85634000Y-106263872D01*
X85634000Y-104763872D01*
X127166000Y-104763872D01*
X127166000Y-105036128D01*
X127236466Y-105299109D01*
X127372594Y-105534891D01*
X127565109Y-105727406D01*
X127800891Y-105863534D01*
X128063872Y-105934000D01*
X128336128Y-105934000D01*
X128599109Y-105863534D01*
X128766000Y-105767180D01*
X128766000Y-105936128D01*
X128836466Y-106199109D01*
X128972594Y-106434891D01*
X129165109Y-106627406D01*
X129400891Y-106763534D01*
X129663872Y-106834000D01*
X129936128Y-106834000D01*
X130199109Y-106763534D01*
X130434891Y-106627406D01*
X130627406Y-106434891D01*
X130763534Y-106199109D01*
X130834000Y-105936128D01*
X130834000Y-105663872D01*
X130815872Y-105596216D01*
X138615946Y-105596216D01*
X138637327Y-105814273D01*
X138702118Y-106023576D01*
X138807670Y-106215576D01*
X138949675Y-106382432D01*
X139122330Y-106517324D01*
X139318583Y-106614745D01*
X139530416Y-106670714D01*
X139749176Y-106682944D01*
X139965928Y-106650938D01*
X140171816Y-106576000D01*
X140358432Y-106461193D01*
X140518151Y-106311208D01*
X140644449Y-106132169D01*
X140732166Y-105931392D01*
X140777766Y-105716861D01*
X140778556Y-105490666D01*
X140734454Y-105275822D01*
X140648140Y-105074437D01*
X140523096Y-104894522D01*
X140364429Y-104743424D01*
X140178619Y-104627318D01*
X139973258Y-104550945D01*
X139756735Y-104517425D01*
X139537894Y-104528129D01*
X139325675Y-104582617D01*
X139128748Y-104678665D01*
X138955156Y-104812349D01*
X138811990Y-104978209D01*
X138705099Y-105169468D01*
X138638849Y-105378314D01*
X138615946Y-105596216D01*
X130815872Y-105596216D01*
X130763534Y-105400891D01*
X130627406Y-105165109D01*
X130434891Y-104972594D01*
X130199109Y-104836466D01*
X129936128Y-104766000D01*
X129663872Y-104766000D01*
X129400891Y-104836466D01*
X129234000Y-104932820D01*
X129234000Y-104763872D01*
X129163534Y-104500891D01*
X129027406Y-104265109D01*
X128834891Y-104072594D01*
X128599109Y-103936466D01*
X128336128Y-103866000D01*
X128063872Y-103866000D01*
X127800891Y-103936466D01*
X127565109Y-104072594D01*
X127372594Y-104265109D01*
X127236466Y-104500891D01*
X127166000Y-104763872D01*
X85634000Y-104763872D01*
X85634000Y-99863872D01*
X136566000Y-99863872D01*
X136566000Y-100136128D01*
X136636466Y-100399109D01*
X136772594Y-100634891D01*
X136965109Y-100827406D01*
X137200891Y-100963534D01*
X137463872Y-101034000D01*
X137735828Y-101034000D01*
X137791670Y-101135576D01*
X137933675Y-101302432D01*
X138106330Y-101437324D01*
X138302583Y-101534745D01*
X138514416Y-101590714D01*
X138733176Y-101602944D01*
X138949928Y-101570938D01*
X139155816Y-101496000D01*
X139342432Y-101381193D01*
X139502151Y-101231208D01*
X139628449Y-101052169D01*
X139700607Y-100887006D01*
X139718118Y-100943576D01*
X139823670Y-101135576D01*
X139965675Y-101302432D01*
X140138330Y-101437324D01*
X140334583Y-101534745D01*
X140546416Y-101590714D01*
X140765176Y-101602944D01*
X140981928Y-101570938D01*
X141187816Y-101496000D01*
X141374432Y-101381193D01*
X141534151Y-101231208D01*
X141660449Y-101052169D01*
X141748166Y-100851392D01*
X141793766Y-100636861D01*
X141794556Y-100410666D01*
X141750454Y-100195822D01*
X141664140Y-99994437D01*
X141539096Y-99814522D01*
X141380429Y-99663424D01*
X141194619Y-99547318D01*
X140989258Y-99470945D01*
X140772735Y-99437425D01*
X140553894Y-99448129D01*
X140341675Y-99502617D01*
X140144748Y-99598665D01*
X139971156Y-99732349D01*
X139827990Y-99898209D01*
X139721099Y-100089468D01*
X139700586Y-100154133D01*
X139632140Y-99994437D01*
X139507096Y-99814522D01*
X139348429Y-99663424D01*
X139162619Y-99547318D01*
X138957258Y-99470945D01*
X138740735Y-99437425D01*
X138521895Y-99448129D01*
X138481348Y-99458539D01*
X138427406Y-99365109D01*
X138234891Y-99172594D01*
X137999109Y-99036466D01*
X137736128Y-98966000D01*
X137463872Y-98966000D01*
X137200891Y-99036466D01*
X136965109Y-99172594D01*
X136772594Y-99365109D01*
X136636466Y-99600891D01*
X136566000Y-99863872D01*
X85634000Y-99863872D01*
X85634000Y-96428898D01*
X86764496Y-96428898D01*
X86802672Y-96731098D01*
X86881510Y-97025321D01*
X86999547Y-97306122D01*
X87154602Y-97568307D01*
X87343805Y-97807021D01*
X87563655Y-98017849D01*
X87810083Y-98196890D01*
X88078530Y-98340830D01*
X88364028Y-98447006D01*
X88661294Y-98513452D01*
X88964828Y-98538941D01*
X89269012Y-98523000D01*
X89568220Y-98465923D01*
X89856911Y-98368767D01*
X90129747Y-98233330D01*
X90381678Y-98062119D01*
X90608041Y-97858300D01*
X90804649Y-97625646D01*
X90967863Y-97368463D01*
X91094663Y-97091507D01*
X91182702Y-96799906D01*
X91230456Y-96498399D01*
X91231183Y-96428898D01*
X141764496Y-96428898D01*
X141802672Y-96731098D01*
X141881510Y-97025321D01*
X141999547Y-97306122D01*
X142154602Y-97568307D01*
X142343805Y-97807021D01*
X142563655Y-98017849D01*
X142810083Y-98196890D01*
X143078530Y-98340830D01*
X143364028Y-98447006D01*
X143661294Y-98513452D01*
X143964828Y-98538941D01*
X144269012Y-98523000D01*
X144568220Y-98465923D01*
X144856911Y-98368767D01*
X145129747Y-98233330D01*
X145381678Y-98062119D01*
X145608041Y-97858300D01*
X145804649Y-97625646D01*
X145967863Y-97368463D01*
X146094663Y-97091507D01*
X146182702Y-96799906D01*
X146230456Y-96498399D01*
X146234122Y-96148356D01*
X146192692Y-95845916D01*
X146110780Y-95552534D01*
X145989808Y-95272984D01*
X145832015Y-95012438D01*
X145640323Y-94775718D01*
X145418277Y-94567204D01*
X145169988Y-94390753D01*
X144900049Y-94249633D01*
X144613454Y-94146452D01*
X144315509Y-94083121D01*
X144011724Y-94060813D01*
X143707723Y-94079939D01*
X143409131Y-94140147D01*
X143121472Y-94240319D01*
X142850070Y-94378606D01*
X142599946Y-94552446D01*
X142375729Y-94758624D01*
X142181568Y-94993324D01*
X142021057Y-95252203D01*
X141897163Y-95530471D01*
X141812183Y-95822979D01*
X141767685Y-96124313D01*
X141764496Y-96428898D01*
X91231183Y-96428898D01*
X91234122Y-96148356D01*
X91192692Y-95845916D01*
X91110780Y-95552534D01*
X90989808Y-95272984D01*
X90832015Y-95012438D01*
X90640323Y-94775718D01*
X90418277Y-94567204D01*
X90169988Y-94390753D01*
X89900049Y-94249633D01*
X89613454Y-94146452D01*
X89315509Y-94083121D01*
X89011724Y-94060813D01*
X88707723Y-94079939D01*
X88409131Y-94140147D01*
X88121472Y-94240319D01*
X87850070Y-94378606D01*
X87599946Y-94552446D01*
X87375729Y-94758624D01*
X87181568Y-94993324D01*
X87021057Y-95252203D01*
X86897163Y-95530471D01*
X86812183Y-95822979D01*
X86767685Y-96124313D01*
X86764496Y-96428898D01*
X85634000Y-96428898D01*
X85634000Y-93634000D01*
X147366001Y-93634000D01*
X147366000Y-142366000D01*
M02*
