G04 #@! TF.GenerationSoftware,KiCad,Pcbnew,5.99.0-unknown-06c979d~86~ubuntu18.04.1*
G04 #@! TF.CreationDate,2020-01-24T18:15:59+02:00*
G04 #@! TF.ProjectId,lora-bridge,6c6f7261-2d62-4726-9964-67652e6b6963,1.1*
G04 #@! TF.SameCoordinates,Original*
G04 #@! TF.FileFunction,Copper,L4,Bot*
G04 #@! TF.FilePolarity,Positive*
%FSLAX46Y46*%
G04 Gerber Fmt 4.6, Leading zero omitted, Abs format (unit mm)*
G04 Created by KiCad (PCBNEW 5.99.0-unknown-06c979d~86~ubuntu18.04.1) date 2020-01-24 18:15:59*
%MOMM*%
%LPD*%
G04 APERTURE LIST*
%ADD10R,4.200000X1.350000*%
%ADD11R,2.500000X2.500000*%
%ADD12C,2.500000*%
%ADD13O,1.100000X1.800000*%
%ADD14O,1.100000X2.200000*%
%ADD15C,0.800000*%
%ADD16C,0.200000*%
G04 APERTURE END LIST*
D10*
X87100000Y-116975000D03*
X87100000Y-122625000D03*
D11*
X135400000Y-138562495D03*
D12*
X140480000Y-138562495D03*
D11*
X114000000Y-138562495D03*
D12*
X119080000Y-138562495D03*
X124160000Y-138562495D03*
X129240000Y-138562495D03*
D11*
X92500000Y-138562495D03*
D12*
X97580000Y-138562495D03*
X102660000Y-138562495D03*
X107740000Y-138562495D03*
D13*
X143805000Y-121950000D03*
X143805000Y-116350000D03*
D14*
X145955000Y-119150000D03*
D15*
X128250000Y-98250000D03*
X128250000Y-99250000D03*
X129500000Y-100000000D03*
X130500000Y-100000000D03*
X131250000Y-99250000D03*
X131250000Y-98250000D03*
X131000000Y-97250000D03*
X130000000Y-97250000D03*
X129000000Y-97250000D03*
X128197500Y-131202500D03*
X121100000Y-110600000D03*
X116500000Y-109200000D03*
X116400000Y-105200000D03*
X90300000Y-123600000D03*
X90300000Y-116000000D03*
X90100000Y-122600000D03*
X89600000Y-124300000D03*
X89800000Y-121100000D03*
X89600000Y-115300000D03*
X90100000Y-117000000D03*
X89800000Y-118500000D03*
X88600000Y-124300000D03*
X87600000Y-124300000D03*
X86600000Y-124300000D03*
X85600000Y-124300000D03*
X88700000Y-122600000D03*
X87700000Y-122600000D03*
X86700000Y-122600000D03*
X85700000Y-122600000D03*
X88800000Y-118500000D03*
X87800000Y-118500000D03*
X86800000Y-118500000D03*
X85800000Y-118500000D03*
X88800000Y-121100000D03*
X87800000Y-121100000D03*
X86800000Y-121100000D03*
X85800000Y-121100000D03*
X88700000Y-117000000D03*
X87700000Y-117000000D03*
X86700000Y-117000000D03*
X85700000Y-117000000D03*
X88600000Y-115300000D03*
X87600000Y-115300000D03*
X86600000Y-115300000D03*
X85600000Y-115300000D03*
X134100000Y-119700000D03*
X135600000Y-116300000D03*
X135676333Y-117600000D03*
X134380983Y-116437157D03*
X137002520Y-112197480D03*
X121900000Y-113600000D03*
X121600000Y-119900000D03*
X121500000Y-106400000D03*
X137600000Y-100000000D03*
X122800000Y-107600000D03*
X124000000Y-107500000D03*
X86300000Y-126900000D03*
X127400000Y-123100000D03*
X127600000Y-119000000D03*
X127200000Y-118000000D03*
X113900000Y-141800000D03*
X126500000Y-128099998D03*
X125600000Y-119700000D03*
X124587490Y-119700879D03*
X118600000Y-119700000D03*
X119700000Y-119700000D03*
X124000000Y-118200000D03*
X118600000Y-116500000D03*
X119700000Y-116400000D03*
X124900000Y-117700000D03*
X114400000Y-110000000D03*
X111100000Y-102200000D03*
X112400000Y-103800000D03*
X111100000Y-105400000D03*
X140400000Y-140700000D03*
X109200000Y-130900000D03*
X122600000Y-123700000D03*
X123400000Y-125800000D03*
X141800000Y-133300000D03*
X141800000Y-132200000D03*
X138700000Y-132800000D03*
X132900000Y-125700000D03*
X101327284Y-116336034D03*
X105127284Y-116336034D03*
X107327284Y-111336034D03*
X101327284Y-111336034D03*
X97327284Y-111336034D03*
X92327284Y-111336034D03*
X92327284Y-106336034D03*
X106000000Y-102100000D03*
X119000000Y-102100000D03*
X106060000Y-137100000D03*
X109260000Y-137100000D03*
X109060000Y-140200000D03*
X105960000Y-140200000D03*
X130600000Y-140200000D03*
X127700000Y-140400000D03*
X127700000Y-137200000D03*
X130500000Y-137200000D03*
X141400000Y-140700000D03*
X139400000Y-140700000D03*
X142400000Y-140700000D03*
X142400000Y-139700000D03*
X142400000Y-138700000D03*
X142400000Y-137700000D03*
X142400000Y-136700000D03*
X141400000Y-136700000D03*
X140400000Y-136700000D03*
X139400000Y-136700000D03*
X138400000Y-136700000D03*
X138400000Y-137700000D03*
X138400000Y-138700000D03*
X138400000Y-139700000D03*
X138400000Y-140700000D03*
X138400000Y-141700000D03*
X139400000Y-141700000D03*
X141400000Y-141700000D03*
X142400000Y-141700000D03*
X145980000Y-116450000D03*
X145980000Y-121450000D03*
X112600000Y-119700000D03*
X96800000Y-129500000D03*
X123200000Y-115600000D03*
X123300000Y-110600000D03*
X127500000Y-106900000D03*
X137300000Y-105500000D03*
X134900000Y-106100000D03*
X128000000Y-110100000D03*
X132800000Y-112500000D03*
X129800000Y-113000000D03*
X129900000Y-115500000D03*
X140400000Y-141700000D03*
X130000000Y-141700000D03*
X105000000Y-141700000D03*
X95000000Y-141700000D03*
X97000000Y-94075000D03*
X102000000Y-94075000D03*
X106000000Y-94075000D03*
X112000000Y-94000000D03*
X116000000Y-94000000D03*
X123000000Y-94000000D03*
X137800000Y-97200000D03*
X146000000Y-105000000D03*
X146000000Y-125000000D03*
X147000000Y-141900000D03*
X87000000Y-105000000D03*
X85900000Y-142000000D03*
X95827284Y-116736034D03*
X95827284Y-115736034D03*
X95827284Y-114736034D03*
X96700000Y-118000000D03*
X97700000Y-121200000D03*
X128200000Y-104900000D03*
X130101994Y-109503067D03*
X129800000Y-105800000D03*
X139400000Y-119300000D03*
X145180000Y-117150000D03*
X139831585Y-121850000D03*
X140600000Y-122600000D03*
X131050000Y-125700000D03*
X133450000Y-127500000D03*
X127450000Y-128800000D03*
X140800000Y-132800000D03*
X130600000Y-133700000D03*
X116100000Y-132900000D03*
X115100000Y-131300000D03*
X114000000Y-131700000D03*
X118000000Y-128900000D03*
X120900000Y-129900000D03*
X122000000Y-132400000D03*
X109300000Y-129899999D03*
X127800000Y-112500000D03*
X131700000Y-109600000D03*
X134000000Y-112900000D03*
X133100000Y-115700000D03*
X131137500Y-123012500D03*
X130050000Y-121800000D03*
X130950000Y-121800000D03*
X131950000Y-121800000D03*
X133300000Y-122962495D03*
X104627284Y-122836034D03*
X105527284Y-122936034D03*
X106227284Y-122236034D03*
X102427284Y-121836034D03*
X103427284Y-122836034D03*
X99127284Y-121336034D03*
X99127284Y-118336034D03*
X100227284Y-118336034D03*
X97127284Y-102236034D03*
X97127284Y-105336034D03*
X95727284Y-103836034D03*
X98127284Y-118336034D03*
X100227284Y-121336034D03*
X96700000Y-121200000D03*
X124569238Y-114300010D03*
X124600000Y-112900000D03*
X124800000Y-110900000D03*
X123300000Y-114300000D03*
X125200000Y-107999979D03*
X125400000Y-116300000D03*
X128200000Y-114300000D03*
X129000000Y-111000000D03*
X124500000Y-115800000D03*
X138600000Y-116500000D03*
X137000000Y-108700000D03*
X140400000Y-109900000D03*
X135600000Y-109100000D03*
X132100000Y-103800000D03*
X134800000Y-102200000D03*
X137400000Y-102200000D03*
X132500000Y-102200000D03*
X133700000Y-101100000D03*
X136100000Y-101100000D03*
X135700000Y-108000000D03*
X134007117Y-111732847D03*
X133300000Y-110950000D03*
X136700000Y-107300000D03*
X133350000Y-118750000D03*
X116100000Y-124500000D03*
X120700000Y-124500000D03*
X136600000Y-118700000D03*
X135700000Y-119700000D03*
X140380000Y-119350000D03*
X95700000Y-132500000D03*
X100600000Y-134600000D03*
X99800000Y-133800000D03*
X101500000Y-133700000D03*
X98299998Y-129800000D03*
X139700000Y-113900000D03*
X139400000Y-98700000D03*
X139400000Y-97500000D03*
X136300000Y-99900000D03*
X136300000Y-98700000D03*
X136300000Y-97500000D03*
X140600000Y-99300000D03*
X141800000Y-99900000D03*
X141900000Y-101100000D03*
X141900000Y-102300000D03*
X141900000Y-103500000D03*
X141800000Y-105900000D03*
X132237500Y-123012500D03*
X140600000Y-121000000D03*
X134000000Y-128800000D03*
X128400000Y-124400000D03*
X128450000Y-122000000D03*
X128450000Y-127600000D03*
X128000000Y-94000000D03*
X134200000Y-93700000D03*
X147000000Y-94000000D03*
X86000000Y-94000000D03*
X123300000Y-131200000D03*
X118300000Y-134500000D03*
X116700000Y-138700000D03*
X116500000Y-122100000D03*
X129100000Y-133700000D03*
X126000000Y-132900000D03*
X125200000Y-136800000D03*
X122000000Y-139900000D03*
X134900000Y-103400000D03*
X130600000Y-103800000D03*
X125200000Y-100800000D03*
X140400000Y-111100000D03*
X140400000Y-112300000D03*
X140800000Y-113400000D03*
X140700000Y-114600000D03*
X140100000Y-115600000D03*
X137400000Y-116800000D03*
X138300000Y-117600000D03*
X139700000Y-116700000D03*
X137400000Y-103800000D03*
X142000000Y-104700000D03*
X141300000Y-107400000D03*
X138497461Y-108717454D03*
X95698555Y-118500000D03*
X93800000Y-118500000D03*
X94727284Y-118500000D03*
X90800000Y-118500000D03*
X95674694Y-121100000D03*
X93800000Y-121100000D03*
X91800000Y-118500000D03*
X90800000Y-121100000D03*
X92800000Y-118500000D03*
X91800000Y-121100000D03*
X92800000Y-121100000D03*
X94727284Y-121100000D03*
D16*
X126500000Y-128099998D02*
X126500000Y-129505000D01*
X126500000Y-129505000D02*
X128197500Y-131202500D01*
X121500000Y-106400000D02*
X121499999Y-110200001D01*
X121499999Y-110200001D02*
X121100000Y-110600000D01*
X126300011Y-120400011D02*
X129899989Y-120400011D01*
X125600000Y-119700000D02*
X126300011Y-120400011D01*
X129899989Y-120400011D02*
X133000000Y-117300000D01*
X133000000Y-117300000D02*
X134600000Y-117300000D01*
X134600000Y-117300000D02*
X135600000Y-116300000D01*
X129700000Y-120000000D02*
X132862844Y-116837156D01*
X127600000Y-120000000D02*
X129700000Y-120000000D01*
X132862844Y-116837156D02*
X133980984Y-116837156D01*
X126600000Y-119000000D02*
X127600000Y-120000000D01*
X124587490Y-119700879D02*
X125288369Y-119000000D01*
X125288369Y-119000000D02*
X126600000Y-119000000D01*
X133980984Y-116837156D02*
X134380983Y-116437157D01*
X122800000Y-107600000D02*
X121900000Y-108500000D01*
X121900000Y-108500000D02*
X121900000Y-113600000D01*
X123300000Y-114300000D02*
X123300000Y-112400000D01*
X123300000Y-112400000D02*
X124000000Y-111700000D01*
X124000000Y-111700000D02*
X124000000Y-107500000D01*
X124000000Y-118200000D02*
X124399999Y-118599999D01*
X124399999Y-118599999D02*
X126799999Y-118599999D01*
X127200000Y-119000000D02*
X127600000Y-119000000D01*
X126799999Y-118599999D02*
X127200000Y-119000000D01*
X126900000Y-117700000D02*
X127200000Y-118000000D01*
X124900000Y-117700000D02*
X126900000Y-117700000D01*
X118600000Y-116500000D02*
X118600000Y-119700000D01*
X119700000Y-116400000D02*
X119700000Y-119700000D01*
X128200000Y-107601073D02*
X128200000Y-104900000D01*
X130101994Y-109503067D02*
X128200000Y-107601073D01*
X125599999Y-108399978D02*
X125200000Y-107999979D01*
X125599999Y-113269249D02*
X125599999Y-108399978D01*
X124569238Y-114300010D02*
X125599999Y-113269249D01*
X125400000Y-116300000D02*
X127400000Y-114300000D01*
X127400000Y-114300000D02*
X128200000Y-114300000D01*
X129000000Y-111000000D02*
X129000000Y-112500000D01*
X129000000Y-112500000D02*
X127900000Y-113600000D01*
X127900000Y-113600000D02*
X126700000Y-113600000D01*
X126700000Y-113600000D02*
X124500000Y-115800000D01*
X134007117Y-109692883D02*
X134007117Y-111732847D01*
X135700000Y-108000000D02*
X134007117Y-109692883D01*
X133300000Y-110950000D02*
X133300000Y-109350000D01*
X133300000Y-109350000D02*
X135350000Y-107300000D01*
X135350000Y-107300000D02*
X136700000Y-107300000D01*
X116100000Y-124500000D02*
X120700000Y-124500000D01*
X98300000Y-129800000D02*
X95700000Y-132400000D01*
X95700000Y-132400000D02*
X95700000Y-132500000D01*
G36*
X147701000Y-142701000D02*
G01*
X85299000Y-142701000D01*
X85299000Y-137302745D01*
X90947082Y-137302745D01*
X90947082Y-139822245D01*
X90968348Y-139929159D01*
X91034433Y-140028062D01*
X91133336Y-140094147D01*
X91240250Y-140115413D01*
X93759750Y-140115413D01*
X93866664Y-140094147D01*
X93965567Y-140028062D01*
X94031652Y-139929159D01*
X94052918Y-139822245D01*
X94052918Y-138651967D01*
X96028275Y-138651967D01*
X96063723Y-138904202D01*
X96139894Y-139147262D01*
X96254739Y-139374616D01*
X96405175Y-139580161D01*
X96587162Y-139758376D01*
X96795811Y-139904474D01*
X97025521Y-140014532D01*
X97270122Y-140085595D01*
X97523045Y-140115754D01*
X97777497Y-140104200D01*
X98026646Y-140051241D01*
X98263799Y-139958302D01*
X98482589Y-139827877D01*
X98677138Y-139663470D01*
X98842224Y-139469494D01*
X98973412Y-139251162D01*
X99067178Y-139014335D01*
X99121264Y-138764181D01*
X99124006Y-138651967D01*
X101108275Y-138651967D01*
X101143723Y-138904202D01*
X101219894Y-139147262D01*
X101334739Y-139374616D01*
X101485175Y-139580161D01*
X101667162Y-139758376D01*
X101875811Y-139904474D01*
X102105521Y-140014532D01*
X102350122Y-140085595D01*
X102603045Y-140115754D01*
X102857497Y-140104200D01*
X103106646Y-140051241D01*
X103286673Y-139980689D01*
X106541010Y-139980689D01*
X106638863Y-140064259D01*
X106872932Y-140210520D01*
X107126050Y-140320580D01*
X107392654Y-140392016D01*
X107666890Y-140423261D01*
X107942733Y-140413629D01*
X108214120Y-140363330D01*
X108475092Y-140273470D01*
X108719917Y-140146023D01*
X108942562Y-139984261D01*
X107740000Y-138781698D01*
X106541010Y-139980689D01*
X103286673Y-139980689D01*
X103343799Y-139958302D01*
X103562589Y-139827877D01*
X103757138Y-139663470D01*
X103922224Y-139469494D01*
X104053412Y-139251162D01*
X104147178Y-139014335D01*
X104201264Y-138764181D01*
X104204009Y-138651840D01*
X105879942Y-138651840D01*
X105913580Y-138925792D01*
X105987341Y-139191764D01*
X106099603Y-139443912D01*
X106309658Y-139773633D01*
X107520797Y-138562495D01*
X107959203Y-138562495D01*
X109160258Y-139763549D01*
X109306184Y-139569899D01*
X109437885Y-139327336D01*
X109532286Y-139067972D01*
X109587573Y-138796225D01*
X109597274Y-138425780D01*
X109556284Y-138151512D01*
X109475587Y-137887562D01*
X109356762Y-137638440D01*
X109166031Y-137355668D01*
X107959203Y-138562495D01*
X107520797Y-138562495D01*
X106317325Y-137359024D01*
X106147981Y-137596435D01*
X106022675Y-137842361D01*
X105935097Y-138104108D01*
X105887168Y-138375925D01*
X105879942Y-138651840D01*
X104204009Y-138651840D01*
X104209276Y-138436340D01*
X104167475Y-138183844D01*
X104085389Y-137942718D01*
X103965024Y-137718237D01*
X103809610Y-137516430D01*
X103623324Y-137342715D01*
X103411167Y-137201758D01*
X103280062Y-137142837D01*
X106539546Y-137142837D01*
X107740000Y-138343292D01*
X108780546Y-137302745D01*
X112447082Y-137302745D01*
X112447082Y-139822245D01*
X112468348Y-139929159D01*
X112534433Y-140028062D01*
X112633336Y-140094147D01*
X112740250Y-140115413D01*
X115259750Y-140115413D01*
X115366664Y-140094147D01*
X115465567Y-140028062D01*
X115531652Y-139929159D01*
X115552918Y-139822245D01*
X115552918Y-138651967D01*
X117528275Y-138651967D01*
X117563723Y-138904202D01*
X117639894Y-139147262D01*
X117754739Y-139374616D01*
X117905175Y-139580161D01*
X118087162Y-139758376D01*
X118295811Y-139904474D01*
X118525521Y-140014532D01*
X118770122Y-140085595D01*
X119023045Y-140115754D01*
X119277497Y-140104200D01*
X119526646Y-140051241D01*
X119763799Y-139958302D01*
X119982589Y-139827877D01*
X120177138Y-139663470D01*
X120342224Y-139469494D01*
X120473412Y-139251162D01*
X120567178Y-139014335D01*
X120621264Y-138764181D01*
X120624006Y-138651967D01*
X122608275Y-138651967D01*
X122643723Y-138904202D01*
X122719894Y-139147262D01*
X122834739Y-139374616D01*
X122985175Y-139580161D01*
X123167162Y-139758376D01*
X123375811Y-139904474D01*
X123605521Y-140014532D01*
X123850122Y-140085595D01*
X124103045Y-140115754D01*
X124357497Y-140104200D01*
X124606646Y-140051241D01*
X124786673Y-139980689D01*
X128041010Y-139980689D01*
X128138863Y-140064259D01*
X128372932Y-140210520D01*
X128626050Y-140320580D01*
X128892654Y-140392016D01*
X129166890Y-140423261D01*
X129442733Y-140413629D01*
X129714120Y-140363330D01*
X129975092Y-140273470D01*
X130219917Y-140146023D01*
X130442562Y-139984261D01*
X129240000Y-138781698D01*
X128041010Y-139980689D01*
X124786673Y-139980689D01*
X124843799Y-139958302D01*
X125062589Y-139827877D01*
X125257138Y-139663470D01*
X125422224Y-139469494D01*
X125553412Y-139251162D01*
X125647178Y-139014335D01*
X125701264Y-138764181D01*
X125704009Y-138651840D01*
X127379942Y-138651840D01*
X127413580Y-138925792D01*
X127487341Y-139191764D01*
X127599603Y-139443912D01*
X127809658Y-139773633D01*
X129020797Y-138562495D01*
X129459203Y-138562495D01*
X130660258Y-139763549D01*
X130806184Y-139569899D01*
X130937885Y-139327336D01*
X131032286Y-139067972D01*
X131087573Y-138796225D01*
X131097274Y-138425780D01*
X131056284Y-138151512D01*
X130975587Y-137887562D01*
X130856762Y-137638440D01*
X130666031Y-137355668D01*
X129459203Y-138562495D01*
X129020797Y-138562495D01*
X127817325Y-137359024D01*
X127647981Y-137596435D01*
X127522675Y-137842361D01*
X127435097Y-138104108D01*
X127387168Y-138375925D01*
X127379942Y-138651840D01*
X125704009Y-138651840D01*
X125709276Y-138436340D01*
X125667475Y-138183844D01*
X125585389Y-137942718D01*
X125465024Y-137718237D01*
X125309610Y-137516430D01*
X125123324Y-137342715D01*
X124911167Y-137201758D01*
X124780062Y-137142837D01*
X128039546Y-137142837D01*
X129240000Y-138343292D01*
X130280546Y-137302745D01*
X133847082Y-137302745D01*
X133847082Y-139822245D01*
X133868348Y-139929159D01*
X133934433Y-140028062D01*
X134033336Y-140094147D01*
X134140250Y-140115413D01*
X136659750Y-140115413D01*
X136766664Y-140094147D01*
X136865567Y-140028062D01*
X136897220Y-139980689D01*
X139281010Y-139980689D01*
X139378863Y-140064259D01*
X139612932Y-140210520D01*
X139866050Y-140320580D01*
X140132654Y-140392016D01*
X140406890Y-140423261D01*
X140682733Y-140413629D01*
X140954120Y-140363330D01*
X141215092Y-140273470D01*
X141459917Y-140146023D01*
X141682562Y-139984261D01*
X140480000Y-138781698D01*
X139281010Y-139980689D01*
X136897220Y-139980689D01*
X136931652Y-139929159D01*
X136952918Y-139822245D01*
X136952918Y-138651840D01*
X138619942Y-138651840D01*
X138653580Y-138925792D01*
X138727341Y-139191764D01*
X138839603Y-139443912D01*
X139049658Y-139773633D01*
X140260797Y-138562495D01*
X140699203Y-138562495D01*
X141900258Y-139763549D01*
X142046184Y-139569899D01*
X142177885Y-139327336D01*
X142272286Y-139067972D01*
X142327573Y-138796225D01*
X142337274Y-138425780D01*
X142296284Y-138151512D01*
X142215587Y-137887562D01*
X142096762Y-137638440D01*
X141906031Y-137355668D01*
X140699203Y-138562495D01*
X140260797Y-138562495D01*
X139057325Y-137359024D01*
X138887981Y-137596435D01*
X138762675Y-137842361D01*
X138675097Y-138104108D01*
X138627168Y-138375925D01*
X138619942Y-138651840D01*
X136952918Y-138651840D01*
X136952918Y-137302745D01*
X136931652Y-137195831D01*
X136896243Y-137142837D01*
X139279546Y-137142837D01*
X140480000Y-138343292D01*
X141679266Y-137144025D01*
X141541449Y-137032423D01*
X141303631Y-136892337D01*
X141047719Y-136788942D01*
X140779335Y-136724508D01*
X140504375Y-136700453D01*
X140228880Y-136717303D01*
X139958902Y-136774688D01*
X139700371Y-136871349D01*
X139458967Y-137005161D01*
X139279546Y-137142837D01*
X136896243Y-137142837D01*
X136865567Y-137096928D01*
X136766664Y-137030843D01*
X136659750Y-137009577D01*
X134140250Y-137009577D01*
X134033336Y-137030843D01*
X133934433Y-137096928D01*
X133868348Y-137195831D01*
X133847082Y-137302745D01*
X130280546Y-137302745D01*
X130439266Y-137144025D01*
X130301449Y-137032423D01*
X130063631Y-136892337D01*
X129807719Y-136788942D01*
X129539335Y-136724508D01*
X129264375Y-136700453D01*
X128988880Y-136717303D01*
X128718902Y-136774688D01*
X128460371Y-136871349D01*
X128218967Y-137005161D01*
X128039546Y-137142837D01*
X124780062Y-137142837D01*
X124678837Y-137097345D01*
X124432573Y-137032278D01*
X124178988Y-137008308D01*
X123924895Y-137026076D01*
X123677114Y-137085105D01*
X123442303Y-137183812D01*
X123226765Y-137319543D01*
X123036290Y-137488655D01*
X122875993Y-137686605D01*
X122750179Y-137908078D01*
X122662227Y-138147125D01*
X122614497Y-138397328D01*
X122608275Y-138651967D01*
X120624006Y-138651967D01*
X120629276Y-138436340D01*
X120587475Y-138183844D01*
X120505389Y-137942718D01*
X120385024Y-137718237D01*
X120229610Y-137516430D01*
X120043324Y-137342715D01*
X119831167Y-137201758D01*
X119598837Y-137097345D01*
X119352573Y-137032278D01*
X119098988Y-137008308D01*
X118844895Y-137026076D01*
X118597114Y-137085105D01*
X118362303Y-137183812D01*
X118146765Y-137319543D01*
X117956290Y-137488655D01*
X117795993Y-137686605D01*
X117670179Y-137908078D01*
X117582227Y-138147125D01*
X117534497Y-138397328D01*
X117528275Y-138651967D01*
X115552918Y-138651967D01*
X115552918Y-137302745D01*
X115531652Y-137195831D01*
X115465567Y-137096928D01*
X115366664Y-137030843D01*
X115259750Y-137009577D01*
X112740250Y-137009577D01*
X112633336Y-137030843D01*
X112534433Y-137096928D01*
X112468348Y-137195831D01*
X112447082Y-137302745D01*
X108780546Y-137302745D01*
X108939266Y-137144025D01*
X108801449Y-137032423D01*
X108563631Y-136892337D01*
X108307719Y-136788942D01*
X108039335Y-136724508D01*
X107764375Y-136700453D01*
X107488880Y-136717303D01*
X107218902Y-136774688D01*
X106960371Y-136871349D01*
X106718967Y-137005161D01*
X106539546Y-137142837D01*
X103280062Y-137142837D01*
X103178837Y-137097345D01*
X102932573Y-137032278D01*
X102678988Y-137008308D01*
X102424895Y-137026076D01*
X102177114Y-137085105D01*
X101942303Y-137183812D01*
X101726765Y-137319543D01*
X101536290Y-137488655D01*
X101375993Y-137686605D01*
X101250179Y-137908078D01*
X101162227Y-138147125D01*
X101114497Y-138397328D01*
X101108275Y-138651967D01*
X99124006Y-138651967D01*
X99129276Y-138436340D01*
X99087475Y-138183844D01*
X99005389Y-137942718D01*
X98885024Y-137718237D01*
X98729610Y-137516430D01*
X98543324Y-137342715D01*
X98331167Y-137201758D01*
X98098837Y-137097345D01*
X97852573Y-137032278D01*
X97598988Y-137008308D01*
X97344895Y-137026076D01*
X97097114Y-137085105D01*
X96862303Y-137183812D01*
X96646765Y-137319543D01*
X96456290Y-137488655D01*
X96295993Y-137686605D01*
X96170179Y-137908078D01*
X96082227Y-138147125D01*
X96034497Y-138397328D01*
X96028275Y-138651967D01*
X94052918Y-138651967D01*
X94052918Y-137302745D01*
X94031652Y-137195831D01*
X93965567Y-137096928D01*
X93866664Y-137030843D01*
X93759750Y-137009577D01*
X91240250Y-137009577D01*
X91133336Y-137030843D01*
X91034433Y-137096928D01*
X90968348Y-137195831D01*
X90947082Y-137302745D01*
X85299000Y-137302745D01*
X85299000Y-131391366D01*
X86097873Y-131391366D01*
X86132270Y-131671514D01*
X86207700Y-131943502D01*
X86322502Y-132201352D01*
X86474156Y-132439401D01*
X86659330Y-132652420D01*
X86873957Y-132835728D01*
X87113321Y-132985299D01*
X87372164Y-133097848D01*
X87644798Y-133170900D01*
X87925237Y-133202851D01*
X88207318Y-133193001D01*
X88484843Y-133141565D01*
X88751718Y-133049672D01*
X89002080Y-132919343D01*
X89230427Y-132753438D01*
X89431743Y-132555605D01*
X89557071Y-132389289D01*
X95001000Y-132389289D01*
X95001000Y-132610711D01*
X95069423Y-132821295D01*
X95199571Y-133000429D01*
X95378705Y-133130577D01*
X95589289Y-133199000D01*
X95810711Y-133199000D01*
X96021295Y-133130577D01*
X96200429Y-133000429D01*
X96330577Y-132821295D01*
X96399000Y-132610711D01*
X96399000Y-132389289D01*
X96368586Y-132295685D01*
X96374982Y-132289289D01*
X121301000Y-132289289D01*
X121301000Y-132510711D01*
X121369423Y-132721295D01*
X121499571Y-132900429D01*
X121678705Y-133030577D01*
X121889289Y-133099000D01*
X122110711Y-133099000D01*
X122321295Y-133030577D01*
X122500429Y-132900429D01*
X122630577Y-132721295D01*
X122699000Y-132510711D01*
X122699000Y-132289289D01*
X122630577Y-132078705D01*
X122500429Y-131899571D01*
X122321295Y-131769423D01*
X122110711Y-131701000D01*
X121889289Y-131701000D01*
X121678705Y-131769423D01*
X121499571Y-131899571D01*
X121369423Y-132078705D01*
X121301000Y-132289289D01*
X96374982Y-132289289D01*
X97874982Y-130789289D01*
X108501000Y-130789289D01*
X108501000Y-131010711D01*
X108569423Y-131221295D01*
X108699571Y-131400429D01*
X108878705Y-131530577D01*
X109089289Y-131599000D01*
X109310711Y-131599000D01*
X109521295Y-131530577D01*
X109700429Y-131400429D01*
X109830577Y-131221295D01*
X109899000Y-131010711D01*
X109899000Y-130789289D01*
X109830577Y-130578705D01*
X109735386Y-130447685D01*
X109800429Y-130400428D01*
X109930577Y-130221294D01*
X109999000Y-130010710D01*
X109999000Y-129789288D01*
X109930577Y-129578704D01*
X109800429Y-129399570D01*
X109621295Y-129269422D01*
X109410711Y-129200999D01*
X109189289Y-129200999D01*
X108978705Y-129269422D01*
X108799571Y-129399570D01*
X108669423Y-129578704D01*
X108601000Y-129789288D01*
X108601000Y-130010710D01*
X108669423Y-130221294D01*
X108764614Y-130352314D01*
X108699571Y-130399571D01*
X108569423Y-130578705D01*
X108501000Y-130789289D01*
X97874982Y-130789289D01*
X98171161Y-130493111D01*
X98189287Y-130499000D01*
X98410709Y-130499000D01*
X98621293Y-130430577D01*
X98800427Y-130300429D01*
X98930575Y-130121295D01*
X98998998Y-129910711D01*
X98998998Y-129689289D01*
X98930575Y-129478705D01*
X98800427Y-129299571D01*
X98621293Y-129169423D01*
X98410709Y-129101000D01*
X98189287Y-129101000D01*
X97978703Y-129169423D01*
X97799569Y-129299571D01*
X97669421Y-129478705D01*
X97600998Y-129689289D01*
X97600998Y-129910711D01*
X97606888Y-129928840D01*
X95734729Y-131801000D01*
X95589289Y-131801000D01*
X95378705Y-131869423D01*
X95199571Y-131999571D01*
X95069423Y-132178705D01*
X95001000Y-132389289D01*
X89557071Y-132389289D01*
X89601607Y-132330188D01*
X89736286Y-132082140D01*
X89832823Y-131816910D01*
X89889355Y-131539045D01*
X89899276Y-131160164D01*
X89857364Y-130879722D01*
X89774841Y-130609802D01*
X89653329Y-130355045D01*
X89495495Y-130121047D01*
X89304808Y-129912948D01*
X89085456Y-129735322D01*
X88842259Y-129592068D01*
X88580559Y-129486334D01*
X88306105Y-129420443D01*
X88024926Y-129395844D01*
X87743201Y-129413074D01*
X87467115Y-129471758D01*
X87202737Y-129570605D01*
X86955874Y-129707443D01*
X86731948Y-129879268D01*
X86535879Y-130082304D01*
X86371974Y-130312090D01*
X86243834Y-130563579D01*
X86154275Y-130831246D01*
X86105261Y-131109210D01*
X86097873Y-131391366D01*
X85299000Y-131391366D01*
X85299000Y-127989287D01*
X125801000Y-127989287D01*
X125801000Y-128210709D01*
X125869423Y-128421293D01*
X125999571Y-128600427D01*
X126101000Y-128674120D01*
X126101001Y-129436952D01*
X126093374Y-129458671D01*
X126101001Y-129527213D01*
X126101001Y-129549970D01*
X126105946Y-129571649D01*
X126113512Y-129639637D01*
X126125993Y-129659533D01*
X126131227Y-129682478D01*
X126174271Y-129736495D01*
X126186131Y-129755401D01*
X126201916Y-129771186D01*
X126244673Y-129824844D01*
X126265730Y-129835001D01*
X127504390Y-131073662D01*
X127498500Y-131091789D01*
X127498500Y-131313211D01*
X127566923Y-131523795D01*
X127697071Y-131702929D01*
X127876205Y-131833077D01*
X128086789Y-131901500D01*
X128308211Y-131901500D01*
X128518795Y-131833077D01*
X128697929Y-131702929D01*
X128828077Y-131523795D01*
X128871105Y-131391366D01*
X143097873Y-131391366D01*
X143132270Y-131671514D01*
X143207700Y-131943502D01*
X143322502Y-132201352D01*
X143474156Y-132439401D01*
X143659330Y-132652420D01*
X143873957Y-132835728D01*
X144113321Y-132985299D01*
X144372164Y-133097848D01*
X144644798Y-133170900D01*
X144925237Y-133202851D01*
X145207318Y-133193001D01*
X145484843Y-133141565D01*
X145751718Y-133049672D01*
X146002080Y-132919343D01*
X146230427Y-132753438D01*
X146431743Y-132555605D01*
X146601607Y-132330188D01*
X146736286Y-132082140D01*
X146832823Y-131816910D01*
X146889355Y-131539045D01*
X146899276Y-131160164D01*
X146857364Y-130879722D01*
X146774841Y-130609802D01*
X146653329Y-130355045D01*
X146495495Y-130121047D01*
X146304808Y-129912948D01*
X146085456Y-129735322D01*
X145842259Y-129592068D01*
X145580559Y-129486334D01*
X145306105Y-129420443D01*
X145024926Y-129395844D01*
X144743201Y-129413074D01*
X144467115Y-129471758D01*
X144202737Y-129570605D01*
X143955874Y-129707443D01*
X143731948Y-129879268D01*
X143535879Y-130082304D01*
X143371974Y-130312090D01*
X143243834Y-130563579D01*
X143154275Y-130831246D01*
X143105261Y-131109210D01*
X143097873Y-131391366D01*
X128871105Y-131391366D01*
X128896500Y-131313211D01*
X128896500Y-131091789D01*
X128828077Y-130881205D01*
X128697929Y-130702071D01*
X128518795Y-130571923D01*
X128308211Y-130503500D01*
X128086789Y-130503500D01*
X128068662Y-130509390D01*
X126899000Y-129339729D01*
X126899000Y-128674119D01*
X127000429Y-128600427D01*
X127130577Y-128421293D01*
X127199000Y-128210709D01*
X127199000Y-127989287D01*
X127130577Y-127778703D01*
X127000429Y-127599569D01*
X126821295Y-127469421D01*
X126610711Y-127400998D01*
X126389289Y-127400998D01*
X126178705Y-127469421D01*
X125999571Y-127599569D01*
X125869423Y-127778703D01*
X125801000Y-127989287D01*
X85299000Y-127989287D01*
X85299000Y-124389289D01*
X115401000Y-124389289D01*
X115401000Y-124610711D01*
X115469423Y-124821295D01*
X115599571Y-125000429D01*
X115778705Y-125130577D01*
X115989289Y-125199000D01*
X116210711Y-125199000D01*
X116421295Y-125130577D01*
X116600429Y-125000429D01*
X116674121Y-124899000D01*
X120125879Y-124899000D01*
X120199571Y-125000429D01*
X120378705Y-125130577D01*
X120589289Y-125199000D01*
X120810711Y-125199000D01*
X121021295Y-125130577D01*
X121200429Y-125000429D01*
X121330577Y-124821295D01*
X121399000Y-124610711D01*
X121399000Y-124389289D01*
X121330577Y-124178705D01*
X121200429Y-123999571D01*
X121021295Y-123869423D01*
X120810711Y-123801000D01*
X120589289Y-123801000D01*
X120378705Y-123869423D01*
X120199571Y-123999571D01*
X120125879Y-124101000D01*
X116674121Y-124101000D01*
X116600429Y-123999571D01*
X116421295Y-123869423D01*
X116210711Y-123801000D01*
X115989289Y-123801000D01*
X115778705Y-123869423D01*
X115599571Y-123999571D01*
X115469423Y-124178705D01*
X115401000Y-124389289D01*
X85299000Y-124389289D01*
X85299000Y-123914837D01*
X86945000Y-123914837D01*
X87254999Y-123914837D01*
X89213034Y-123914837D01*
X89504742Y-123836674D01*
X89672162Y-123696192D01*
X89779193Y-123510809D01*
X89814837Y-123308661D01*
X89814837Y-122780000D01*
X87255000Y-122779999D01*
X87254999Y-123914837D01*
X86945000Y-123914837D01*
X86945001Y-122780000D01*
X85299000Y-122779999D01*
X85299000Y-122725323D01*
X103928284Y-122725323D01*
X103928284Y-122946745D01*
X103996707Y-123157329D01*
X104126855Y-123336463D01*
X104305989Y-123466611D01*
X104516573Y-123535034D01*
X104737995Y-123535034D01*
X104948579Y-123466611D01*
X105014148Y-123418973D01*
X105026855Y-123436463D01*
X105205989Y-123566611D01*
X105416573Y-123635034D01*
X105637995Y-123635034D01*
X105848579Y-123566611D01*
X106027713Y-123436463D01*
X106157861Y-123257329D01*
X106226284Y-123046745D01*
X106226284Y-122935034D01*
X106337995Y-122935034D01*
X106548579Y-122866611D01*
X106727713Y-122736463D01*
X106857861Y-122557329D01*
X106926284Y-122346745D01*
X106926284Y-122125323D01*
X106857861Y-121914739D01*
X106727713Y-121735605D01*
X106663965Y-121689289D01*
X129351000Y-121689289D01*
X129351000Y-121910711D01*
X129419423Y-122121295D01*
X129549571Y-122300429D01*
X129728705Y-122430577D01*
X129939289Y-122499000D01*
X130160711Y-122499000D01*
X130371295Y-122430577D01*
X130500000Y-122337068D01*
X130628705Y-122430577D01*
X130711991Y-122457638D01*
X130637071Y-122512071D01*
X130506923Y-122691205D01*
X130438500Y-122901789D01*
X130438500Y-123123211D01*
X130506923Y-123333795D01*
X130637071Y-123512929D01*
X130816205Y-123643077D01*
X131026789Y-123711500D01*
X131248211Y-123711500D01*
X131458795Y-123643077D01*
X131637929Y-123512929D01*
X131687500Y-123444700D01*
X131737071Y-123512929D01*
X131916205Y-123643077D01*
X132126789Y-123711500D01*
X132348211Y-123711500D01*
X132558795Y-123643077D01*
X132737929Y-123512929D01*
X132786915Y-123445505D01*
X132799571Y-123462924D01*
X132978705Y-123593072D01*
X133189289Y-123661495D01*
X133410711Y-123661495D01*
X133621295Y-123593072D01*
X133800429Y-123462924D01*
X133930577Y-123283790D01*
X133999000Y-123073206D01*
X133999000Y-122851784D01*
X133930577Y-122641200D01*
X133800429Y-122462066D01*
X133655885Y-122357049D01*
X142648000Y-122357049D01*
X142664548Y-122525816D01*
X142730130Y-122743030D01*
X142836652Y-122943369D01*
X142980058Y-123119203D01*
X143154886Y-123263834D01*
X143354478Y-123371752D01*
X143650000Y-123463231D01*
X143650000Y-123460497D01*
X143959999Y-123460497D01*
X144240515Y-123377938D01*
X144441594Y-123272817D01*
X144618424Y-123130641D01*
X144764272Y-122956827D01*
X144873581Y-122757994D01*
X144942294Y-122541383D01*
X144962000Y-122353890D01*
X144962000Y-122105000D01*
X143960000Y-122104999D01*
X143959999Y-123460497D01*
X143650000Y-123460497D01*
X143650001Y-122105000D01*
X142648000Y-122104999D01*
X142648000Y-122357049D01*
X133655885Y-122357049D01*
X133621295Y-122331918D01*
X133410711Y-122263495D01*
X133189289Y-122263495D01*
X132978705Y-122331918D01*
X132799571Y-122462066D01*
X132750585Y-122529490D01*
X132737929Y-122512071D01*
X132558795Y-122381923D01*
X132406411Y-122332410D01*
X132450429Y-122300429D01*
X132580577Y-122121295D01*
X132649000Y-121910711D01*
X132649000Y-121689289D01*
X132602479Y-121546110D01*
X142648000Y-121546110D01*
X142648000Y-121795000D01*
X143650000Y-121795001D01*
X143650000Y-121795000D01*
X143959999Y-121795000D01*
X144962000Y-121795001D01*
X144962000Y-121542951D01*
X144945452Y-121374184D01*
X144879871Y-121156970D01*
X144773349Y-120956631D01*
X144629943Y-120780797D01*
X144455114Y-120636166D01*
X144255522Y-120528248D01*
X143960000Y-120436769D01*
X143959999Y-121795000D01*
X143650000Y-121795000D01*
X143650001Y-120439503D01*
X143369485Y-120522062D01*
X143168406Y-120627183D01*
X142991576Y-120769359D01*
X142845728Y-120943173D01*
X142736419Y-121142007D01*
X142667706Y-121358617D01*
X142648000Y-121546110D01*
X132602479Y-121546110D01*
X132580577Y-121478705D01*
X132450429Y-121299571D01*
X132271295Y-121169423D01*
X132060711Y-121101000D01*
X131839289Y-121101000D01*
X131628705Y-121169423D01*
X131450000Y-121299259D01*
X131271295Y-121169423D01*
X131060711Y-121101000D01*
X130839289Y-121101000D01*
X130628705Y-121169423D01*
X130500000Y-121262932D01*
X130371295Y-121169423D01*
X130160711Y-121101000D01*
X129939289Y-121101000D01*
X129728705Y-121169423D01*
X129549571Y-121299571D01*
X129419423Y-121478705D01*
X129351000Y-121689289D01*
X106663965Y-121689289D01*
X106548579Y-121605457D01*
X106337995Y-121537034D01*
X106116573Y-121537034D01*
X105905989Y-121605457D01*
X105726855Y-121735605D01*
X105596707Y-121914739D01*
X105528284Y-122125323D01*
X105528284Y-122237034D01*
X105416573Y-122237034D01*
X105205989Y-122305457D01*
X105140420Y-122353095D01*
X105127713Y-122335605D01*
X104948579Y-122205457D01*
X104737995Y-122137034D01*
X104516573Y-122137034D01*
X104305989Y-122205457D01*
X104126855Y-122335605D01*
X103996707Y-122514739D01*
X103928284Y-122725323D01*
X85299000Y-122725323D01*
X85299000Y-122470000D01*
X86945000Y-122470001D01*
X86945000Y-122470000D01*
X87254999Y-122470000D01*
X89814837Y-122470001D01*
X89814837Y-121936966D01*
X89736674Y-121645259D01*
X89596192Y-121477838D01*
X89410809Y-121370807D01*
X89208661Y-121335163D01*
X87255000Y-121335163D01*
X87254999Y-122470000D01*
X86945000Y-122470000D01*
X86945001Y-121335163D01*
X85299000Y-121335163D01*
X85299000Y-118264837D01*
X86945000Y-118264837D01*
X87254999Y-118264837D01*
X89213034Y-118264837D01*
X89504742Y-118186674D01*
X89672162Y-118046192D01*
X89779193Y-117860809D01*
X89814837Y-117658661D01*
X89814837Y-117130000D01*
X87255000Y-117129999D01*
X87254999Y-118264837D01*
X86945000Y-118264837D01*
X86945001Y-117130000D01*
X85299000Y-117129999D01*
X85299000Y-116820000D01*
X86945000Y-116820001D01*
X86945000Y-116820000D01*
X87254999Y-116820000D01*
X89814837Y-116820001D01*
X89814837Y-116389289D01*
X117901000Y-116389289D01*
X117901000Y-116610711D01*
X117969423Y-116821295D01*
X118099571Y-117000429D01*
X118201000Y-117074122D01*
X118201001Y-119125878D01*
X118099571Y-119199571D01*
X117969423Y-119378705D01*
X117901000Y-119589289D01*
X117901000Y-119810711D01*
X117969423Y-120021295D01*
X118099571Y-120200429D01*
X118278705Y-120330577D01*
X118489289Y-120399000D01*
X118710711Y-120399000D01*
X118921295Y-120330577D01*
X119100429Y-120200429D01*
X119150000Y-120132200D01*
X119199571Y-120200429D01*
X119378705Y-120330577D01*
X119589289Y-120399000D01*
X119810711Y-120399000D01*
X120021295Y-120330577D01*
X120200429Y-120200429D01*
X120330577Y-120021295D01*
X120399000Y-119810711D01*
X120399000Y-119589289D01*
X120330577Y-119378705D01*
X120200429Y-119199571D01*
X120099000Y-119125879D01*
X120099000Y-118089289D01*
X123301000Y-118089289D01*
X123301000Y-118310711D01*
X123369423Y-118521295D01*
X123499571Y-118700429D01*
X123678705Y-118830577D01*
X123889289Y-118899000D01*
X124110711Y-118899000D01*
X124127997Y-118893384D01*
X124133563Y-118897835D01*
X124149663Y-118913934D01*
X124168487Y-118925764D01*
X124221913Y-118968491D01*
X124244809Y-118973734D01*
X124264731Y-118986256D01*
X124333357Y-118994014D01*
X124355121Y-118998999D01*
X124377448Y-118998999D01*
X124445619Y-119006706D01*
X124467689Y-118998999D01*
X124725100Y-118998999D01*
X124716330Y-119007769D01*
X124698201Y-119001879D01*
X124476779Y-119001879D01*
X124266195Y-119070302D01*
X124087061Y-119200450D01*
X123956913Y-119379584D01*
X123888490Y-119590168D01*
X123888490Y-119811590D01*
X123956913Y-120022174D01*
X124087061Y-120201308D01*
X124266195Y-120331456D01*
X124476779Y-120399879D01*
X124698201Y-120399879D01*
X124908785Y-120331456D01*
X125087919Y-120201308D01*
X125094064Y-120192850D01*
X125099571Y-120200429D01*
X125278705Y-120330577D01*
X125489289Y-120399000D01*
X125710711Y-120399000D01*
X125728839Y-120393110D01*
X125969759Y-120634031D01*
X125979723Y-120654780D01*
X126033570Y-120697843D01*
X126049673Y-120713945D01*
X126068502Y-120725779D01*
X126121925Y-120768503D01*
X126144824Y-120773747D01*
X126164745Y-120786268D01*
X126233369Y-120794026D01*
X126255133Y-120799011D01*
X126277460Y-120799011D01*
X126345631Y-120806718D01*
X126367701Y-120799011D01*
X129831943Y-120799011D01*
X129853660Y-120806637D01*
X129922193Y-120799011D01*
X129944958Y-120799011D01*
X129966646Y-120794064D01*
X130034624Y-120786499D01*
X130054521Y-120774018D01*
X130077468Y-120768783D01*
X130131487Y-120725737D01*
X130150390Y-120713880D01*
X130166170Y-120698100D01*
X130219833Y-120655339D01*
X130229991Y-120634280D01*
X132224982Y-118639289D01*
X132651000Y-118639289D01*
X132651000Y-118860711D01*
X132719423Y-119071295D01*
X132849571Y-119250429D01*
X133028705Y-119380577D01*
X133239289Y-119449000D01*
X133446583Y-119449000D01*
X133401000Y-119589289D01*
X133401000Y-119810711D01*
X133469423Y-120021295D01*
X133599571Y-120200429D01*
X133778705Y-120330577D01*
X133989289Y-120399000D01*
X134210711Y-120399000D01*
X134421295Y-120330577D01*
X134600429Y-120200429D01*
X134730577Y-120021295D01*
X134799000Y-119810711D01*
X134799000Y-119757049D01*
X144798000Y-119757049D01*
X144814549Y-119925816D01*
X144880130Y-120143030D01*
X144986652Y-120343369D01*
X145130058Y-120519203D01*
X145304886Y-120663834D01*
X145504478Y-120771752D01*
X145800000Y-120863231D01*
X145800000Y-120860497D01*
X146109999Y-120860497D01*
X146390515Y-120777938D01*
X146591594Y-120672817D01*
X146768424Y-120530641D01*
X146914272Y-120356827D01*
X147023581Y-120157994D01*
X147092294Y-119941384D01*
X147112000Y-119753891D01*
X147112000Y-119305000D01*
X146110000Y-119304999D01*
X146109999Y-120860497D01*
X145800000Y-120860497D01*
X145800001Y-119305000D01*
X144798000Y-119304999D01*
X144798000Y-119757049D01*
X134799000Y-119757049D01*
X134799000Y-119589289D01*
X134730577Y-119378705D01*
X134600429Y-119199571D01*
X134421295Y-119069423D01*
X134210711Y-119001000D01*
X134003417Y-119001000D01*
X134049000Y-118860711D01*
X134049000Y-118639289D01*
X134018725Y-118546110D01*
X144798000Y-118546110D01*
X144798000Y-118995000D01*
X145800000Y-118995001D01*
X145800000Y-118995000D01*
X146109999Y-118995000D01*
X147112000Y-118995001D01*
X147112000Y-118542951D01*
X147095452Y-118374184D01*
X147029871Y-118156970D01*
X146923349Y-117956631D01*
X146779943Y-117780797D01*
X146605114Y-117636166D01*
X146405522Y-117528248D01*
X146110000Y-117436769D01*
X146109999Y-118995000D01*
X145800000Y-118995000D01*
X145800001Y-117439503D01*
X145519485Y-117522062D01*
X145318406Y-117627183D01*
X145141576Y-117769359D01*
X144995728Y-117943173D01*
X144886419Y-118142007D01*
X144817706Y-118358617D01*
X144798000Y-118546110D01*
X134018725Y-118546110D01*
X133980577Y-118428705D01*
X133850429Y-118249571D01*
X133671295Y-118119423D01*
X133460711Y-118051000D01*
X133239289Y-118051000D01*
X133028705Y-118119423D01*
X132849571Y-118249571D01*
X132719423Y-118428705D01*
X132651000Y-118639289D01*
X132224982Y-118639289D01*
X133165272Y-117699000D01*
X134531954Y-117699000D01*
X134553671Y-117706626D01*
X134622204Y-117699000D01*
X134644969Y-117699000D01*
X134666657Y-117694053D01*
X134734635Y-117686488D01*
X134754532Y-117674007D01*
X134777479Y-117668772D01*
X134831498Y-117625726D01*
X134850401Y-117613869D01*
X134866181Y-117598089D01*
X134919845Y-117555327D01*
X134930002Y-117534269D01*
X135471162Y-116993110D01*
X135489289Y-116999000D01*
X135710711Y-116999000D01*
X135921295Y-116930577D01*
X136100429Y-116800429D01*
X136230577Y-116621295D01*
X136299000Y-116410711D01*
X136299000Y-116389289D01*
X137901000Y-116389289D01*
X137901000Y-116610711D01*
X137969423Y-116821295D01*
X138099571Y-117000429D01*
X138278705Y-117130577D01*
X138489289Y-117199000D01*
X138710711Y-117199000D01*
X138921295Y-117130577D01*
X139100429Y-117000429D01*
X139230577Y-116821295D01*
X139251451Y-116757049D01*
X142648000Y-116757049D01*
X142664548Y-116925816D01*
X142730130Y-117143030D01*
X142836652Y-117343369D01*
X142980058Y-117519203D01*
X143154886Y-117663834D01*
X143354478Y-117771752D01*
X143650000Y-117863231D01*
X143650000Y-117860497D01*
X143959999Y-117860497D01*
X144240515Y-117777938D01*
X144441594Y-117672817D01*
X144618424Y-117530641D01*
X144764272Y-117356827D01*
X144873581Y-117157994D01*
X144942294Y-116941383D01*
X144962000Y-116753890D01*
X144962000Y-116505000D01*
X143960000Y-116504999D01*
X143959999Y-117860497D01*
X143650000Y-117860497D01*
X143650001Y-116505000D01*
X142648000Y-116504999D01*
X142648000Y-116757049D01*
X139251451Y-116757049D01*
X139299000Y-116610711D01*
X139299000Y-116389289D01*
X139230577Y-116178705D01*
X139100429Y-115999571D01*
X139026846Y-115946110D01*
X142648000Y-115946110D01*
X142648000Y-116195000D01*
X143650000Y-116195001D01*
X143650000Y-116195000D01*
X143959999Y-116195000D01*
X144962000Y-116195001D01*
X144962000Y-115942951D01*
X144945452Y-115774184D01*
X144879871Y-115556970D01*
X144773349Y-115356631D01*
X144629943Y-115180797D01*
X144455114Y-115036166D01*
X144255522Y-114928248D01*
X143960000Y-114836769D01*
X143959999Y-116195000D01*
X143650000Y-116195000D01*
X143650001Y-114839503D01*
X143369485Y-114922062D01*
X143168406Y-115027183D01*
X142991576Y-115169359D01*
X142845728Y-115343173D01*
X142736419Y-115542007D01*
X142667706Y-115758617D01*
X142648000Y-115946110D01*
X139026846Y-115946110D01*
X138921295Y-115869423D01*
X138710711Y-115801000D01*
X138489289Y-115801000D01*
X138278705Y-115869423D01*
X138099571Y-115999571D01*
X137969423Y-116178705D01*
X137901000Y-116389289D01*
X136299000Y-116389289D01*
X136299000Y-116189289D01*
X136230577Y-115978705D01*
X136100429Y-115799571D01*
X135921295Y-115669423D01*
X135710711Y-115601000D01*
X135489289Y-115601000D01*
X135278705Y-115669423D01*
X135099571Y-115799571D01*
X134969423Y-115978705D01*
X134951650Y-116033403D01*
X134881412Y-115936728D01*
X134702278Y-115806580D01*
X134491694Y-115738157D01*
X134270272Y-115738157D01*
X134059688Y-115806580D01*
X133880554Y-115936728D01*
X133750406Y-116115862D01*
X133681983Y-116326446D01*
X133681983Y-116438156D01*
X132930890Y-116438156D01*
X132909173Y-116430530D01*
X132840636Y-116438156D01*
X132817874Y-116438156D01*
X132796195Y-116443102D01*
X132728207Y-116450667D01*
X132708310Y-116463149D01*
X132685366Y-116468383D01*
X132631349Y-116511427D01*
X132612442Y-116523287D01*
X132596658Y-116539071D01*
X132543000Y-116581828D01*
X132532843Y-116602885D01*
X129534729Y-119601000D01*
X127962004Y-119601000D01*
X128100429Y-119500429D01*
X128230577Y-119321295D01*
X128299000Y-119110711D01*
X128299000Y-118889289D01*
X128230577Y-118678705D01*
X128100429Y-118499571D01*
X127921295Y-118369423D01*
X127819614Y-118336385D01*
X127830577Y-118321295D01*
X127899000Y-118110711D01*
X127899000Y-117889289D01*
X127830577Y-117678705D01*
X127700429Y-117499571D01*
X127521295Y-117369423D01*
X127310711Y-117301000D01*
X127089289Y-117301000D01*
X127040311Y-117316914D01*
X127035264Y-117313742D01*
X126966641Y-117305985D01*
X126944878Y-117301000D01*
X126922551Y-117301000D01*
X126854380Y-117293293D01*
X126832310Y-117301000D01*
X125474121Y-117301000D01*
X125400429Y-117199571D01*
X125221295Y-117069423D01*
X125010711Y-117001000D01*
X124789289Y-117001000D01*
X124578705Y-117069423D01*
X124399571Y-117199571D01*
X124269423Y-117378705D01*
X124218326Y-117535966D01*
X124110711Y-117501000D01*
X123889289Y-117501000D01*
X123678705Y-117569423D01*
X123499571Y-117699571D01*
X123369423Y-117878705D01*
X123301000Y-118089289D01*
X120099000Y-118089289D01*
X120099000Y-116974121D01*
X120200429Y-116900429D01*
X120330577Y-116721295D01*
X120399000Y-116510711D01*
X120399000Y-116289289D01*
X120330577Y-116078705D01*
X120200429Y-115899571D01*
X120021295Y-115769423D01*
X119810711Y-115701000D01*
X119589289Y-115701000D01*
X119378705Y-115769423D01*
X119199571Y-115899571D01*
X119113673Y-116017800D01*
X119100429Y-115999571D01*
X118921295Y-115869423D01*
X118710711Y-115801000D01*
X118489289Y-115801000D01*
X118278705Y-115869423D01*
X118099571Y-115999571D01*
X117969423Y-116178705D01*
X117901000Y-116389289D01*
X89814837Y-116389289D01*
X89814837Y-116286966D01*
X89736674Y-115995259D01*
X89596192Y-115827838D01*
X89410809Y-115720807D01*
X89208661Y-115685163D01*
X87255000Y-115685163D01*
X87254999Y-116820000D01*
X86945000Y-116820000D01*
X86945001Y-115685163D01*
X85299000Y-115685163D01*
X85299000Y-110489289D01*
X120401000Y-110489289D01*
X120401000Y-110710711D01*
X120469423Y-110921295D01*
X120599571Y-111100429D01*
X120778705Y-111230577D01*
X120989289Y-111299000D01*
X121210711Y-111299000D01*
X121421295Y-111230577D01*
X121501000Y-111172668D01*
X121501001Y-113025878D01*
X121399571Y-113099571D01*
X121269423Y-113278705D01*
X121201000Y-113489289D01*
X121201000Y-113710711D01*
X121269423Y-113921295D01*
X121399571Y-114100429D01*
X121578705Y-114230577D01*
X121789289Y-114299000D01*
X122010711Y-114299000D01*
X122221295Y-114230577D01*
X122400429Y-114100429D01*
X122530577Y-113921295D01*
X122599000Y-113710711D01*
X122599000Y-113489289D01*
X122530577Y-113278705D01*
X122400429Y-113099571D01*
X122299000Y-113025879D01*
X122299000Y-108665270D01*
X122671161Y-108293110D01*
X122689289Y-108299000D01*
X122910711Y-108299000D01*
X123121295Y-108230577D01*
X123300429Y-108100429D01*
X123430577Y-107921295D01*
X123434131Y-107910358D01*
X123499571Y-108000429D01*
X123601001Y-108074122D01*
X123601000Y-111534728D01*
X123065981Y-112069748D01*
X123045232Y-112079712D01*
X123002165Y-112133564D01*
X122986066Y-112149664D01*
X122974231Y-112168494D01*
X122931509Y-112221914D01*
X122926265Y-112244811D01*
X122913743Y-112264734D01*
X122905983Y-112333369D01*
X122901001Y-112355122D01*
X122901001Y-112377440D01*
X122893293Y-112445620D01*
X122901001Y-112467693D01*
X122901000Y-113725878D01*
X122799571Y-113799571D01*
X122669423Y-113978705D01*
X122601000Y-114189289D01*
X122601000Y-114410711D01*
X122669423Y-114621295D01*
X122799571Y-114800429D01*
X122978705Y-114930577D01*
X123189289Y-114999000D01*
X123410711Y-114999000D01*
X123621295Y-114930577D01*
X123800429Y-114800429D01*
X123930577Y-114621295D01*
X123934617Y-114608860D01*
X123938661Y-114621305D01*
X124068809Y-114800439D01*
X124247943Y-114930587D01*
X124458527Y-114999010D01*
X124679949Y-114999010D01*
X124764043Y-114971686D01*
X124628839Y-115106890D01*
X124610711Y-115101000D01*
X124389289Y-115101000D01*
X124178705Y-115169423D01*
X123999571Y-115299571D01*
X123869423Y-115478705D01*
X123801000Y-115689289D01*
X123801000Y-115910711D01*
X123869423Y-116121295D01*
X123999571Y-116300429D01*
X124178705Y-116430577D01*
X124389289Y-116499000D01*
X124610711Y-116499000D01*
X124718326Y-116464034D01*
X124769423Y-116621295D01*
X124899571Y-116800429D01*
X125078705Y-116930577D01*
X125289289Y-116999000D01*
X125510711Y-116999000D01*
X125721295Y-116930577D01*
X125900429Y-116800429D01*
X126030577Y-116621295D01*
X126099000Y-116410711D01*
X126099000Y-116189289D01*
X126093110Y-116171161D01*
X127565273Y-114699000D01*
X127625879Y-114699000D01*
X127699571Y-114800429D01*
X127878705Y-114930577D01*
X128089289Y-114999000D01*
X128310711Y-114999000D01*
X128521295Y-114930577D01*
X128700429Y-114800429D01*
X128830577Y-114621295D01*
X128899000Y-114410711D01*
X128899000Y-114189289D01*
X128830577Y-113978705D01*
X128700429Y-113799571D01*
X128686277Y-113789289D01*
X139001000Y-113789289D01*
X139001000Y-114010711D01*
X139069423Y-114221295D01*
X139199571Y-114400429D01*
X139378705Y-114530577D01*
X139589289Y-114599000D01*
X139810711Y-114599000D01*
X140021295Y-114530577D01*
X140200429Y-114400429D01*
X140330577Y-114221295D01*
X140399000Y-114010711D01*
X140399000Y-113789289D01*
X140330577Y-113578705D01*
X140200429Y-113399571D01*
X140021295Y-113269423D01*
X139810711Y-113201000D01*
X139589289Y-113201000D01*
X139378705Y-113269423D01*
X139199571Y-113399571D01*
X139069423Y-113578705D01*
X139001000Y-113789289D01*
X128686277Y-113789289D01*
X128521295Y-113669423D01*
X128425858Y-113638413D01*
X129234020Y-112830252D01*
X129254769Y-112820288D01*
X129297836Y-112766436D01*
X129313935Y-112750336D01*
X129325765Y-112731512D01*
X129368492Y-112678086D01*
X129373735Y-112655190D01*
X129386257Y-112635268D01*
X129394015Y-112566642D01*
X129399000Y-112544878D01*
X129399000Y-112522551D01*
X129406707Y-112454380D01*
X129399000Y-112432310D01*
X129399000Y-111574121D01*
X129500429Y-111500429D01*
X129630577Y-111321295D01*
X129699000Y-111110711D01*
X129699000Y-110889289D01*
X129682754Y-110839289D01*
X132601000Y-110839289D01*
X132601000Y-111060711D01*
X132669423Y-111271295D01*
X132799571Y-111450429D01*
X132978705Y-111580577D01*
X133189289Y-111649000D01*
X133308117Y-111649000D01*
X133308117Y-111843558D01*
X133376540Y-112054142D01*
X133506688Y-112233276D01*
X133685822Y-112363424D01*
X133896406Y-112431847D01*
X134117828Y-112431847D01*
X134328412Y-112363424D01*
X134507546Y-112233276D01*
X134613989Y-112086769D01*
X136303520Y-112086769D01*
X136303520Y-112308191D01*
X136371943Y-112518775D01*
X136502091Y-112697909D01*
X136681225Y-112828057D01*
X136891809Y-112896480D01*
X137113231Y-112896480D01*
X137323815Y-112828057D01*
X137502949Y-112697909D01*
X137633097Y-112518775D01*
X137701520Y-112308191D01*
X137701520Y-112086769D01*
X137633097Y-111876185D01*
X137502949Y-111697051D01*
X137323815Y-111566903D01*
X137113231Y-111498480D01*
X136891809Y-111498480D01*
X136681225Y-111566903D01*
X136502091Y-111697051D01*
X136371943Y-111876185D01*
X136303520Y-112086769D01*
X134613989Y-112086769D01*
X134637694Y-112054142D01*
X134706117Y-111843558D01*
X134706117Y-111622136D01*
X134637694Y-111411552D01*
X134507546Y-111232418D01*
X134406117Y-111158726D01*
X134406117Y-109858154D01*
X135571162Y-108693110D01*
X135589289Y-108699000D01*
X135810711Y-108699000D01*
X136021295Y-108630577D01*
X136200429Y-108500429D01*
X136330577Y-108321295D01*
X136399000Y-108110711D01*
X136399000Y-107937171D01*
X136589289Y-107999000D01*
X136810711Y-107999000D01*
X137021295Y-107930577D01*
X137200429Y-107800429D01*
X137330577Y-107621295D01*
X137399000Y-107410711D01*
X137399000Y-107289289D01*
X140601000Y-107289289D01*
X140601000Y-107510711D01*
X140669423Y-107721295D01*
X140799571Y-107900429D01*
X140978705Y-108030577D01*
X141189289Y-108099000D01*
X141410711Y-108099000D01*
X141621295Y-108030577D01*
X141800429Y-107900429D01*
X141930577Y-107721295D01*
X141999000Y-107510711D01*
X141999000Y-107289289D01*
X141930577Y-107078705D01*
X141800429Y-106899571D01*
X141621295Y-106769423D01*
X141410711Y-106701000D01*
X141189289Y-106701000D01*
X140978705Y-106769423D01*
X140799571Y-106899571D01*
X140669423Y-107078705D01*
X140601000Y-107289289D01*
X137399000Y-107289289D01*
X137399000Y-107189289D01*
X137330577Y-106978705D01*
X137200429Y-106799571D01*
X137021295Y-106669423D01*
X136810711Y-106601000D01*
X136589289Y-106601000D01*
X136378705Y-106669423D01*
X136199571Y-106799571D01*
X136125879Y-106901000D01*
X135418046Y-106901000D01*
X135396329Y-106893374D01*
X135327792Y-106901000D01*
X135305030Y-106901000D01*
X135283351Y-106905946D01*
X135215363Y-106913511D01*
X135195466Y-106925993D01*
X135172522Y-106931227D01*
X135118505Y-106974271D01*
X135099598Y-106986131D01*
X135083814Y-107001915D01*
X135030156Y-107044672D01*
X135019999Y-107065729D01*
X133065981Y-109019748D01*
X133045232Y-109029712D01*
X133002165Y-109083564D01*
X132986066Y-109099664D01*
X132974231Y-109118494D01*
X132931509Y-109171914D01*
X132926265Y-109194811D01*
X132913743Y-109214734D01*
X132905983Y-109283369D01*
X132901001Y-109305122D01*
X132901001Y-109327440D01*
X132893293Y-109395620D01*
X132901001Y-109417693D01*
X132901000Y-110375878D01*
X132799571Y-110449571D01*
X132669423Y-110628705D01*
X132601000Y-110839289D01*
X129682754Y-110839289D01*
X129630577Y-110678705D01*
X129500429Y-110499571D01*
X129321295Y-110369423D01*
X129110711Y-110301000D01*
X128889289Y-110301000D01*
X128678705Y-110369423D01*
X128499571Y-110499571D01*
X128369423Y-110678705D01*
X128301000Y-110889289D01*
X128301000Y-111110711D01*
X128369423Y-111321295D01*
X128499571Y-111500429D01*
X128601000Y-111574122D01*
X128601001Y-112334727D01*
X127734729Y-113201000D01*
X126768046Y-113201000D01*
X126746329Y-113193374D01*
X126677792Y-113201000D01*
X126655030Y-113201000D01*
X126633351Y-113205946D01*
X126565363Y-113213511D01*
X126545466Y-113225993D01*
X126522522Y-113231227D01*
X126468505Y-113274271D01*
X126449598Y-113286131D01*
X126433814Y-113301915D01*
X126380156Y-113344672D01*
X126369999Y-113365729D01*
X125240914Y-114494814D01*
X125268238Y-114410721D01*
X125268238Y-114189299D01*
X125262348Y-114171171D01*
X125834020Y-113599500D01*
X125854767Y-113589537D01*
X125897832Y-113535688D01*
X125913932Y-113519587D01*
X125925765Y-113500761D01*
X125968491Y-113447335D01*
X125973734Y-113424439D01*
X125986256Y-113404517D01*
X125994014Y-113335893D01*
X125998999Y-113314128D01*
X125998999Y-113291801D01*
X126006706Y-113223630D01*
X125998999Y-113201560D01*
X125998999Y-108468024D01*
X126006625Y-108446307D01*
X125998999Y-108377774D01*
X125998999Y-108355008D01*
X125994053Y-108333326D01*
X125986487Y-108265340D01*
X125974006Y-108245444D01*
X125968773Y-108222501D01*
X125925727Y-108168482D01*
X125913869Y-108149576D01*
X125898084Y-108133791D01*
X125893403Y-108127917D01*
X125899000Y-108110690D01*
X125899000Y-107889268D01*
X125830577Y-107678684D01*
X125700429Y-107499550D01*
X125521295Y-107369402D01*
X125310711Y-107300979D01*
X125089289Y-107300979D01*
X124878705Y-107369402D01*
X124699571Y-107499550D01*
X124699000Y-107500336D01*
X124699000Y-107389289D01*
X124630577Y-107178705D01*
X124500429Y-106999571D01*
X124321295Y-106869423D01*
X124110711Y-106801000D01*
X123889289Y-106801000D01*
X123678705Y-106869423D01*
X123499571Y-106999571D01*
X123369423Y-107178705D01*
X123365869Y-107189642D01*
X123300429Y-107099571D01*
X123121295Y-106969423D01*
X122910711Y-106901000D01*
X122689289Y-106901000D01*
X122478705Y-106969423D01*
X122299571Y-107099571D01*
X122169423Y-107278705D01*
X122101000Y-107489289D01*
X122101000Y-107710711D01*
X122106890Y-107728839D01*
X121898999Y-107936730D01*
X121899000Y-106974122D01*
X122000429Y-106900429D01*
X122130577Y-106721295D01*
X122199000Y-106510711D01*
X122199000Y-106289289D01*
X122130577Y-106078705D01*
X122000429Y-105899571D01*
X121821295Y-105769423D01*
X121610711Y-105701000D01*
X121389289Y-105701000D01*
X121178705Y-105769423D01*
X120999571Y-105899571D01*
X120869423Y-106078705D01*
X120801000Y-106289289D01*
X120801000Y-106510711D01*
X120869423Y-106721295D01*
X120999571Y-106900429D01*
X121101001Y-106974122D01*
X121100999Y-109901000D01*
X120989289Y-109901000D01*
X120778705Y-109969423D01*
X120599571Y-110099571D01*
X120469423Y-110278705D01*
X120401000Y-110489289D01*
X85299000Y-110489289D01*
X85299000Y-109089289D01*
X115801000Y-109089289D01*
X115801000Y-109310711D01*
X115869423Y-109521295D01*
X115999571Y-109700429D01*
X116178705Y-109830577D01*
X116389289Y-109899000D01*
X116610711Y-109899000D01*
X116821295Y-109830577D01*
X117000429Y-109700429D01*
X117130577Y-109521295D01*
X117199000Y-109310711D01*
X117199000Y-109089289D01*
X117130577Y-108878705D01*
X117000429Y-108699571D01*
X116821295Y-108569423D01*
X116610711Y-108501000D01*
X116389289Y-108501000D01*
X116178705Y-108569423D01*
X115999571Y-108699571D01*
X115869423Y-108878705D01*
X115801000Y-109089289D01*
X85299000Y-109089289D01*
X85299000Y-104789289D01*
X127501000Y-104789289D01*
X127501000Y-105010711D01*
X127569423Y-105221295D01*
X127699571Y-105400429D01*
X127801001Y-105474122D01*
X127801000Y-107533027D01*
X127793374Y-107554744D01*
X127801000Y-107623277D01*
X127801000Y-107646042D01*
X127805946Y-107667724D01*
X127813512Y-107735710D01*
X127825993Y-107755606D01*
X127831226Y-107778549D01*
X127874272Y-107832569D01*
X127886131Y-107851474D01*
X127901913Y-107867256D01*
X127944671Y-107920915D01*
X127965728Y-107931073D01*
X129408884Y-109374229D01*
X129402994Y-109392356D01*
X129402994Y-109613778D01*
X129471417Y-109824362D01*
X129601565Y-110003496D01*
X129780699Y-110133644D01*
X129991283Y-110202067D01*
X130212705Y-110202067D01*
X130423289Y-110133644D01*
X130602423Y-110003496D01*
X130732571Y-109824362D01*
X130800994Y-109613778D01*
X130800994Y-109392356D01*
X130732571Y-109181772D01*
X130602423Y-109002638D01*
X130423289Y-108872490D01*
X130212705Y-108804067D01*
X129991283Y-108804067D01*
X129973156Y-108809957D01*
X128599000Y-107435802D01*
X128599000Y-105689289D01*
X129101000Y-105689289D01*
X129101000Y-105910711D01*
X129169423Y-106121295D01*
X129299571Y-106300429D01*
X129478705Y-106430577D01*
X129689289Y-106499000D01*
X129910711Y-106499000D01*
X130121295Y-106430577D01*
X130300429Y-106300429D01*
X130430577Y-106121295D01*
X130499000Y-105910711D01*
X130499000Y-105689289D01*
X130469989Y-105600000D01*
X138950591Y-105600000D01*
X138974135Y-105786370D01*
X139043288Y-105961031D01*
X139153705Y-106113006D01*
X139298447Y-106232747D01*
X139468420Y-106312730D01*
X139652944Y-106347930D01*
X139840425Y-106336134D01*
X140019083Y-106278086D01*
X140177692Y-106177429D01*
X140306284Y-106040491D01*
X140396782Y-105875876D01*
X140443500Y-105693926D01*
X140443500Y-105506074D01*
X140396782Y-105324124D01*
X140306284Y-105159509D01*
X140177692Y-105022571D01*
X140019083Y-104921914D01*
X139840425Y-104863866D01*
X139652944Y-104852070D01*
X139468420Y-104887270D01*
X139298447Y-104967253D01*
X139153705Y-105086994D01*
X139043288Y-105238969D01*
X138974135Y-105413630D01*
X138950591Y-105600000D01*
X130469989Y-105600000D01*
X130430577Y-105478705D01*
X130300429Y-105299571D01*
X130121295Y-105169423D01*
X129910711Y-105101000D01*
X129689289Y-105101000D01*
X129478705Y-105169423D01*
X129299571Y-105299571D01*
X129169423Y-105478705D01*
X129101000Y-105689289D01*
X128599000Y-105689289D01*
X128599000Y-105474121D01*
X128700429Y-105400429D01*
X128830577Y-105221295D01*
X128899000Y-105010711D01*
X128899000Y-104789289D01*
X128830577Y-104578705D01*
X128700429Y-104399571D01*
X128521295Y-104269423D01*
X128310711Y-104201000D01*
X128089289Y-104201000D01*
X127878705Y-104269423D01*
X127699571Y-104399571D01*
X127569423Y-104578705D01*
X127501000Y-104789289D01*
X85299000Y-104789289D01*
X85299000Y-99889289D01*
X136901000Y-99889289D01*
X136901000Y-100110711D01*
X136969423Y-100321295D01*
X137099571Y-100500429D01*
X137278705Y-100630577D01*
X137489289Y-100699000D01*
X137710711Y-100699000D01*
X137921295Y-100630577D01*
X137946268Y-100612433D01*
X137958135Y-100706370D01*
X138027288Y-100881031D01*
X138137705Y-101033006D01*
X138282447Y-101152747D01*
X138452420Y-101232730D01*
X138636944Y-101267930D01*
X138824425Y-101256134D01*
X139003083Y-101198086D01*
X139161692Y-101097429D01*
X139290284Y-100960491D01*
X139380782Y-100795876D01*
X139427500Y-100613926D01*
X139427500Y-100520000D01*
X139966591Y-100520000D01*
X139990135Y-100706370D01*
X140059288Y-100881031D01*
X140169705Y-101033006D01*
X140314447Y-101152747D01*
X140484420Y-101232730D01*
X140668944Y-101267930D01*
X140856425Y-101256134D01*
X141035083Y-101198086D01*
X141193692Y-101097429D01*
X141322284Y-100960491D01*
X141412782Y-100795876D01*
X141459500Y-100613926D01*
X141459500Y-100426074D01*
X141412782Y-100244124D01*
X141322284Y-100079509D01*
X141193692Y-99942571D01*
X141035083Y-99841914D01*
X140856425Y-99783866D01*
X140668944Y-99772070D01*
X140484420Y-99807270D01*
X140314447Y-99887253D01*
X140169705Y-100006994D01*
X140059288Y-100158969D01*
X139990135Y-100333630D01*
X139966591Y-100520000D01*
X139427500Y-100520000D01*
X139427500Y-100426074D01*
X139380782Y-100244124D01*
X139290284Y-100079509D01*
X139161692Y-99942571D01*
X139003083Y-99841914D01*
X138824425Y-99783866D01*
X138636944Y-99772070D01*
X138452420Y-99807270D01*
X138296231Y-99880767D01*
X138230577Y-99678705D01*
X138100429Y-99499571D01*
X137921295Y-99369423D01*
X137710711Y-99301000D01*
X137489289Y-99301000D01*
X137278705Y-99369423D01*
X137099571Y-99499571D01*
X136969423Y-99678705D01*
X136901000Y-99889289D01*
X85299000Y-99889289D01*
X85299000Y-96391366D01*
X87097873Y-96391366D01*
X87132270Y-96671514D01*
X87207700Y-96943502D01*
X87322502Y-97201352D01*
X87474156Y-97439401D01*
X87659330Y-97652420D01*
X87873957Y-97835728D01*
X88113321Y-97985299D01*
X88372164Y-98097848D01*
X88644798Y-98170900D01*
X88925237Y-98202851D01*
X89207318Y-98193001D01*
X89484843Y-98141565D01*
X89751718Y-98049672D01*
X90002080Y-97919343D01*
X90230427Y-97753438D01*
X90431743Y-97555605D01*
X90601607Y-97330188D01*
X90736286Y-97082140D01*
X90832823Y-96816910D01*
X90889355Y-96539045D01*
X90893221Y-96391366D01*
X142097873Y-96391366D01*
X142132270Y-96671514D01*
X142207700Y-96943502D01*
X142322502Y-97201352D01*
X142474156Y-97439401D01*
X142659330Y-97652420D01*
X142873957Y-97835728D01*
X143113321Y-97985299D01*
X143372164Y-98097848D01*
X143644798Y-98170900D01*
X143925237Y-98202851D01*
X144207318Y-98193001D01*
X144484843Y-98141565D01*
X144751718Y-98049672D01*
X145002080Y-97919343D01*
X145230427Y-97753438D01*
X145431743Y-97555605D01*
X145601607Y-97330188D01*
X145736286Y-97082140D01*
X145832823Y-96816910D01*
X145889355Y-96539045D01*
X145899276Y-96160164D01*
X145857364Y-95879722D01*
X145774841Y-95609802D01*
X145653329Y-95355045D01*
X145495495Y-95121047D01*
X145304808Y-94912948D01*
X145085456Y-94735322D01*
X144842259Y-94592068D01*
X144580559Y-94486334D01*
X144306105Y-94420443D01*
X144024926Y-94395844D01*
X143743201Y-94413074D01*
X143467115Y-94471758D01*
X143202737Y-94570605D01*
X142955874Y-94707443D01*
X142731948Y-94879268D01*
X142535879Y-95082304D01*
X142371974Y-95312090D01*
X142243834Y-95563579D01*
X142154275Y-95831246D01*
X142105261Y-96109210D01*
X142097873Y-96391366D01*
X90893221Y-96391366D01*
X90899276Y-96160164D01*
X90857364Y-95879722D01*
X90774841Y-95609802D01*
X90653329Y-95355045D01*
X90495495Y-95121047D01*
X90304808Y-94912948D01*
X90085456Y-94735322D01*
X89842259Y-94592068D01*
X89580559Y-94486334D01*
X89306105Y-94420443D01*
X89024926Y-94395844D01*
X88743201Y-94413074D01*
X88467115Y-94471758D01*
X88202737Y-94570605D01*
X87955874Y-94707443D01*
X87731948Y-94879268D01*
X87535879Y-95082304D01*
X87371974Y-95312090D01*
X87243834Y-95563579D01*
X87154275Y-95831246D01*
X87105261Y-96109210D01*
X87097873Y-96391366D01*
X85299000Y-96391366D01*
X85299000Y-93299000D01*
X147701001Y-93299000D01*
X147701000Y-142701000D01*
G37*
X147701000Y-142701000D02*
X85299000Y-142701000D01*
X85299000Y-137302745D01*
X90947082Y-137302745D01*
X90947082Y-139822245D01*
X90968348Y-139929159D01*
X91034433Y-140028062D01*
X91133336Y-140094147D01*
X91240250Y-140115413D01*
X93759750Y-140115413D01*
X93866664Y-140094147D01*
X93965567Y-140028062D01*
X94031652Y-139929159D01*
X94052918Y-139822245D01*
X94052918Y-138651967D01*
X96028275Y-138651967D01*
X96063723Y-138904202D01*
X96139894Y-139147262D01*
X96254739Y-139374616D01*
X96405175Y-139580161D01*
X96587162Y-139758376D01*
X96795811Y-139904474D01*
X97025521Y-140014532D01*
X97270122Y-140085595D01*
X97523045Y-140115754D01*
X97777497Y-140104200D01*
X98026646Y-140051241D01*
X98263799Y-139958302D01*
X98482589Y-139827877D01*
X98677138Y-139663470D01*
X98842224Y-139469494D01*
X98973412Y-139251162D01*
X99067178Y-139014335D01*
X99121264Y-138764181D01*
X99124006Y-138651967D01*
X101108275Y-138651967D01*
X101143723Y-138904202D01*
X101219894Y-139147262D01*
X101334739Y-139374616D01*
X101485175Y-139580161D01*
X101667162Y-139758376D01*
X101875811Y-139904474D01*
X102105521Y-140014532D01*
X102350122Y-140085595D01*
X102603045Y-140115754D01*
X102857497Y-140104200D01*
X103106646Y-140051241D01*
X103286673Y-139980689D01*
X106541010Y-139980689D01*
X106638863Y-140064259D01*
X106872932Y-140210520D01*
X107126050Y-140320580D01*
X107392654Y-140392016D01*
X107666890Y-140423261D01*
X107942733Y-140413629D01*
X108214120Y-140363330D01*
X108475092Y-140273470D01*
X108719917Y-140146023D01*
X108942562Y-139984261D01*
X107740000Y-138781698D01*
X106541010Y-139980689D01*
X103286673Y-139980689D01*
X103343799Y-139958302D01*
X103562589Y-139827877D01*
X103757138Y-139663470D01*
X103922224Y-139469494D01*
X104053412Y-139251162D01*
X104147178Y-139014335D01*
X104201264Y-138764181D01*
X104204009Y-138651840D01*
X105879942Y-138651840D01*
X105913580Y-138925792D01*
X105987341Y-139191764D01*
X106099603Y-139443912D01*
X106309658Y-139773633D01*
X107520797Y-138562495D01*
X107959203Y-138562495D01*
X109160258Y-139763549D01*
X109306184Y-139569899D01*
X109437885Y-139327336D01*
X109532286Y-139067972D01*
X109587573Y-138796225D01*
X109597274Y-138425780D01*
X109556284Y-138151512D01*
X109475587Y-137887562D01*
X109356762Y-137638440D01*
X109166031Y-137355668D01*
X107959203Y-138562495D01*
X107520797Y-138562495D01*
X106317325Y-137359024D01*
X106147981Y-137596435D01*
X106022675Y-137842361D01*
X105935097Y-138104108D01*
X105887168Y-138375925D01*
X105879942Y-138651840D01*
X104204009Y-138651840D01*
X104209276Y-138436340D01*
X104167475Y-138183844D01*
X104085389Y-137942718D01*
X103965024Y-137718237D01*
X103809610Y-137516430D01*
X103623324Y-137342715D01*
X103411167Y-137201758D01*
X103280062Y-137142837D01*
X106539546Y-137142837D01*
X107740000Y-138343292D01*
X108780546Y-137302745D01*
X112447082Y-137302745D01*
X112447082Y-139822245D01*
X112468348Y-139929159D01*
X112534433Y-140028062D01*
X112633336Y-140094147D01*
X112740250Y-140115413D01*
X115259750Y-140115413D01*
X115366664Y-140094147D01*
X115465567Y-140028062D01*
X115531652Y-139929159D01*
X115552918Y-139822245D01*
X115552918Y-138651967D01*
X117528275Y-138651967D01*
X117563723Y-138904202D01*
X117639894Y-139147262D01*
X117754739Y-139374616D01*
X117905175Y-139580161D01*
X118087162Y-139758376D01*
X118295811Y-139904474D01*
X118525521Y-140014532D01*
X118770122Y-140085595D01*
X119023045Y-140115754D01*
X119277497Y-140104200D01*
X119526646Y-140051241D01*
X119763799Y-139958302D01*
X119982589Y-139827877D01*
X120177138Y-139663470D01*
X120342224Y-139469494D01*
X120473412Y-139251162D01*
X120567178Y-139014335D01*
X120621264Y-138764181D01*
X120624006Y-138651967D01*
X122608275Y-138651967D01*
X122643723Y-138904202D01*
X122719894Y-139147262D01*
X122834739Y-139374616D01*
X122985175Y-139580161D01*
X123167162Y-139758376D01*
X123375811Y-139904474D01*
X123605521Y-140014532D01*
X123850122Y-140085595D01*
X124103045Y-140115754D01*
X124357497Y-140104200D01*
X124606646Y-140051241D01*
X124786673Y-139980689D01*
X128041010Y-139980689D01*
X128138863Y-140064259D01*
X128372932Y-140210520D01*
X128626050Y-140320580D01*
X128892654Y-140392016D01*
X129166890Y-140423261D01*
X129442733Y-140413629D01*
X129714120Y-140363330D01*
X129975092Y-140273470D01*
X130219917Y-140146023D01*
X130442562Y-139984261D01*
X129240000Y-138781698D01*
X128041010Y-139980689D01*
X124786673Y-139980689D01*
X124843799Y-139958302D01*
X125062589Y-139827877D01*
X125257138Y-139663470D01*
X125422224Y-139469494D01*
X125553412Y-139251162D01*
X125647178Y-139014335D01*
X125701264Y-138764181D01*
X125704009Y-138651840D01*
X127379942Y-138651840D01*
X127413580Y-138925792D01*
X127487341Y-139191764D01*
X127599603Y-139443912D01*
X127809658Y-139773633D01*
X129020797Y-138562495D01*
X129459203Y-138562495D01*
X130660258Y-139763549D01*
X130806184Y-139569899D01*
X130937885Y-139327336D01*
X131032286Y-139067972D01*
X131087573Y-138796225D01*
X131097274Y-138425780D01*
X131056284Y-138151512D01*
X130975587Y-137887562D01*
X130856762Y-137638440D01*
X130666031Y-137355668D01*
X129459203Y-138562495D01*
X129020797Y-138562495D01*
X127817325Y-137359024D01*
X127647981Y-137596435D01*
X127522675Y-137842361D01*
X127435097Y-138104108D01*
X127387168Y-138375925D01*
X127379942Y-138651840D01*
X125704009Y-138651840D01*
X125709276Y-138436340D01*
X125667475Y-138183844D01*
X125585389Y-137942718D01*
X125465024Y-137718237D01*
X125309610Y-137516430D01*
X125123324Y-137342715D01*
X124911167Y-137201758D01*
X124780062Y-137142837D01*
X128039546Y-137142837D01*
X129240000Y-138343292D01*
X130280546Y-137302745D01*
X133847082Y-137302745D01*
X133847082Y-139822245D01*
X133868348Y-139929159D01*
X133934433Y-140028062D01*
X134033336Y-140094147D01*
X134140250Y-140115413D01*
X136659750Y-140115413D01*
X136766664Y-140094147D01*
X136865567Y-140028062D01*
X136897220Y-139980689D01*
X139281010Y-139980689D01*
X139378863Y-140064259D01*
X139612932Y-140210520D01*
X139866050Y-140320580D01*
X140132654Y-140392016D01*
X140406890Y-140423261D01*
X140682733Y-140413629D01*
X140954120Y-140363330D01*
X141215092Y-140273470D01*
X141459917Y-140146023D01*
X141682562Y-139984261D01*
X140480000Y-138781698D01*
X139281010Y-139980689D01*
X136897220Y-139980689D01*
X136931652Y-139929159D01*
X136952918Y-139822245D01*
X136952918Y-138651840D01*
X138619942Y-138651840D01*
X138653580Y-138925792D01*
X138727341Y-139191764D01*
X138839603Y-139443912D01*
X139049658Y-139773633D01*
X140260797Y-138562495D01*
X140699203Y-138562495D01*
X141900258Y-139763549D01*
X142046184Y-139569899D01*
X142177885Y-139327336D01*
X142272286Y-139067972D01*
X142327573Y-138796225D01*
X142337274Y-138425780D01*
X142296284Y-138151512D01*
X142215587Y-137887562D01*
X142096762Y-137638440D01*
X141906031Y-137355668D01*
X140699203Y-138562495D01*
X140260797Y-138562495D01*
X139057325Y-137359024D01*
X138887981Y-137596435D01*
X138762675Y-137842361D01*
X138675097Y-138104108D01*
X138627168Y-138375925D01*
X138619942Y-138651840D01*
X136952918Y-138651840D01*
X136952918Y-137302745D01*
X136931652Y-137195831D01*
X136896243Y-137142837D01*
X139279546Y-137142837D01*
X140480000Y-138343292D01*
X141679266Y-137144025D01*
X141541449Y-137032423D01*
X141303631Y-136892337D01*
X141047719Y-136788942D01*
X140779335Y-136724508D01*
X140504375Y-136700453D01*
X140228880Y-136717303D01*
X139958902Y-136774688D01*
X139700371Y-136871349D01*
X139458967Y-137005161D01*
X139279546Y-137142837D01*
X136896243Y-137142837D01*
X136865567Y-137096928D01*
X136766664Y-137030843D01*
X136659750Y-137009577D01*
X134140250Y-137009577D01*
X134033336Y-137030843D01*
X133934433Y-137096928D01*
X133868348Y-137195831D01*
X133847082Y-137302745D01*
X130280546Y-137302745D01*
X130439266Y-137144025D01*
X130301449Y-137032423D01*
X130063631Y-136892337D01*
X129807719Y-136788942D01*
X129539335Y-136724508D01*
X129264375Y-136700453D01*
X128988880Y-136717303D01*
X128718902Y-136774688D01*
X128460371Y-136871349D01*
X128218967Y-137005161D01*
X128039546Y-137142837D01*
X124780062Y-137142837D01*
X124678837Y-137097345D01*
X124432573Y-137032278D01*
X124178988Y-137008308D01*
X123924895Y-137026076D01*
X123677114Y-137085105D01*
X123442303Y-137183812D01*
X123226765Y-137319543D01*
X123036290Y-137488655D01*
X122875993Y-137686605D01*
X122750179Y-137908078D01*
X122662227Y-138147125D01*
X122614497Y-138397328D01*
X122608275Y-138651967D01*
X120624006Y-138651967D01*
X120629276Y-138436340D01*
X120587475Y-138183844D01*
X120505389Y-137942718D01*
X120385024Y-137718237D01*
X120229610Y-137516430D01*
X120043324Y-137342715D01*
X119831167Y-137201758D01*
X119598837Y-137097345D01*
X119352573Y-137032278D01*
X119098988Y-137008308D01*
X118844895Y-137026076D01*
X118597114Y-137085105D01*
X118362303Y-137183812D01*
X118146765Y-137319543D01*
X117956290Y-137488655D01*
X117795993Y-137686605D01*
X117670179Y-137908078D01*
X117582227Y-138147125D01*
X117534497Y-138397328D01*
X117528275Y-138651967D01*
X115552918Y-138651967D01*
X115552918Y-137302745D01*
X115531652Y-137195831D01*
X115465567Y-137096928D01*
X115366664Y-137030843D01*
X115259750Y-137009577D01*
X112740250Y-137009577D01*
X112633336Y-137030843D01*
X112534433Y-137096928D01*
X112468348Y-137195831D01*
X112447082Y-137302745D01*
X108780546Y-137302745D01*
X108939266Y-137144025D01*
X108801449Y-137032423D01*
X108563631Y-136892337D01*
X108307719Y-136788942D01*
X108039335Y-136724508D01*
X107764375Y-136700453D01*
X107488880Y-136717303D01*
X107218902Y-136774688D01*
X106960371Y-136871349D01*
X106718967Y-137005161D01*
X106539546Y-137142837D01*
X103280062Y-137142837D01*
X103178837Y-137097345D01*
X102932573Y-137032278D01*
X102678988Y-137008308D01*
X102424895Y-137026076D01*
X102177114Y-137085105D01*
X101942303Y-137183812D01*
X101726765Y-137319543D01*
X101536290Y-137488655D01*
X101375993Y-137686605D01*
X101250179Y-137908078D01*
X101162227Y-138147125D01*
X101114497Y-138397328D01*
X101108275Y-138651967D01*
X99124006Y-138651967D01*
X99129276Y-138436340D01*
X99087475Y-138183844D01*
X99005389Y-137942718D01*
X98885024Y-137718237D01*
X98729610Y-137516430D01*
X98543324Y-137342715D01*
X98331167Y-137201758D01*
X98098837Y-137097345D01*
X97852573Y-137032278D01*
X97598988Y-137008308D01*
X97344895Y-137026076D01*
X97097114Y-137085105D01*
X96862303Y-137183812D01*
X96646765Y-137319543D01*
X96456290Y-137488655D01*
X96295993Y-137686605D01*
X96170179Y-137908078D01*
X96082227Y-138147125D01*
X96034497Y-138397328D01*
X96028275Y-138651967D01*
X94052918Y-138651967D01*
X94052918Y-137302745D01*
X94031652Y-137195831D01*
X93965567Y-137096928D01*
X93866664Y-137030843D01*
X93759750Y-137009577D01*
X91240250Y-137009577D01*
X91133336Y-137030843D01*
X91034433Y-137096928D01*
X90968348Y-137195831D01*
X90947082Y-137302745D01*
X85299000Y-137302745D01*
X85299000Y-131391366D01*
X86097873Y-131391366D01*
X86132270Y-131671514D01*
X86207700Y-131943502D01*
X86322502Y-132201352D01*
X86474156Y-132439401D01*
X86659330Y-132652420D01*
X86873957Y-132835728D01*
X87113321Y-132985299D01*
X87372164Y-133097848D01*
X87644798Y-133170900D01*
X87925237Y-133202851D01*
X88207318Y-133193001D01*
X88484843Y-133141565D01*
X88751718Y-133049672D01*
X89002080Y-132919343D01*
X89230427Y-132753438D01*
X89431743Y-132555605D01*
X89557071Y-132389289D01*
X95001000Y-132389289D01*
X95001000Y-132610711D01*
X95069423Y-132821295D01*
X95199571Y-133000429D01*
X95378705Y-133130577D01*
X95589289Y-133199000D01*
X95810711Y-133199000D01*
X96021295Y-133130577D01*
X96200429Y-133000429D01*
X96330577Y-132821295D01*
X96399000Y-132610711D01*
X96399000Y-132389289D01*
X96368586Y-132295685D01*
X96374982Y-132289289D01*
X121301000Y-132289289D01*
X121301000Y-132510711D01*
X121369423Y-132721295D01*
X121499571Y-132900429D01*
X121678705Y-133030577D01*
X121889289Y-133099000D01*
X122110711Y-133099000D01*
X122321295Y-133030577D01*
X122500429Y-132900429D01*
X122630577Y-132721295D01*
X122699000Y-132510711D01*
X122699000Y-132289289D01*
X122630577Y-132078705D01*
X122500429Y-131899571D01*
X122321295Y-131769423D01*
X122110711Y-131701000D01*
X121889289Y-131701000D01*
X121678705Y-131769423D01*
X121499571Y-131899571D01*
X121369423Y-132078705D01*
X121301000Y-132289289D01*
X96374982Y-132289289D01*
X97874982Y-130789289D01*
X108501000Y-130789289D01*
X108501000Y-131010711D01*
X108569423Y-131221295D01*
X108699571Y-131400429D01*
X108878705Y-131530577D01*
X109089289Y-131599000D01*
X109310711Y-131599000D01*
X109521295Y-131530577D01*
X109700429Y-131400429D01*
X109830577Y-131221295D01*
X109899000Y-131010711D01*
X109899000Y-130789289D01*
X109830577Y-130578705D01*
X109735386Y-130447685D01*
X109800429Y-130400428D01*
X109930577Y-130221294D01*
X109999000Y-130010710D01*
X109999000Y-129789288D01*
X109930577Y-129578704D01*
X109800429Y-129399570D01*
X109621295Y-129269422D01*
X109410711Y-129200999D01*
X109189289Y-129200999D01*
X108978705Y-129269422D01*
X108799571Y-129399570D01*
X108669423Y-129578704D01*
X108601000Y-129789288D01*
X108601000Y-130010710D01*
X108669423Y-130221294D01*
X108764614Y-130352314D01*
X108699571Y-130399571D01*
X108569423Y-130578705D01*
X108501000Y-130789289D01*
X97874982Y-130789289D01*
X98171161Y-130493111D01*
X98189287Y-130499000D01*
X98410709Y-130499000D01*
X98621293Y-130430577D01*
X98800427Y-130300429D01*
X98930575Y-130121295D01*
X98998998Y-129910711D01*
X98998998Y-129689289D01*
X98930575Y-129478705D01*
X98800427Y-129299571D01*
X98621293Y-129169423D01*
X98410709Y-129101000D01*
X98189287Y-129101000D01*
X97978703Y-129169423D01*
X97799569Y-129299571D01*
X97669421Y-129478705D01*
X97600998Y-129689289D01*
X97600998Y-129910711D01*
X97606888Y-129928840D01*
X95734729Y-131801000D01*
X95589289Y-131801000D01*
X95378705Y-131869423D01*
X95199571Y-131999571D01*
X95069423Y-132178705D01*
X95001000Y-132389289D01*
X89557071Y-132389289D01*
X89601607Y-132330188D01*
X89736286Y-132082140D01*
X89832823Y-131816910D01*
X89889355Y-131539045D01*
X89899276Y-131160164D01*
X89857364Y-130879722D01*
X89774841Y-130609802D01*
X89653329Y-130355045D01*
X89495495Y-130121047D01*
X89304808Y-129912948D01*
X89085456Y-129735322D01*
X88842259Y-129592068D01*
X88580559Y-129486334D01*
X88306105Y-129420443D01*
X88024926Y-129395844D01*
X87743201Y-129413074D01*
X87467115Y-129471758D01*
X87202737Y-129570605D01*
X86955874Y-129707443D01*
X86731948Y-129879268D01*
X86535879Y-130082304D01*
X86371974Y-130312090D01*
X86243834Y-130563579D01*
X86154275Y-130831246D01*
X86105261Y-131109210D01*
X86097873Y-131391366D01*
X85299000Y-131391366D01*
X85299000Y-127989287D01*
X125801000Y-127989287D01*
X125801000Y-128210709D01*
X125869423Y-128421293D01*
X125999571Y-128600427D01*
X126101000Y-128674120D01*
X126101001Y-129436952D01*
X126093374Y-129458671D01*
X126101001Y-129527213D01*
X126101001Y-129549970D01*
X126105946Y-129571649D01*
X126113512Y-129639637D01*
X126125993Y-129659533D01*
X126131227Y-129682478D01*
X126174271Y-129736495D01*
X126186131Y-129755401D01*
X126201916Y-129771186D01*
X126244673Y-129824844D01*
X126265730Y-129835001D01*
X127504390Y-131073662D01*
X127498500Y-131091789D01*
X127498500Y-131313211D01*
X127566923Y-131523795D01*
X127697071Y-131702929D01*
X127876205Y-131833077D01*
X128086789Y-131901500D01*
X128308211Y-131901500D01*
X128518795Y-131833077D01*
X128697929Y-131702929D01*
X128828077Y-131523795D01*
X128871105Y-131391366D01*
X143097873Y-131391366D01*
X143132270Y-131671514D01*
X143207700Y-131943502D01*
X143322502Y-132201352D01*
X143474156Y-132439401D01*
X143659330Y-132652420D01*
X143873957Y-132835728D01*
X144113321Y-132985299D01*
X144372164Y-133097848D01*
X144644798Y-133170900D01*
X144925237Y-133202851D01*
X145207318Y-133193001D01*
X145484843Y-133141565D01*
X145751718Y-133049672D01*
X146002080Y-132919343D01*
X146230427Y-132753438D01*
X146431743Y-132555605D01*
X146601607Y-132330188D01*
X146736286Y-132082140D01*
X146832823Y-131816910D01*
X146889355Y-131539045D01*
X146899276Y-131160164D01*
X146857364Y-130879722D01*
X146774841Y-130609802D01*
X146653329Y-130355045D01*
X146495495Y-130121047D01*
X146304808Y-129912948D01*
X146085456Y-129735322D01*
X145842259Y-129592068D01*
X145580559Y-129486334D01*
X145306105Y-129420443D01*
X145024926Y-129395844D01*
X144743201Y-129413074D01*
X144467115Y-129471758D01*
X144202737Y-129570605D01*
X143955874Y-129707443D01*
X143731948Y-129879268D01*
X143535879Y-130082304D01*
X143371974Y-130312090D01*
X143243834Y-130563579D01*
X143154275Y-130831246D01*
X143105261Y-131109210D01*
X143097873Y-131391366D01*
X128871105Y-131391366D01*
X128896500Y-131313211D01*
X128896500Y-131091789D01*
X128828077Y-130881205D01*
X128697929Y-130702071D01*
X128518795Y-130571923D01*
X128308211Y-130503500D01*
X128086789Y-130503500D01*
X128068662Y-130509390D01*
X126899000Y-129339729D01*
X126899000Y-128674119D01*
X127000429Y-128600427D01*
X127130577Y-128421293D01*
X127199000Y-128210709D01*
X127199000Y-127989287D01*
X127130577Y-127778703D01*
X127000429Y-127599569D01*
X126821295Y-127469421D01*
X126610711Y-127400998D01*
X126389289Y-127400998D01*
X126178705Y-127469421D01*
X125999571Y-127599569D01*
X125869423Y-127778703D01*
X125801000Y-127989287D01*
X85299000Y-127989287D01*
X85299000Y-124389289D01*
X115401000Y-124389289D01*
X115401000Y-124610711D01*
X115469423Y-124821295D01*
X115599571Y-125000429D01*
X115778705Y-125130577D01*
X115989289Y-125199000D01*
X116210711Y-125199000D01*
X116421295Y-125130577D01*
X116600429Y-125000429D01*
X116674121Y-124899000D01*
X120125879Y-124899000D01*
X120199571Y-125000429D01*
X120378705Y-125130577D01*
X120589289Y-125199000D01*
X120810711Y-125199000D01*
X121021295Y-125130577D01*
X121200429Y-125000429D01*
X121330577Y-124821295D01*
X121399000Y-124610711D01*
X121399000Y-124389289D01*
X121330577Y-124178705D01*
X121200429Y-123999571D01*
X121021295Y-123869423D01*
X120810711Y-123801000D01*
X120589289Y-123801000D01*
X120378705Y-123869423D01*
X120199571Y-123999571D01*
X120125879Y-124101000D01*
X116674121Y-124101000D01*
X116600429Y-123999571D01*
X116421295Y-123869423D01*
X116210711Y-123801000D01*
X115989289Y-123801000D01*
X115778705Y-123869423D01*
X115599571Y-123999571D01*
X115469423Y-124178705D01*
X115401000Y-124389289D01*
X85299000Y-124389289D01*
X85299000Y-123914837D01*
X86945000Y-123914837D01*
X87254999Y-123914837D01*
X89213034Y-123914837D01*
X89504742Y-123836674D01*
X89672162Y-123696192D01*
X89779193Y-123510809D01*
X89814837Y-123308661D01*
X89814837Y-122780000D01*
X87255000Y-122779999D01*
X87254999Y-123914837D01*
X86945000Y-123914837D01*
X86945001Y-122780000D01*
X85299000Y-122779999D01*
X85299000Y-122725323D01*
X103928284Y-122725323D01*
X103928284Y-122946745D01*
X103996707Y-123157329D01*
X104126855Y-123336463D01*
X104305989Y-123466611D01*
X104516573Y-123535034D01*
X104737995Y-123535034D01*
X104948579Y-123466611D01*
X105014148Y-123418973D01*
X105026855Y-123436463D01*
X105205989Y-123566611D01*
X105416573Y-123635034D01*
X105637995Y-123635034D01*
X105848579Y-123566611D01*
X106027713Y-123436463D01*
X106157861Y-123257329D01*
X106226284Y-123046745D01*
X106226284Y-122935034D01*
X106337995Y-122935034D01*
X106548579Y-122866611D01*
X106727713Y-122736463D01*
X106857861Y-122557329D01*
X106926284Y-122346745D01*
X106926284Y-122125323D01*
X106857861Y-121914739D01*
X106727713Y-121735605D01*
X106663965Y-121689289D01*
X129351000Y-121689289D01*
X129351000Y-121910711D01*
X129419423Y-122121295D01*
X129549571Y-122300429D01*
X129728705Y-122430577D01*
X129939289Y-122499000D01*
X130160711Y-122499000D01*
X130371295Y-122430577D01*
X130500000Y-122337068D01*
X130628705Y-122430577D01*
X130711991Y-122457638D01*
X130637071Y-122512071D01*
X130506923Y-122691205D01*
X130438500Y-122901789D01*
X130438500Y-123123211D01*
X130506923Y-123333795D01*
X130637071Y-123512929D01*
X130816205Y-123643077D01*
X131026789Y-123711500D01*
X131248211Y-123711500D01*
X131458795Y-123643077D01*
X131637929Y-123512929D01*
X131687500Y-123444700D01*
X131737071Y-123512929D01*
X131916205Y-123643077D01*
X132126789Y-123711500D01*
X132348211Y-123711500D01*
X132558795Y-123643077D01*
X132737929Y-123512929D01*
X132786915Y-123445505D01*
X132799571Y-123462924D01*
X132978705Y-123593072D01*
X133189289Y-123661495D01*
X133410711Y-123661495D01*
X133621295Y-123593072D01*
X133800429Y-123462924D01*
X133930577Y-123283790D01*
X133999000Y-123073206D01*
X133999000Y-122851784D01*
X133930577Y-122641200D01*
X133800429Y-122462066D01*
X133655885Y-122357049D01*
X142648000Y-122357049D01*
X142664548Y-122525816D01*
X142730130Y-122743030D01*
X142836652Y-122943369D01*
X142980058Y-123119203D01*
X143154886Y-123263834D01*
X143354478Y-123371752D01*
X143650000Y-123463231D01*
X143650000Y-123460497D01*
X143959999Y-123460497D01*
X144240515Y-123377938D01*
X144441594Y-123272817D01*
X144618424Y-123130641D01*
X144764272Y-122956827D01*
X144873581Y-122757994D01*
X144942294Y-122541383D01*
X144962000Y-122353890D01*
X144962000Y-122105000D01*
X143960000Y-122104999D01*
X143959999Y-123460497D01*
X143650000Y-123460497D01*
X143650001Y-122105000D01*
X142648000Y-122104999D01*
X142648000Y-122357049D01*
X133655885Y-122357049D01*
X133621295Y-122331918D01*
X133410711Y-122263495D01*
X133189289Y-122263495D01*
X132978705Y-122331918D01*
X132799571Y-122462066D01*
X132750585Y-122529490D01*
X132737929Y-122512071D01*
X132558795Y-122381923D01*
X132406411Y-122332410D01*
X132450429Y-122300429D01*
X132580577Y-122121295D01*
X132649000Y-121910711D01*
X132649000Y-121689289D01*
X132602479Y-121546110D01*
X142648000Y-121546110D01*
X142648000Y-121795000D01*
X143650000Y-121795001D01*
X143650000Y-121795000D01*
X143959999Y-121795000D01*
X144962000Y-121795001D01*
X144962000Y-121542951D01*
X144945452Y-121374184D01*
X144879871Y-121156970D01*
X144773349Y-120956631D01*
X144629943Y-120780797D01*
X144455114Y-120636166D01*
X144255522Y-120528248D01*
X143960000Y-120436769D01*
X143959999Y-121795000D01*
X143650000Y-121795000D01*
X143650001Y-120439503D01*
X143369485Y-120522062D01*
X143168406Y-120627183D01*
X142991576Y-120769359D01*
X142845728Y-120943173D01*
X142736419Y-121142007D01*
X142667706Y-121358617D01*
X142648000Y-121546110D01*
X132602479Y-121546110D01*
X132580577Y-121478705D01*
X132450429Y-121299571D01*
X132271295Y-121169423D01*
X132060711Y-121101000D01*
X131839289Y-121101000D01*
X131628705Y-121169423D01*
X131450000Y-121299259D01*
X131271295Y-121169423D01*
X131060711Y-121101000D01*
X130839289Y-121101000D01*
X130628705Y-121169423D01*
X130500000Y-121262932D01*
X130371295Y-121169423D01*
X130160711Y-121101000D01*
X129939289Y-121101000D01*
X129728705Y-121169423D01*
X129549571Y-121299571D01*
X129419423Y-121478705D01*
X129351000Y-121689289D01*
X106663965Y-121689289D01*
X106548579Y-121605457D01*
X106337995Y-121537034D01*
X106116573Y-121537034D01*
X105905989Y-121605457D01*
X105726855Y-121735605D01*
X105596707Y-121914739D01*
X105528284Y-122125323D01*
X105528284Y-122237034D01*
X105416573Y-122237034D01*
X105205989Y-122305457D01*
X105140420Y-122353095D01*
X105127713Y-122335605D01*
X104948579Y-122205457D01*
X104737995Y-122137034D01*
X104516573Y-122137034D01*
X104305989Y-122205457D01*
X104126855Y-122335605D01*
X103996707Y-122514739D01*
X103928284Y-122725323D01*
X85299000Y-122725323D01*
X85299000Y-122470000D01*
X86945000Y-122470001D01*
X86945000Y-122470000D01*
X87254999Y-122470000D01*
X89814837Y-122470001D01*
X89814837Y-121936966D01*
X89736674Y-121645259D01*
X89596192Y-121477838D01*
X89410809Y-121370807D01*
X89208661Y-121335163D01*
X87255000Y-121335163D01*
X87254999Y-122470000D01*
X86945000Y-122470000D01*
X86945001Y-121335163D01*
X85299000Y-121335163D01*
X85299000Y-118264837D01*
X86945000Y-118264837D01*
X87254999Y-118264837D01*
X89213034Y-118264837D01*
X89504742Y-118186674D01*
X89672162Y-118046192D01*
X89779193Y-117860809D01*
X89814837Y-117658661D01*
X89814837Y-117130000D01*
X87255000Y-117129999D01*
X87254999Y-118264837D01*
X86945000Y-118264837D01*
X86945001Y-117130000D01*
X85299000Y-117129999D01*
X85299000Y-116820000D01*
X86945000Y-116820001D01*
X86945000Y-116820000D01*
X87254999Y-116820000D01*
X89814837Y-116820001D01*
X89814837Y-116389289D01*
X117901000Y-116389289D01*
X117901000Y-116610711D01*
X117969423Y-116821295D01*
X118099571Y-117000429D01*
X118201000Y-117074122D01*
X118201001Y-119125878D01*
X118099571Y-119199571D01*
X117969423Y-119378705D01*
X117901000Y-119589289D01*
X117901000Y-119810711D01*
X117969423Y-120021295D01*
X118099571Y-120200429D01*
X118278705Y-120330577D01*
X118489289Y-120399000D01*
X118710711Y-120399000D01*
X118921295Y-120330577D01*
X119100429Y-120200429D01*
X119150000Y-120132200D01*
X119199571Y-120200429D01*
X119378705Y-120330577D01*
X119589289Y-120399000D01*
X119810711Y-120399000D01*
X120021295Y-120330577D01*
X120200429Y-120200429D01*
X120330577Y-120021295D01*
X120399000Y-119810711D01*
X120399000Y-119589289D01*
X120330577Y-119378705D01*
X120200429Y-119199571D01*
X120099000Y-119125879D01*
X120099000Y-118089289D01*
X123301000Y-118089289D01*
X123301000Y-118310711D01*
X123369423Y-118521295D01*
X123499571Y-118700429D01*
X123678705Y-118830577D01*
X123889289Y-118899000D01*
X124110711Y-118899000D01*
X124127997Y-118893384D01*
X124133563Y-118897835D01*
X124149663Y-118913934D01*
X124168487Y-118925764D01*
X124221913Y-118968491D01*
X124244809Y-118973734D01*
X124264731Y-118986256D01*
X124333357Y-118994014D01*
X124355121Y-118998999D01*
X124377448Y-118998999D01*
X124445619Y-119006706D01*
X124467689Y-118998999D01*
X124725100Y-118998999D01*
X124716330Y-119007769D01*
X124698201Y-119001879D01*
X124476779Y-119001879D01*
X124266195Y-119070302D01*
X124087061Y-119200450D01*
X123956913Y-119379584D01*
X123888490Y-119590168D01*
X123888490Y-119811590D01*
X123956913Y-120022174D01*
X124087061Y-120201308D01*
X124266195Y-120331456D01*
X124476779Y-120399879D01*
X124698201Y-120399879D01*
X124908785Y-120331456D01*
X125087919Y-120201308D01*
X125094064Y-120192850D01*
X125099571Y-120200429D01*
X125278705Y-120330577D01*
X125489289Y-120399000D01*
X125710711Y-120399000D01*
X125728839Y-120393110D01*
X125969759Y-120634031D01*
X125979723Y-120654780D01*
X126033570Y-120697843D01*
X126049673Y-120713945D01*
X126068502Y-120725779D01*
X126121925Y-120768503D01*
X126144824Y-120773747D01*
X126164745Y-120786268D01*
X126233369Y-120794026D01*
X126255133Y-120799011D01*
X126277460Y-120799011D01*
X126345631Y-120806718D01*
X126367701Y-120799011D01*
X129831943Y-120799011D01*
X129853660Y-120806637D01*
X129922193Y-120799011D01*
X129944958Y-120799011D01*
X129966646Y-120794064D01*
X130034624Y-120786499D01*
X130054521Y-120774018D01*
X130077468Y-120768783D01*
X130131487Y-120725737D01*
X130150390Y-120713880D01*
X130166170Y-120698100D01*
X130219833Y-120655339D01*
X130229991Y-120634280D01*
X132224982Y-118639289D01*
X132651000Y-118639289D01*
X132651000Y-118860711D01*
X132719423Y-119071295D01*
X132849571Y-119250429D01*
X133028705Y-119380577D01*
X133239289Y-119449000D01*
X133446583Y-119449000D01*
X133401000Y-119589289D01*
X133401000Y-119810711D01*
X133469423Y-120021295D01*
X133599571Y-120200429D01*
X133778705Y-120330577D01*
X133989289Y-120399000D01*
X134210711Y-120399000D01*
X134421295Y-120330577D01*
X134600429Y-120200429D01*
X134730577Y-120021295D01*
X134799000Y-119810711D01*
X134799000Y-119757049D01*
X144798000Y-119757049D01*
X144814549Y-119925816D01*
X144880130Y-120143030D01*
X144986652Y-120343369D01*
X145130058Y-120519203D01*
X145304886Y-120663834D01*
X145504478Y-120771752D01*
X145800000Y-120863231D01*
X145800000Y-120860497D01*
X146109999Y-120860497D01*
X146390515Y-120777938D01*
X146591594Y-120672817D01*
X146768424Y-120530641D01*
X146914272Y-120356827D01*
X147023581Y-120157994D01*
X147092294Y-119941384D01*
X147112000Y-119753891D01*
X147112000Y-119305000D01*
X146110000Y-119304999D01*
X146109999Y-120860497D01*
X145800000Y-120860497D01*
X145800001Y-119305000D01*
X144798000Y-119304999D01*
X144798000Y-119757049D01*
X134799000Y-119757049D01*
X134799000Y-119589289D01*
X134730577Y-119378705D01*
X134600429Y-119199571D01*
X134421295Y-119069423D01*
X134210711Y-119001000D01*
X134003417Y-119001000D01*
X134049000Y-118860711D01*
X134049000Y-118639289D01*
X134018725Y-118546110D01*
X144798000Y-118546110D01*
X144798000Y-118995000D01*
X145800000Y-118995001D01*
X145800000Y-118995000D01*
X146109999Y-118995000D01*
X147112000Y-118995001D01*
X147112000Y-118542951D01*
X147095452Y-118374184D01*
X147029871Y-118156970D01*
X146923349Y-117956631D01*
X146779943Y-117780797D01*
X146605114Y-117636166D01*
X146405522Y-117528248D01*
X146110000Y-117436769D01*
X146109999Y-118995000D01*
X145800000Y-118995000D01*
X145800001Y-117439503D01*
X145519485Y-117522062D01*
X145318406Y-117627183D01*
X145141576Y-117769359D01*
X144995728Y-117943173D01*
X144886419Y-118142007D01*
X144817706Y-118358617D01*
X144798000Y-118546110D01*
X134018725Y-118546110D01*
X133980577Y-118428705D01*
X133850429Y-118249571D01*
X133671295Y-118119423D01*
X133460711Y-118051000D01*
X133239289Y-118051000D01*
X133028705Y-118119423D01*
X132849571Y-118249571D01*
X132719423Y-118428705D01*
X132651000Y-118639289D01*
X132224982Y-118639289D01*
X133165272Y-117699000D01*
X134531954Y-117699000D01*
X134553671Y-117706626D01*
X134622204Y-117699000D01*
X134644969Y-117699000D01*
X134666657Y-117694053D01*
X134734635Y-117686488D01*
X134754532Y-117674007D01*
X134777479Y-117668772D01*
X134831498Y-117625726D01*
X134850401Y-117613869D01*
X134866181Y-117598089D01*
X134919845Y-117555327D01*
X134930002Y-117534269D01*
X135471162Y-116993110D01*
X135489289Y-116999000D01*
X135710711Y-116999000D01*
X135921295Y-116930577D01*
X136100429Y-116800429D01*
X136230577Y-116621295D01*
X136299000Y-116410711D01*
X136299000Y-116389289D01*
X137901000Y-116389289D01*
X137901000Y-116610711D01*
X137969423Y-116821295D01*
X138099571Y-117000429D01*
X138278705Y-117130577D01*
X138489289Y-117199000D01*
X138710711Y-117199000D01*
X138921295Y-117130577D01*
X139100429Y-117000429D01*
X139230577Y-116821295D01*
X139251451Y-116757049D01*
X142648000Y-116757049D01*
X142664548Y-116925816D01*
X142730130Y-117143030D01*
X142836652Y-117343369D01*
X142980058Y-117519203D01*
X143154886Y-117663834D01*
X143354478Y-117771752D01*
X143650000Y-117863231D01*
X143650000Y-117860497D01*
X143959999Y-117860497D01*
X144240515Y-117777938D01*
X144441594Y-117672817D01*
X144618424Y-117530641D01*
X144764272Y-117356827D01*
X144873581Y-117157994D01*
X144942294Y-116941383D01*
X144962000Y-116753890D01*
X144962000Y-116505000D01*
X143960000Y-116504999D01*
X143959999Y-117860497D01*
X143650000Y-117860497D01*
X143650001Y-116505000D01*
X142648000Y-116504999D01*
X142648000Y-116757049D01*
X139251451Y-116757049D01*
X139299000Y-116610711D01*
X139299000Y-116389289D01*
X139230577Y-116178705D01*
X139100429Y-115999571D01*
X139026846Y-115946110D01*
X142648000Y-115946110D01*
X142648000Y-116195000D01*
X143650000Y-116195001D01*
X143650000Y-116195000D01*
X143959999Y-116195000D01*
X144962000Y-116195001D01*
X144962000Y-115942951D01*
X144945452Y-115774184D01*
X144879871Y-115556970D01*
X144773349Y-115356631D01*
X144629943Y-115180797D01*
X144455114Y-115036166D01*
X144255522Y-114928248D01*
X143960000Y-114836769D01*
X143959999Y-116195000D01*
X143650000Y-116195000D01*
X143650001Y-114839503D01*
X143369485Y-114922062D01*
X143168406Y-115027183D01*
X142991576Y-115169359D01*
X142845728Y-115343173D01*
X142736419Y-115542007D01*
X142667706Y-115758617D01*
X142648000Y-115946110D01*
X139026846Y-115946110D01*
X138921295Y-115869423D01*
X138710711Y-115801000D01*
X138489289Y-115801000D01*
X138278705Y-115869423D01*
X138099571Y-115999571D01*
X137969423Y-116178705D01*
X137901000Y-116389289D01*
X136299000Y-116389289D01*
X136299000Y-116189289D01*
X136230577Y-115978705D01*
X136100429Y-115799571D01*
X135921295Y-115669423D01*
X135710711Y-115601000D01*
X135489289Y-115601000D01*
X135278705Y-115669423D01*
X135099571Y-115799571D01*
X134969423Y-115978705D01*
X134951650Y-116033403D01*
X134881412Y-115936728D01*
X134702278Y-115806580D01*
X134491694Y-115738157D01*
X134270272Y-115738157D01*
X134059688Y-115806580D01*
X133880554Y-115936728D01*
X133750406Y-116115862D01*
X133681983Y-116326446D01*
X133681983Y-116438156D01*
X132930890Y-116438156D01*
X132909173Y-116430530D01*
X132840636Y-116438156D01*
X132817874Y-116438156D01*
X132796195Y-116443102D01*
X132728207Y-116450667D01*
X132708310Y-116463149D01*
X132685366Y-116468383D01*
X132631349Y-116511427D01*
X132612442Y-116523287D01*
X132596658Y-116539071D01*
X132543000Y-116581828D01*
X132532843Y-116602885D01*
X129534729Y-119601000D01*
X127962004Y-119601000D01*
X128100429Y-119500429D01*
X128230577Y-119321295D01*
X128299000Y-119110711D01*
X128299000Y-118889289D01*
X128230577Y-118678705D01*
X128100429Y-118499571D01*
X127921295Y-118369423D01*
X127819614Y-118336385D01*
X127830577Y-118321295D01*
X127899000Y-118110711D01*
X127899000Y-117889289D01*
X127830577Y-117678705D01*
X127700429Y-117499571D01*
X127521295Y-117369423D01*
X127310711Y-117301000D01*
X127089289Y-117301000D01*
X127040311Y-117316914D01*
X127035264Y-117313742D01*
X126966641Y-117305985D01*
X126944878Y-117301000D01*
X126922551Y-117301000D01*
X126854380Y-117293293D01*
X126832310Y-117301000D01*
X125474121Y-117301000D01*
X125400429Y-117199571D01*
X125221295Y-117069423D01*
X125010711Y-117001000D01*
X124789289Y-117001000D01*
X124578705Y-117069423D01*
X124399571Y-117199571D01*
X124269423Y-117378705D01*
X124218326Y-117535966D01*
X124110711Y-117501000D01*
X123889289Y-117501000D01*
X123678705Y-117569423D01*
X123499571Y-117699571D01*
X123369423Y-117878705D01*
X123301000Y-118089289D01*
X120099000Y-118089289D01*
X120099000Y-116974121D01*
X120200429Y-116900429D01*
X120330577Y-116721295D01*
X120399000Y-116510711D01*
X120399000Y-116289289D01*
X120330577Y-116078705D01*
X120200429Y-115899571D01*
X120021295Y-115769423D01*
X119810711Y-115701000D01*
X119589289Y-115701000D01*
X119378705Y-115769423D01*
X119199571Y-115899571D01*
X119113673Y-116017800D01*
X119100429Y-115999571D01*
X118921295Y-115869423D01*
X118710711Y-115801000D01*
X118489289Y-115801000D01*
X118278705Y-115869423D01*
X118099571Y-115999571D01*
X117969423Y-116178705D01*
X117901000Y-116389289D01*
X89814837Y-116389289D01*
X89814837Y-116286966D01*
X89736674Y-115995259D01*
X89596192Y-115827838D01*
X89410809Y-115720807D01*
X89208661Y-115685163D01*
X87255000Y-115685163D01*
X87254999Y-116820000D01*
X86945000Y-116820000D01*
X86945001Y-115685163D01*
X85299000Y-115685163D01*
X85299000Y-110489289D01*
X120401000Y-110489289D01*
X120401000Y-110710711D01*
X120469423Y-110921295D01*
X120599571Y-111100429D01*
X120778705Y-111230577D01*
X120989289Y-111299000D01*
X121210711Y-111299000D01*
X121421295Y-111230577D01*
X121501000Y-111172668D01*
X121501001Y-113025878D01*
X121399571Y-113099571D01*
X121269423Y-113278705D01*
X121201000Y-113489289D01*
X121201000Y-113710711D01*
X121269423Y-113921295D01*
X121399571Y-114100429D01*
X121578705Y-114230577D01*
X121789289Y-114299000D01*
X122010711Y-114299000D01*
X122221295Y-114230577D01*
X122400429Y-114100429D01*
X122530577Y-113921295D01*
X122599000Y-113710711D01*
X122599000Y-113489289D01*
X122530577Y-113278705D01*
X122400429Y-113099571D01*
X122299000Y-113025879D01*
X122299000Y-108665270D01*
X122671161Y-108293110D01*
X122689289Y-108299000D01*
X122910711Y-108299000D01*
X123121295Y-108230577D01*
X123300429Y-108100429D01*
X123430577Y-107921295D01*
X123434131Y-107910358D01*
X123499571Y-108000429D01*
X123601001Y-108074122D01*
X123601000Y-111534728D01*
X123065981Y-112069748D01*
X123045232Y-112079712D01*
X123002165Y-112133564D01*
X122986066Y-112149664D01*
X122974231Y-112168494D01*
X122931509Y-112221914D01*
X122926265Y-112244811D01*
X122913743Y-112264734D01*
X122905983Y-112333369D01*
X122901001Y-112355122D01*
X122901001Y-112377440D01*
X122893293Y-112445620D01*
X122901001Y-112467693D01*
X122901000Y-113725878D01*
X122799571Y-113799571D01*
X122669423Y-113978705D01*
X122601000Y-114189289D01*
X122601000Y-114410711D01*
X122669423Y-114621295D01*
X122799571Y-114800429D01*
X122978705Y-114930577D01*
X123189289Y-114999000D01*
X123410711Y-114999000D01*
X123621295Y-114930577D01*
X123800429Y-114800429D01*
X123930577Y-114621295D01*
X123934617Y-114608860D01*
X123938661Y-114621305D01*
X124068809Y-114800439D01*
X124247943Y-114930587D01*
X124458527Y-114999010D01*
X124679949Y-114999010D01*
X124764043Y-114971686D01*
X124628839Y-115106890D01*
X124610711Y-115101000D01*
X124389289Y-115101000D01*
X124178705Y-115169423D01*
X123999571Y-115299571D01*
X123869423Y-115478705D01*
X123801000Y-115689289D01*
X123801000Y-115910711D01*
X123869423Y-116121295D01*
X123999571Y-116300429D01*
X124178705Y-116430577D01*
X124389289Y-116499000D01*
X124610711Y-116499000D01*
X124718326Y-116464034D01*
X124769423Y-116621295D01*
X124899571Y-116800429D01*
X125078705Y-116930577D01*
X125289289Y-116999000D01*
X125510711Y-116999000D01*
X125721295Y-116930577D01*
X125900429Y-116800429D01*
X126030577Y-116621295D01*
X126099000Y-116410711D01*
X126099000Y-116189289D01*
X126093110Y-116171161D01*
X127565273Y-114699000D01*
X127625879Y-114699000D01*
X127699571Y-114800429D01*
X127878705Y-114930577D01*
X128089289Y-114999000D01*
X128310711Y-114999000D01*
X128521295Y-114930577D01*
X128700429Y-114800429D01*
X128830577Y-114621295D01*
X128899000Y-114410711D01*
X128899000Y-114189289D01*
X128830577Y-113978705D01*
X128700429Y-113799571D01*
X128686277Y-113789289D01*
X139001000Y-113789289D01*
X139001000Y-114010711D01*
X139069423Y-114221295D01*
X139199571Y-114400429D01*
X139378705Y-114530577D01*
X139589289Y-114599000D01*
X139810711Y-114599000D01*
X140021295Y-114530577D01*
X140200429Y-114400429D01*
X140330577Y-114221295D01*
X140399000Y-114010711D01*
X140399000Y-113789289D01*
X140330577Y-113578705D01*
X140200429Y-113399571D01*
X140021295Y-113269423D01*
X139810711Y-113201000D01*
X139589289Y-113201000D01*
X139378705Y-113269423D01*
X139199571Y-113399571D01*
X139069423Y-113578705D01*
X139001000Y-113789289D01*
X128686277Y-113789289D01*
X128521295Y-113669423D01*
X128425858Y-113638413D01*
X129234020Y-112830252D01*
X129254769Y-112820288D01*
X129297836Y-112766436D01*
X129313935Y-112750336D01*
X129325765Y-112731512D01*
X129368492Y-112678086D01*
X129373735Y-112655190D01*
X129386257Y-112635268D01*
X129394015Y-112566642D01*
X129399000Y-112544878D01*
X129399000Y-112522551D01*
X129406707Y-112454380D01*
X129399000Y-112432310D01*
X129399000Y-111574121D01*
X129500429Y-111500429D01*
X129630577Y-111321295D01*
X129699000Y-111110711D01*
X129699000Y-110889289D01*
X129682754Y-110839289D01*
X132601000Y-110839289D01*
X132601000Y-111060711D01*
X132669423Y-111271295D01*
X132799571Y-111450429D01*
X132978705Y-111580577D01*
X133189289Y-111649000D01*
X133308117Y-111649000D01*
X133308117Y-111843558D01*
X133376540Y-112054142D01*
X133506688Y-112233276D01*
X133685822Y-112363424D01*
X133896406Y-112431847D01*
X134117828Y-112431847D01*
X134328412Y-112363424D01*
X134507546Y-112233276D01*
X134613989Y-112086769D01*
X136303520Y-112086769D01*
X136303520Y-112308191D01*
X136371943Y-112518775D01*
X136502091Y-112697909D01*
X136681225Y-112828057D01*
X136891809Y-112896480D01*
X137113231Y-112896480D01*
X137323815Y-112828057D01*
X137502949Y-112697909D01*
X137633097Y-112518775D01*
X137701520Y-112308191D01*
X137701520Y-112086769D01*
X137633097Y-111876185D01*
X137502949Y-111697051D01*
X137323815Y-111566903D01*
X137113231Y-111498480D01*
X136891809Y-111498480D01*
X136681225Y-111566903D01*
X136502091Y-111697051D01*
X136371943Y-111876185D01*
X136303520Y-112086769D01*
X134613989Y-112086769D01*
X134637694Y-112054142D01*
X134706117Y-111843558D01*
X134706117Y-111622136D01*
X134637694Y-111411552D01*
X134507546Y-111232418D01*
X134406117Y-111158726D01*
X134406117Y-109858154D01*
X135571162Y-108693110D01*
X135589289Y-108699000D01*
X135810711Y-108699000D01*
X136021295Y-108630577D01*
X136200429Y-108500429D01*
X136330577Y-108321295D01*
X136399000Y-108110711D01*
X136399000Y-107937171D01*
X136589289Y-107999000D01*
X136810711Y-107999000D01*
X137021295Y-107930577D01*
X137200429Y-107800429D01*
X137330577Y-107621295D01*
X137399000Y-107410711D01*
X137399000Y-107289289D01*
X140601000Y-107289289D01*
X140601000Y-107510711D01*
X140669423Y-107721295D01*
X140799571Y-107900429D01*
X140978705Y-108030577D01*
X141189289Y-108099000D01*
X141410711Y-108099000D01*
X141621295Y-108030577D01*
X141800429Y-107900429D01*
X141930577Y-107721295D01*
X141999000Y-107510711D01*
X141999000Y-107289289D01*
X141930577Y-107078705D01*
X141800429Y-106899571D01*
X141621295Y-106769423D01*
X141410711Y-106701000D01*
X141189289Y-106701000D01*
X140978705Y-106769423D01*
X140799571Y-106899571D01*
X140669423Y-107078705D01*
X140601000Y-107289289D01*
X137399000Y-107289289D01*
X137399000Y-107189289D01*
X137330577Y-106978705D01*
X137200429Y-106799571D01*
X137021295Y-106669423D01*
X136810711Y-106601000D01*
X136589289Y-106601000D01*
X136378705Y-106669423D01*
X136199571Y-106799571D01*
X136125879Y-106901000D01*
X135418046Y-106901000D01*
X135396329Y-106893374D01*
X135327792Y-106901000D01*
X135305030Y-106901000D01*
X135283351Y-106905946D01*
X135215363Y-106913511D01*
X135195466Y-106925993D01*
X135172522Y-106931227D01*
X135118505Y-106974271D01*
X135099598Y-106986131D01*
X135083814Y-107001915D01*
X135030156Y-107044672D01*
X135019999Y-107065729D01*
X133065981Y-109019748D01*
X133045232Y-109029712D01*
X133002165Y-109083564D01*
X132986066Y-109099664D01*
X132974231Y-109118494D01*
X132931509Y-109171914D01*
X132926265Y-109194811D01*
X132913743Y-109214734D01*
X132905983Y-109283369D01*
X132901001Y-109305122D01*
X132901001Y-109327440D01*
X132893293Y-109395620D01*
X132901001Y-109417693D01*
X132901000Y-110375878D01*
X132799571Y-110449571D01*
X132669423Y-110628705D01*
X132601000Y-110839289D01*
X129682754Y-110839289D01*
X129630577Y-110678705D01*
X129500429Y-110499571D01*
X129321295Y-110369423D01*
X129110711Y-110301000D01*
X128889289Y-110301000D01*
X128678705Y-110369423D01*
X128499571Y-110499571D01*
X128369423Y-110678705D01*
X128301000Y-110889289D01*
X128301000Y-111110711D01*
X128369423Y-111321295D01*
X128499571Y-111500429D01*
X128601000Y-111574122D01*
X128601001Y-112334727D01*
X127734729Y-113201000D01*
X126768046Y-113201000D01*
X126746329Y-113193374D01*
X126677792Y-113201000D01*
X126655030Y-113201000D01*
X126633351Y-113205946D01*
X126565363Y-113213511D01*
X126545466Y-113225993D01*
X126522522Y-113231227D01*
X126468505Y-113274271D01*
X126449598Y-113286131D01*
X126433814Y-113301915D01*
X126380156Y-113344672D01*
X126369999Y-113365729D01*
X125240914Y-114494814D01*
X125268238Y-114410721D01*
X125268238Y-114189299D01*
X125262348Y-114171171D01*
X125834020Y-113599500D01*
X125854767Y-113589537D01*
X125897832Y-113535688D01*
X125913932Y-113519587D01*
X125925765Y-113500761D01*
X125968491Y-113447335D01*
X125973734Y-113424439D01*
X125986256Y-113404517D01*
X125994014Y-113335893D01*
X125998999Y-113314128D01*
X125998999Y-113291801D01*
X126006706Y-113223630D01*
X125998999Y-113201560D01*
X125998999Y-108468024D01*
X126006625Y-108446307D01*
X125998999Y-108377774D01*
X125998999Y-108355008D01*
X125994053Y-108333326D01*
X125986487Y-108265340D01*
X125974006Y-108245444D01*
X125968773Y-108222501D01*
X125925727Y-108168482D01*
X125913869Y-108149576D01*
X125898084Y-108133791D01*
X125893403Y-108127917D01*
X125899000Y-108110690D01*
X125899000Y-107889268D01*
X125830577Y-107678684D01*
X125700429Y-107499550D01*
X125521295Y-107369402D01*
X125310711Y-107300979D01*
X125089289Y-107300979D01*
X124878705Y-107369402D01*
X124699571Y-107499550D01*
X124699000Y-107500336D01*
X124699000Y-107389289D01*
X124630577Y-107178705D01*
X124500429Y-106999571D01*
X124321295Y-106869423D01*
X124110711Y-106801000D01*
X123889289Y-106801000D01*
X123678705Y-106869423D01*
X123499571Y-106999571D01*
X123369423Y-107178705D01*
X123365869Y-107189642D01*
X123300429Y-107099571D01*
X123121295Y-106969423D01*
X122910711Y-106901000D01*
X122689289Y-106901000D01*
X122478705Y-106969423D01*
X122299571Y-107099571D01*
X122169423Y-107278705D01*
X122101000Y-107489289D01*
X122101000Y-107710711D01*
X122106890Y-107728839D01*
X121898999Y-107936730D01*
X121899000Y-106974122D01*
X122000429Y-106900429D01*
X122130577Y-106721295D01*
X122199000Y-106510711D01*
X122199000Y-106289289D01*
X122130577Y-106078705D01*
X122000429Y-105899571D01*
X121821295Y-105769423D01*
X121610711Y-105701000D01*
X121389289Y-105701000D01*
X121178705Y-105769423D01*
X120999571Y-105899571D01*
X120869423Y-106078705D01*
X120801000Y-106289289D01*
X120801000Y-106510711D01*
X120869423Y-106721295D01*
X120999571Y-106900429D01*
X121101001Y-106974122D01*
X121100999Y-109901000D01*
X120989289Y-109901000D01*
X120778705Y-109969423D01*
X120599571Y-110099571D01*
X120469423Y-110278705D01*
X120401000Y-110489289D01*
X85299000Y-110489289D01*
X85299000Y-109089289D01*
X115801000Y-109089289D01*
X115801000Y-109310711D01*
X115869423Y-109521295D01*
X115999571Y-109700429D01*
X116178705Y-109830577D01*
X116389289Y-109899000D01*
X116610711Y-109899000D01*
X116821295Y-109830577D01*
X117000429Y-109700429D01*
X117130577Y-109521295D01*
X117199000Y-109310711D01*
X117199000Y-109089289D01*
X117130577Y-108878705D01*
X117000429Y-108699571D01*
X116821295Y-108569423D01*
X116610711Y-108501000D01*
X116389289Y-108501000D01*
X116178705Y-108569423D01*
X115999571Y-108699571D01*
X115869423Y-108878705D01*
X115801000Y-109089289D01*
X85299000Y-109089289D01*
X85299000Y-104789289D01*
X127501000Y-104789289D01*
X127501000Y-105010711D01*
X127569423Y-105221295D01*
X127699571Y-105400429D01*
X127801001Y-105474122D01*
X127801000Y-107533027D01*
X127793374Y-107554744D01*
X127801000Y-107623277D01*
X127801000Y-107646042D01*
X127805946Y-107667724D01*
X127813512Y-107735710D01*
X127825993Y-107755606D01*
X127831226Y-107778549D01*
X127874272Y-107832569D01*
X127886131Y-107851474D01*
X127901913Y-107867256D01*
X127944671Y-107920915D01*
X127965728Y-107931073D01*
X129408884Y-109374229D01*
X129402994Y-109392356D01*
X129402994Y-109613778D01*
X129471417Y-109824362D01*
X129601565Y-110003496D01*
X129780699Y-110133644D01*
X129991283Y-110202067D01*
X130212705Y-110202067D01*
X130423289Y-110133644D01*
X130602423Y-110003496D01*
X130732571Y-109824362D01*
X130800994Y-109613778D01*
X130800994Y-109392356D01*
X130732571Y-109181772D01*
X130602423Y-109002638D01*
X130423289Y-108872490D01*
X130212705Y-108804067D01*
X129991283Y-108804067D01*
X129973156Y-108809957D01*
X128599000Y-107435802D01*
X128599000Y-105689289D01*
X129101000Y-105689289D01*
X129101000Y-105910711D01*
X129169423Y-106121295D01*
X129299571Y-106300429D01*
X129478705Y-106430577D01*
X129689289Y-106499000D01*
X129910711Y-106499000D01*
X130121295Y-106430577D01*
X130300429Y-106300429D01*
X130430577Y-106121295D01*
X130499000Y-105910711D01*
X130499000Y-105689289D01*
X130469989Y-105600000D01*
X138950591Y-105600000D01*
X138974135Y-105786370D01*
X139043288Y-105961031D01*
X139153705Y-106113006D01*
X139298447Y-106232747D01*
X139468420Y-106312730D01*
X139652944Y-106347930D01*
X139840425Y-106336134D01*
X140019083Y-106278086D01*
X140177692Y-106177429D01*
X140306284Y-106040491D01*
X140396782Y-105875876D01*
X140443500Y-105693926D01*
X140443500Y-105506074D01*
X140396782Y-105324124D01*
X140306284Y-105159509D01*
X140177692Y-105022571D01*
X140019083Y-104921914D01*
X139840425Y-104863866D01*
X139652944Y-104852070D01*
X139468420Y-104887270D01*
X139298447Y-104967253D01*
X139153705Y-105086994D01*
X139043288Y-105238969D01*
X138974135Y-105413630D01*
X138950591Y-105600000D01*
X130469989Y-105600000D01*
X130430577Y-105478705D01*
X130300429Y-105299571D01*
X130121295Y-105169423D01*
X129910711Y-105101000D01*
X129689289Y-105101000D01*
X129478705Y-105169423D01*
X129299571Y-105299571D01*
X129169423Y-105478705D01*
X129101000Y-105689289D01*
X128599000Y-105689289D01*
X128599000Y-105474121D01*
X128700429Y-105400429D01*
X128830577Y-105221295D01*
X128899000Y-105010711D01*
X128899000Y-104789289D01*
X128830577Y-104578705D01*
X128700429Y-104399571D01*
X128521295Y-104269423D01*
X128310711Y-104201000D01*
X128089289Y-104201000D01*
X127878705Y-104269423D01*
X127699571Y-104399571D01*
X127569423Y-104578705D01*
X127501000Y-104789289D01*
X85299000Y-104789289D01*
X85299000Y-99889289D01*
X136901000Y-99889289D01*
X136901000Y-100110711D01*
X136969423Y-100321295D01*
X137099571Y-100500429D01*
X137278705Y-100630577D01*
X137489289Y-100699000D01*
X137710711Y-100699000D01*
X137921295Y-100630577D01*
X137946268Y-100612433D01*
X137958135Y-100706370D01*
X138027288Y-100881031D01*
X138137705Y-101033006D01*
X138282447Y-101152747D01*
X138452420Y-101232730D01*
X138636944Y-101267930D01*
X138824425Y-101256134D01*
X139003083Y-101198086D01*
X139161692Y-101097429D01*
X139290284Y-100960491D01*
X139380782Y-100795876D01*
X139427500Y-100613926D01*
X139427500Y-100520000D01*
X139966591Y-100520000D01*
X139990135Y-100706370D01*
X140059288Y-100881031D01*
X140169705Y-101033006D01*
X140314447Y-101152747D01*
X140484420Y-101232730D01*
X140668944Y-101267930D01*
X140856425Y-101256134D01*
X141035083Y-101198086D01*
X141193692Y-101097429D01*
X141322284Y-100960491D01*
X141412782Y-100795876D01*
X141459500Y-100613926D01*
X141459500Y-100426074D01*
X141412782Y-100244124D01*
X141322284Y-100079509D01*
X141193692Y-99942571D01*
X141035083Y-99841914D01*
X140856425Y-99783866D01*
X140668944Y-99772070D01*
X140484420Y-99807270D01*
X140314447Y-99887253D01*
X140169705Y-100006994D01*
X140059288Y-100158969D01*
X139990135Y-100333630D01*
X139966591Y-100520000D01*
X139427500Y-100520000D01*
X139427500Y-100426074D01*
X139380782Y-100244124D01*
X139290284Y-100079509D01*
X139161692Y-99942571D01*
X139003083Y-99841914D01*
X138824425Y-99783866D01*
X138636944Y-99772070D01*
X138452420Y-99807270D01*
X138296231Y-99880767D01*
X138230577Y-99678705D01*
X138100429Y-99499571D01*
X137921295Y-99369423D01*
X137710711Y-99301000D01*
X137489289Y-99301000D01*
X137278705Y-99369423D01*
X137099571Y-99499571D01*
X136969423Y-99678705D01*
X136901000Y-99889289D01*
X85299000Y-99889289D01*
X85299000Y-96391366D01*
X87097873Y-96391366D01*
X87132270Y-96671514D01*
X87207700Y-96943502D01*
X87322502Y-97201352D01*
X87474156Y-97439401D01*
X87659330Y-97652420D01*
X87873957Y-97835728D01*
X88113321Y-97985299D01*
X88372164Y-98097848D01*
X88644798Y-98170900D01*
X88925237Y-98202851D01*
X89207318Y-98193001D01*
X89484843Y-98141565D01*
X89751718Y-98049672D01*
X90002080Y-97919343D01*
X90230427Y-97753438D01*
X90431743Y-97555605D01*
X90601607Y-97330188D01*
X90736286Y-97082140D01*
X90832823Y-96816910D01*
X90889355Y-96539045D01*
X90893221Y-96391366D01*
X142097873Y-96391366D01*
X142132270Y-96671514D01*
X142207700Y-96943502D01*
X142322502Y-97201352D01*
X142474156Y-97439401D01*
X142659330Y-97652420D01*
X142873957Y-97835728D01*
X143113321Y-97985299D01*
X143372164Y-98097848D01*
X143644798Y-98170900D01*
X143925237Y-98202851D01*
X144207318Y-98193001D01*
X144484843Y-98141565D01*
X144751718Y-98049672D01*
X145002080Y-97919343D01*
X145230427Y-97753438D01*
X145431743Y-97555605D01*
X145601607Y-97330188D01*
X145736286Y-97082140D01*
X145832823Y-96816910D01*
X145889355Y-96539045D01*
X145899276Y-96160164D01*
X145857364Y-95879722D01*
X145774841Y-95609802D01*
X145653329Y-95355045D01*
X145495495Y-95121047D01*
X145304808Y-94912948D01*
X145085456Y-94735322D01*
X144842259Y-94592068D01*
X144580559Y-94486334D01*
X144306105Y-94420443D01*
X144024926Y-94395844D01*
X143743201Y-94413074D01*
X143467115Y-94471758D01*
X143202737Y-94570605D01*
X142955874Y-94707443D01*
X142731948Y-94879268D01*
X142535879Y-95082304D01*
X142371974Y-95312090D01*
X142243834Y-95563579D01*
X142154275Y-95831246D01*
X142105261Y-96109210D01*
X142097873Y-96391366D01*
X90893221Y-96391366D01*
X90899276Y-96160164D01*
X90857364Y-95879722D01*
X90774841Y-95609802D01*
X90653329Y-95355045D01*
X90495495Y-95121047D01*
X90304808Y-94912948D01*
X90085456Y-94735322D01*
X89842259Y-94592068D01*
X89580559Y-94486334D01*
X89306105Y-94420443D01*
X89024926Y-94395844D01*
X88743201Y-94413074D01*
X88467115Y-94471758D01*
X88202737Y-94570605D01*
X87955874Y-94707443D01*
X87731948Y-94879268D01*
X87535879Y-95082304D01*
X87371974Y-95312090D01*
X87243834Y-95563579D01*
X87154275Y-95831246D01*
X87105261Y-96109210D01*
X87097873Y-96391366D01*
X85299000Y-96391366D01*
X85299000Y-93299000D01*
X147701001Y-93299000D01*
X147701000Y-142701000D01*
M02*
