M48
; DRILL file {KiCad 5.99.0-unknown-d20d310~86~ubuntu18.04.1} date Thu 19 Dec 2019 03:55:44 PM EET
; FORMAT={-:-/ absolute / metric / decimal}
; #@! TF.CreationDate,2019-12-19T15:55:44+02:00
; #@! TF.GenerationSoftware,Kicad,Pcbnew,5.99.0-unknown-d20d310~86~ubuntu18.04.1
FMAT,2
METRIC
T1C0.400
T2C0.500
T3C1.300
T4C0.889
T5C3.200
%
G90
G05
T1
X85.7Y-125.5
X85.8Y-114.0
X85.8Y-117.1
X85.8Y-118.2
X85.8Y-121.4
X85.8Y-122.6
X85.9Y-142.0
X86.0Y-94.0
X86.3Y-126.9
X86.7Y-125.5
X86.8Y-114.0
X86.8Y-117.1
X86.8Y-118.2
X86.8Y-121.4
X86.8Y-122.6
X87.0Y-105.0
X87.7Y-125.5
X87.8Y-114.0
X87.8Y-117.1
X87.8Y-118.2
X87.8Y-121.4
X87.8Y-122.6
X88.7Y-125.5
X88.8Y-114.0
X88.8Y-117.1
X88.8Y-118.2
X88.8Y-121.4
X88.8Y-122.6
X89.7Y-125.5
X89.8Y-114.0
X89.8Y-117.1
X89.8Y-118.2
X89.8Y-121.4
X89.8Y-122.6
X91.1Y-115.5
X91.1Y-118.7
X91.1Y-120.9
X91.1Y-124.0
X92.1Y-118.7
X92.1Y-120.9
X92.327Y-106.336
X92.327Y-111.336
X93.1Y-118.7
X93.1Y-120.9
X94.1Y-118.7
X94.1Y-120.9
X95.0Y-141.7
X95.027Y-118.736
X95.027Y-120.836
X95.7Y-132.5
X95.727Y-103.836
X95.827Y-114.736
X95.827Y-115.736
X95.827Y-116.736
X95.827Y-117.736
X96.0Y-120.9
X96.027Y-118.736
X96.8Y-129.5
X96.927Y-118.036
X97.0Y-94.075
X97.0Y-121.336
X97.127Y-102.236
X97.127Y-105.336
X97.327Y-111.336
X98.1Y-121.0
X98.127Y-118.336
X98.3Y-129.8
X99.127Y-118.336
X99.127Y-121.336
X99.8Y-133.8
X100.227Y-118.336
X100.227Y-121.336
X100.6Y-134.6
X101.327Y-111.336
X101.327Y-116.336
X101.5Y-133.7
X102.0Y-94.075
X102.427Y-121.836
X103.427Y-122.836
X104.627Y-122.836
X105.0Y-141.7
X105.127Y-116.336
X105.527Y-122.936
X105.96Y-140.2
X106.0Y-94.075
X106.0Y-102.1
X106.06Y-137.1
X106.227Y-122.236
X107.327Y-111.336
X109.06Y-140.2
X109.2Y-130.9
X109.26Y-137.1
X109.3Y-129.9
X111.1Y-102.2
X111.1Y-105.4
X112.0Y-94.0
X112.4Y-103.8
X112.6Y-119.7
X113.9Y-141.8
X114.0Y-131.7
X114.4Y-110.0
X115.1Y-131.3
X116.0Y-94.0
X116.1Y-124.5
X116.1Y-132.9
X116.5Y-122.1
X116.7Y-138.7
X118.0Y-128.9
X118.3Y-134.5
X118.6Y-116.5
X118.6Y-119.7
X119.0Y-102.1
X119.7Y-116.4
X119.7Y-119.7
X120.7Y-124.5
X120.8Y-112.7
X120.9Y-129.9
X121.5Y-106.4
X121.6Y-119.9
X121.9Y-113.6
X122.0Y-132.4
X122.0Y-139.9
X122.6Y-123.7
X122.8Y-107.6
X123.0Y-94.0
X123.2Y-115.6
X123.3Y-110.6
X123.3Y-114.3
X123.3Y-131.2
X123.4Y-125.8
X124.0Y-107.5
X124.0Y-118.2
X124.5Y-115.8
X124.569Y-114.3
X124.587Y-119.701
X124.6Y-112.9
X124.8Y-110.9
X124.9Y-117.7
X125.2Y-100.8
X125.2Y-108.0
X125.2Y-136.8
X125.4Y-116.3
X125.6Y-119.7
X126.0Y-132.9
X126.5Y-128.1
X127.2Y-118.0
X127.4Y-123.1
X127.45Y-128.8
X127.5Y-106.9
X127.6Y-119.0
X127.7Y-137.2
X127.7Y-140.4
X127.8Y-112.5
X127.9Y-130.7
X128.0Y-94.0
X128.0Y-110.1
X128.2Y-104.9
X128.2Y-114.3
X128.4Y-124.4
X128.45Y-122.0
X128.45Y-127.6
X129.0Y-111.0
X129.0Y-130.8
X129.8Y-105.8
X129.8Y-113.0
X129.9Y-115.5
X130.0Y-96.5
X130.0Y-141.7
X130.05Y-121.8
X130.102Y-109.503
X130.3Y-130.8
X130.5Y-137.2
X130.6Y-103.8
X130.6Y-140.2
X130.95Y-121.8
X131.05Y-125.7
X131.137Y-123.012
X131.7Y-109.6
X131.95Y-121.8
X132.1Y-103.8
X132.237Y-123.012
X132.5Y-102.2
X132.8Y-112.5
X132.9Y-125.7
X133.1Y-115.7
X133.3Y-110.95
X133.3Y-122.962
X133.35Y-118.75
X133.45Y-127.5
X133.7Y-101.1
X134.0Y-112.9
X134.0Y-128.8
X134.007Y-111.733
X134.1Y-119.7
X134.2Y-93.7
X134.381Y-116.437
X134.8Y-102.2
X134.9Y-103.4
X134.9Y-106.1
X135.6Y-109.1
X135.6Y-116.3
X135.676Y-117.6
X135.7Y-108.0
X135.7Y-119.7
X136.1Y-101.1
X136.3Y-97.5
X136.3Y-98.7
X136.3Y-99.9
X136.6Y-118.7
X136.7Y-107.3
X137.0Y-108.7
X137.003Y-112.197
X137.3Y-105.5
X137.4Y-102.2
X137.4Y-103.8
X137.4Y-116.8
X137.6Y-100.0
X137.8Y-97.2
X138.3Y-117.6
X138.4Y-136.7
X138.4Y-137.7
X138.4Y-138.7
X138.4Y-139.7
X138.4Y-140.7
X138.4Y-141.7
X138.6Y-116.5
X138.7Y-132.8
X139.3Y-108.7
X139.4Y-97.5
X139.4Y-98.7
X139.4Y-119.3
X139.4Y-136.7
X139.4Y-140.7
X139.4Y-141.7
X139.7Y-113.9
X139.7Y-116.7
X139.832Y-121.85
X140.1Y-107.8
X140.1Y-115.6
X140.38Y-119.35
X140.4Y-109.9
X140.4Y-111.1
X140.4Y-112.3
X140.4Y-136.7
X140.4Y-140.7
X140.4Y-141.7
X140.6Y-99.3
X140.6Y-121.0
X140.6Y-122.6
X140.7Y-114.6
X140.8Y-113.4
X140.8Y-132.8
X141.0Y-106.9
X141.4Y-136.7
X141.4Y-140.7
X141.4Y-141.7
X141.8Y-99.9
X141.8Y-105.9
X141.8Y-132.2
X141.8Y-133.3
X141.9Y-101.1
X141.9Y-102.3
X141.9Y-103.5
X142.0Y-104.7
X142.4Y-136.7
X142.4Y-137.7
X142.4Y-138.7
X142.4Y-139.7
X142.4Y-140.7
X142.4Y-141.7
X145.18Y-117.15
X145.98Y-116.45
X145.98Y-121.45
X146.0Y-105.0
X146.0Y-125.0
X147.0Y-94.0
X147.0Y-141.9
T3
X114.0Y-138.562
X119.08Y-138.562
X124.16Y-138.562
X129.24Y-138.562
X135.4Y-138.562
X140.48Y-138.562
X92.5Y-138.562
X97.58Y-138.562
X102.66Y-138.562
X107.74Y-138.562
T4
X138.684Y-100.52
X139.7Y-105.6
X140.716Y-100.52
T5
X89.0Y-96.3
X145.0Y-131.3
X88.0Y-131.3
X144.0Y-96.3
T2
G00X143.805Y-116.7
M15
G01X143.805Y-116.0
M16
G05
G00X143.805Y-122.3
M15
G01X143.805Y-121.6
M16
G05
G00X145.955Y-119.7
M15
G01X145.955Y-118.6
M16
G05
T0
M30
