G04 #@! TF.GenerationSoftware,KiCad,Pcbnew,5.99.0-unknown-d20d310~86~ubuntu18.04.1*
G04 #@! TF.CreationDate,2019-12-19T15:55:41+02:00*
G04 #@! TF.ProjectId,lora-bridge,6c6f7261-2d62-4726-9964-67652e6b6963,1.1*
G04 #@! TF.SameCoordinates,Original*
G04 #@! TF.FileFunction,Legend,Bot*
G04 #@! TF.FilePolarity,Positive*
%FSLAX46Y46*%
G04 Gerber Fmt 4.6, Leading zero omitted, Abs format (unit mm)*
G04 Created by KiCad (PCBNEW 5.99.0-unknown-d20d310~86~ubuntu18.04.1) date 2019-12-19 15:55:41*
%MOMM*%
%LPD*%
G04 APERTURE LIST*
%ADD10C,0.150000*%
%ADD11C,0.010000*%
%ADD12R,5.182000X1.602000*%
%ADD13R,2.602000X2.602000*%
%ADD14C,2.602000*%
%ADD15C,3.302000*%
%ADD16O,1.202000X1.902000*%
%ADD17O,1.202000X2.302000*%
G04 APERTURE END LIST*
D10*
X136902500Y-106967619D02*
X136902500Y-107967619D01*
X137235833Y-107253333D01*
X137569166Y-107967619D01*
X137569166Y-106967619D01*
X138473928Y-106967619D02*
X138473928Y-107491428D01*
X138426309Y-107586666D01*
X138331071Y-107634285D01*
X138140595Y-107634285D01*
X138045357Y-107586666D01*
X138473928Y-107015238D02*
X138378690Y-106967619D01*
X138140595Y-106967619D01*
X138045357Y-107015238D01*
X137997738Y-107110476D01*
X137997738Y-107205714D01*
X138045357Y-107300952D01*
X138140595Y-107348571D01*
X138378690Y-107348571D01*
X138473928Y-107396190D01*
X138950119Y-107634285D02*
X138950119Y-106967619D01*
X138950119Y-107539047D02*
X138997738Y-107586666D01*
X139092976Y-107634285D01*
X139235833Y-107634285D01*
X139331071Y-107586666D01*
X139378690Y-107491428D01*
X139378690Y-106967619D01*
X140283452Y-107634285D02*
X140283452Y-106967619D01*
X139854880Y-107634285D02*
X139854880Y-107110476D01*
X139902500Y-107015238D01*
X139997738Y-106967619D01*
X140140595Y-106967619D01*
X140235833Y-107015238D01*
X140283452Y-107062857D01*
X140616785Y-107634285D02*
X140997738Y-107634285D01*
X140759642Y-106967619D02*
X140759642Y-107824761D01*
X140807261Y-107920000D01*
X140902500Y-107967619D01*
X140997738Y-107967619D01*
X141759642Y-106967619D02*
X141759642Y-107491428D01*
X141712023Y-107586666D01*
X141616785Y-107634285D01*
X141426309Y-107634285D01*
X141331071Y-107586666D01*
X141759642Y-107015238D02*
X141664404Y-106967619D01*
X141426309Y-106967619D01*
X141331071Y-107015238D01*
X141283452Y-107110476D01*
X141283452Y-107205714D01*
X141331071Y-107300952D01*
X141426309Y-107348571D01*
X141664404Y-107348571D01*
X141759642Y-107396190D01*
X142664404Y-107015238D02*
X142569166Y-106967619D01*
X142378690Y-106967619D01*
X142283452Y-107015238D01*
X142235833Y-107062857D01*
X142188214Y-107158095D01*
X142188214Y-107443809D01*
X142235833Y-107539047D01*
X142283452Y-107586666D01*
X142378690Y-107634285D01*
X142569166Y-107634285D01*
X142664404Y-107586666D01*
X142950119Y-107634285D02*
X143331071Y-107634285D01*
X143092976Y-107967619D02*
X143092976Y-107110476D01*
X143140595Y-107015238D01*
X143235833Y-106967619D01*
X143331071Y-106967619D01*
X144092976Y-107634285D02*
X144092976Y-106967619D01*
X143664404Y-107634285D02*
X143664404Y-107110476D01*
X143712023Y-107015238D01*
X143807261Y-106967619D01*
X143950119Y-106967619D01*
X144045357Y-107015238D01*
X144092976Y-107062857D01*
X144569166Y-106967619D02*
X144569166Y-107634285D01*
X144569166Y-107443809D02*
X144616785Y-107539047D01*
X144664404Y-107586666D01*
X144759642Y-107634285D01*
X144854880Y-107634285D01*
X145569166Y-107015238D02*
X145473928Y-106967619D01*
X145283452Y-106967619D01*
X145188214Y-107015238D01*
X145140595Y-107110476D01*
X145140595Y-107491428D01*
X145188214Y-107586666D01*
X145283452Y-107634285D01*
X145473928Y-107634285D01*
X145569166Y-107586666D01*
X145616785Y-107491428D01*
X145616785Y-107396190D01*
X145140595Y-107300952D01*
X146045357Y-106967619D02*
X146045357Y-107634285D01*
X146045357Y-107443809D02*
X146092976Y-107539047D01*
X146140595Y-107586666D01*
X146235833Y-107634285D01*
X146331071Y-107634285D01*
X146664404Y-107062857D02*
X146712023Y-107015238D01*
X146664404Y-106967619D01*
X146616785Y-107015238D01*
X146664404Y-107062857D01*
X146664404Y-106967619D01*
X146664404Y-107586666D02*
X146712023Y-107539047D01*
X146664404Y-107491428D01*
X146616785Y-107539047D01*
X146664404Y-107586666D01*
X146664404Y-107491428D01*
X133521547Y-105643333D02*
X133997738Y-105643333D01*
X133426309Y-105357619D02*
X133759642Y-106357619D01*
X134092976Y-105357619D01*
X134569166Y-105357619D02*
X134473928Y-105405238D01*
X134426309Y-105500476D01*
X134426309Y-106357619D01*
X134950119Y-105357619D02*
X134950119Y-106357619D01*
X134950119Y-105976666D02*
X135045357Y-106024285D01*
X135235833Y-106024285D01*
X135331071Y-105976666D01*
X135378690Y-105929047D01*
X135426309Y-105833809D01*
X135426309Y-105548095D01*
X135378690Y-105452857D01*
X135331071Y-105405238D01*
X135235833Y-105357619D01*
X135045357Y-105357619D01*
X134950119Y-105405238D01*
X136235833Y-105405238D02*
X136140595Y-105357619D01*
X135950119Y-105357619D01*
X135854880Y-105405238D01*
X135807261Y-105500476D01*
X135807261Y-105881428D01*
X135854880Y-105976666D01*
X135950119Y-106024285D01*
X136140595Y-106024285D01*
X136235833Y-105976666D01*
X136283452Y-105881428D01*
X136283452Y-105786190D01*
X135807261Y-105690952D01*
X136712023Y-105357619D02*
X136712023Y-106024285D01*
X136712023Y-105833809D02*
X136759642Y-105929047D01*
X136807261Y-105976666D01*
X136902500Y-106024285D01*
X136997738Y-106024285D01*
X137188214Y-106024285D02*
X137569166Y-106024285D01*
X137331071Y-106357619D02*
X137331071Y-105500476D01*
X137378690Y-105405238D01*
X137473928Y-105357619D01*
X137569166Y-105357619D01*
X138331071Y-105357619D02*
X138331071Y-105881428D01*
X138283452Y-105976666D01*
X138188214Y-106024285D01*
X137997738Y-106024285D01*
X137902500Y-105976666D01*
X138331071Y-105405238D02*
X138235833Y-105357619D01*
X137997738Y-105357619D01*
X137902500Y-105405238D01*
X137854880Y-105500476D01*
X137854880Y-105595714D01*
X137902500Y-105690952D01*
X137997738Y-105738571D01*
X138235833Y-105738571D01*
X138331071Y-105786190D01*
X138759642Y-105405238D02*
X138854880Y-105357619D01*
X139045357Y-105357619D01*
X139140595Y-105405238D01*
X139188214Y-105500476D01*
X139188214Y-105548095D01*
X139140595Y-105643333D01*
X139045357Y-105690952D01*
X138902500Y-105690952D01*
X138807261Y-105738571D01*
X138759642Y-105833809D01*
X138759642Y-105881428D01*
X138807261Y-105976666D01*
X138902500Y-106024285D01*
X139045357Y-106024285D01*
X139140595Y-105976666D01*
X140378690Y-105357619D02*
X140378690Y-106357619D01*
X140712023Y-105643333D01*
X141045357Y-106357619D01*
X141045357Y-105357619D01*
X141521547Y-105357619D02*
X141521547Y-106024285D01*
X141521547Y-106357619D02*
X141473928Y-106310000D01*
X141521547Y-106262380D01*
X141569166Y-106310000D01*
X141521547Y-106357619D01*
X141521547Y-106262380D01*
X142426309Y-105405238D02*
X142331071Y-105357619D01*
X142140595Y-105357619D01*
X142045357Y-105405238D01*
X141997738Y-105452857D01*
X141950119Y-105548095D01*
X141950119Y-105833809D01*
X141997738Y-105929047D01*
X142045357Y-105976666D01*
X142140595Y-106024285D01*
X142331071Y-106024285D01*
X142426309Y-105976666D01*
X142854880Y-105357619D02*
X142854880Y-106357619D01*
X142950119Y-105738571D02*
X143235833Y-105357619D01*
X143235833Y-106024285D02*
X142854880Y-105643333D01*
X144045357Y-105405238D02*
X143950119Y-105357619D01*
X143759642Y-105357619D01*
X143664404Y-105405238D01*
X143616785Y-105500476D01*
X143616785Y-105881428D01*
X143664404Y-105976666D01*
X143759642Y-106024285D01*
X143950119Y-106024285D01*
X144045357Y-105976666D01*
X144092976Y-105881428D01*
X144092976Y-105786190D01*
X143616785Y-105690952D01*
X143854880Y-106357619D02*
X143807261Y-106310000D01*
X143854880Y-106262380D01*
X143902500Y-106310000D01*
X143854880Y-106357619D01*
X143854880Y-106262380D01*
X144521547Y-106024285D02*
X144521547Y-105357619D01*
X144521547Y-105929047D02*
X144569166Y-105976666D01*
X144664404Y-106024285D01*
X144807261Y-106024285D01*
X144902500Y-105976666D01*
X144950119Y-105881428D01*
X144950119Y-105357619D01*
X145854880Y-105357619D02*
X145854880Y-105881428D01*
X145807261Y-105976666D01*
X145712023Y-106024285D01*
X145521547Y-106024285D01*
X145426309Y-105976666D01*
X145854880Y-105405238D02*
X145759642Y-105357619D01*
X145521547Y-105357619D01*
X145426309Y-105405238D01*
X145378690Y-105500476D01*
X145378690Y-105595714D01*
X145426309Y-105690952D01*
X145521547Y-105738571D01*
X145759642Y-105738571D01*
X145854880Y-105786190D01*
X146283452Y-105405238D02*
X146378690Y-105357619D01*
X146569166Y-105357619D01*
X146664404Y-105405238D01*
X146712023Y-105500476D01*
X146712023Y-105548095D01*
X146664404Y-105643333D01*
X146569166Y-105690952D01*
X146426309Y-105690952D01*
X146331071Y-105738571D01*
X146283452Y-105833809D01*
X146283452Y-105881428D01*
X146331071Y-105976666D01*
X146426309Y-106024285D01*
X146569166Y-106024285D01*
X146664404Y-105976666D01*
X137426309Y-103747619D02*
X137426309Y-104747619D01*
X137759642Y-104033333D01*
X138092976Y-104747619D01*
X138092976Y-103747619D01*
X138569166Y-103747619D02*
X138569166Y-104414285D01*
X138569166Y-104747619D02*
X138521547Y-104700000D01*
X138569166Y-104652380D01*
X138616785Y-104700000D01*
X138569166Y-104747619D01*
X138569166Y-104652380D01*
X139045357Y-104414285D02*
X139045357Y-103747619D01*
X139045357Y-104319047D02*
X139092976Y-104366666D01*
X139188214Y-104414285D01*
X139331071Y-104414285D01*
X139426309Y-104366666D01*
X139473928Y-104271428D01*
X139473928Y-103747619D01*
X140378690Y-103747619D02*
X140378690Y-104747619D01*
X140378690Y-103795238D02*
X140283452Y-103747619D01*
X140092976Y-103747619D01*
X139997738Y-103795238D01*
X139950119Y-103842857D01*
X139902500Y-103938095D01*
X139902500Y-104223809D01*
X139950119Y-104319047D01*
X139997738Y-104366666D01*
X140092976Y-104414285D01*
X140283452Y-104414285D01*
X140378690Y-104366666D01*
X141283452Y-103747619D02*
X141283452Y-104271428D01*
X141235833Y-104366666D01*
X141140595Y-104414285D01*
X140950119Y-104414285D01*
X140854880Y-104366666D01*
X141283452Y-103795238D02*
X141188214Y-103747619D01*
X140950119Y-103747619D01*
X140854880Y-103795238D01*
X140807261Y-103890476D01*
X140807261Y-103985714D01*
X140854880Y-104080952D01*
X140950119Y-104128571D01*
X141188214Y-104128571D01*
X141283452Y-104176190D01*
X142188214Y-104414285D02*
X142188214Y-103747619D01*
X141759642Y-104414285D02*
X141759642Y-103890476D01*
X141807261Y-103795238D01*
X141902500Y-103747619D01*
X142045357Y-103747619D01*
X142140595Y-103795238D01*
X142188214Y-103842857D01*
X143092976Y-104414285D02*
X143092976Y-103604761D01*
X143045357Y-103509523D01*
X142997738Y-103461904D01*
X142902500Y-103414285D01*
X142759642Y-103414285D01*
X142664404Y-103461904D01*
X143092976Y-103795238D02*
X142997738Y-103747619D01*
X142807261Y-103747619D01*
X142712023Y-103795238D01*
X142664404Y-103842857D01*
X142616785Y-103938095D01*
X142616785Y-104223809D01*
X142664404Y-104319047D01*
X142712023Y-104366666D01*
X142807261Y-104414285D01*
X142997738Y-104414285D01*
X143092976Y-104366666D01*
X143712023Y-103747619D02*
X143616785Y-103795238D01*
X143569166Y-103842857D01*
X143521547Y-103938095D01*
X143521547Y-104223809D01*
X143569166Y-104319047D01*
X143616785Y-104366666D01*
X143712023Y-104414285D01*
X143854880Y-104414285D01*
X143950119Y-104366666D01*
X143997738Y-104319047D01*
X144045357Y-104223809D01*
X144045357Y-103938095D01*
X143997738Y-103842857D01*
X143950119Y-103795238D01*
X143854880Y-103747619D01*
X143712023Y-103747619D01*
X145188214Y-104652380D02*
X145235833Y-104700000D01*
X145331071Y-104747619D01*
X145569166Y-104747619D01*
X145664404Y-104700000D01*
X145712023Y-104652380D01*
X145759642Y-104557142D01*
X145759642Y-104461904D01*
X145712023Y-104319047D01*
X145140595Y-103747619D01*
X145759642Y-103747619D01*
X146664404Y-104747619D02*
X146188214Y-104747619D01*
X146140595Y-104271428D01*
X146188214Y-104319047D01*
X146283452Y-104366666D01*
X146521547Y-104366666D01*
X146616785Y-104319047D01*
X146664404Y-104271428D01*
X146712023Y-104176190D01*
X146712023Y-103938095D01*
X146664404Y-103842857D01*
X146616785Y-103795238D01*
X146521547Y-103747619D01*
X146283452Y-103747619D01*
X146188214Y-103795238D01*
X146140595Y-103842857D01*
X136854880Y-103137619D02*
X136950119Y-103137619D01*
X137045357Y-103090000D01*
X137092976Y-103042380D01*
X137140595Y-102947142D01*
X137188214Y-102756666D01*
X137188214Y-102518571D01*
X137140595Y-102328095D01*
X137092976Y-102232857D01*
X137045357Y-102185238D01*
X136950119Y-102137619D01*
X136854880Y-102137619D01*
X136759642Y-102185238D01*
X136712023Y-102232857D01*
X136664404Y-102328095D01*
X136616785Y-102518571D01*
X136616785Y-102756666D01*
X136664404Y-102947142D01*
X136712023Y-103042380D01*
X136759642Y-103090000D01*
X136854880Y-103137619D01*
X137521547Y-103137619D02*
X138140595Y-103137619D01*
X137807261Y-102756666D01*
X137950119Y-102756666D01*
X138045357Y-102709047D01*
X138092976Y-102661428D01*
X138140595Y-102566190D01*
X138140595Y-102328095D01*
X138092976Y-102232857D01*
X138045357Y-102185238D01*
X137950119Y-102137619D01*
X137664404Y-102137619D01*
X137569166Y-102185238D01*
X137521547Y-102232857D01*
X138759642Y-103137619D02*
X138854880Y-103137619D01*
X138950119Y-103090000D01*
X138997738Y-103042380D01*
X139045357Y-102947142D01*
X139092976Y-102756666D01*
X139092976Y-102518571D01*
X139045357Y-102328095D01*
X138997738Y-102232857D01*
X138950119Y-102185238D01*
X138854880Y-102137619D01*
X138759642Y-102137619D01*
X138664404Y-102185238D01*
X138616785Y-102232857D01*
X138569166Y-102328095D01*
X138521547Y-102518571D01*
X138521547Y-102756666D01*
X138569166Y-102947142D01*
X138616785Y-103042380D01*
X138664404Y-103090000D01*
X138759642Y-103137619D01*
X140045357Y-102137619D02*
X139473928Y-102137619D01*
X139759642Y-102137619D02*
X139759642Y-103137619D01*
X139664404Y-102994761D01*
X139569166Y-102899523D01*
X139473928Y-102851904D01*
X140997738Y-102137619D02*
X140426309Y-102137619D01*
X140712023Y-102137619D02*
X140712023Y-103137619D01*
X140616785Y-102994761D01*
X140521547Y-102899523D01*
X140426309Y-102851904D01*
X142045357Y-103137619D02*
X142378690Y-102137619D01*
X142712023Y-103137619D01*
X143045357Y-102137619D02*
X143045357Y-102804285D01*
X143045357Y-103137619D02*
X142997738Y-103090000D01*
X143045357Y-103042380D01*
X143092976Y-103090000D01*
X143045357Y-103137619D01*
X143045357Y-103042380D01*
X143664404Y-102137619D02*
X143569166Y-102185238D01*
X143521547Y-102280476D01*
X143521547Y-103137619D01*
X144045357Y-102804285D02*
X144045357Y-102137619D01*
X144045357Y-102709047D02*
X144092976Y-102756666D01*
X144188214Y-102804285D01*
X144331071Y-102804285D01*
X144426309Y-102756666D01*
X144473928Y-102661428D01*
X144473928Y-102137619D01*
X144950119Y-102137619D02*
X144950119Y-102804285D01*
X144950119Y-103137619D02*
X144902500Y-103090000D01*
X144950119Y-103042380D01*
X144997738Y-103090000D01*
X144950119Y-103137619D01*
X144950119Y-103042380D01*
X145854880Y-102804285D02*
X145854880Y-102137619D01*
X145426309Y-102804285D02*
X145426309Y-102280476D01*
X145473928Y-102185238D01*
X145569166Y-102137619D01*
X145712023Y-102137619D01*
X145807261Y-102185238D01*
X145854880Y-102232857D01*
X146283452Y-102185238D02*
X146378690Y-102137619D01*
X146569166Y-102137619D01*
X146664404Y-102185238D01*
X146712023Y-102280476D01*
X146712023Y-102328095D01*
X146664404Y-102423333D01*
X146569166Y-102470952D01*
X146426309Y-102470952D01*
X146331071Y-102518571D01*
X146283452Y-102613809D01*
X146283452Y-102661428D01*
X146331071Y-102756666D01*
X146426309Y-102804285D01*
X146569166Y-102804285D01*
X146664404Y-102756666D01*
X140759642Y-100527619D02*
X140283452Y-100527619D01*
X140283452Y-101527619D01*
X141092976Y-100527619D02*
X141092976Y-101194285D01*
X141092976Y-101527619D02*
X141045357Y-101480000D01*
X141092976Y-101432380D01*
X141140595Y-101480000D01*
X141092976Y-101527619D01*
X141092976Y-101432380D01*
X141426309Y-101194285D02*
X141807261Y-101194285D01*
X141569166Y-101527619D02*
X141569166Y-100670476D01*
X141616785Y-100575238D01*
X141712023Y-100527619D01*
X141807261Y-100527619D01*
X142140595Y-100527619D02*
X142140595Y-101527619D01*
X142569166Y-100527619D02*
X142569166Y-101051428D01*
X142521547Y-101146666D01*
X142426309Y-101194285D01*
X142283452Y-101194285D01*
X142188214Y-101146666D01*
X142140595Y-101099047D01*
X143473928Y-101194285D02*
X143473928Y-100527619D01*
X143045357Y-101194285D02*
X143045357Y-100670476D01*
X143092976Y-100575238D01*
X143188214Y-100527619D01*
X143331071Y-100527619D01*
X143426309Y-100575238D01*
X143473928Y-100622857D01*
X144378690Y-100527619D02*
X144378690Y-101051428D01*
X144331071Y-101146666D01*
X144235833Y-101194285D01*
X144045357Y-101194285D01*
X143950119Y-101146666D01*
X144378690Y-100575238D02*
X144283452Y-100527619D01*
X144045357Y-100527619D01*
X143950119Y-100575238D01*
X143902500Y-100670476D01*
X143902500Y-100765714D01*
X143950119Y-100860952D01*
X144045357Y-100908571D01*
X144283452Y-100908571D01*
X144378690Y-100956190D01*
X144854880Y-101194285D02*
X144854880Y-100527619D01*
X144854880Y-101099047D02*
X144902500Y-101146666D01*
X144997738Y-101194285D01*
X145140595Y-101194285D01*
X145235833Y-101146666D01*
X145283452Y-101051428D01*
X145283452Y-100527619D01*
X145759642Y-100527619D02*
X145759642Y-101194285D01*
X145759642Y-101527619D02*
X145712023Y-101480000D01*
X145759642Y-101432380D01*
X145807261Y-101480000D01*
X145759642Y-101527619D01*
X145759642Y-101432380D01*
X146664404Y-100527619D02*
X146664404Y-101051428D01*
X146616785Y-101146666D01*
X146521547Y-101194285D01*
X146331071Y-101194285D01*
X146235833Y-101146666D01*
X146664404Y-100575238D02*
X146569166Y-100527619D01*
X146331071Y-100527619D01*
X146235833Y-100575238D01*
X146188214Y-100670476D01*
X146188214Y-100765714D01*
X146235833Y-100860952D01*
X146331071Y-100908571D01*
X146569166Y-100908571D01*
X146664404Y-100956190D01*
X136404761Y-135852619D02*
X136738095Y-134852619D01*
X137071428Y-135852619D01*
X137404761Y-134852619D02*
X137404761Y-135852619D01*
X137880952Y-134852619D02*
X137880952Y-135852619D01*
X138452380Y-134852619D01*
X138452380Y-135852619D01*
X134928571Y-133909285D02*
X134928571Y-133242619D01*
X134690476Y-134290238D02*
X134452380Y-133575952D01*
X135071428Y-133575952D01*
X136214285Y-133623571D02*
X136976190Y-133623571D01*
X138738095Y-133242619D02*
X138166666Y-133242619D01*
X138452380Y-133242619D02*
X138452380Y-134242619D01*
X138357142Y-134099761D01*
X138261904Y-134004523D01*
X138166666Y-133956904D01*
X139119047Y-134147380D02*
X139166666Y-134195000D01*
X139261904Y-134242619D01*
X139500000Y-134242619D01*
X139595238Y-134195000D01*
X139642857Y-134147380D01*
X139690476Y-134052142D01*
X139690476Y-133956904D01*
X139642857Y-133814047D01*
X139071428Y-133242619D01*
X139690476Y-133242619D01*
X139976190Y-134242619D02*
X140309523Y-133242619D01*
X140642857Y-134242619D01*
X114390476Y-136147619D02*
X114580952Y-136147619D01*
X114676190Y-136100000D01*
X114771428Y-136004761D01*
X114819047Y-135814285D01*
X114819047Y-135480952D01*
X114771428Y-135290476D01*
X114676190Y-135195238D01*
X114580952Y-135147619D01*
X114390476Y-135147619D01*
X114295238Y-135195238D01*
X114200000Y-135290476D01*
X114152380Y-135480952D01*
X114152380Y-135814285D01*
X114200000Y-136004761D01*
X114295238Y-136100000D01*
X114390476Y-136147619D01*
X115676190Y-135814285D02*
X115676190Y-135147619D01*
X115247619Y-135814285D02*
X115247619Y-135290476D01*
X115295238Y-135195238D01*
X115390476Y-135147619D01*
X115533333Y-135147619D01*
X115628571Y-135195238D01*
X115676190Y-135242857D01*
X116009523Y-135814285D02*
X116390476Y-135814285D01*
X116152380Y-136147619D02*
X116152380Y-135290476D01*
X116200000Y-135195238D01*
X116295238Y-135147619D01*
X116390476Y-135147619D01*
X116723809Y-135814285D02*
X116723809Y-134814285D01*
X116723809Y-135766666D02*
X116819047Y-135814285D01*
X117009523Y-135814285D01*
X117104761Y-135766666D01*
X117152380Y-135719047D01*
X117200000Y-135623809D01*
X117200000Y-135338095D01*
X117152380Y-135242857D01*
X117104761Y-135195238D01*
X117009523Y-135147619D01*
X116819047Y-135147619D01*
X116723809Y-135195238D01*
X118057142Y-135814285D02*
X118057142Y-135147619D01*
X117628571Y-135814285D02*
X117628571Y-135290476D01*
X117676190Y-135195238D01*
X117771428Y-135147619D01*
X117914285Y-135147619D01*
X118009523Y-135195238D01*
X118057142Y-135242857D01*
X118390476Y-135814285D02*
X118771428Y-135814285D01*
X118533333Y-136147619D02*
X118533333Y-135290476D01*
X118580952Y-135195238D01*
X118676190Y-135147619D01*
X118771428Y-135147619D01*
X120295238Y-135195238D02*
X120200000Y-135147619D01*
X120009523Y-135147619D01*
X119914285Y-135195238D01*
X119866666Y-135242857D01*
X119819047Y-135338095D01*
X119819047Y-135623809D01*
X119866666Y-135719047D01*
X119914285Y-135766666D01*
X120009523Y-135814285D01*
X120200000Y-135814285D01*
X120295238Y-135766666D01*
X121152380Y-135814285D02*
X121152380Y-135147619D01*
X120723809Y-135814285D02*
X120723809Y-135290476D01*
X120771428Y-135195238D01*
X120866666Y-135147619D01*
X121009523Y-135147619D01*
X121104761Y-135195238D01*
X121152380Y-135242857D01*
X121628571Y-135147619D02*
X121628571Y-135814285D01*
X121628571Y-135623809D02*
X121676190Y-135719047D01*
X121723809Y-135766666D01*
X121819047Y-135814285D01*
X121914285Y-135814285D01*
X122247619Y-135147619D02*
X122247619Y-135814285D01*
X122247619Y-135623809D02*
X122295238Y-135719047D01*
X122342857Y-135766666D01*
X122438095Y-135814285D01*
X122533333Y-135814285D01*
X123247619Y-135195238D02*
X123152380Y-135147619D01*
X122961904Y-135147619D01*
X122866666Y-135195238D01*
X122819047Y-135290476D01*
X122819047Y-135671428D01*
X122866666Y-135766666D01*
X122961904Y-135814285D01*
X123152380Y-135814285D01*
X123247619Y-135766666D01*
X123295238Y-135671428D01*
X123295238Y-135576190D01*
X122819047Y-135480952D01*
X123723809Y-135814285D02*
X123723809Y-135147619D01*
X123723809Y-135719047D02*
X123771428Y-135766666D01*
X123866666Y-135814285D01*
X124009523Y-135814285D01*
X124104761Y-135766666D01*
X124152380Y-135671428D01*
X124152380Y-135147619D01*
X124485714Y-135814285D02*
X124866666Y-135814285D01*
X124628571Y-136147619D02*
X124628571Y-135290476D01*
X124676190Y-135195238D01*
X124771428Y-135147619D01*
X124866666Y-135147619D01*
X125200000Y-135242857D02*
X125247619Y-135195238D01*
X125200000Y-135147619D01*
X125152380Y-135195238D01*
X125200000Y-135242857D01*
X125200000Y-135147619D01*
X125200000Y-135766666D02*
X125247619Y-135719047D01*
X125200000Y-135671428D01*
X125152380Y-135719047D01*
X125200000Y-135766666D01*
X125200000Y-135671428D01*
X117652380Y-133537619D02*
X117080952Y-133537619D01*
X117366666Y-133537619D02*
X117366666Y-134537619D01*
X117271428Y-134394761D01*
X117176190Y-134299523D01*
X117080952Y-134251904D01*
X118033333Y-133823333D02*
X118509523Y-133823333D01*
X117938095Y-133537619D02*
X118271428Y-134537619D01*
X118604761Y-133537619D01*
X119700000Y-133537619D02*
X119700000Y-134204285D01*
X119700000Y-134109047D02*
X119747619Y-134156666D01*
X119842857Y-134204285D01*
X119985714Y-134204285D01*
X120080952Y-134156666D01*
X120128571Y-134061428D01*
X120128571Y-133537619D01*
X120128571Y-134061428D02*
X120176190Y-134156666D01*
X120271428Y-134204285D01*
X120414285Y-134204285D01*
X120509523Y-134156666D01*
X120557142Y-134061428D01*
X120557142Y-133537619D01*
X121461904Y-133537619D02*
X121461904Y-134061428D01*
X121414285Y-134156666D01*
X121319047Y-134204285D01*
X121128571Y-134204285D01*
X121033333Y-134156666D01*
X121461904Y-133585238D02*
X121366666Y-133537619D01*
X121128571Y-133537619D01*
X121033333Y-133585238D01*
X120985714Y-133680476D01*
X120985714Y-133775714D01*
X121033333Y-133870952D01*
X121128571Y-133918571D01*
X121366666Y-133918571D01*
X121461904Y-133966190D01*
X121842857Y-133537619D02*
X122366666Y-134204285D01*
X121842857Y-134204285D02*
X122366666Y-133537619D01*
X94690476Y-137152619D02*
X94880952Y-137152619D01*
X94976190Y-137105000D01*
X95071428Y-137009761D01*
X95119047Y-136819285D01*
X95119047Y-136485952D01*
X95071428Y-136295476D01*
X94976190Y-136200238D01*
X94880952Y-136152619D01*
X94690476Y-136152619D01*
X94595238Y-136200238D01*
X94500000Y-136295476D01*
X94452380Y-136485952D01*
X94452380Y-136819285D01*
X94500000Y-137009761D01*
X94595238Y-137105000D01*
X94690476Y-137152619D01*
X95976190Y-136819285D02*
X95976190Y-136152619D01*
X95547619Y-136819285D02*
X95547619Y-136295476D01*
X95595238Y-136200238D01*
X95690476Y-136152619D01*
X95833333Y-136152619D01*
X95928571Y-136200238D01*
X95976190Y-136247857D01*
X96309523Y-136819285D02*
X96690476Y-136819285D01*
X96452380Y-137152619D02*
X96452380Y-136295476D01*
X96500000Y-136200238D01*
X96595238Y-136152619D01*
X96690476Y-136152619D01*
X97023809Y-136819285D02*
X97023809Y-135819285D01*
X97023809Y-136771666D02*
X97119047Y-136819285D01*
X97309523Y-136819285D01*
X97404761Y-136771666D01*
X97452380Y-136724047D01*
X97500000Y-136628809D01*
X97500000Y-136343095D01*
X97452380Y-136247857D01*
X97404761Y-136200238D01*
X97309523Y-136152619D01*
X97119047Y-136152619D01*
X97023809Y-136200238D01*
X98357142Y-136819285D02*
X98357142Y-136152619D01*
X97928571Y-136819285D02*
X97928571Y-136295476D01*
X97976190Y-136200238D01*
X98071428Y-136152619D01*
X98214285Y-136152619D01*
X98309523Y-136200238D01*
X98357142Y-136247857D01*
X98690476Y-136819285D02*
X99071428Y-136819285D01*
X98833333Y-137152619D02*
X98833333Y-136295476D01*
X98880952Y-136200238D01*
X98976190Y-136152619D01*
X99071428Y-136152619D01*
X100595238Y-136200238D02*
X100500000Y-136152619D01*
X100309523Y-136152619D01*
X100214285Y-136200238D01*
X100166666Y-136247857D01*
X100119047Y-136343095D01*
X100119047Y-136628809D01*
X100166666Y-136724047D01*
X100214285Y-136771666D01*
X100309523Y-136819285D01*
X100500000Y-136819285D01*
X100595238Y-136771666D01*
X101452380Y-136819285D02*
X101452380Y-136152619D01*
X101023809Y-136819285D02*
X101023809Y-136295476D01*
X101071428Y-136200238D01*
X101166666Y-136152619D01*
X101309523Y-136152619D01*
X101404761Y-136200238D01*
X101452380Y-136247857D01*
X101928571Y-136152619D02*
X101928571Y-136819285D01*
X101928571Y-136628809D02*
X101976190Y-136724047D01*
X102023809Y-136771666D01*
X102119047Y-136819285D01*
X102214285Y-136819285D01*
X102547619Y-136152619D02*
X102547619Y-136819285D01*
X102547619Y-136628809D02*
X102595238Y-136724047D01*
X102642857Y-136771666D01*
X102738095Y-136819285D01*
X102833333Y-136819285D01*
X103547619Y-136200238D02*
X103452380Y-136152619D01*
X103261904Y-136152619D01*
X103166666Y-136200238D01*
X103119047Y-136295476D01*
X103119047Y-136676428D01*
X103166666Y-136771666D01*
X103261904Y-136819285D01*
X103452380Y-136819285D01*
X103547619Y-136771666D01*
X103595238Y-136676428D01*
X103595238Y-136581190D01*
X103119047Y-136485952D01*
X104023809Y-136819285D02*
X104023809Y-136152619D01*
X104023809Y-136724047D02*
X104071428Y-136771666D01*
X104166666Y-136819285D01*
X104309523Y-136819285D01*
X104404761Y-136771666D01*
X104452380Y-136676428D01*
X104452380Y-136152619D01*
X104785714Y-136819285D02*
X105166666Y-136819285D01*
X104928571Y-137152619D02*
X104928571Y-136295476D01*
X104976190Y-136200238D01*
X105071428Y-136152619D01*
X105166666Y-136152619D01*
X105500000Y-136247857D02*
X105547619Y-136200238D01*
X105500000Y-136152619D01*
X105452380Y-136200238D01*
X105500000Y-136247857D01*
X105500000Y-136152619D01*
X105500000Y-136771666D02*
X105547619Y-136724047D01*
X105500000Y-136676428D01*
X105452380Y-136724047D01*
X105500000Y-136771666D01*
X105500000Y-136676428D01*
X96333333Y-134542619D02*
X95761904Y-134542619D01*
X96047619Y-134542619D02*
X96047619Y-135542619D01*
X95952380Y-135399761D01*
X95857142Y-135304523D01*
X95761904Y-135256904D01*
X96952380Y-135542619D02*
X97047619Y-135542619D01*
X97142857Y-135495000D01*
X97190476Y-135447380D01*
X97238095Y-135352142D01*
X97285714Y-135161666D01*
X97285714Y-134923571D01*
X97238095Y-134733095D01*
X97190476Y-134637857D01*
X97142857Y-134590238D01*
X97047619Y-134542619D01*
X96952380Y-134542619D01*
X96857142Y-134590238D01*
X96809523Y-134637857D01*
X96761904Y-134733095D01*
X96714285Y-134923571D01*
X96714285Y-135161666D01*
X96761904Y-135352142D01*
X96809523Y-135447380D01*
X96857142Y-135495000D01*
X96952380Y-135542619D01*
X97904761Y-135542619D02*
X98000000Y-135542619D01*
X98095238Y-135495000D01*
X98142857Y-135447380D01*
X98190476Y-135352142D01*
X98238095Y-135161666D01*
X98238095Y-134923571D01*
X98190476Y-134733095D01*
X98142857Y-134637857D01*
X98095238Y-134590238D01*
X98000000Y-134542619D01*
X97904761Y-134542619D01*
X97809523Y-134590238D01*
X97761904Y-134637857D01*
X97714285Y-134733095D01*
X97666666Y-134923571D01*
X97666666Y-135161666D01*
X97714285Y-135352142D01*
X97761904Y-135447380D01*
X97809523Y-135495000D01*
X97904761Y-135542619D01*
X98666666Y-134542619D02*
X98666666Y-135209285D01*
X98666666Y-135114047D02*
X98714285Y-135161666D01*
X98809523Y-135209285D01*
X98952380Y-135209285D01*
X99047619Y-135161666D01*
X99095238Y-135066428D01*
X99095238Y-134542619D01*
X99095238Y-135066428D02*
X99142857Y-135161666D01*
X99238095Y-135209285D01*
X99380952Y-135209285D01*
X99476190Y-135161666D01*
X99523809Y-135066428D01*
X99523809Y-134542619D01*
X99952380Y-134828333D02*
X100428571Y-134828333D01*
X99857142Y-134542619D02*
X100190476Y-135542619D01*
X100523809Y-134542619D01*
X101619047Y-134542619D02*
X101619047Y-135209285D01*
X101619047Y-135114047D02*
X101666666Y-135161666D01*
X101761904Y-135209285D01*
X101904761Y-135209285D01*
X102000000Y-135161666D01*
X102047619Y-135066428D01*
X102047619Y-134542619D01*
X102047619Y-135066428D02*
X102095238Y-135161666D01*
X102190476Y-135209285D01*
X102333333Y-135209285D01*
X102428571Y-135161666D01*
X102476190Y-135066428D01*
X102476190Y-134542619D01*
X103380952Y-134542619D02*
X103380952Y-135066428D01*
X103333333Y-135161666D01*
X103238095Y-135209285D01*
X103047619Y-135209285D01*
X102952380Y-135161666D01*
X103380952Y-134590238D02*
X103285714Y-134542619D01*
X103047619Y-134542619D01*
X102952380Y-134590238D01*
X102904761Y-134685476D01*
X102904761Y-134780714D01*
X102952380Y-134875952D01*
X103047619Y-134923571D01*
X103285714Y-134923571D01*
X103380952Y-134971190D01*
X103761904Y-134542619D02*
X104285714Y-135209285D01*
X103761904Y-135209285D02*
X104285714Y-134542619D01*
G36*
X123647822Y-117749802D02*
G01*
X120127029Y-117749802D01*
X120127029Y-116882178D01*
X123647822Y-116882178D01*
X123647822Y-117749802D01*
G37*
D11*
X123647822Y-117749802D02*
X120127029Y-117749802D01*
X120127029Y-116882178D01*
X123647822Y-116882178D01*
X123647822Y-117749802D01*
G36*
X121157612Y-122411332D02*
G01*
X121151181Y-122389589D01*
X121132877Y-122371149D01*
X121097170Y-122349199D01*
X121065826Y-122329146D01*
X121018107Y-122290644D01*
X120974862Y-122247421D01*
X120941781Y-122205373D01*
X120924558Y-122170396D01*
X120920338Y-122156919D01*
X120912520Y-122147666D01*
X121051384Y-122147666D01*
X121057057Y-122162492D01*
X121058733Y-122165318D01*
X121077552Y-122187056D01*
X121104817Y-122211180D01*
X121132013Y-122230746D01*
X121150629Y-122238812D01*
X121152303Y-122237537D01*
X121156456Y-122220024D01*
X121158119Y-122188515D01*
X121158119Y-122138218D01*
X121370779Y-122138218D01*
X121374474Y-122228905D01*
X121378168Y-122319593D01*
X121453614Y-122334748D01*
X121491449Y-122341621D01*
X121554632Y-122351244D01*
X121613935Y-122358504D01*
X121698812Y-122367107D01*
X121698812Y-122364554D01*
X121799406Y-122364554D01*
X121799406Y-122427425D01*
X122176633Y-122427425D01*
X122176633Y-122364554D01*
X121799406Y-122364554D01*
X121698812Y-122364554D01*
X121698812Y-122263960D01*
X122277227Y-122263960D01*
X122277227Y-122354878D01*
X122349529Y-122346247D01*
X122460002Y-122327751D01*
X122571184Y-122294309D01*
X122663150Y-122247676D01*
X122737458Y-122187214D01*
X122785302Y-122138218D01*
X121370779Y-122138218D01*
X121158119Y-122138218D01*
X121101092Y-122138218D01*
X121084007Y-122138338D01*
X121058692Y-122140538D01*
X121051384Y-122147666D01*
X120912520Y-122147666D01*
X120909884Y-122144546D01*
X120888338Y-122139304D01*
X120848686Y-122138218D01*
X120780891Y-122138218D01*
X120780891Y-122025049D01*
X120940423Y-122025049D01*
X121057045Y-122025049D01*
X122775148Y-122025049D01*
X122770987Y-121977896D01*
X122769065Y-121956502D01*
X122763076Y-121898091D01*
X122757174Y-121859619D01*
X122750273Y-121837088D01*
X122741288Y-121826502D01*
X122729130Y-121823861D01*
X122718199Y-121822063D01*
X122710950Y-121813470D01*
X122706900Y-121793495D01*
X122705137Y-121757550D01*
X122704752Y-121701048D01*
X122704752Y-121578234D01*
X122664553Y-121538160D01*
X122855643Y-121538160D01*
X122863694Y-121560841D01*
X122891270Y-121598572D01*
X122937376Y-121647821D01*
X123019109Y-121728828D01*
X123019109Y-121509505D01*
X122937376Y-121509505D01*
X122930105Y-121509511D01*
X122889050Y-121510387D01*
X122866723Y-121514133D01*
X122857471Y-121522730D01*
X122855643Y-121538160D01*
X122664553Y-121538160D01*
X122566435Y-121440346D01*
X122428119Y-121302458D01*
X122428119Y-121408911D01*
X121673663Y-121408911D01*
X121673663Y-121170000D01*
X122292169Y-121170000D01*
X122082408Y-120953094D01*
X122042230Y-120911666D01*
X121986672Y-120854800D01*
X121938430Y-120805918D01*
X121900029Y-120767559D01*
X121873997Y-120742259D01*
X121862860Y-120732558D01*
X121858627Y-120735233D01*
X121838776Y-120753218D01*
X121804549Y-120786519D01*
X121757773Y-120833288D01*
X121700276Y-120891675D01*
X121633888Y-120959831D01*
X121560436Y-121035906D01*
X121481749Y-121118050D01*
X121402659Y-121201057D01*
X121325129Y-121282864D01*
X121262254Y-121349917D01*
X121212498Y-121403993D01*
X121174322Y-121446871D01*
X121146189Y-121480327D01*
X121126560Y-121506139D01*
X121113899Y-121526086D01*
X121106666Y-121541944D01*
X121103325Y-121555491D01*
X121102439Y-121562090D01*
X121098512Y-121598452D01*
X121093541Y-121651982D01*
X121088073Y-121716579D01*
X121082656Y-121786138D01*
X121080819Y-121810365D01*
X121075512Y-121875822D01*
X121070452Y-121932283D01*
X121066137Y-121974382D01*
X121063066Y-121996757D01*
X121057045Y-122025049D01*
X120940423Y-122025049D01*
X120955318Y-121847268D01*
X120957318Y-121822963D01*
X120961977Y-121762120D01*
X120965269Y-121712611D01*
X120966908Y-121679008D01*
X120966610Y-121665884D01*
X120962276Y-121669657D01*
X120942504Y-121689324D01*
X120908321Y-121724182D01*
X120861459Y-121772424D01*
X120803646Y-121832243D01*
X120736613Y-121901833D01*
X120662088Y-121979385D01*
X120581803Y-122063093D01*
X120497487Y-122151151D01*
X120410870Y-122241750D01*
X120323681Y-122333085D01*
X120237651Y-122423347D01*
X120154508Y-122510731D01*
X120075984Y-122593428D01*
X120003808Y-122669632D01*
X119939709Y-122737537D01*
X119885417Y-122795334D01*
X119788408Y-122898960D01*
X119787966Y-122810685D01*
X119787525Y-122722411D01*
X120388062Y-122090842D01*
X120988599Y-121459274D01*
X121000604Y-121315326D01*
X121124195Y-121315326D01*
X121124616Y-121315092D01*
X121136491Y-121303650D01*
X121162870Y-121276802D01*
X121201430Y-121236982D01*
X121249847Y-121186628D01*
X121305797Y-121128172D01*
X121366958Y-121064052D01*
X121431005Y-120996702D01*
X121495615Y-120928557D01*
X121558465Y-120862052D01*
X121617232Y-120799623D01*
X121669591Y-120743705D01*
X121770467Y-120635594D01*
X121952710Y-120635594D01*
X121960852Y-120646617D01*
X121984522Y-120673001D01*
X122021522Y-120712473D01*
X122069650Y-120762809D01*
X122126704Y-120821783D01*
X122190480Y-120887170D01*
X122258778Y-120956745D01*
X122329395Y-121028284D01*
X122400129Y-121099562D01*
X122468778Y-121168353D01*
X122533139Y-121232434D01*
X122591011Y-121289578D01*
X122640190Y-121337561D01*
X122678476Y-121374159D01*
X122703666Y-121397146D01*
X122713558Y-121404297D01*
X122713747Y-121396268D01*
X122712092Y-121365347D01*
X122708451Y-121313347D01*
X122703005Y-121242513D01*
X122695937Y-121155089D01*
X122687430Y-121053319D01*
X122677665Y-120939448D01*
X122666826Y-120815721D01*
X122655093Y-120684382D01*
X122645921Y-120583092D01*
X122634434Y-120457474D01*
X122623678Y-120341238D01*
X122613869Y-120236620D01*
X122605219Y-120145860D01*
X122597943Y-120071196D01*
X122592254Y-120014866D01*
X122588366Y-119979109D01*
X122586494Y-119966163D01*
X122580812Y-119970174D01*
X122559980Y-119989862D01*
X122526128Y-120023678D01*
X122481588Y-120069163D01*
X122428690Y-120123854D01*
X122369764Y-120185290D01*
X122307142Y-120251010D01*
X122243152Y-120318551D01*
X122180126Y-120385453D01*
X122120394Y-120449254D01*
X122066287Y-120507493D01*
X122020135Y-120557708D01*
X121984267Y-120597437D01*
X121961016Y-120624220D01*
X121952710Y-120635594D01*
X121770467Y-120635594D01*
X121772399Y-120633523D01*
X121496695Y-120358032D01*
X121429274Y-120290776D01*
X121365733Y-120227838D01*
X121316510Y-120179900D01*
X121279804Y-120145406D01*
X121253810Y-120122801D01*
X121236724Y-120110529D01*
X121226744Y-120107034D01*
X121222065Y-120110762D01*
X121220884Y-120120156D01*
X121220127Y-120135251D01*
X121217399Y-120174117D01*
X121212892Y-120233105D01*
X121206821Y-120309527D01*
X121199404Y-120400695D01*
X121190858Y-120503920D01*
X121181398Y-120616517D01*
X121171242Y-120735795D01*
X121162277Y-120840923D01*
X121152934Y-120951649D01*
X121144557Y-121052186D01*
X121137347Y-121140057D01*
X121131504Y-121212785D01*
X121127231Y-121267890D01*
X121124727Y-121302896D01*
X121124195Y-121315326D01*
X121000604Y-121315326D01*
X121048635Y-120739365D01*
X121057124Y-120637209D01*
X121067657Y-120509388D01*
X121077379Y-120390233D01*
X121086102Y-120282086D01*
X121093642Y-120187287D01*
X121099813Y-120108181D01*
X121104427Y-120047108D01*
X121107300Y-120006410D01*
X121108246Y-119988430D01*
X121105749Y-119980192D01*
X121094529Y-119962401D01*
X121073249Y-119935589D01*
X121062979Y-119923871D01*
X121241276Y-119923871D01*
X121542174Y-120229435D01*
X121597364Y-120285296D01*
X121664891Y-120353112D01*
X121725471Y-120413357D01*
X121776979Y-120463948D01*
X121817290Y-120502800D01*
X121844278Y-120527830D01*
X121855818Y-120536954D01*
X121863556Y-120532595D01*
X121886605Y-120512759D01*
X121921291Y-120479625D01*
X121964513Y-120436180D01*
X122013168Y-120385413D01*
X122025860Y-120371949D01*
X122082771Y-120311725D01*
X122150586Y-120240136D01*
X122224200Y-120162563D01*
X122298507Y-120084389D01*
X122368401Y-120010995D01*
X122372599Y-120006591D01*
X122437580Y-119938215D01*
X122487164Y-119885268D01*
X122523312Y-119845233D01*
X122547984Y-119815589D01*
X122563142Y-119793819D01*
X122570744Y-119777405D01*
X122572753Y-119763826D01*
X122571128Y-119750566D01*
X122570844Y-119749181D01*
X122557302Y-119717772D01*
X122530252Y-119703137D01*
X122446871Y-119671937D01*
X122372582Y-119619962D01*
X122314154Y-119551209D01*
X122274110Y-119468685D01*
X122254974Y-119375394D01*
X122248636Y-119296435D01*
X121299162Y-119296435D01*
X121292542Y-119324727D01*
X121291371Y-119331671D01*
X121287732Y-119362719D01*
X121282766Y-119412919D01*
X121276843Y-119478273D01*
X121270331Y-119554781D01*
X121263599Y-119638445D01*
X121241276Y-119923871D01*
X121062979Y-119923871D01*
X121040775Y-119898534D01*
X120995977Y-119850014D01*
X120937719Y-119788808D01*
X120864871Y-119713693D01*
X120776297Y-119623450D01*
X120670866Y-119516855D01*
X120601508Y-119446907D01*
X120504821Y-119349342D01*
X120408474Y-119252059D01*
X120315362Y-119157986D01*
X120228382Y-119070050D01*
X120150431Y-118991180D01*
X120084404Y-118924301D01*
X120033198Y-118872342D01*
X119832486Y-118668380D01*
X119868942Y-118630329D01*
X119877540Y-118621755D01*
X119902905Y-118600703D01*
X119920305Y-118592277D01*
X119933929Y-118599470D01*
X119959257Y-118621056D01*
X119989621Y-118652005D01*
X120008104Y-118671552D01*
X120042573Y-118707248D01*
X120091288Y-118757316D01*
X120152531Y-118819999D01*
X120224580Y-118893543D01*
X120305715Y-118976190D01*
X120394216Y-119066185D01*
X120488363Y-119161772D01*
X120586435Y-119261195D01*
X121128839Y-119810657D01*
X121150934Y-119525254D01*
X121155750Y-119464338D01*
X121162784Y-119382452D01*
X121169128Y-119320431D01*
X121175252Y-119275013D01*
X121181627Y-119242938D01*
X121188723Y-119220948D01*
X121197009Y-119205781D01*
X121208607Y-119184584D01*
X121218150Y-119145614D01*
X121220990Y-119089469D01*
X121220990Y-119007227D01*
X121447326Y-119007227D01*
X121447326Y-119183267D01*
X122292918Y-119183267D01*
X122341797Y-119127738D01*
X122355164Y-119113278D01*
X122427612Y-119055187D01*
X122509468Y-119019424D01*
X122598100Y-119007227D01*
X122676308Y-119013694D01*
X122764767Y-119040953D01*
X122840493Y-119089672D01*
X122855252Y-119103597D01*
X122892136Y-119148672D01*
X122924497Y-119201181D01*
X122947703Y-119252939D01*
X122957121Y-119295761D01*
X122957303Y-119301977D01*
X122958658Y-119324754D01*
X122962200Y-119340487D01*
X122969610Y-119347932D01*
X122982569Y-119345844D01*
X123002757Y-119332980D01*
X123031855Y-119308095D01*
X123071544Y-119269947D01*
X123123504Y-119217290D01*
X123189416Y-119148881D01*
X123270960Y-119063476D01*
X123314396Y-119017888D01*
X123387000Y-118941559D01*
X123455691Y-118869192D01*
X123517777Y-118803634D01*
X123570566Y-118747726D01*
X123611366Y-118704314D01*
X123637485Y-118676242D01*
X123708881Y-118598564D01*
X123797137Y-118686584D01*
X123251310Y-119258713D01*
X123216895Y-119294812D01*
X123094454Y-119423728D01*
X122989349Y-119535246D01*
X122901264Y-119629712D01*
X122829884Y-119707471D01*
X122774895Y-119768869D01*
X122735981Y-119814252D01*
X122712827Y-119843965D01*
X122705118Y-119858356D01*
X122705117Y-119858441D01*
X122706175Y-119876376D01*
X122709263Y-119916579D01*
X122714142Y-119976313D01*
X122720568Y-120052842D01*
X122728300Y-120143431D01*
X122737095Y-120245343D01*
X122746713Y-120355841D01*
X122756909Y-120472189D01*
X122767444Y-120591652D01*
X122778074Y-120711493D01*
X122788558Y-120828975D01*
X122798654Y-120941363D01*
X122808119Y-121045919D01*
X122816712Y-121139909D01*
X122824191Y-121220595D01*
X122830313Y-121285241D01*
X122834838Y-121331112D01*
X122837522Y-121355470D01*
X122844610Y-121408911D01*
X123119703Y-121408911D01*
X123120032Y-121619529D01*
X123120361Y-121830148D01*
X123572086Y-122289109D01*
X124023811Y-122748069D01*
X124024430Y-122835152D01*
X124025049Y-122922233D01*
X123483231Y-122373048D01*
X123430863Y-122320002D01*
X123322197Y-122210228D01*
X123229291Y-122116886D01*
X123150945Y-122038827D01*
X123085957Y-121974903D01*
X123033128Y-121923965D01*
X122991257Y-121884865D01*
X122959145Y-121856452D01*
X122935590Y-121837580D01*
X122919392Y-121827099D01*
X122909351Y-121823861D01*
X122892421Y-121824842D01*
X122882916Y-121832004D01*
X122881277Y-121851599D01*
X122885218Y-121889876D01*
X122887935Y-121913975D01*
X122891716Y-121954256D01*
X122893240Y-121981039D01*
X122893985Y-121990272D01*
X122901254Y-122000161D01*
X122921332Y-122003438D01*
X122960311Y-122002008D01*
X122970263Y-122001447D01*
X123010102Y-122002079D01*
X123038440Y-122010833D01*
X123066370Y-122030711D01*
X123071180Y-122034896D01*
X123110518Y-122085573D01*
X123127828Y-122144066D01*
X123122526Y-122205425D01*
X123094025Y-122264703D01*
X123091267Y-122268394D01*
X123053178Y-122300149D01*
X123003524Y-122318933D01*
X122949998Y-122323929D01*
X122900293Y-122314322D01*
X122862100Y-122289296D01*
X122849169Y-122276520D01*
X122836572Y-122273424D01*
X122818533Y-122283002D01*
X122788072Y-122306918D01*
X122778726Y-122314269D01*
X122706570Y-122360661D01*
X122621085Y-122401916D01*
X122530233Y-122435064D01*
X122441973Y-122457132D01*
X122364264Y-122465148D01*
X122356009Y-122465212D01*
X122310121Y-122469679D01*
X122284921Y-122482205D01*
X122277227Y-122504216D01*
X122276324Y-122511151D01*
X122271385Y-122517115D01*
X122259389Y-122521481D01*
X122237320Y-122524497D01*
X122202164Y-122526410D01*
X122150906Y-122527470D01*
X122080529Y-122527923D01*
X121988020Y-122528020D01*
X121901340Y-122527850D01*
X121827668Y-122527166D01*
X121773735Y-122525785D01*
X121736712Y-122523530D01*
X121713770Y-122520222D01*
X121702080Y-122515680D01*
X121698812Y-122509728D01*
X121688063Y-122495112D01*
X121657945Y-122485785D01*
X121646418Y-122484153D01*
X121607114Y-122478409D01*
X121554812Y-122470622D01*
X121497624Y-122461997D01*
X121466084Y-122457607D01*
X121419926Y-122452852D01*
X121387359Y-122451705D01*
X121373977Y-122454505D01*
X121371692Y-122456329D01*
X121350595Y-122460835D01*
X121312645Y-122463971D01*
X121263952Y-122465148D01*
X121158119Y-122465148D01*
X121158106Y-122427425D01*
X121158106Y-122424282D01*
X121157612Y-122411332D01*
G37*
X121157612Y-122411332D02*
X121151181Y-122389589D01*
X121132877Y-122371149D01*
X121097170Y-122349199D01*
X121065826Y-122329146D01*
X121018107Y-122290644D01*
X120974862Y-122247421D01*
X120941781Y-122205373D01*
X120924558Y-122170396D01*
X120920338Y-122156919D01*
X120912520Y-122147666D01*
X121051384Y-122147666D01*
X121057057Y-122162492D01*
X121058733Y-122165318D01*
X121077552Y-122187056D01*
X121104817Y-122211180D01*
X121132013Y-122230746D01*
X121150629Y-122238812D01*
X121152303Y-122237537D01*
X121156456Y-122220024D01*
X121158119Y-122188515D01*
X121158119Y-122138218D01*
X121370779Y-122138218D01*
X121374474Y-122228905D01*
X121378168Y-122319593D01*
X121453614Y-122334748D01*
X121491449Y-122341621D01*
X121554632Y-122351244D01*
X121613935Y-122358504D01*
X121698812Y-122367107D01*
X121698812Y-122364554D01*
X121799406Y-122364554D01*
X121799406Y-122427425D01*
X122176633Y-122427425D01*
X122176633Y-122364554D01*
X121799406Y-122364554D01*
X121698812Y-122364554D01*
X121698812Y-122263960D01*
X122277227Y-122263960D01*
X122277227Y-122354878D01*
X122349529Y-122346247D01*
X122460002Y-122327751D01*
X122571184Y-122294309D01*
X122663150Y-122247676D01*
X122737458Y-122187214D01*
X122785302Y-122138218D01*
X121370779Y-122138218D01*
X121158119Y-122138218D01*
X121101092Y-122138218D01*
X121084007Y-122138338D01*
X121058692Y-122140538D01*
X121051384Y-122147666D01*
X120912520Y-122147666D01*
X120909884Y-122144546D01*
X120888338Y-122139304D01*
X120848686Y-122138218D01*
X120780891Y-122138218D01*
X120780891Y-122025049D01*
X120940423Y-122025049D01*
X121057045Y-122025049D01*
X122775148Y-122025049D01*
X122770987Y-121977896D01*
X122769065Y-121956502D01*
X122763076Y-121898091D01*
X122757174Y-121859619D01*
X122750273Y-121837088D01*
X122741288Y-121826502D01*
X122729130Y-121823861D01*
X122718199Y-121822063D01*
X122710950Y-121813470D01*
X122706900Y-121793495D01*
X122705137Y-121757550D01*
X122704752Y-121701048D01*
X122704752Y-121578234D01*
X122664553Y-121538160D01*
X122855643Y-121538160D01*
X122863694Y-121560841D01*
X122891270Y-121598572D01*
X122937376Y-121647821D01*
X123019109Y-121728828D01*
X123019109Y-121509505D01*
X122937376Y-121509505D01*
X122930105Y-121509511D01*
X122889050Y-121510387D01*
X122866723Y-121514133D01*
X122857471Y-121522730D01*
X122855643Y-121538160D01*
X122664553Y-121538160D01*
X122566435Y-121440346D01*
X122428119Y-121302458D01*
X122428119Y-121408911D01*
X121673663Y-121408911D01*
X121673663Y-121170000D01*
X122292169Y-121170000D01*
X122082408Y-120953094D01*
X122042230Y-120911666D01*
X121986672Y-120854800D01*
X121938430Y-120805918D01*
X121900029Y-120767559D01*
X121873997Y-120742259D01*
X121862860Y-120732558D01*
X121858627Y-120735233D01*
X121838776Y-120753218D01*
X121804549Y-120786519D01*
X121757773Y-120833288D01*
X121700276Y-120891675D01*
X121633888Y-120959831D01*
X121560436Y-121035906D01*
X121481749Y-121118050D01*
X121402659Y-121201057D01*
X121325129Y-121282864D01*
X121262254Y-121349917D01*
X121212498Y-121403993D01*
X121174322Y-121446871D01*
X121146189Y-121480327D01*
X121126560Y-121506139D01*
X121113899Y-121526086D01*
X121106666Y-121541944D01*
X121103325Y-121555491D01*
X121102439Y-121562090D01*
X121098512Y-121598452D01*
X121093541Y-121651982D01*
X121088073Y-121716579D01*
X121082656Y-121786138D01*
X121080819Y-121810365D01*
X121075512Y-121875822D01*
X121070452Y-121932283D01*
X121066137Y-121974382D01*
X121063066Y-121996757D01*
X121057045Y-122025049D01*
X120940423Y-122025049D01*
X120955318Y-121847268D01*
X120957318Y-121822963D01*
X120961977Y-121762120D01*
X120965269Y-121712611D01*
X120966908Y-121679008D01*
X120966610Y-121665884D01*
X120962276Y-121669657D01*
X120942504Y-121689324D01*
X120908321Y-121724182D01*
X120861459Y-121772424D01*
X120803646Y-121832243D01*
X120736613Y-121901833D01*
X120662088Y-121979385D01*
X120581803Y-122063093D01*
X120497487Y-122151151D01*
X120410870Y-122241750D01*
X120323681Y-122333085D01*
X120237651Y-122423347D01*
X120154508Y-122510731D01*
X120075984Y-122593428D01*
X120003808Y-122669632D01*
X119939709Y-122737537D01*
X119885417Y-122795334D01*
X119788408Y-122898960D01*
X119787966Y-122810685D01*
X119787525Y-122722411D01*
X120388062Y-122090842D01*
X120988599Y-121459274D01*
X121000604Y-121315326D01*
X121124195Y-121315326D01*
X121124616Y-121315092D01*
X121136491Y-121303650D01*
X121162870Y-121276802D01*
X121201430Y-121236982D01*
X121249847Y-121186628D01*
X121305797Y-121128172D01*
X121366958Y-121064052D01*
X121431005Y-120996702D01*
X121495615Y-120928557D01*
X121558465Y-120862052D01*
X121617232Y-120799623D01*
X121669591Y-120743705D01*
X121770467Y-120635594D01*
X121952710Y-120635594D01*
X121960852Y-120646617D01*
X121984522Y-120673001D01*
X122021522Y-120712473D01*
X122069650Y-120762809D01*
X122126704Y-120821783D01*
X122190480Y-120887170D01*
X122258778Y-120956745D01*
X122329395Y-121028284D01*
X122400129Y-121099562D01*
X122468778Y-121168353D01*
X122533139Y-121232434D01*
X122591011Y-121289578D01*
X122640190Y-121337561D01*
X122678476Y-121374159D01*
X122703666Y-121397146D01*
X122713558Y-121404297D01*
X122713747Y-121396268D01*
X122712092Y-121365347D01*
X122708451Y-121313347D01*
X122703005Y-121242513D01*
X122695937Y-121155089D01*
X122687430Y-121053319D01*
X122677665Y-120939448D01*
X122666826Y-120815721D01*
X122655093Y-120684382D01*
X122645921Y-120583092D01*
X122634434Y-120457474D01*
X122623678Y-120341238D01*
X122613869Y-120236620D01*
X122605219Y-120145860D01*
X122597943Y-120071196D01*
X122592254Y-120014866D01*
X122588366Y-119979109D01*
X122586494Y-119966163D01*
X122580812Y-119970174D01*
X122559980Y-119989862D01*
X122526128Y-120023678D01*
X122481588Y-120069163D01*
X122428690Y-120123854D01*
X122369764Y-120185290D01*
X122307142Y-120251010D01*
X122243152Y-120318551D01*
X122180126Y-120385453D01*
X122120394Y-120449254D01*
X122066287Y-120507493D01*
X122020135Y-120557708D01*
X121984267Y-120597437D01*
X121961016Y-120624220D01*
X121952710Y-120635594D01*
X121770467Y-120635594D01*
X121772399Y-120633523D01*
X121496695Y-120358032D01*
X121429274Y-120290776D01*
X121365733Y-120227838D01*
X121316510Y-120179900D01*
X121279804Y-120145406D01*
X121253810Y-120122801D01*
X121236724Y-120110529D01*
X121226744Y-120107034D01*
X121222065Y-120110762D01*
X121220884Y-120120156D01*
X121220127Y-120135251D01*
X121217399Y-120174117D01*
X121212892Y-120233105D01*
X121206821Y-120309527D01*
X121199404Y-120400695D01*
X121190858Y-120503920D01*
X121181398Y-120616517D01*
X121171242Y-120735795D01*
X121162277Y-120840923D01*
X121152934Y-120951649D01*
X121144557Y-121052186D01*
X121137347Y-121140057D01*
X121131504Y-121212785D01*
X121127231Y-121267890D01*
X121124727Y-121302896D01*
X121124195Y-121315326D01*
X121000604Y-121315326D01*
X121048635Y-120739365D01*
X121057124Y-120637209D01*
X121067657Y-120509388D01*
X121077379Y-120390233D01*
X121086102Y-120282086D01*
X121093642Y-120187287D01*
X121099813Y-120108181D01*
X121104427Y-120047108D01*
X121107300Y-120006410D01*
X121108246Y-119988430D01*
X121105749Y-119980192D01*
X121094529Y-119962401D01*
X121073249Y-119935589D01*
X121062979Y-119923871D01*
X121241276Y-119923871D01*
X121542174Y-120229435D01*
X121597364Y-120285296D01*
X121664891Y-120353112D01*
X121725471Y-120413357D01*
X121776979Y-120463948D01*
X121817290Y-120502800D01*
X121844278Y-120527830D01*
X121855818Y-120536954D01*
X121863556Y-120532595D01*
X121886605Y-120512759D01*
X121921291Y-120479625D01*
X121964513Y-120436180D01*
X122013168Y-120385413D01*
X122025860Y-120371949D01*
X122082771Y-120311725D01*
X122150586Y-120240136D01*
X122224200Y-120162563D01*
X122298507Y-120084389D01*
X122368401Y-120010995D01*
X122372599Y-120006591D01*
X122437580Y-119938215D01*
X122487164Y-119885268D01*
X122523312Y-119845233D01*
X122547984Y-119815589D01*
X122563142Y-119793819D01*
X122570744Y-119777405D01*
X122572753Y-119763826D01*
X122571128Y-119750566D01*
X122570844Y-119749181D01*
X122557302Y-119717772D01*
X122530252Y-119703137D01*
X122446871Y-119671937D01*
X122372582Y-119619962D01*
X122314154Y-119551209D01*
X122274110Y-119468685D01*
X122254974Y-119375394D01*
X122248636Y-119296435D01*
X121299162Y-119296435D01*
X121292542Y-119324727D01*
X121291371Y-119331671D01*
X121287732Y-119362719D01*
X121282766Y-119412919D01*
X121276843Y-119478273D01*
X121270331Y-119554781D01*
X121263599Y-119638445D01*
X121241276Y-119923871D01*
X121062979Y-119923871D01*
X121040775Y-119898534D01*
X120995977Y-119850014D01*
X120937719Y-119788808D01*
X120864871Y-119713693D01*
X120776297Y-119623450D01*
X120670866Y-119516855D01*
X120601508Y-119446907D01*
X120504821Y-119349342D01*
X120408474Y-119252059D01*
X120315362Y-119157986D01*
X120228382Y-119070050D01*
X120150431Y-118991180D01*
X120084404Y-118924301D01*
X120033198Y-118872342D01*
X119832486Y-118668380D01*
X119868942Y-118630329D01*
X119877540Y-118621755D01*
X119902905Y-118600703D01*
X119920305Y-118592277D01*
X119933929Y-118599470D01*
X119959257Y-118621056D01*
X119989621Y-118652005D01*
X120008104Y-118671552D01*
X120042573Y-118707248D01*
X120091288Y-118757316D01*
X120152531Y-118819999D01*
X120224580Y-118893543D01*
X120305715Y-118976190D01*
X120394216Y-119066185D01*
X120488363Y-119161772D01*
X120586435Y-119261195D01*
X121128839Y-119810657D01*
X121150934Y-119525254D01*
X121155750Y-119464338D01*
X121162784Y-119382452D01*
X121169128Y-119320431D01*
X121175252Y-119275013D01*
X121181627Y-119242938D01*
X121188723Y-119220948D01*
X121197009Y-119205781D01*
X121208607Y-119184584D01*
X121218150Y-119145614D01*
X121220990Y-119089469D01*
X121220990Y-119007227D01*
X121447326Y-119007227D01*
X121447326Y-119183267D01*
X122292918Y-119183267D01*
X122341797Y-119127738D01*
X122355164Y-119113278D01*
X122427612Y-119055187D01*
X122509468Y-119019424D01*
X122598100Y-119007227D01*
X122676308Y-119013694D01*
X122764767Y-119040953D01*
X122840493Y-119089672D01*
X122855252Y-119103597D01*
X122892136Y-119148672D01*
X122924497Y-119201181D01*
X122947703Y-119252939D01*
X122957121Y-119295761D01*
X122957303Y-119301977D01*
X122958658Y-119324754D01*
X122962200Y-119340487D01*
X122969610Y-119347932D01*
X122982569Y-119345844D01*
X123002757Y-119332980D01*
X123031855Y-119308095D01*
X123071544Y-119269947D01*
X123123504Y-119217290D01*
X123189416Y-119148881D01*
X123270960Y-119063476D01*
X123314396Y-119017888D01*
X123387000Y-118941559D01*
X123455691Y-118869192D01*
X123517777Y-118803634D01*
X123570566Y-118747726D01*
X123611366Y-118704314D01*
X123637485Y-118676242D01*
X123708881Y-118598564D01*
X123797137Y-118686584D01*
X123251310Y-119258713D01*
X123216895Y-119294812D01*
X123094454Y-119423728D01*
X122989349Y-119535246D01*
X122901264Y-119629712D01*
X122829884Y-119707471D01*
X122774895Y-119768869D01*
X122735981Y-119814252D01*
X122712827Y-119843965D01*
X122705118Y-119858356D01*
X122705117Y-119858441D01*
X122706175Y-119876376D01*
X122709263Y-119916579D01*
X122714142Y-119976313D01*
X122720568Y-120052842D01*
X122728300Y-120143431D01*
X122737095Y-120245343D01*
X122746713Y-120355841D01*
X122756909Y-120472189D01*
X122767444Y-120591652D01*
X122778074Y-120711493D01*
X122788558Y-120828975D01*
X122798654Y-120941363D01*
X122808119Y-121045919D01*
X122816712Y-121139909D01*
X122824191Y-121220595D01*
X122830313Y-121285241D01*
X122834838Y-121331112D01*
X122837522Y-121355470D01*
X122844610Y-121408911D01*
X123119703Y-121408911D01*
X123120032Y-121619529D01*
X123120361Y-121830148D01*
X123572086Y-122289109D01*
X124023811Y-122748069D01*
X124024430Y-122835152D01*
X124025049Y-122922233D01*
X123483231Y-122373048D01*
X123430863Y-122320002D01*
X123322197Y-122210228D01*
X123229291Y-122116886D01*
X123150945Y-122038827D01*
X123085957Y-121974903D01*
X123033128Y-121923965D01*
X122991257Y-121884865D01*
X122959145Y-121856452D01*
X122935590Y-121837580D01*
X122919392Y-121827099D01*
X122909351Y-121823861D01*
X122892421Y-121824842D01*
X122882916Y-121832004D01*
X122881277Y-121851599D01*
X122885218Y-121889876D01*
X122887935Y-121913975D01*
X122891716Y-121954256D01*
X122893240Y-121981039D01*
X122893985Y-121990272D01*
X122901254Y-122000161D01*
X122921332Y-122003438D01*
X122960311Y-122002008D01*
X122970263Y-122001447D01*
X123010102Y-122002079D01*
X123038440Y-122010833D01*
X123066370Y-122030711D01*
X123071180Y-122034896D01*
X123110518Y-122085573D01*
X123127828Y-122144066D01*
X123122526Y-122205425D01*
X123094025Y-122264703D01*
X123091267Y-122268394D01*
X123053178Y-122300149D01*
X123003524Y-122318933D01*
X122949998Y-122323929D01*
X122900293Y-122314322D01*
X122862100Y-122289296D01*
X122849169Y-122276520D01*
X122836572Y-122273424D01*
X122818533Y-122283002D01*
X122788072Y-122306918D01*
X122778726Y-122314269D01*
X122706570Y-122360661D01*
X122621085Y-122401916D01*
X122530233Y-122435064D01*
X122441973Y-122457132D01*
X122364264Y-122465148D01*
X122356009Y-122465212D01*
X122310121Y-122469679D01*
X122284921Y-122482205D01*
X122277227Y-122504216D01*
X122276324Y-122511151D01*
X122271385Y-122517115D01*
X122259389Y-122521481D01*
X122237320Y-122524497D01*
X122202164Y-122526410D01*
X122150906Y-122527470D01*
X122080529Y-122527923D01*
X121988020Y-122528020D01*
X121901340Y-122527850D01*
X121827668Y-122527166D01*
X121773735Y-122525785D01*
X121736712Y-122523530D01*
X121713770Y-122520222D01*
X121702080Y-122515680D01*
X121698812Y-122509728D01*
X121688063Y-122495112D01*
X121657945Y-122485785D01*
X121646418Y-122484153D01*
X121607114Y-122478409D01*
X121554812Y-122470622D01*
X121497624Y-122461997D01*
X121466084Y-122457607D01*
X121419926Y-122452852D01*
X121387359Y-122451705D01*
X121373977Y-122454505D01*
X121371692Y-122456329D01*
X121350595Y-122460835D01*
X121312645Y-122463971D01*
X121263952Y-122465148D01*
X121158119Y-122465148D01*
X121158106Y-122427425D01*
X121158106Y-122424282D01*
X121157612Y-122411332D01*
G36*
X130803890Y-118654732D02*
G01*
X130817797Y-118556560D01*
X130885519Y-118255576D01*
X130987306Y-117977238D01*
X131121439Y-117724962D01*
X131286198Y-117502162D01*
X131479863Y-117312253D01*
X131531353Y-117271581D01*
X131725004Y-117145315D01*
X131947517Y-117033574D01*
X132186823Y-116941216D01*
X132430853Y-116873101D01*
X132667538Y-116834088D01*
X132795247Y-116826562D01*
X132957178Y-116826690D01*
X133128751Y-116834661D01*
X133296262Y-116849526D01*
X133446005Y-116870338D01*
X133564276Y-116896146D01*
X133753469Y-116959014D01*
X134009111Y-117078353D01*
X134243705Y-117233500D01*
X134465044Y-117429063D01*
X134494996Y-117459528D01*
X134690181Y-117689811D01*
X134845226Y-117936151D01*
X134960974Y-118200875D01*
X135038266Y-118486309D01*
X135077946Y-118794777D01*
X135080857Y-119128606D01*
X135063748Y-119354404D01*
X135026668Y-119582037D01*
X134968031Y-119791399D01*
X134884936Y-119995322D01*
X134741971Y-120251747D01*
X134560095Y-120489533D01*
X134346674Y-120696787D01*
X134104691Y-120871021D01*
X133837131Y-121009750D01*
X133546977Y-121110484D01*
X133532992Y-121114228D01*
X133449104Y-121135153D01*
X133372938Y-121150049D01*
X133293881Y-121159940D01*
X133201317Y-121165855D01*
X133084632Y-121168819D01*
X132933214Y-121169861D01*
X132861771Y-121169947D01*
X132729868Y-121169053D01*
X132628082Y-121165811D01*
X132545883Y-121159185D01*
X132472742Y-121148137D01*
X132398131Y-121131632D01*
X132311521Y-121108630D01*
X132181707Y-121068405D01*
X131909726Y-120954110D01*
X131661689Y-120807360D01*
X131444642Y-120632033D01*
X131265803Y-120440927D01*
X131091031Y-120194296D01*
X130954671Y-119925067D01*
X130857249Y-119634869D01*
X130799294Y-119325329D01*
X130781779Y-119006250D01*
X131930201Y-119006250D01*
X131930306Y-119023020D01*
X131944550Y-119274306D01*
X131983637Y-119491961D01*
X132049328Y-119681142D01*
X132143384Y-119847009D01*
X132267565Y-119994718D01*
X132348927Y-120067700D01*
X132516035Y-120174642D01*
X132696991Y-120242480D01*
X132885834Y-120271212D01*
X133076606Y-120260836D01*
X133263347Y-120211350D01*
X133440097Y-120122754D01*
X133600897Y-119995045D01*
X133657291Y-119935554D01*
X133760188Y-119793544D01*
X133838408Y-119628758D01*
X133894670Y-119434709D01*
X133931688Y-119204908D01*
X133936777Y-119152162D01*
X133941188Y-118939696D01*
X133922412Y-118725857D01*
X133882447Y-118521674D01*
X133823295Y-118338173D01*
X133746955Y-118186383D01*
X133703615Y-118124864D01*
X133589719Y-117998781D01*
X133457989Y-117889026D01*
X133323695Y-117809207D01*
X133312505Y-117804097D01*
X133241505Y-117776014D01*
X133170321Y-117758338D01*
X133083911Y-117748280D01*
X132967232Y-117743046D01*
X132878129Y-117742002D01*
X132748199Y-117749275D01*
X132640397Y-117771117D01*
X132540507Y-117810978D01*
X132434311Y-117872305D01*
X132306616Y-117967865D01*
X132168282Y-118116362D01*
X132062221Y-118292766D01*
X131987686Y-118498760D01*
X131943929Y-118736027D01*
X131930201Y-119006250D01*
X130781779Y-119006250D01*
X130781331Y-118998074D01*
X130803890Y-118654732D01*
G37*
X130803890Y-118654732D02*
X130817797Y-118556560D01*
X130885519Y-118255576D01*
X130987306Y-117977238D01*
X131121439Y-117724962D01*
X131286198Y-117502162D01*
X131479863Y-117312253D01*
X131531353Y-117271581D01*
X131725004Y-117145315D01*
X131947517Y-117033574D01*
X132186823Y-116941216D01*
X132430853Y-116873101D01*
X132667538Y-116834088D01*
X132795247Y-116826562D01*
X132957178Y-116826690D01*
X133128751Y-116834661D01*
X133296262Y-116849526D01*
X133446005Y-116870338D01*
X133564276Y-116896146D01*
X133753469Y-116959014D01*
X134009111Y-117078353D01*
X134243705Y-117233500D01*
X134465044Y-117429063D01*
X134494996Y-117459528D01*
X134690181Y-117689811D01*
X134845226Y-117936151D01*
X134960974Y-118200875D01*
X135038266Y-118486309D01*
X135077946Y-118794777D01*
X135080857Y-119128606D01*
X135063748Y-119354404D01*
X135026668Y-119582037D01*
X134968031Y-119791399D01*
X134884936Y-119995322D01*
X134741971Y-120251747D01*
X134560095Y-120489533D01*
X134346674Y-120696787D01*
X134104691Y-120871021D01*
X133837131Y-121009750D01*
X133546977Y-121110484D01*
X133532992Y-121114228D01*
X133449104Y-121135153D01*
X133372938Y-121150049D01*
X133293881Y-121159940D01*
X133201317Y-121165855D01*
X133084632Y-121168819D01*
X132933214Y-121169861D01*
X132861771Y-121169947D01*
X132729868Y-121169053D01*
X132628082Y-121165811D01*
X132545883Y-121159185D01*
X132472742Y-121148137D01*
X132398131Y-121131632D01*
X132311521Y-121108630D01*
X132181707Y-121068405D01*
X131909726Y-120954110D01*
X131661689Y-120807360D01*
X131444642Y-120632033D01*
X131265803Y-120440927D01*
X131091031Y-120194296D01*
X130954671Y-119925067D01*
X130857249Y-119634869D01*
X130799294Y-119325329D01*
X130781779Y-119006250D01*
X131930201Y-119006250D01*
X131930306Y-119023020D01*
X131944550Y-119274306D01*
X131983637Y-119491961D01*
X132049328Y-119681142D01*
X132143384Y-119847009D01*
X132267565Y-119994718D01*
X132348927Y-120067700D01*
X132516035Y-120174642D01*
X132696991Y-120242480D01*
X132885834Y-120271212D01*
X133076606Y-120260836D01*
X133263347Y-120211350D01*
X133440097Y-120122754D01*
X133600897Y-119995045D01*
X133657291Y-119935554D01*
X133760188Y-119793544D01*
X133838408Y-119628758D01*
X133894670Y-119434709D01*
X133931688Y-119204908D01*
X133936777Y-119152162D01*
X133941188Y-118939696D01*
X133922412Y-118725857D01*
X133882447Y-118521674D01*
X133823295Y-118338173D01*
X133746955Y-118186383D01*
X133703615Y-118124864D01*
X133589719Y-117998781D01*
X133457989Y-117889026D01*
X133323695Y-117809207D01*
X133312505Y-117804097D01*
X133241505Y-117776014D01*
X133170321Y-117758338D01*
X133083911Y-117748280D01*
X132967232Y-117743046D01*
X132878129Y-117742002D01*
X132748199Y-117749275D01*
X132640397Y-117771117D01*
X132540507Y-117810978D01*
X132434311Y-117872305D01*
X132306616Y-117967865D01*
X132168282Y-118116362D01*
X132062221Y-118292766D01*
X131987686Y-118498760D01*
X131943929Y-118736027D01*
X131930201Y-119006250D01*
X130781779Y-119006250D01*
X130781331Y-118998074D01*
X130803890Y-118654732D01*
G36*
X143950022Y-116810694D02*
G01*
X144146432Y-116817673D01*
X144322637Y-116831555D01*
X144536136Y-116861576D01*
X144841561Y-116932346D01*
X145117594Y-117032092D01*
X145362131Y-117159834D01*
X145573069Y-117314592D01*
X145748303Y-117495387D01*
X145814633Y-117583793D01*
X145929110Y-117769786D01*
X146023079Y-117967279D01*
X146087500Y-118158599D01*
X146097839Y-118204686D01*
X146118569Y-118348571D01*
X146130263Y-118515327D01*
X146132548Y-118689314D01*
X146125052Y-118854891D01*
X146107405Y-118996415D01*
X146095397Y-119053926D01*
X146032520Y-119257202D01*
X145942507Y-119454532D01*
X145833647Y-119626834D01*
X145738031Y-119743132D01*
X145621828Y-119858833D01*
X145490096Y-119963625D01*
X145338601Y-120059643D01*
X145163107Y-120149023D01*
X144959378Y-120233902D01*
X144723178Y-120316417D01*
X144450274Y-120398703D01*
X144136428Y-120482897D01*
X143949657Y-120531201D01*
X143727305Y-120590808D01*
X143541618Y-120643787D01*
X143388130Y-120691752D01*
X143262377Y-120736318D01*
X143159893Y-120779099D01*
X143076214Y-120821711D01*
X143006873Y-120865768D01*
X142947407Y-120912884D01*
X142920362Y-120938673D01*
X142864967Y-121003893D01*
X142829032Y-121063248D01*
X142829004Y-121063315D01*
X142806690Y-121149744D01*
X142799531Y-121252542D01*
X142807454Y-121351975D01*
X142830386Y-121428314D01*
X142848346Y-121458748D01*
X142936255Y-121556820D01*
X143060331Y-121643139D01*
X143213834Y-121713657D01*
X143390025Y-121764327D01*
X143398824Y-121766134D01*
X143519909Y-121782374D01*
X143665529Y-121790006D01*
X143821807Y-121789404D01*
X143974864Y-121780945D01*
X144110822Y-121765005D01*
X144215803Y-121741959D01*
X144303204Y-121709441D01*
X144462870Y-121615954D01*
X144593741Y-121488021D01*
X144694587Y-121327005D01*
X144764182Y-121134266D01*
X144805446Y-120973899D01*
X145327053Y-120992372D01*
X145404014Y-120995086D01*
X145552112Y-121000242D01*
X145684579Y-121004768D01*
X145793991Y-121008414D01*
X145872922Y-121010933D01*
X145913950Y-121012074D01*
X145979241Y-121013304D01*
X145965667Y-121189330D01*
X145950695Y-121301404D01*
X145921998Y-121436645D01*
X145885327Y-121564637D01*
X145798605Y-121779746D01*
X145664331Y-122010564D01*
X145497374Y-122210047D01*
X145297308Y-122378687D01*
X145063706Y-122516977D01*
X145020557Y-122537774D01*
X144824833Y-122620289D01*
X144625995Y-122683063D01*
X144415956Y-122727503D01*
X144186632Y-122755013D01*
X143929939Y-122766999D01*
X143637791Y-122764866D01*
X143531903Y-122761174D01*
X143320689Y-122747600D01*
X143137851Y-122725020D01*
X142971902Y-122691318D01*
X142811354Y-122644381D01*
X142644721Y-122582095D01*
X142536930Y-122532855D01*
X142332659Y-122409836D01*
X142145529Y-122258497D01*
X141984884Y-122086923D01*
X141860070Y-121903201D01*
X141781794Y-121740384D01*
X141705073Y-121498482D01*
X141669346Y-121251323D01*
X141673584Y-121003983D01*
X141716757Y-120761535D01*
X141797833Y-120529054D01*
X141915784Y-120311615D01*
X142069578Y-120114291D01*
X142258187Y-119942157D01*
X142404059Y-119843255D01*
X142626115Y-119725614D01*
X142892105Y-119614591D01*
X143201473Y-119510411D01*
X143553667Y-119413301D01*
X143724465Y-119370144D01*
X143959056Y-119308974D01*
X144156069Y-119254523D01*
X144319669Y-119205215D01*
X144454019Y-119159473D01*
X144563284Y-119115720D01*
X144651629Y-119072381D01*
X144723219Y-119027878D01*
X144782217Y-118980635D01*
X144832789Y-118929075D01*
X144913178Y-118810096D01*
X144959382Y-118670620D01*
X144965015Y-118523914D01*
X144930659Y-118375468D01*
X144856896Y-118230768D01*
X144744309Y-118095303D01*
X144687868Y-118044560D01*
X144526849Y-117938734D01*
X144337328Y-117864011D01*
X144117181Y-117819691D01*
X143864285Y-117805073D01*
X143739789Y-117808795D01*
X143494931Y-117841384D01*
X143278787Y-117907127D01*
X143092416Y-118005525D01*
X142936881Y-118136082D01*
X142813243Y-118298298D01*
X142791854Y-118336231D01*
X142737496Y-118449986D01*
X142683833Y-118582369D01*
X142637902Y-118715248D01*
X142606738Y-118830491D01*
X142605997Y-118834068D01*
X142601666Y-118855324D01*
X142594771Y-118871272D01*
X142579986Y-118882066D01*
X142551985Y-118887861D01*
X142505442Y-118888810D01*
X142435030Y-118885068D01*
X142335424Y-118876787D01*
X142201296Y-118864121D01*
X142027321Y-118847225D01*
X141997193Y-118844317D01*
X141855533Y-118830934D01*
X141728103Y-118819356D01*
X141622629Y-118810254D01*
X141546837Y-118804298D01*
X141508454Y-118802160D01*
X141506928Y-118802158D01*
X141477626Y-118799334D01*
X141463756Y-118783839D01*
X141462091Y-118744899D01*
X141469406Y-118671741D01*
X141476423Y-118617399D01*
X141529375Y-118362275D01*
X141612629Y-118108708D01*
X141721569Y-117867255D01*
X141851579Y-117648474D01*
X141998040Y-117462922D01*
X142057829Y-117401058D01*
X142252604Y-117233302D01*
X142469461Y-117095514D01*
X142712881Y-116985549D01*
X142987341Y-116901260D01*
X143297321Y-116840502D01*
X143381616Y-116829945D01*
X143553409Y-116816954D01*
X143747612Y-116810496D01*
X143950022Y-116810694D01*
G37*
X143950022Y-116810694D02*
X144146432Y-116817673D01*
X144322637Y-116831555D01*
X144536136Y-116861576D01*
X144841561Y-116932346D01*
X145117594Y-117032092D01*
X145362131Y-117159834D01*
X145573069Y-117314592D01*
X145748303Y-117495387D01*
X145814633Y-117583793D01*
X145929110Y-117769786D01*
X146023079Y-117967279D01*
X146087500Y-118158599D01*
X146097839Y-118204686D01*
X146118569Y-118348571D01*
X146130263Y-118515327D01*
X146132548Y-118689314D01*
X146125052Y-118854891D01*
X146107405Y-118996415D01*
X146095397Y-119053926D01*
X146032520Y-119257202D01*
X145942507Y-119454532D01*
X145833647Y-119626834D01*
X145738031Y-119743132D01*
X145621828Y-119858833D01*
X145490096Y-119963625D01*
X145338601Y-120059643D01*
X145163107Y-120149023D01*
X144959378Y-120233902D01*
X144723178Y-120316417D01*
X144450274Y-120398703D01*
X144136428Y-120482897D01*
X143949657Y-120531201D01*
X143727305Y-120590808D01*
X143541618Y-120643787D01*
X143388130Y-120691752D01*
X143262377Y-120736318D01*
X143159893Y-120779099D01*
X143076214Y-120821711D01*
X143006873Y-120865768D01*
X142947407Y-120912884D01*
X142920362Y-120938673D01*
X142864967Y-121003893D01*
X142829032Y-121063248D01*
X142829004Y-121063315D01*
X142806690Y-121149744D01*
X142799531Y-121252542D01*
X142807454Y-121351975D01*
X142830386Y-121428314D01*
X142848346Y-121458748D01*
X142936255Y-121556820D01*
X143060331Y-121643139D01*
X143213834Y-121713657D01*
X143390025Y-121764327D01*
X143398824Y-121766134D01*
X143519909Y-121782374D01*
X143665529Y-121790006D01*
X143821807Y-121789404D01*
X143974864Y-121780945D01*
X144110822Y-121765005D01*
X144215803Y-121741959D01*
X144303204Y-121709441D01*
X144462870Y-121615954D01*
X144593741Y-121488021D01*
X144694587Y-121327005D01*
X144764182Y-121134266D01*
X144805446Y-120973899D01*
X145327053Y-120992372D01*
X145404014Y-120995086D01*
X145552112Y-121000242D01*
X145684579Y-121004768D01*
X145793991Y-121008414D01*
X145872922Y-121010933D01*
X145913950Y-121012074D01*
X145979241Y-121013304D01*
X145965667Y-121189330D01*
X145950695Y-121301404D01*
X145921998Y-121436645D01*
X145885327Y-121564637D01*
X145798605Y-121779746D01*
X145664331Y-122010564D01*
X145497374Y-122210047D01*
X145297308Y-122378687D01*
X145063706Y-122516977D01*
X145020557Y-122537774D01*
X144824833Y-122620289D01*
X144625995Y-122683063D01*
X144415956Y-122727503D01*
X144186632Y-122755013D01*
X143929939Y-122766999D01*
X143637791Y-122764866D01*
X143531903Y-122761174D01*
X143320689Y-122747600D01*
X143137851Y-122725020D01*
X142971902Y-122691318D01*
X142811354Y-122644381D01*
X142644721Y-122582095D01*
X142536930Y-122532855D01*
X142332659Y-122409836D01*
X142145529Y-122258497D01*
X141984884Y-122086923D01*
X141860070Y-121903201D01*
X141781794Y-121740384D01*
X141705073Y-121498482D01*
X141669346Y-121251323D01*
X141673584Y-121003983D01*
X141716757Y-120761535D01*
X141797833Y-120529054D01*
X141915784Y-120311615D01*
X142069578Y-120114291D01*
X142258187Y-119942157D01*
X142404059Y-119843255D01*
X142626115Y-119725614D01*
X142892105Y-119614591D01*
X143201473Y-119510411D01*
X143553667Y-119413301D01*
X143724465Y-119370144D01*
X143959056Y-119308974D01*
X144156069Y-119254523D01*
X144319669Y-119205215D01*
X144454019Y-119159473D01*
X144563284Y-119115720D01*
X144651629Y-119072381D01*
X144723219Y-119027878D01*
X144782217Y-118980635D01*
X144832789Y-118929075D01*
X144913178Y-118810096D01*
X144959382Y-118670620D01*
X144965015Y-118523914D01*
X144930659Y-118375468D01*
X144856896Y-118230768D01*
X144744309Y-118095303D01*
X144687868Y-118044560D01*
X144526849Y-117938734D01*
X144337328Y-117864011D01*
X144117181Y-117819691D01*
X143864285Y-117805073D01*
X143739789Y-117808795D01*
X143494931Y-117841384D01*
X143278787Y-117907127D01*
X143092416Y-118005525D01*
X142936881Y-118136082D01*
X142813243Y-118298298D01*
X142791854Y-118336231D01*
X142737496Y-118449986D01*
X142683833Y-118582369D01*
X142637902Y-118715248D01*
X142606738Y-118830491D01*
X142605997Y-118834068D01*
X142601666Y-118855324D01*
X142594771Y-118871272D01*
X142579986Y-118882066D01*
X142551985Y-118887861D01*
X142505442Y-118888810D01*
X142435030Y-118885068D01*
X142335424Y-118876787D01*
X142201296Y-118864121D01*
X142027321Y-118847225D01*
X141997193Y-118844317D01*
X141855533Y-118830934D01*
X141728103Y-118819356D01*
X141622629Y-118810254D01*
X141546837Y-118804298D01*
X141508454Y-118802160D01*
X141506928Y-118802158D01*
X141477626Y-118799334D01*
X141463756Y-118783839D01*
X141462091Y-118744899D01*
X141469406Y-118671741D01*
X141476423Y-118617399D01*
X141529375Y-118362275D01*
X141612629Y-118108708D01*
X141721569Y-117867255D01*
X141851579Y-117648474D01*
X141998040Y-117462922D01*
X142057829Y-117401058D01*
X142252604Y-117233302D01*
X142469461Y-117095514D01*
X142712881Y-116985549D01*
X142987341Y-116901260D01*
X143297321Y-116840502D01*
X143381616Y-116829945D01*
X143553409Y-116816954D01*
X143747612Y-116810496D01*
X143950022Y-116810694D01*
G36*
X126424063Y-116919821D02*
G01*
X126435803Y-119312411D01*
X126720604Y-119309167D01*
X126861258Y-119305000D01*
X127048739Y-119287031D01*
X127206004Y-119251683D01*
X127341430Y-119195115D01*
X127463394Y-119113484D01*
X127580272Y-119002945D01*
X127700441Y-118859658D01*
X127728282Y-118822531D01*
X127789035Y-118738098D01*
X127869099Y-118624160D01*
X127965028Y-118485728D01*
X128073372Y-118327814D01*
X128190684Y-118155426D01*
X128313515Y-117973577D01*
X128438417Y-117787277D01*
X129017732Y-116919821D01*
X129716812Y-116919821D01*
X129796338Y-116919890D01*
X129962860Y-116920506D01*
X130111369Y-116921692D01*
X130236395Y-116923365D01*
X130332470Y-116925440D01*
X130394125Y-116927836D01*
X130415892Y-116930469D01*
X130415834Y-116930899D01*
X130402503Y-116956569D01*
X130367875Y-117015337D01*
X130314943Y-117102458D01*
X130246703Y-117213186D01*
X130166149Y-117342776D01*
X130076275Y-117486483D01*
X129980077Y-117639560D01*
X129880548Y-117797262D01*
X129780684Y-117954844D01*
X129683478Y-118107559D01*
X129591927Y-118250664D01*
X129509023Y-118379411D01*
X129437762Y-118489055D01*
X129381138Y-118574851D01*
X129342146Y-118632054D01*
X129319295Y-118663924D01*
X129164914Y-118858686D01*
X128995000Y-119042564D01*
X128819945Y-119204997D01*
X128650142Y-119335419D01*
X128483231Y-119448482D01*
X128559428Y-119468134D01*
X128695261Y-119504410D01*
X128886810Y-119562072D01*
X129046194Y-119620830D01*
X129181421Y-119684659D01*
X129300495Y-119757538D01*
X129411423Y-119843442D01*
X129522211Y-119946348D01*
X129604779Y-120033487D01*
X129736356Y-120204321D01*
X129833775Y-120384896D01*
X129899861Y-120582572D01*
X129937440Y-120804707D01*
X129949338Y-121058661D01*
X129949300Y-121078735D01*
X129944079Y-121257144D01*
X129927777Y-121407352D01*
X129897129Y-121544381D01*
X129848870Y-121683256D01*
X129779734Y-121838998D01*
X129776919Y-121844883D01*
X129724550Y-121945193D01*
X129668407Y-122030617D01*
X129597891Y-122115495D01*
X129502399Y-122214167D01*
X129477168Y-122238800D01*
X129358204Y-122344132D01*
X129238965Y-122428368D01*
X129110433Y-122495637D01*
X128963593Y-122550064D01*
X128789430Y-122595776D01*
X128578928Y-122636901D01*
X128568107Y-122638489D01*
X128499024Y-122644240D01*
X128385871Y-122649620D01*
X128229663Y-122654609D01*
X128031416Y-122659186D01*
X127792145Y-122663330D01*
X127512866Y-122667020D01*
X127194595Y-122670235D01*
X126838348Y-122672954D01*
X125245178Y-122683424D01*
X125245178Y-120253571D01*
X126424464Y-120253571D01*
X126424464Y-121682321D01*
X127282133Y-121682321D01*
X127418718Y-121682237D01*
X127623676Y-121681612D01*
X127790708Y-121680232D01*
X127924535Y-121677923D01*
X128029877Y-121674513D01*
X128111453Y-121669828D01*
X128173984Y-121663695D01*
X128222190Y-121655941D01*
X128260791Y-121646392D01*
X128290619Y-121637026D01*
X128452801Y-121563482D01*
X128579111Y-121462215D01*
X128669659Y-121333080D01*
X128724550Y-121175932D01*
X128743891Y-120990625D01*
X128743920Y-120977548D01*
X128725187Y-120792368D01*
X128669838Y-120632364D01*
X128576969Y-120494853D01*
X128563412Y-120479983D01*
X128472860Y-120403623D01*
X128360414Y-120346299D01*
X128218620Y-120304984D01*
X128040027Y-120276648D01*
X128023061Y-120274934D01*
X127937948Y-120269309D01*
X127817353Y-120264264D01*
X127668926Y-120259994D01*
X127500318Y-120256691D01*
X127319182Y-120254547D01*
X127133169Y-120253758D01*
X126424464Y-120253571D01*
X125245178Y-120253571D01*
X125245178Y-116919821D01*
X126424063Y-116919821D01*
G37*
X126424063Y-116919821D02*
X126435803Y-119312411D01*
X126720604Y-119309167D01*
X126861258Y-119305000D01*
X127048739Y-119287031D01*
X127206004Y-119251683D01*
X127341430Y-119195115D01*
X127463394Y-119113484D01*
X127580272Y-119002945D01*
X127700441Y-118859658D01*
X127728282Y-118822531D01*
X127789035Y-118738098D01*
X127869099Y-118624160D01*
X127965028Y-118485728D01*
X128073372Y-118327814D01*
X128190684Y-118155426D01*
X128313515Y-117973577D01*
X128438417Y-117787277D01*
X129017732Y-116919821D01*
X129716812Y-116919821D01*
X129796338Y-116919890D01*
X129962860Y-116920506D01*
X130111369Y-116921692D01*
X130236395Y-116923365D01*
X130332470Y-116925440D01*
X130394125Y-116927836D01*
X130415892Y-116930469D01*
X130415834Y-116930899D01*
X130402503Y-116956569D01*
X130367875Y-117015337D01*
X130314943Y-117102458D01*
X130246703Y-117213186D01*
X130166149Y-117342776D01*
X130076275Y-117486483D01*
X129980077Y-117639560D01*
X129880548Y-117797262D01*
X129780684Y-117954844D01*
X129683478Y-118107559D01*
X129591927Y-118250664D01*
X129509023Y-118379411D01*
X129437762Y-118489055D01*
X129381138Y-118574851D01*
X129342146Y-118632054D01*
X129319295Y-118663924D01*
X129164914Y-118858686D01*
X128995000Y-119042564D01*
X128819945Y-119204997D01*
X128650142Y-119335419D01*
X128483231Y-119448482D01*
X128559428Y-119468134D01*
X128695261Y-119504410D01*
X128886810Y-119562072D01*
X129046194Y-119620830D01*
X129181421Y-119684659D01*
X129300495Y-119757538D01*
X129411423Y-119843442D01*
X129522211Y-119946348D01*
X129604779Y-120033487D01*
X129736356Y-120204321D01*
X129833775Y-120384896D01*
X129899861Y-120582572D01*
X129937440Y-120804707D01*
X129949338Y-121058661D01*
X129949300Y-121078735D01*
X129944079Y-121257144D01*
X129927777Y-121407352D01*
X129897129Y-121544381D01*
X129848870Y-121683256D01*
X129779734Y-121838998D01*
X129776919Y-121844883D01*
X129724550Y-121945193D01*
X129668407Y-122030617D01*
X129597891Y-122115495D01*
X129502399Y-122214167D01*
X129477168Y-122238800D01*
X129358204Y-122344132D01*
X129238965Y-122428368D01*
X129110433Y-122495637D01*
X128963593Y-122550064D01*
X128789430Y-122595776D01*
X128578928Y-122636901D01*
X128568107Y-122638489D01*
X128499024Y-122644240D01*
X128385871Y-122649620D01*
X128229663Y-122654609D01*
X128031416Y-122659186D01*
X127792145Y-122663330D01*
X127512866Y-122667020D01*
X127194595Y-122670235D01*
X126838348Y-122672954D01*
X125245178Y-122683424D01*
X125245178Y-120253571D01*
X126424464Y-120253571D01*
X126424464Y-121682321D01*
X127282133Y-121682321D01*
X127418718Y-121682237D01*
X127623676Y-121681612D01*
X127790708Y-121680232D01*
X127924535Y-121677923D01*
X128029877Y-121674513D01*
X128111453Y-121669828D01*
X128173984Y-121663695D01*
X128222190Y-121655941D01*
X128260791Y-121646392D01*
X128290619Y-121637026D01*
X128452801Y-121563482D01*
X128579111Y-121462215D01*
X128669659Y-121333080D01*
X128724550Y-121175932D01*
X128743891Y-120990625D01*
X128743920Y-120977548D01*
X128725187Y-120792368D01*
X128669838Y-120632364D01*
X128576969Y-120494853D01*
X128563412Y-120479983D01*
X128472860Y-120403623D01*
X128360414Y-120346299D01*
X128218620Y-120304984D01*
X128040027Y-120276648D01*
X128023061Y-120274934D01*
X127937948Y-120269309D01*
X127817353Y-120264264D01*
X127668926Y-120259994D01*
X127500318Y-120256691D01*
X127319182Y-120254547D01*
X127133169Y-120253758D01*
X126424464Y-120253571D01*
X125245178Y-120253571D01*
X125245178Y-116919821D01*
X126424063Y-116919821D01*
G36*
X137134227Y-118172813D02*
G01*
X137140089Y-119425804D01*
X138257008Y-119431687D01*
X139373928Y-119437570D01*
X139373928Y-116919821D01*
X140553214Y-116919821D01*
X140553214Y-122680179D01*
X139373928Y-122680179D01*
X139373928Y-120412321D01*
X137128750Y-120412321D01*
X137128750Y-122680179D01*
X135949464Y-122680179D01*
X135949464Y-116919821D01*
X137128365Y-116919821D01*
X137134227Y-118172813D01*
G37*
X137134227Y-118172813D02*
X137140089Y-119425804D01*
X138257008Y-119431687D01*
X139373928Y-119437570D01*
X139373928Y-116919821D01*
X140553214Y-116919821D01*
X140553214Y-122680179D01*
X139373928Y-122680179D01*
X139373928Y-120412321D01*
X137128750Y-120412321D01*
X137128750Y-122680179D01*
X135949464Y-122680179D01*
X135949464Y-116919821D01*
X137128365Y-116919821D01*
X137134227Y-118172813D01*
G36*
X133077079Y-108841841D02*
G01*
X133382500Y-108841958D01*
X133678568Y-108842198D01*
X133963841Y-108842556D01*
X134236877Y-108843024D01*
X134496235Y-108843597D01*
X134740473Y-108844268D01*
X134968151Y-108845032D01*
X135177826Y-108845881D01*
X135368057Y-108846811D01*
X135537403Y-108847814D01*
X135684422Y-108848885D01*
X135807673Y-108850017D01*
X135905714Y-108851204D01*
X135977104Y-108852441D01*
X136020402Y-108853720D01*
X136034165Y-108855037D01*
X136023946Y-108861696D01*
X135988689Y-108882917D01*
X135930779Y-108917080D01*
X135852570Y-108962829D01*
X135756417Y-109018810D01*
X135644677Y-109083667D01*
X135519704Y-109156046D01*
X135383854Y-109234591D01*
X135239482Y-109317946D01*
X135088944Y-109404757D01*
X134934595Y-109493668D01*
X134778790Y-109583324D01*
X134623884Y-109672371D01*
X134472234Y-109759452D01*
X134326194Y-109843212D01*
X134188119Y-109922297D01*
X134060366Y-109995351D01*
X133945289Y-110061019D01*
X133845244Y-110117946D01*
X133762586Y-110164776D01*
X133699671Y-110200154D01*
X133658853Y-110222726D01*
X133642489Y-110231136D01*
X133631811Y-110229051D01*
X133599642Y-110210092D01*
X133553779Y-110174968D01*
X133499260Y-110127331D01*
X133450155Y-110079644D01*
X133387611Y-110014684D01*
X133317632Y-109938845D01*
X133243804Y-109856302D01*
X133169715Y-109771232D01*
X133098952Y-109687810D01*
X133035102Y-109610211D01*
X132981753Y-109542611D01*
X132942491Y-109489186D01*
X132920905Y-109454111D01*
X132906494Y-109428495D01*
X132867357Y-109375484D01*
X132817042Y-109319088D01*
X132762724Y-109266538D01*
X132711576Y-109225070D01*
X132670773Y-109201914D01*
X132625708Y-109196562D01*
X132565574Y-109211355D01*
X132508421Y-109245274D01*
X132464067Y-109293947D01*
X132456387Y-109306575D01*
X132446608Y-109327257D01*
X132440235Y-109352146D01*
X132436858Y-109386591D01*
X132436069Y-109435938D01*
X132437459Y-109505536D01*
X132440619Y-109600732D01*
X132442884Y-109655798D01*
X132447696Y-109742883D01*
X132453375Y-109819101D01*
X132459392Y-109877751D01*
X132465217Y-109912134D01*
X132479321Y-109951412D01*
X132521134Y-110028760D01*
X132586105Y-110120409D01*
X132675030Y-110227433D01*
X132788700Y-110350910D01*
X132838028Y-110402934D01*
X132895062Y-110464304D01*
X132942136Y-110516335D01*
X132975376Y-110554734D01*
X132990911Y-110575204D01*
X132992508Y-110578454D01*
X132994423Y-110592447D01*
X132984855Y-110607961D01*
X132959885Y-110628341D01*
X132915594Y-110656929D01*
X132848062Y-110697068D01*
X132790653Y-110730578D01*
X132685008Y-110791877D01*
X132601829Y-110839491D01*
X132538322Y-110874967D01*
X132491694Y-110899851D01*
X132459150Y-110915687D01*
X132437896Y-110924023D01*
X132415903Y-110933272D01*
X132403049Y-110945693D01*
X132401846Y-110948622D01*
X132383039Y-110964916D01*
X132348665Y-110985902D01*
X132294281Y-111015190D01*
X132254126Y-110977808D01*
X132239943Y-110962664D01*
X132206945Y-110921507D01*
X132166654Y-110866555D01*
X132124818Y-110805469D01*
X132035664Y-110670511D01*
X132039163Y-110320638D01*
X132042661Y-109970765D01*
X132093607Y-109921267D01*
X132110726Y-109903621D01*
X132165624Y-109824340D01*
X132197670Y-109730065D01*
X132208588Y-109616220D01*
X132205877Y-109555221D01*
X132186739Y-109447622D01*
X132151859Y-109349417D01*
X132104258Y-109270618D01*
X132071205Y-109241886D01*
X132012451Y-109220063D01*
X131945939Y-109217546D01*
X131880184Y-109233172D01*
X131823699Y-109265780D01*
X131784997Y-109314207D01*
X131783730Y-109316832D01*
X131760337Y-109364775D01*
X131735561Y-109414878D01*
X131714528Y-109461913D01*
X131684356Y-109541190D01*
X131651068Y-109638928D01*
X131615821Y-109750772D01*
X131579771Y-109872366D01*
X131544075Y-109999355D01*
X131509890Y-110127384D01*
X131478373Y-110252098D01*
X131450680Y-110369141D01*
X131427968Y-110474157D01*
X131411394Y-110562791D01*
X131402115Y-110630688D01*
X131401286Y-110673493D01*
X131403153Y-110683218D01*
X131421342Y-110732444D01*
X131455093Y-110798301D01*
X131501445Y-110874835D01*
X131519236Y-110902415D01*
X131590718Y-111014878D01*
X131651480Y-111113228D01*
X131700183Y-111195168D01*
X131735486Y-111258395D01*
X131756048Y-111300610D01*
X131760531Y-111319513D01*
X131760012Y-111320180D01*
X131741455Y-111333795D01*
X131701798Y-111358681D01*
X131646474Y-111391524D01*
X131580916Y-111429012D01*
X131575374Y-111432124D01*
X131504193Y-111471288D01*
X131454619Y-111496264D01*
X131422094Y-111508842D01*
X131402058Y-111510811D01*
X131389953Y-111503960D01*
X131384198Y-111495375D01*
X131363635Y-111461654D01*
X131329821Y-111404800D01*
X131284050Y-111327032D01*
X131227617Y-111230568D01*
X131161816Y-111117629D01*
X131087942Y-110990432D01*
X131007289Y-110851197D01*
X130921152Y-110702143D01*
X130830825Y-110545488D01*
X130806053Y-110502479D01*
X130708100Y-110332425D01*
X130609491Y-110161246D01*
X130512240Y-109992438D01*
X130418362Y-109829497D01*
X130329869Y-109675918D01*
X130248778Y-109535199D01*
X130177102Y-109410834D01*
X130116856Y-109306320D01*
X130070053Y-109225153D01*
X129848970Y-108841829D01*
X132948924Y-108841829D01*
X133077079Y-108841841D01*
G37*
X133077079Y-108841841D02*
X133382500Y-108841958D01*
X133678568Y-108842198D01*
X133963841Y-108842556D01*
X134236877Y-108843024D01*
X134496235Y-108843597D01*
X134740473Y-108844268D01*
X134968151Y-108845032D01*
X135177826Y-108845881D01*
X135368057Y-108846811D01*
X135537403Y-108847814D01*
X135684422Y-108848885D01*
X135807673Y-108850017D01*
X135905714Y-108851204D01*
X135977104Y-108852441D01*
X136020402Y-108853720D01*
X136034165Y-108855037D01*
X136023946Y-108861696D01*
X135988689Y-108882917D01*
X135930779Y-108917080D01*
X135852570Y-108962829D01*
X135756417Y-109018810D01*
X135644677Y-109083667D01*
X135519704Y-109156046D01*
X135383854Y-109234591D01*
X135239482Y-109317946D01*
X135088944Y-109404757D01*
X134934595Y-109493668D01*
X134778790Y-109583324D01*
X134623884Y-109672371D01*
X134472234Y-109759452D01*
X134326194Y-109843212D01*
X134188119Y-109922297D01*
X134060366Y-109995351D01*
X133945289Y-110061019D01*
X133845244Y-110117946D01*
X133762586Y-110164776D01*
X133699671Y-110200154D01*
X133658853Y-110222726D01*
X133642489Y-110231136D01*
X133631811Y-110229051D01*
X133599642Y-110210092D01*
X133553779Y-110174968D01*
X133499260Y-110127331D01*
X133450155Y-110079644D01*
X133387611Y-110014684D01*
X133317632Y-109938845D01*
X133243804Y-109856302D01*
X133169715Y-109771232D01*
X133098952Y-109687810D01*
X133035102Y-109610211D01*
X132981753Y-109542611D01*
X132942491Y-109489186D01*
X132920905Y-109454111D01*
X132906494Y-109428495D01*
X132867357Y-109375484D01*
X132817042Y-109319088D01*
X132762724Y-109266538D01*
X132711576Y-109225070D01*
X132670773Y-109201914D01*
X132625708Y-109196562D01*
X132565574Y-109211355D01*
X132508421Y-109245274D01*
X132464067Y-109293947D01*
X132456387Y-109306575D01*
X132446608Y-109327257D01*
X132440235Y-109352146D01*
X132436858Y-109386591D01*
X132436069Y-109435938D01*
X132437459Y-109505536D01*
X132440619Y-109600732D01*
X132442884Y-109655798D01*
X132447696Y-109742883D01*
X132453375Y-109819101D01*
X132459392Y-109877751D01*
X132465217Y-109912134D01*
X132479321Y-109951412D01*
X132521134Y-110028760D01*
X132586105Y-110120409D01*
X132675030Y-110227433D01*
X132788700Y-110350910D01*
X132838028Y-110402934D01*
X132895062Y-110464304D01*
X132942136Y-110516335D01*
X132975376Y-110554734D01*
X132990911Y-110575204D01*
X132992508Y-110578454D01*
X132994423Y-110592447D01*
X132984855Y-110607961D01*
X132959885Y-110628341D01*
X132915594Y-110656929D01*
X132848062Y-110697068D01*
X132790653Y-110730578D01*
X132685008Y-110791877D01*
X132601829Y-110839491D01*
X132538322Y-110874967D01*
X132491694Y-110899851D01*
X132459150Y-110915687D01*
X132437896Y-110924023D01*
X132415903Y-110933272D01*
X132403049Y-110945693D01*
X132401846Y-110948622D01*
X132383039Y-110964916D01*
X132348665Y-110985902D01*
X132294281Y-111015190D01*
X132254126Y-110977808D01*
X132239943Y-110962664D01*
X132206945Y-110921507D01*
X132166654Y-110866555D01*
X132124818Y-110805469D01*
X132035664Y-110670511D01*
X132039163Y-110320638D01*
X132042661Y-109970765D01*
X132093607Y-109921267D01*
X132110726Y-109903621D01*
X132165624Y-109824340D01*
X132197670Y-109730065D01*
X132208588Y-109616220D01*
X132205877Y-109555221D01*
X132186739Y-109447622D01*
X132151859Y-109349417D01*
X132104258Y-109270618D01*
X132071205Y-109241886D01*
X132012451Y-109220063D01*
X131945939Y-109217546D01*
X131880184Y-109233172D01*
X131823699Y-109265780D01*
X131784997Y-109314207D01*
X131783730Y-109316832D01*
X131760337Y-109364775D01*
X131735561Y-109414878D01*
X131714528Y-109461913D01*
X131684356Y-109541190D01*
X131651068Y-109638928D01*
X131615821Y-109750772D01*
X131579771Y-109872366D01*
X131544075Y-109999355D01*
X131509890Y-110127384D01*
X131478373Y-110252098D01*
X131450680Y-110369141D01*
X131427968Y-110474157D01*
X131411394Y-110562791D01*
X131402115Y-110630688D01*
X131401286Y-110673493D01*
X131403153Y-110683218D01*
X131421342Y-110732444D01*
X131455093Y-110798301D01*
X131501445Y-110874835D01*
X131519236Y-110902415D01*
X131590718Y-111014878D01*
X131651480Y-111113228D01*
X131700183Y-111195168D01*
X131735486Y-111258395D01*
X131756048Y-111300610D01*
X131760531Y-111319513D01*
X131760012Y-111320180D01*
X131741455Y-111333795D01*
X131701798Y-111358681D01*
X131646474Y-111391524D01*
X131580916Y-111429012D01*
X131575374Y-111432124D01*
X131504193Y-111471288D01*
X131454619Y-111496264D01*
X131422094Y-111508842D01*
X131402058Y-111510811D01*
X131389953Y-111503960D01*
X131384198Y-111495375D01*
X131363635Y-111461654D01*
X131329821Y-111404800D01*
X131284050Y-111327032D01*
X131227617Y-111230568D01*
X131161816Y-111117629D01*
X131087942Y-110990432D01*
X131007289Y-110851197D01*
X130921152Y-110702143D01*
X130830825Y-110545488D01*
X130806053Y-110502479D01*
X130708100Y-110332425D01*
X130609491Y-110161246D01*
X130512240Y-109992438D01*
X130418362Y-109829497D01*
X130329869Y-109675918D01*
X130248778Y-109535199D01*
X130177102Y-109410834D01*
X130116856Y-109306320D01*
X130070053Y-109225153D01*
X129848970Y-108841829D01*
X132948924Y-108841829D01*
X133077079Y-108841841D01*
G36*
X136333925Y-109404169D02*
G01*
X136322507Y-109427670D01*
X136301507Y-109465214D01*
X136288624Y-109487436D01*
X136261228Y-109534827D01*
X136220913Y-109604623D01*
X136168991Y-109694556D01*
X136106769Y-109802358D01*
X136035557Y-109925760D01*
X135956665Y-110062494D01*
X135871402Y-110210291D01*
X135781076Y-110366883D01*
X135686998Y-110530000D01*
X135594879Y-110689677D01*
X135505320Y-110844813D01*
X135421107Y-110990588D01*
X135343503Y-111124817D01*
X135273775Y-111245315D01*
X135213186Y-111349898D01*
X135163002Y-111436381D01*
X135124488Y-111502579D01*
X135098908Y-111546307D01*
X135087528Y-111565381D01*
X135064180Y-111601799D01*
X135017164Y-111557637D01*
X135002977Y-111543968D01*
X134961608Y-111502281D01*
X134906893Y-111445528D01*
X134841490Y-111376603D01*
X134768057Y-111298401D01*
X134689254Y-111213818D01*
X134607740Y-111125747D01*
X134526173Y-111037084D01*
X134447212Y-110950724D01*
X134373517Y-110869561D01*
X134307746Y-110796490D01*
X134252559Y-110734406D01*
X134210614Y-110686205D01*
X134184569Y-110654780D01*
X134177085Y-110643026D01*
X134179654Y-110641728D01*
X134204215Y-110628022D01*
X134252796Y-110600387D01*
X134323348Y-110560002D01*
X134413827Y-110508045D01*
X134522185Y-110445695D01*
X134646376Y-110374129D01*
X134784355Y-110294525D01*
X134934074Y-110208062D01*
X135093487Y-110115917D01*
X135260549Y-110019268D01*
X135322992Y-109983133D01*
X135487117Y-109888194D01*
X135642642Y-109798286D01*
X135787546Y-109714576D01*
X135919805Y-109638229D01*
X136037396Y-109570411D01*
X136138298Y-109512289D01*
X136220487Y-109465029D01*
X136281941Y-109429797D01*
X136320636Y-109407758D01*
X136334551Y-109400080D01*
X136333925Y-109404169D01*
G37*
X136333925Y-109404169D02*
X136322507Y-109427670D01*
X136301507Y-109465214D01*
X136288624Y-109487436D01*
X136261228Y-109534827D01*
X136220913Y-109604623D01*
X136168991Y-109694556D01*
X136106769Y-109802358D01*
X136035557Y-109925760D01*
X135956665Y-110062494D01*
X135871402Y-110210291D01*
X135781076Y-110366883D01*
X135686998Y-110530000D01*
X135594879Y-110689677D01*
X135505320Y-110844813D01*
X135421107Y-110990588D01*
X135343503Y-111124817D01*
X135273775Y-111245315D01*
X135213186Y-111349898D01*
X135163002Y-111436381D01*
X135124488Y-111502579D01*
X135098908Y-111546307D01*
X135087528Y-111565381D01*
X135064180Y-111601799D01*
X135017164Y-111557637D01*
X135002977Y-111543968D01*
X134961608Y-111502281D01*
X134906893Y-111445528D01*
X134841490Y-111376603D01*
X134768057Y-111298401D01*
X134689254Y-111213818D01*
X134607740Y-111125747D01*
X134526173Y-111037084D01*
X134447212Y-110950724D01*
X134373517Y-110869561D01*
X134307746Y-110796490D01*
X134252559Y-110734406D01*
X134210614Y-110686205D01*
X134184569Y-110654780D01*
X134177085Y-110643026D01*
X134179654Y-110641728D01*
X134204215Y-110628022D01*
X134252796Y-110600387D01*
X134323348Y-110560002D01*
X134413827Y-110508045D01*
X134522185Y-110445695D01*
X134646376Y-110374129D01*
X134784355Y-110294525D01*
X134934074Y-110208062D01*
X135093487Y-110115917D01*
X135260549Y-110019268D01*
X135322992Y-109983133D01*
X135487117Y-109888194D01*
X135642642Y-109798286D01*
X135787546Y-109714576D01*
X135919805Y-109638229D01*
X136037396Y-109570411D01*
X136138298Y-109512289D01*
X136220487Y-109465029D01*
X136281941Y-109429797D01*
X136320636Y-109407758D01*
X136334551Y-109400080D01*
X136333925Y-109404169D01*
G36*
X132119680Y-111850194D02*
G01*
X132124268Y-111860703D01*
X132124618Y-111862417D01*
X132137732Y-111883318D01*
X132166000Y-111918861D01*
X132204214Y-111962417D01*
X132221845Y-111981125D01*
X132276518Y-112031488D01*
X132336978Y-112074535D01*
X132406818Y-112111527D01*
X132489630Y-112143727D01*
X132589008Y-112172398D01*
X132708545Y-112198802D01*
X132851834Y-112224200D01*
X133022469Y-112249855D01*
X133218866Y-112278773D01*
X133408726Y-112309827D01*
X133574740Y-112340956D01*
X133720618Y-112373058D01*
X133850073Y-112407031D01*
X133966817Y-112443774D01*
X134074560Y-112484183D01*
X134177015Y-112529157D01*
X134252312Y-112566246D01*
X134324235Y-112605275D01*
X134381114Y-112640118D01*
X134418501Y-112668035D01*
X134431951Y-112686286D01*
X134431554Y-112687630D01*
X134420720Y-112709138D01*
X134396155Y-112754178D01*
X134359315Y-112820228D01*
X134311653Y-112904767D01*
X134254624Y-113005273D01*
X134189682Y-113119224D01*
X134118281Y-113244099D01*
X134041876Y-113377376D01*
X133961921Y-113516533D01*
X133879870Y-113659049D01*
X133797178Y-113802402D01*
X133715299Y-113944070D01*
X133635687Y-114081532D01*
X133559796Y-114212266D01*
X133489081Y-114333750D01*
X133424996Y-114443462D01*
X133368996Y-114538882D01*
X133322534Y-114617486D01*
X133287065Y-114676755D01*
X133264043Y-114714165D01*
X133254923Y-114727195D01*
X133254440Y-114726825D01*
X133242907Y-114709489D01*
X133217500Y-114667838D01*
X133179493Y-114604089D01*
X133130163Y-114520455D01*
X133070787Y-114419151D01*
X133002641Y-114302391D01*
X132927000Y-114172392D01*
X132845141Y-114031367D01*
X132758340Y-113881532D01*
X132667874Y-113725100D01*
X132575018Y-113564287D01*
X132481049Y-113401307D01*
X132387243Y-113238376D01*
X132294876Y-113077708D01*
X132205224Y-112921518D01*
X132119564Y-112772020D01*
X132039172Y-112631429D01*
X131965323Y-112501960D01*
X131899295Y-112385828D01*
X131842363Y-112285248D01*
X131795803Y-112202433D01*
X131760892Y-112139600D01*
X131738906Y-112098963D01*
X131731121Y-112082736D01*
X131731113Y-112082612D01*
X131743667Y-112065584D01*
X131779742Y-112036721D01*
X131835583Y-111998753D01*
X131907439Y-111954413D01*
X131955627Y-111926048D01*
X132024968Y-111886604D01*
X132073266Y-111861746D01*
X132103758Y-111850076D01*
X132119680Y-111850194D01*
G37*
X132119680Y-111850194D02*
X132124268Y-111860703D01*
X132124618Y-111862417D01*
X132137732Y-111883318D01*
X132166000Y-111918861D01*
X132204214Y-111962417D01*
X132221845Y-111981125D01*
X132276518Y-112031488D01*
X132336978Y-112074535D01*
X132406818Y-112111527D01*
X132489630Y-112143727D01*
X132589008Y-112172398D01*
X132708545Y-112198802D01*
X132851834Y-112224200D01*
X133022469Y-112249855D01*
X133218866Y-112278773D01*
X133408726Y-112309827D01*
X133574740Y-112340956D01*
X133720618Y-112373058D01*
X133850073Y-112407031D01*
X133966817Y-112443774D01*
X134074560Y-112484183D01*
X134177015Y-112529157D01*
X134252312Y-112566246D01*
X134324235Y-112605275D01*
X134381114Y-112640118D01*
X134418501Y-112668035D01*
X134431951Y-112686286D01*
X134431554Y-112687630D01*
X134420720Y-112709138D01*
X134396155Y-112754178D01*
X134359315Y-112820228D01*
X134311653Y-112904767D01*
X134254624Y-113005273D01*
X134189682Y-113119224D01*
X134118281Y-113244099D01*
X134041876Y-113377376D01*
X133961921Y-113516533D01*
X133879870Y-113659049D01*
X133797178Y-113802402D01*
X133715299Y-113944070D01*
X133635687Y-114081532D01*
X133559796Y-114212266D01*
X133489081Y-114333750D01*
X133424996Y-114443462D01*
X133368996Y-114538882D01*
X133322534Y-114617486D01*
X133287065Y-114676755D01*
X133264043Y-114714165D01*
X133254923Y-114727195D01*
X133254440Y-114726825D01*
X133242907Y-114709489D01*
X133217500Y-114667838D01*
X133179493Y-114604089D01*
X133130163Y-114520455D01*
X133070787Y-114419151D01*
X133002641Y-114302391D01*
X132927000Y-114172392D01*
X132845141Y-114031367D01*
X132758340Y-113881532D01*
X132667874Y-113725100D01*
X132575018Y-113564287D01*
X132481049Y-113401307D01*
X132387243Y-113238376D01*
X132294876Y-113077708D01*
X132205224Y-112921518D01*
X132119564Y-112772020D01*
X132039172Y-112631429D01*
X131965323Y-112501960D01*
X131899295Y-112385828D01*
X131842363Y-112285248D01*
X131795803Y-112202433D01*
X131760892Y-112139600D01*
X131738906Y-112098963D01*
X131731121Y-112082736D01*
X131731113Y-112082612D01*
X131743667Y-112065584D01*
X131779742Y-112036721D01*
X131835583Y-111998753D01*
X131907439Y-111954413D01*
X131955627Y-111926048D01*
X132024968Y-111886604D01*
X132073266Y-111861746D01*
X132103758Y-111850076D01*
X132119680Y-111850194D01*
G36*
X141734510Y-109072618D02*
G01*
X141798256Y-109073797D01*
X141845251Y-109075862D01*
X141870651Y-109078859D01*
X141900417Y-109086836D01*
X141900417Y-110003814D01*
X141625911Y-110003496D01*
X141570767Y-110003648D01*
X141445258Y-110006320D01*
X141337106Y-110012984D01*
X141239870Y-110024537D01*
X141147107Y-110041871D01*
X141052377Y-110065882D01*
X140949237Y-110097465D01*
X140765748Y-110166664D01*
X140557693Y-110270069D01*
X140364155Y-110394281D01*
X140186421Y-110537832D01*
X140025781Y-110699252D01*
X139883522Y-110877072D01*
X139760931Y-111069823D01*
X139659299Y-111276035D01*
X139579911Y-111494241D01*
X139524057Y-111722969D01*
X139522819Y-111729767D01*
X139510851Y-111819429D01*
X139502884Y-111926163D01*
X139498926Y-112042766D01*
X139498985Y-112162035D01*
X139503066Y-112276766D01*
X139511177Y-112379756D01*
X139523326Y-112463803D01*
X139543485Y-112556371D01*
X139611544Y-112785807D01*
X139702766Y-113003606D01*
X139816473Y-113208480D01*
X139951985Y-113399139D01*
X140108622Y-113574295D01*
X140167901Y-113631592D01*
X140320298Y-113760674D01*
X140482938Y-113872023D01*
X140663489Y-113971121D01*
X140739197Y-114007089D01*
X140921832Y-114081161D01*
X141102420Y-114134925D01*
X141286859Y-114169618D01*
X141481047Y-114186477D01*
X141690881Y-114186741D01*
X141900417Y-114179470D01*
X141900417Y-115099935D01*
X141870651Y-115107912D01*
X141850303Y-115111055D01*
X141803670Y-115114025D01*
X141739187Y-115115685D01*
X141661745Y-115116113D01*
X141576236Y-115115388D01*
X141487550Y-115113587D01*
X141400581Y-115110788D01*
X141320218Y-115107070D01*
X141251354Y-115102510D01*
X141198880Y-115097187D01*
X141008079Y-115065759D01*
X140734377Y-114998847D01*
X140470213Y-114908029D01*
X140216953Y-114794103D01*
X139975959Y-114657867D01*
X139748598Y-114500118D01*
X139536233Y-114321656D01*
X139340230Y-114123277D01*
X139161952Y-113905782D01*
X139083128Y-113794983D01*
X138935646Y-113554363D01*
X138811919Y-113302286D01*
X138712205Y-113039386D01*
X138636759Y-112766294D01*
X138585838Y-112483646D01*
X138582037Y-112451528D01*
X138574666Y-112357986D01*
X138569934Y-112248146D01*
X138567839Y-112129113D01*
X138568382Y-112007991D01*
X138571563Y-111891882D01*
X138577382Y-111787893D01*
X138585838Y-111703125D01*
X138599055Y-111614291D01*
X138657192Y-111337617D01*
X138739042Y-111070930D01*
X138843615Y-110815427D01*
X138969921Y-110572302D01*
X139116970Y-110342753D01*
X139283773Y-110127974D01*
X139469340Y-109929162D01*
X139672680Y-109747513D01*
X139892805Y-109584223D01*
X140128723Y-109440487D01*
X140379447Y-109317502D01*
X140643984Y-109216464D01*
X140725066Y-109191333D01*
X140852662Y-109156917D01*
X140985128Y-109126294D01*
X141112729Y-109101659D01*
X141225729Y-109085211D01*
X141226238Y-109085153D01*
X141271583Y-109081469D01*
X141334091Y-109078337D01*
X141408917Y-109075803D01*
X141491217Y-109073917D01*
X141576146Y-109072726D01*
X141658858Y-109072277D01*
X141734510Y-109072618D01*
G37*
X141734510Y-109072618D02*
X141798256Y-109073797D01*
X141845251Y-109075862D01*
X141870651Y-109078859D01*
X141900417Y-109086836D01*
X141900417Y-110003814D01*
X141625911Y-110003496D01*
X141570767Y-110003648D01*
X141445258Y-110006320D01*
X141337106Y-110012984D01*
X141239870Y-110024537D01*
X141147107Y-110041871D01*
X141052377Y-110065882D01*
X140949237Y-110097465D01*
X140765748Y-110166664D01*
X140557693Y-110270069D01*
X140364155Y-110394281D01*
X140186421Y-110537832D01*
X140025781Y-110699252D01*
X139883522Y-110877072D01*
X139760931Y-111069823D01*
X139659299Y-111276035D01*
X139579911Y-111494241D01*
X139524057Y-111722969D01*
X139522819Y-111729767D01*
X139510851Y-111819429D01*
X139502884Y-111926163D01*
X139498926Y-112042766D01*
X139498985Y-112162035D01*
X139503066Y-112276766D01*
X139511177Y-112379756D01*
X139523326Y-112463803D01*
X139543485Y-112556371D01*
X139611544Y-112785807D01*
X139702766Y-113003606D01*
X139816473Y-113208480D01*
X139951985Y-113399139D01*
X140108622Y-113574295D01*
X140167901Y-113631592D01*
X140320298Y-113760674D01*
X140482938Y-113872023D01*
X140663489Y-113971121D01*
X140739197Y-114007089D01*
X140921832Y-114081161D01*
X141102420Y-114134925D01*
X141286859Y-114169618D01*
X141481047Y-114186477D01*
X141690881Y-114186741D01*
X141900417Y-114179470D01*
X141900417Y-115099935D01*
X141870651Y-115107912D01*
X141850303Y-115111055D01*
X141803670Y-115114025D01*
X141739187Y-115115685D01*
X141661745Y-115116113D01*
X141576236Y-115115388D01*
X141487550Y-115113587D01*
X141400581Y-115110788D01*
X141320218Y-115107070D01*
X141251354Y-115102510D01*
X141198880Y-115097187D01*
X141008079Y-115065759D01*
X140734377Y-114998847D01*
X140470213Y-114908029D01*
X140216953Y-114794103D01*
X139975959Y-114657867D01*
X139748598Y-114500118D01*
X139536233Y-114321656D01*
X139340230Y-114123277D01*
X139161952Y-113905782D01*
X139083128Y-113794983D01*
X138935646Y-113554363D01*
X138811919Y-113302286D01*
X138712205Y-113039386D01*
X138636759Y-112766294D01*
X138585838Y-112483646D01*
X138582037Y-112451528D01*
X138574666Y-112357986D01*
X138569934Y-112248146D01*
X138567839Y-112129113D01*
X138568382Y-112007991D01*
X138571563Y-111891882D01*
X138577382Y-111787893D01*
X138585838Y-111703125D01*
X138599055Y-111614291D01*
X138657192Y-111337617D01*
X138739042Y-111070930D01*
X138843615Y-110815427D01*
X138969921Y-110572302D01*
X139116970Y-110342753D01*
X139283773Y-110127974D01*
X139469340Y-109929162D01*
X139672680Y-109747513D01*
X139892805Y-109584223D01*
X140128723Y-109440487D01*
X140379447Y-109317502D01*
X140643984Y-109216464D01*
X140725066Y-109191333D01*
X140852662Y-109156917D01*
X140985128Y-109126294D01*
X141112729Y-109101659D01*
X141225729Y-109085211D01*
X141226238Y-109085153D01*
X141271583Y-109081469D01*
X141334091Y-109078337D01*
X141408917Y-109075803D01*
X141491217Y-109073917D01*
X141576146Y-109072726D01*
X141658858Y-109072277D01*
X141734510Y-109072618D01*
G36*
X147033333Y-110003224D02*
G01*
X146745599Y-110003201D01*
X146674859Y-110003336D01*
X146589168Y-110004231D01*
X146520881Y-110006298D01*
X146464609Y-110009922D01*
X146414958Y-110015487D01*
X146366538Y-110023378D01*
X146313956Y-110033979D01*
X146308255Y-110035206D01*
X146074738Y-110098794D01*
X145853691Y-110185376D01*
X145646109Y-110294281D01*
X145452990Y-110424837D01*
X145275333Y-110576370D01*
X145114134Y-110748209D01*
X144970392Y-110939681D01*
X144960936Y-110954033D01*
X144904560Y-111048431D01*
X144848282Y-111156108D01*
X144795185Y-111270122D01*
X144748352Y-111383531D01*
X144710864Y-111489389D01*
X144685804Y-111580756D01*
X144676439Y-111623750D01*
X146438021Y-111623750D01*
X146438021Y-112563021D01*
X144676439Y-112563021D01*
X144685804Y-112606016D01*
X144691898Y-112631612D01*
X144719375Y-112722512D01*
X144757682Y-112826298D01*
X144803836Y-112936134D01*
X144854855Y-113045180D01*
X144907756Y-113146598D01*
X144959554Y-113233551D01*
X144984193Y-113270621D01*
X145124453Y-113453570D01*
X145284049Y-113619582D01*
X145461220Y-113767456D01*
X145654201Y-113895991D01*
X145861232Y-114003988D01*
X146080549Y-114090246D01*
X146310389Y-114153564D01*
X146344289Y-114160692D01*
X146390988Y-114168992D01*
X146438476Y-114175004D01*
X146491888Y-114179086D01*
X146556355Y-114181592D01*
X146637010Y-114182880D01*
X146738985Y-114183305D01*
X147033335Y-114183594D01*
X147033333Y-115116250D01*
X146752213Y-115115992D01*
X146640687Y-115115032D01*
X146507385Y-115110644D01*
X146387520Y-115102019D01*
X146273700Y-115088408D01*
X146158530Y-115069062D01*
X146034619Y-115043231D01*
X145934309Y-115018733D01*
X145677600Y-114937678D01*
X145427509Y-114832483D01*
X145186485Y-114704675D01*
X144956973Y-114555786D01*
X144741422Y-114387344D01*
X144542280Y-114200879D01*
X144361993Y-113997921D01*
X144358573Y-113993675D01*
X144197076Y-113771823D01*
X144056121Y-113534123D01*
X143936391Y-113282191D01*
X143838569Y-113017646D01*
X143763339Y-112742106D01*
X143711383Y-112457188D01*
X143705338Y-112399248D01*
X143700166Y-112312702D01*
X143697019Y-112212075D01*
X143695895Y-112103991D01*
X143696792Y-111995077D01*
X143699708Y-111891954D01*
X143704641Y-111801249D01*
X143711590Y-111729584D01*
X143714135Y-111710845D01*
X143765412Y-111432908D01*
X143840711Y-111161468D01*
X143939025Y-110898911D01*
X144059348Y-110647622D01*
X144200673Y-110409988D01*
X144361993Y-110188393D01*
X144398540Y-110144141D01*
X144532350Y-109998018D01*
X144683427Y-109853569D01*
X144845214Y-109716455D01*
X145011156Y-109592333D01*
X145174697Y-109486865D01*
X145230499Y-109454932D01*
X145443685Y-109347535D01*
X145669425Y-109254716D01*
X145901386Y-109178624D01*
X146133237Y-109121406D01*
X146358646Y-109085211D01*
X146365711Y-109084474D01*
X146414179Y-109081019D01*
X146482158Y-109077874D01*
X146563891Y-109075234D01*
X146653624Y-109073291D01*
X146745599Y-109072238D01*
X147033333Y-109070521D01*
X147033333Y-110003224D01*
G37*
X147033333Y-110003224D02*
X146745599Y-110003201D01*
X146674859Y-110003336D01*
X146589168Y-110004231D01*
X146520881Y-110006298D01*
X146464609Y-110009922D01*
X146414958Y-110015487D01*
X146366538Y-110023378D01*
X146313956Y-110033979D01*
X146308255Y-110035206D01*
X146074738Y-110098794D01*
X145853691Y-110185376D01*
X145646109Y-110294281D01*
X145452990Y-110424837D01*
X145275333Y-110576370D01*
X145114134Y-110748209D01*
X144970392Y-110939681D01*
X144960936Y-110954033D01*
X144904560Y-111048431D01*
X144848282Y-111156108D01*
X144795185Y-111270122D01*
X144748352Y-111383531D01*
X144710864Y-111489389D01*
X144685804Y-111580756D01*
X144676439Y-111623750D01*
X146438021Y-111623750D01*
X146438021Y-112563021D01*
X144676439Y-112563021D01*
X144685804Y-112606016D01*
X144691898Y-112631612D01*
X144719375Y-112722512D01*
X144757682Y-112826298D01*
X144803836Y-112936134D01*
X144854855Y-113045180D01*
X144907756Y-113146598D01*
X144959554Y-113233551D01*
X144984193Y-113270621D01*
X145124453Y-113453570D01*
X145284049Y-113619582D01*
X145461220Y-113767456D01*
X145654201Y-113895991D01*
X145861232Y-114003988D01*
X146080549Y-114090246D01*
X146310389Y-114153564D01*
X146344289Y-114160692D01*
X146390988Y-114168992D01*
X146438476Y-114175004D01*
X146491888Y-114179086D01*
X146556355Y-114181592D01*
X146637010Y-114182880D01*
X146738985Y-114183305D01*
X147033335Y-114183594D01*
X147033333Y-115116250D01*
X146752213Y-115115992D01*
X146640687Y-115115032D01*
X146507385Y-115110644D01*
X146387520Y-115102019D01*
X146273700Y-115088408D01*
X146158530Y-115069062D01*
X146034619Y-115043231D01*
X145934309Y-115018733D01*
X145677600Y-114937678D01*
X145427509Y-114832483D01*
X145186485Y-114704675D01*
X144956973Y-114555786D01*
X144741422Y-114387344D01*
X144542280Y-114200879D01*
X144361993Y-113997921D01*
X144358573Y-113993675D01*
X144197076Y-113771823D01*
X144056121Y-113534123D01*
X143936391Y-113282191D01*
X143838569Y-113017646D01*
X143763339Y-112742106D01*
X143711383Y-112457188D01*
X143705338Y-112399248D01*
X143700166Y-112312702D01*
X143697019Y-112212075D01*
X143695895Y-112103991D01*
X143696792Y-111995077D01*
X143699708Y-111891954D01*
X143704641Y-111801249D01*
X143711590Y-111729584D01*
X143714135Y-111710845D01*
X143765412Y-111432908D01*
X143840711Y-111161468D01*
X143939025Y-110898911D01*
X144059348Y-110647622D01*
X144200673Y-110409988D01*
X144361993Y-110188393D01*
X144398540Y-110144141D01*
X144532350Y-109998018D01*
X144683427Y-109853569D01*
X144845214Y-109716455D01*
X145011156Y-109592333D01*
X145174697Y-109486865D01*
X145230499Y-109454932D01*
X145443685Y-109347535D01*
X145669425Y-109254716D01*
X145901386Y-109178624D01*
X146133237Y-109121406D01*
X146358646Y-109085211D01*
X146365711Y-109084474D01*
X146414179Y-109081019D01*
X146482158Y-109077874D01*
X146563891Y-109075234D01*
X146653624Y-109073291D01*
X146745599Y-109072238D01*
X147033333Y-109070521D01*
X147033333Y-110003224D01*
%LPC*%
D12*
X87800000Y-124050000D03*
X87800000Y-115550000D03*
D13*
X135400000Y-138562495D03*
D14*
X140480000Y-138562495D03*
D13*
X114000000Y-138562495D03*
D14*
X119080000Y-138562495D03*
X124160000Y-138562495D03*
X129240000Y-138562495D03*
D13*
X92500000Y-138562495D03*
D14*
X97580000Y-138562495D03*
X102660000Y-138562495D03*
X107740000Y-138562495D03*
D15*
X88000000Y-131300000D03*
X89000000Y-96300000D03*
X145000000Y-131300000D03*
X144000000Y-96300000D03*
D16*
X143805000Y-121950000D03*
X143805000Y-116350000D03*
D17*
X145955000Y-119150000D03*
M02*
