G04 #@! TF.GenerationSoftware,KiCad,Pcbnew,5.99.0-unknown-d20d310~86~ubuntu18.04.1*
G04 #@! TF.CreationDate,2019-12-19T15:55:41+02:00*
G04 #@! TF.ProjectId,lora-bridge,6c6f7261-2d62-4726-9964-67652e6b6963,1.1*
G04 #@! TF.SameCoordinates,Original*
G04 #@! TF.FileFunction,Paste,Top*
G04 #@! TF.FilePolarity,Positive*
%FSLAX46Y46*%
G04 Gerber Fmt 4.6, Leading zero omitted, Abs format (unit mm)*
G04 Created by KiCad (PCBNEW 5.99.0-unknown-d20d310~86~ubuntu18.04.1) date 2019-12-19 15:55:41*
%MOMM*%
%LPD*%
G04 APERTURE LIST*
%ADD10R,5.080000X1.500000*%
%ADD11R,0.900000X0.800000*%
%ADD12R,1.100000X1.100000*%
%ADD13R,0.660000X0.500000*%
%ADD14O,1.000000X2.000000*%
%ADD15R,0.500000X0.660000*%
%ADD16R,0.800000X0.900000*%
%ADD17R,0.650000X1.060000*%
%ADD18R,1.000000X1.800000*%
%ADD19R,1.550000X1.300000*%
%ADD20R,1.500000X0.450000*%
%ADD21R,1.300000X0.250000*%
%ADD22R,0.250000X1.300000*%
G04 APERTURE END LIST*
G36*
X135570671Y-131944030D02*
G01*
X135651777Y-131998223D01*
X135705970Y-132079329D01*
X135725000Y-132175000D01*
X135725000Y-133425000D01*
X135705970Y-133520671D01*
X135651777Y-133601777D01*
X135570671Y-133655970D01*
X135475000Y-133675000D01*
X134725000Y-133675000D01*
X134629329Y-133655970D01*
X134548223Y-133601777D01*
X134494030Y-133520671D01*
X134475000Y-133425000D01*
X134475000Y-132175000D01*
X134494030Y-132079329D01*
X134548223Y-131998223D01*
X134629329Y-131944030D01*
X134725000Y-131925000D01*
X135475000Y-131925000D01*
X135570671Y-131944030D01*
G37*
G36*
X132770671Y-131944030D02*
G01*
X132851777Y-131998223D01*
X132905970Y-132079329D01*
X132925000Y-132175000D01*
X132925000Y-133425000D01*
X132905970Y-133520671D01*
X132851777Y-133601777D01*
X132770671Y-133655970D01*
X132675000Y-133675000D01*
X131925000Y-133675000D01*
X131829329Y-133655970D01*
X131748223Y-133601777D01*
X131694030Y-133520671D01*
X131675000Y-133425000D01*
X131675000Y-132175000D01*
X131694030Y-132079329D01*
X131748223Y-131998223D01*
X131829329Y-131944030D01*
X131925000Y-131925000D01*
X132675000Y-131925000D01*
X132770671Y-131944030D01*
G37*
D10*
X87800000Y-119800000D03*
X87800000Y-124050000D03*
X87800000Y-115550000D03*
G36*
X140639962Y-125891651D02*
G01*
X140710930Y-125939070D01*
X140758349Y-126010038D01*
X140775000Y-126093750D01*
X140775000Y-126531250D01*
X140758349Y-126614962D01*
X140710930Y-126685930D01*
X140639962Y-126733349D01*
X140556250Y-126750000D01*
X140043750Y-126750000D01*
X139960038Y-126733349D01*
X139889070Y-126685930D01*
X139841651Y-126614962D01*
X139825000Y-126531250D01*
X139825000Y-126093750D01*
X139841651Y-126010038D01*
X139889070Y-125939070D01*
X139960038Y-125891651D01*
X140043750Y-125875000D01*
X140556250Y-125875000D01*
X140639962Y-125891651D01*
G37*
G36*
X140639962Y-127466651D02*
G01*
X140710930Y-127514070D01*
X140758349Y-127585038D01*
X140775000Y-127668750D01*
X140775000Y-128106250D01*
X140758349Y-128189962D01*
X140710930Y-128260930D01*
X140639962Y-128308349D01*
X140556250Y-128325000D01*
X140043750Y-128325000D01*
X139960038Y-128308349D01*
X139889070Y-128260930D01*
X139841651Y-128189962D01*
X139825000Y-128106250D01*
X139825000Y-127668750D01*
X139841651Y-127585038D01*
X139889070Y-127514070D01*
X139960038Y-127466651D01*
X140043750Y-127450000D01*
X140556250Y-127450000D01*
X140639962Y-127466651D01*
G37*
G36*
X140639962Y-130466651D02*
G01*
X140710930Y-130514070D01*
X140758349Y-130585038D01*
X140775000Y-130668750D01*
X140775000Y-131106250D01*
X140758349Y-131189962D01*
X140710930Y-131260930D01*
X140639962Y-131308349D01*
X140556250Y-131325000D01*
X140043750Y-131325000D01*
X139960038Y-131308349D01*
X139889070Y-131260930D01*
X139841651Y-131189962D01*
X139825000Y-131106250D01*
X139825000Y-130668750D01*
X139841651Y-130585038D01*
X139889070Y-130514070D01*
X139960038Y-130466651D01*
X140043750Y-130450000D01*
X140556250Y-130450000D01*
X140639962Y-130466651D01*
G37*
G36*
X140639962Y-128891651D02*
G01*
X140710930Y-128939070D01*
X140758349Y-129010038D01*
X140775000Y-129093750D01*
X140775000Y-129531250D01*
X140758349Y-129614962D01*
X140710930Y-129685930D01*
X140639962Y-129733349D01*
X140556250Y-129750000D01*
X140043750Y-129750000D01*
X139960038Y-129733349D01*
X139889070Y-129685930D01*
X139841651Y-129614962D01*
X139825000Y-129531250D01*
X139825000Y-129093750D01*
X139841651Y-129010038D01*
X139889070Y-128939070D01*
X139960038Y-128891651D01*
X140043750Y-128875000D01*
X140556250Y-128875000D01*
X140639962Y-128891651D01*
G37*
D11*
X135500000Y-126400000D03*
X137500000Y-125450000D03*
X137500000Y-127350000D03*
X136800000Y-129900000D03*
X138800000Y-128950000D03*
X138800000Y-130850000D03*
D12*
X139700000Y-132800000D03*
X136900000Y-132800000D03*
G36*
X117714962Y-111241651D02*
G01*
X117785930Y-111289070D01*
X117833349Y-111360038D01*
X117850000Y-111443750D01*
X117850000Y-111956250D01*
X117833349Y-112039962D01*
X117785930Y-112110930D01*
X117714962Y-112158349D01*
X117631250Y-112175000D01*
X117193750Y-112175000D01*
X117110038Y-112158349D01*
X117039070Y-112110930D01*
X116991651Y-112039962D01*
X116975000Y-111956250D01*
X116975000Y-111443750D01*
X116991651Y-111360038D01*
X117039070Y-111289070D01*
X117110038Y-111241651D01*
X117193750Y-111225000D01*
X117631250Y-111225000D01*
X117714962Y-111241651D01*
G37*
G36*
X119289962Y-111241651D02*
G01*
X119360930Y-111289070D01*
X119408349Y-111360038D01*
X119425000Y-111443750D01*
X119425000Y-111956250D01*
X119408349Y-112039962D01*
X119360930Y-112110930D01*
X119289962Y-112158349D01*
X119206250Y-112175000D01*
X118768750Y-112175000D01*
X118685038Y-112158349D01*
X118614070Y-112110930D01*
X118566651Y-112039962D01*
X118550000Y-111956250D01*
X118550000Y-111443750D01*
X118566651Y-111360038D01*
X118614070Y-111289070D01*
X118685038Y-111241651D01*
X118768750Y-111225000D01*
X119206250Y-111225000D01*
X119289962Y-111241651D01*
G37*
G36*
X117714962Y-112741651D02*
G01*
X117785930Y-112789070D01*
X117833349Y-112860038D01*
X117850000Y-112943750D01*
X117850000Y-113456250D01*
X117833349Y-113539962D01*
X117785930Y-113610930D01*
X117714962Y-113658349D01*
X117631250Y-113675000D01*
X117193750Y-113675000D01*
X117110038Y-113658349D01*
X117039070Y-113610930D01*
X116991651Y-113539962D01*
X116975000Y-113456250D01*
X116975000Y-112943750D01*
X116991651Y-112860038D01*
X117039070Y-112789070D01*
X117110038Y-112741651D01*
X117193750Y-112725000D01*
X117631250Y-112725000D01*
X117714962Y-112741651D01*
G37*
G36*
X119289962Y-112741651D02*
G01*
X119360930Y-112789070D01*
X119408349Y-112860038D01*
X119425000Y-112943750D01*
X119425000Y-113456250D01*
X119408349Y-113539962D01*
X119360930Y-113610930D01*
X119289962Y-113658349D01*
X119206250Y-113675000D01*
X118768750Y-113675000D01*
X118685038Y-113658349D01*
X118614070Y-113610930D01*
X118566651Y-113539962D01*
X118550000Y-113456250D01*
X118550000Y-112943750D01*
X118566651Y-112860038D01*
X118614070Y-112789070D01*
X118685038Y-112741651D01*
X118768750Y-112725000D01*
X119206250Y-112725000D01*
X119289962Y-112741651D01*
G37*
D13*
X142301584Y-118800000D03*
X142301584Y-119800000D03*
X141161584Y-119300000D03*
G36*
X125589962Y-121041651D02*
G01*
X125660930Y-121089070D01*
X125708349Y-121160038D01*
X125725000Y-121243750D01*
X125725000Y-121756250D01*
X125708349Y-121839962D01*
X125660930Y-121910930D01*
X125589962Y-121958349D01*
X125506250Y-121975000D01*
X125068750Y-121975000D01*
X124985038Y-121958349D01*
X124914070Y-121910930D01*
X124866651Y-121839962D01*
X124850000Y-121756250D01*
X124850000Y-121243750D01*
X124866651Y-121160038D01*
X124914070Y-121089070D01*
X124985038Y-121041651D01*
X125068750Y-121025000D01*
X125506250Y-121025000D01*
X125589962Y-121041651D01*
G37*
G36*
X124014962Y-121041651D02*
G01*
X124085930Y-121089070D01*
X124133349Y-121160038D01*
X124150000Y-121243750D01*
X124150000Y-121756250D01*
X124133349Y-121839962D01*
X124085930Y-121910930D01*
X124014962Y-121958349D01*
X123931250Y-121975000D01*
X123493750Y-121975000D01*
X123410038Y-121958349D01*
X123339070Y-121910930D01*
X123291651Y-121839962D01*
X123275000Y-121756250D01*
X123275000Y-121243750D01*
X123291651Y-121160038D01*
X123339070Y-121089070D01*
X123410038Y-121041651D01*
X123493750Y-121025000D01*
X123931250Y-121025000D01*
X124014962Y-121041651D01*
G37*
G36*
X119289962Y-109741651D02*
G01*
X119360930Y-109789070D01*
X119408349Y-109860038D01*
X119425000Y-109943750D01*
X119425000Y-110456250D01*
X119408349Y-110539962D01*
X119360930Y-110610930D01*
X119289962Y-110658349D01*
X119206250Y-110675000D01*
X118768750Y-110675000D01*
X118685038Y-110658349D01*
X118614070Y-110610930D01*
X118566651Y-110539962D01*
X118550000Y-110456250D01*
X118550000Y-109943750D01*
X118566651Y-109860038D01*
X118614070Y-109789070D01*
X118685038Y-109741651D01*
X118768750Y-109725000D01*
X119206250Y-109725000D01*
X119289962Y-109741651D01*
G37*
G36*
X117714962Y-109741651D02*
G01*
X117785930Y-109789070D01*
X117833349Y-109860038D01*
X117850000Y-109943750D01*
X117850000Y-110456250D01*
X117833349Y-110539962D01*
X117785930Y-110610930D01*
X117714962Y-110658349D01*
X117631250Y-110675000D01*
X117193750Y-110675000D01*
X117110038Y-110658349D01*
X117039070Y-110610930D01*
X116991651Y-110539962D01*
X116975000Y-110456250D01*
X116975000Y-109943750D01*
X116991651Y-109860038D01*
X117039070Y-109789070D01*
X117110038Y-109741651D01*
X117193750Y-109725000D01*
X117631250Y-109725000D01*
X117714962Y-109741651D01*
G37*
G36*
X119289962Y-108241651D02*
G01*
X119360930Y-108289070D01*
X119408349Y-108360038D01*
X119425000Y-108443750D01*
X119425000Y-108956250D01*
X119408349Y-109039962D01*
X119360930Y-109110930D01*
X119289962Y-109158349D01*
X119206250Y-109175000D01*
X118768750Y-109175000D01*
X118685038Y-109158349D01*
X118614070Y-109110930D01*
X118566651Y-109039962D01*
X118550000Y-108956250D01*
X118550000Y-108443750D01*
X118566651Y-108360038D01*
X118614070Y-108289070D01*
X118685038Y-108241651D01*
X118768750Y-108225000D01*
X119206250Y-108225000D01*
X119289962Y-108241651D01*
G37*
G36*
X117714962Y-108241651D02*
G01*
X117785930Y-108289070D01*
X117833349Y-108360038D01*
X117850000Y-108443750D01*
X117850000Y-108956250D01*
X117833349Y-109039962D01*
X117785930Y-109110930D01*
X117714962Y-109158349D01*
X117631250Y-109175000D01*
X117193750Y-109175000D01*
X117110038Y-109158349D01*
X117039070Y-109110930D01*
X116991651Y-109039962D01*
X116975000Y-108956250D01*
X116975000Y-108443750D01*
X116991651Y-108360038D01*
X117039070Y-108289070D01*
X117110038Y-108241651D01*
X117193750Y-108225000D01*
X117631250Y-108225000D01*
X117714962Y-108241651D01*
G37*
G36*
X119289962Y-103741651D02*
G01*
X119360930Y-103789070D01*
X119408349Y-103860038D01*
X119425000Y-103943750D01*
X119425000Y-104456250D01*
X119408349Y-104539962D01*
X119360930Y-104610930D01*
X119289962Y-104658349D01*
X119206250Y-104675000D01*
X118768750Y-104675000D01*
X118685038Y-104658349D01*
X118614070Y-104610930D01*
X118566651Y-104539962D01*
X118550000Y-104456250D01*
X118550000Y-103943750D01*
X118566651Y-103860038D01*
X118614070Y-103789070D01*
X118685038Y-103741651D01*
X118768750Y-103725000D01*
X119206250Y-103725000D01*
X119289962Y-103741651D01*
G37*
G36*
X117714962Y-103741651D02*
G01*
X117785930Y-103789070D01*
X117833349Y-103860038D01*
X117850000Y-103943750D01*
X117850000Y-104456250D01*
X117833349Y-104539962D01*
X117785930Y-104610930D01*
X117714962Y-104658349D01*
X117631250Y-104675000D01*
X117193750Y-104675000D01*
X117110038Y-104658349D01*
X117039070Y-104610930D01*
X116991651Y-104539962D01*
X116975000Y-104456250D01*
X116975000Y-103943750D01*
X116991651Y-103860038D01*
X117039070Y-103789070D01*
X117110038Y-103741651D01*
X117193750Y-103725000D01*
X117631250Y-103725000D01*
X117714962Y-103741651D01*
G37*
G36*
X119289962Y-105241651D02*
G01*
X119360930Y-105289070D01*
X119408349Y-105360038D01*
X119425000Y-105443750D01*
X119425000Y-105956250D01*
X119408349Y-106039962D01*
X119360930Y-106110930D01*
X119289962Y-106158349D01*
X119206250Y-106175000D01*
X118768750Y-106175000D01*
X118685038Y-106158349D01*
X118614070Y-106110930D01*
X118566651Y-106039962D01*
X118550000Y-105956250D01*
X118550000Y-105443750D01*
X118566651Y-105360038D01*
X118614070Y-105289070D01*
X118685038Y-105241651D01*
X118768750Y-105225000D01*
X119206250Y-105225000D01*
X119289962Y-105241651D01*
G37*
G36*
X117714962Y-105241651D02*
G01*
X117785930Y-105289070D01*
X117833349Y-105360038D01*
X117850000Y-105443750D01*
X117850000Y-105956250D01*
X117833349Y-106039962D01*
X117785930Y-106110930D01*
X117714962Y-106158349D01*
X117631250Y-106175000D01*
X117193750Y-106175000D01*
X117110038Y-106158349D01*
X117039070Y-106110930D01*
X116991651Y-106039962D01*
X116975000Y-105956250D01*
X116975000Y-105443750D01*
X116991651Y-105360038D01*
X117039070Y-105289070D01*
X117110038Y-105241651D01*
X117193750Y-105225000D01*
X117631250Y-105225000D01*
X117714962Y-105241651D01*
G37*
G36*
X119289962Y-106741651D02*
G01*
X119360930Y-106789070D01*
X119408349Y-106860038D01*
X119425000Y-106943750D01*
X119425000Y-107456250D01*
X119408349Y-107539962D01*
X119360930Y-107610930D01*
X119289962Y-107658349D01*
X119206250Y-107675000D01*
X118768750Y-107675000D01*
X118685038Y-107658349D01*
X118614070Y-107610930D01*
X118566651Y-107539962D01*
X118550000Y-107456250D01*
X118550000Y-106943750D01*
X118566651Y-106860038D01*
X118614070Y-106789070D01*
X118685038Y-106741651D01*
X118768750Y-106725000D01*
X119206250Y-106725000D01*
X119289962Y-106741651D01*
G37*
G36*
X117714962Y-106741651D02*
G01*
X117785930Y-106789070D01*
X117833349Y-106860038D01*
X117850000Y-106943750D01*
X117850000Y-107456250D01*
X117833349Y-107539962D01*
X117785930Y-107610930D01*
X117714962Y-107658349D01*
X117631250Y-107675000D01*
X117193750Y-107675000D01*
X117110038Y-107658349D01*
X117039070Y-107610930D01*
X116991651Y-107539962D01*
X116975000Y-107456250D01*
X116975000Y-106943750D01*
X116991651Y-106860038D01*
X117039070Y-106789070D01*
X117110038Y-106741651D01*
X117193750Y-106725000D01*
X117631250Y-106725000D01*
X117714962Y-106741651D01*
G37*
D14*
X111127284Y-119627284D03*
X109127284Y-119627284D03*
X107127284Y-119627284D03*
X105127284Y-119627284D03*
X103127284Y-119627284D03*
X101127284Y-119627284D03*
X99127284Y-119627284D03*
X97127284Y-119627284D03*
X97127284Y-103627284D03*
X99127284Y-103627284D03*
X101127284Y-103627284D03*
X103127284Y-103627284D03*
X105127284Y-103627284D03*
X107127284Y-103627284D03*
X109127284Y-103627284D03*
X111127284Y-103627284D03*
D15*
X100100000Y-132330000D03*
X101100000Y-132330000D03*
X100600000Y-133470000D03*
D16*
X124600000Y-126500000D03*
X123650000Y-124500000D03*
X125550000Y-124500000D03*
D17*
X130100000Y-126700000D03*
X131050000Y-126700000D03*
X132000000Y-126700000D03*
X132000000Y-124500000D03*
X130100000Y-124500000D03*
G36*
X124014962Y-122541651D02*
G01*
X124085930Y-122589070D01*
X124133349Y-122660038D01*
X124150000Y-122743750D01*
X124150000Y-123256250D01*
X124133349Y-123339962D01*
X124085930Y-123410930D01*
X124014962Y-123458349D01*
X123931250Y-123475000D01*
X123493750Y-123475000D01*
X123410038Y-123458349D01*
X123339070Y-123410930D01*
X123291651Y-123339962D01*
X123275000Y-123256250D01*
X123275000Y-122743750D01*
X123291651Y-122660038D01*
X123339070Y-122589070D01*
X123410038Y-122541651D01*
X123493750Y-122525000D01*
X123931250Y-122525000D01*
X124014962Y-122541651D01*
G37*
G36*
X125589962Y-122541651D02*
G01*
X125660930Y-122589070D01*
X125708349Y-122660038D01*
X125725000Y-122743750D01*
X125725000Y-123256250D01*
X125708349Y-123339962D01*
X125660930Y-123410930D01*
X125589962Y-123458349D01*
X125506250Y-123475000D01*
X125068750Y-123475000D01*
X124985038Y-123458349D01*
X124914070Y-123410930D01*
X124866651Y-123339962D01*
X124850000Y-123256250D01*
X124850000Y-122743750D01*
X124866651Y-122660038D01*
X124914070Y-122589070D01*
X124985038Y-122541651D01*
X125068750Y-122525000D01*
X125506250Y-122525000D01*
X125589962Y-122541651D01*
G37*
G36*
X104364962Y-97966651D02*
G01*
X104435930Y-98014070D01*
X104483349Y-98085038D01*
X104500000Y-98168750D01*
X104500000Y-98606250D01*
X104483349Y-98689962D01*
X104435930Y-98760930D01*
X104364962Y-98808349D01*
X104281250Y-98825000D01*
X103768750Y-98825000D01*
X103685038Y-98808349D01*
X103614070Y-98760930D01*
X103566651Y-98689962D01*
X103550000Y-98606250D01*
X103550000Y-98168750D01*
X103566651Y-98085038D01*
X103614070Y-98014070D01*
X103685038Y-97966651D01*
X103768750Y-97950000D01*
X104281250Y-97950000D01*
X104364962Y-97966651D01*
G37*
G36*
X104364962Y-99541651D02*
G01*
X104435930Y-99589070D01*
X104483349Y-99660038D01*
X104500000Y-99743750D01*
X104500000Y-100181250D01*
X104483349Y-100264962D01*
X104435930Y-100335930D01*
X104364962Y-100383349D01*
X104281250Y-100400000D01*
X103768750Y-100400000D01*
X103685038Y-100383349D01*
X103614070Y-100335930D01*
X103566651Y-100264962D01*
X103550000Y-100181250D01*
X103550000Y-99743750D01*
X103566651Y-99660038D01*
X103614070Y-99589070D01*
X103685038Y-99541651D01*
X103768750Y-99525000D01*
X104281250Y-99525000D01*
X104364962Y-99541651D01*
G37*
G36*
X95339962Y-97966651D02*
G01*
X95410930Y-98014070D01*
X95458349Y-98085038D01*
X95475000Y-98168750D01*
X95475000Y-98606250D01*
X95458349Y-98689962D01*
X95410930Y-98760930D01*
X95339962Y-98808349D01*
X95256250Y-98825000D01*
X94743750Y-98825000D01*
X94660038Y-98808349D01*
X94589070Y-98760930D01*
X94541651Y-98689962D01*
X94525000Y-98606250D01*
X94525000Y-98168750D01*
X94541651Y-98085038D01*
X94589070Y-98014070D01*
X94660038Y-97966651D01*
X94743750Y-97950000D01*
X95256250Y-97950000D01*
X95339962Y-97966651D01*
G37*
G36*
X95339962Y-99541651D02*
G01*
X95410930Y-99589070D01*
X95458349Y-99660038D01*
X95475000Y-99743750D01*
X95475000Y-100181250D01*
X95458349Y-100264962D01*
X95410930Y-100335930D01*
X95339962Y-100383349D01*
X95256250Y-100400000D01*
X94743750Y-100400000D01*
X94660038Y-100383349D01*
X94589070Y-100335930D01*
X94541651Y-100264962D01*
X94525000Y-100181250D01*
X94525000Y-99743750D01*
X94541651Y-99660038D01*
X94589070Y-99589070D01*
X94660038Y-99541651D01*
X94743750Y-99525000D01*
X95256250Y-99525000D01*
X95339962Y-99541651D01*
G37*
G36*
X99764962Y-97966651D02*
G01*
X99835930Y-98014070D01*
X99883349Y-98085038D01*
X99900000Y-98168750D01*
X99900000Y-98606250D01*
X99883349Y-98689962D01*
X99835930Y-98760930D01*
X99764962Y-98808349D01*
X99681250Y-98825000D01*
X99168750Y-98825000D01*
X99085038Y-98808349D01*
X99014070Y-98760930D01*
X98966651Y-98689962D01*
X98950000Y-98606250D01*
X98950000Y-98168750D01*
X98966651Y-98085038D01*
X99014070Y-98014070D01*
X99085038Y-97966651D01*
X99168750Y-97950000D01*
X99681250Y-97950000D01*
X99764962Y-97966651D01*
G37*
G36*
X99764962Y-99541651D02*
G01*
X99835930Y-99589070D01*
X99883349Y-99660038D01*
X99900000Y-99743750D01*
X99900000Y-100181250D01*
X99883349Y-100264962D01*
X99835930Y-100335930D01*
X99764962Y-100383349D01*
X99681250Y-100400000D01*
X99168750Y-100400000D01*
X99085038Y-100383349D01*
X99014070Y-100335930D01*
X98966651Y-100264962D01*
X98950000Y-100181250D01*
X98950000Y-99743750D01*
X98966651Y-99660038D01*
X99014070Y-99589070D01*
X99085038Y-99541651D01*
X99168750Y-99525000D01*
X99681250Y-99525000D01*
X99764962Y-99541651D01*
G37*
G36*
X104364962Y-96541651D02*
G01*
X104435930Y-96589070D01*
X104483349Y-96660038D01*
X104500000Y-96743750D01*
X104500000Y-97181250D01*
X104483349Y-97264962D01*
X104435930Y-97335930D01*
X104364962Y-97383349D01*
X104281250Y-97400000D01*
X103768750Y-97400000D01*
X103685038Y-97383349D01*
X103614070Y-97335930D01*
X103566651Y-97264962D01*
X103550000Y-97181250D01*
X103550000Y-96743750D01*
X103566651Y-96660038D01*
X103614070Y-96589070D01*
X103685038Y-96541651D01*
X103768750Y-96525000D01*
X104281250Y-96525000D01*
X104364962Y-96541651D01*
G37*
G36*
X104364962Y-94966651D02*
G01*
X104435930Y-95014070D01*
X104483349Y-95085038D01*
X104500000Y-95168750D01*
X104500000Y-95606250D01*
X104483349Y-95689962D01*
X104435930Y-95760930D01*
X104364962Y-95808349D01*
X104281250Y-95825000D01*
X103768750Y-95825000D01*
X103685038Y-95808349D01*
X103614070Y-95760930D01*
X103566651Y-95689962D01*
X103550000Y-95606250D01*
X103550000Y-95168750D01*
X103566651Y-95085038D01*
X103614070Y-95014070D01*
X103685038Y-94966651D01*
X103768750Y-94950000D01*
X104281250Y-94950000D01*
X104364962Y-94966651D01*
G37*
G36*
X95339962Y-96541651D02*
G01*
X95410930Y-96589070D01*
X95458349Y-96660038D01*
X95475000Y-96743750D01*
X95475000Y-97181250D01*
X95458349Y-97264962D01*
X95410930Y-97335930D01*
X95339962Y-97383349D01*
X95256250Y-97400000D01*
X94743750Y-97400000D01*
X94660038Y-97383349D01*
X94589070Y-97335930D01*
X94541651Y-97264962D01*
X94525000Y-97181250D01*
X94525000Y-96743750D01*
X94541651Y-96660038D01*
X94589070Y-96589070D01*
X94660038Y-96541651D01*
X94743750Y-96525000D01*
X95256250Y-96525000D01*
X95339962Y-96541651D01*
G37*
G36*
X95339962Y-94966651D02*
G01*
X95410930Y-95014070D01*
X95458349Y-95085038D01*
X95475000Y-95168750D01*
X95475000Y-95606250D01*
X95458349Y-95689962D01*
X95410930Y-95760930D01*
X95339962Y-95808349D01*
X95256250Y-95825000D01*
X94743750Y-95825000D01*
X94660038Y-95808349D01*
X94589070Y-95760930D01*
X94541651Y-95689962D01*
X94525000Y-95606250D01*
X94525000Y-95168750D01*
X94541651Y-95085038D01*
X94589070Y-95014070D01*
X94660038Y-94966651D01*
X94743750Y-94950000D01*
X95256250Y-94950000D01*
X95339962Y-94966651D01*
G37*
G36*
X99764963Y-96541651D02*
G01*
X99835931Y-96589070D01*
X99883350Y-96660038D01*
X99900001Y-96743750D01*
X99900001Y-97181250D01*
X99883350Y-97264962D01*
X99835931Y-97335930D01*
X99764963Y-97383349D01*
X99681251Y-97400000D01*
X99168751Y-97400000D01*
X99085039Y-97383349D01*
X99014071Y-97335930D01*
X98966652Y-97264962D01*
X98950001Y-97181250D01*
X98950001Y-96743750D01*
X98966652Y-96660038D01*
X99014071Y-96589070D01*
X99085039Y-96541651D01*
X99168751Y-96525000D01*
X99681251Y-96525000D01*
X99764963Y-96541651D01*
G37*
G36*
X99764963Y-94966651D02*
G01*
X99835931Y-95014070D01*
X99883350Y-95085038D01*
X99900001Y-95168750D01*
X99900001Y-95606250D01*
X99883350Y-95689962D01*
X99835931Y-95760930D01*
X99764963Y-95808349D01*
X99681251Y-95825000D01*
X99168751Y-95825000D01*
X99085039Y-95808349D01*
X99014071Y-95760930D01*
X98966652Y-95689962D01*
X98950001Y-95606250D01*
X98950001Y-95168750D01*
X98966652Y-95085038D01*
X99014071Y-95014070D01*
X99085039Y-94966651D01*
X99168751Y-94950000D01*
X99681251Y-94950000D01*
X99764963Y-94966651D01*
G37*
G36*
X130939962Y-104291651D02*
G01*
X131010930Y-104339070D01*
X131058349Y-104410038D01*
X131075000Y-104493750D01*
X131075000Y-104931250D01*
X131058349Y-105014962D01*
X131010930Y-105085930D01*
X130939962Y-105133349D01*
X130856250Y-105150000D01*
X130343750Y-105150000D01*
X130260038Y-105133349D01*
X130189070Y-105085930D01*
X130141651Y-105014962D01*
X130125000Y-104931250D01*
X130125000Y-104493750D01*
X130141651Y-104410038D01*
X130189070Y-104339070D01*
X130260038Y-104291651D01*
X130343750Y-104275000D01*
X130856250Y-104275000D01*
X130939962Y-104291651D01*
G37*
G36*
X130939962Y-105866651D02*
G01*
X131010930Y-105914070D01*
X131058349Y-105985038D01*
X131075000Y-106068750D01*
X131075000Y-106506250D01*
X131058349Y-106589962D01*
X131010930Y-106660930D01*
X130939962Y-106708349D01*
X130856250Y-106725000D01*
X130343750Y-106725000D01*
X130260038Y-106708349D01*
X130189070Y-106660930D01*
X130141651Y-106589962D01*
X130125000Y-106506250D01*
X130125000Y-106068750D01*
X130141651Y-105985038D01*
X130189070Y-105914070D01*
X130260038Y-105866651D01*
X130343750Y-105850000D01*
X130856250Y-105850000D01*
X130939962Y-105866651D01*
G37*
G36*
X129239962Y-132876651D02*
G01*
X129310930Y-132924070D01*
X129358349Y-132995038D01*
X129375000Y-133078750D01*
X129375000Y-133516250D01*
X129358349Y-133599962D01*
X129310930Y-133670930D01*
X129239962Y-133718349D01*
X129156250Y-133735000D01*
X128643750Y-133735000D01*
X128560038Y-133718349D01*
X128489070Y-133670930D01*
X128441651Y-133599962D01*
X128425000Y-133516250D01*
X128425000Y-133078750D01*
X128441651Y-132995038D01*
X128489070Y-132924070D01*
X128560038Y-132876651D01*
X128643750Y-132860000D01*
X129156250Y-132860000D01*
X129239962Y-132876651D01*
G37*
G36*
X129239962Y-131301651D02*
G01*
X129310930Y-131349070D01*
X129358349Y-131420038D01*
X129375000Y-131503750D01*
X129375000Y-131941250D01*
X129358349Y-132024962D01*
X129310930Y-132095930D01*
X129239962Y-132143349D01*
X129156250Y-132160000D01*
X128643750Y-132160000D01*
X128560038Y-132143349D01*
X128489070Y-132095930D01*
X128441651Y-132024962D01*
X128425000Y-131941250D01*
X128425000Y-131503750D01*
X128441651Y-131420038D01*
X128489070Y-131349070D01*
X128560038Y-131301651D01*
X128643750Y-131285000D01*
X129156250Y-131285000D01*
X129239962Y-131301651D01*
G37*
G36*
X127539962Y-132866651D02*
G01*
X127610930Y-132914070D01*
X127658349Y-132985038D01*
X127675000Y-133068750D01*
X127675000Y-133506250D01*
X127658349Y-133589962D01*
X127610930Y-133660930D01*
X127539962Y-133708349D01*
X127456250Y-133725000D01*
X126943750Y-133725000D01*
X126860038Y-133708349D01*
X126789070Y-133660930D01*
X126741651Y-133589962D01*
X126725000Y-133506250D01*
X126725000Y-133068750D01*
X126741651Y-132985038D01*
X126789070Y-132914070D01*
X126860038Y-132866651D01*
X126943750Y-132850000D01*
X127456250Y-132850000D01*
X127539962Y-132866651D01*
G37*
G36*
X127539962Y-131291651D02*
G01*
X127610930Y-131339070D01*
X127658349Y-131410038D01*
X127675000Y-131493750D01*
X127675000Y-131931250D01*
X127658349Y-132014962D01*
X127610930Y-132085930D01*
X127539962Y-132133349D01*
X127456250Y-132150000D01*
X126943750Y-132150000D01*
X126860038Y-132133349D01*
X126789070Y-132085930D01*
X126741651Y-132014962D01*
X126725000Y-131931250D01*
X126725000Y-131493750D01*
X126741651Y-131410038D01*
X126789070Y-131339070D01*
X126860038Y-131291651D01*
X126943750Y-131275000D01*
X127456250Y-131275000D01*
X127539962Y-131291651D01*
G37*
G36*
X130739962Y-131291651D02*
G01*
X130810930Y-131339070D01*
X130858349Y-131410038D01*
X130875000Y-131493750D01*
X130875000Y-131931250D01*
X130858349Y-132014962D01*
X130810930Y-132085930D01*
X130739962Y-132133349D01*
X130656250Y-132150000D01*
X130143750Y-132150000D01*
X130060038Y-132133349D01*
X129989070Y-132085930D01*
X129941651Y-132014962D01*
X129925000Y-131931250D01*
X129925000Y-131493750D01*
X129941651Y-131410038D01*
X129989070Y-131339070D01*
X130060038Y-131291651D01*
X130143750Y-131275000D01*
X130656250Y-131275000D01*
X130739962Y-131291651D01*
G37*
G36*
X130739962Y-132866651D02*
G01*
X130810930Y-132914070D01*
X130858349Y-132985038D01*
X130875000Y-133068750D01*
X130875000Y-133506250D01*
X130858349Y-133589962D01*
X130810930Y-133660930D01*
X130739962Y-133708349D01*
X130656250Y-133725000D01*
X130143750Y-133725000D01*
X130060038Y-133708349D01*
X129989070Y-133660930D01*
X129941651Y-133589962D01*
X129925000Y-133506250D01*
X129925000Y-133068750D01*
X129941651Y-132985038D01*
X129989070Y-132914070D01*
X130060038Y-132866651D01*
X130143750Y-132850000D01*
X130656250Y-132850000D01*
X130739962Y-132866651D01*
G37*
G36*
X124014962Y-127541651D02*
G01*
X124085930Y-127589070D01*
X124133349Y-127660038D01*
X124150000Y-127743750D01*
X124150000Y-128256250D01*
X124133349Y-128339962D01*
X124085930Y-128410930D01*
X124014962Y-128458349D01*
X123931250Y-128475000D01*
X123493750Y-128475000D01*
X123410038Y-128458349D01*
X123339070Y-128410930D01*
X123291651Y-128339962D01*
X123275000Y-128256250D01*
X123275000Y-127743750D01*
X123291651Y-127660038D01*
X123339070Y-127589070D01*
X123410038Y-127541651D01*
X123493750Y-127525000D01*
X123931250Y-127525000D01*
X124014962Y-127541651D01*
G37*
G36*
X125589962Y-127541651D02*
G01*
X125660930Y-127589070D01*
X125708349Y-127660038D01*
X125725000Y-127743750D01*
X125725000Y-128256250D01*
X125708349Y-128339962D01*
X125660930Y-128410930D01*
X125589962Y-128458349D01*
X125506250Y-128475000D01*
X125068750Y-128475000D01*
X124985038Y-128458349D01*
X124914070Y-128410930D01*
X124866651Y-128339962D01*
X124850000Y-128256250D01*
X124850000Y-127743750D01*
X124866651Y-127660038D01*
X124914070Y-127589070D01*
X124985038Y-127541651D01*
X125068750Y-127525000D01*
X125506250Y-127525000D01*
X125589962Y-127541651D01*
G37*
D16*
X124500000Y-131500000D03*
X123550000Y-129500000D03*
X125450000Y-129500000D03*
D18*
X133650001Y-105500001D03*
X136150001Y-105500001D03*
G36*
X120112403Y-130011418D02*
G01*
X120161066Y-130043934D01*
X120193582Y-130092597D01*
X120205000Y-130150000D01*
X120205000Y-131800000D01*
X120193582Y-131857403D01*
X120161066Y-131906066D01*
X120112403Y-131938582D01*
X120055000Y-131950000D01*
X119755000Y-131950000D01*
X119697597Y-131938582D01*
X119648934Y-131906066D01*
X119616418Y-131857403D01*
X119605000Y-131800000D01*
X119605000Y-130150000D01*
X119616418Y-130092597D01*
X119648934Y-130043934D01*
X119697597Y-130011418D01*
X119755000Y-130000000D01*
X120055000Y-130000000D01*
X120112403Y-130011418D01*
G37*
G36*
X118842403Y-130011418D02*
G01*
X118891066Y-130043934D01*
X118923582Y-130092597D01*
X118935000Y-130150000D01*
X118935000Y-131800000D01*
X118923582Y-131857403D01*
X118891066Y-131906066D01*
X118842403Y-131938582D01*
X118785000Y-131950000D01*
X118485000Y-131950000D01*
X118427597Y-131938582D01*
X118378934Y-131906066D01*
X118346418Y-131857403D01*
X118335000Y-131800000D01*
X118335000Y-130150000D01*
X118346418Y-130092597D01*
X118378934Y-130043934D01*
X118427597Y-130011418D01*
X118485000Y-130000000D01*
X118785000Y-130000000D01*
X118842403Y-130011418D01*
G37*
G36*
X117572403Y-130011418D02*
G01*
X117621066Y-130043934D01*
X117653582Y-130092597D01*
X117665000Y-130150000D01*
X117665000Y-131800000D01*
X117653582Y-131857403D01*
X117621066Y-131906066D01*
X117572403Y-131938582D01*
X117515000Y-131950000D01*
X117215000Y-131950000D01*
X117157597Y-131938582D01*
X117108934Y-131906066D01*
X117076418Y-131857403D01*
X117065000Y-131800000D01*
X117065000Y-130150000D01*
X117076418Y-130092597D01*
X117108934Y-130043934D01*
X117157597Y-130011418D01*
X117215000Y-130000000D01*
X117515000Y-130000000D01*
X117572403Y-130011418D01*
G37*
G36*
X116302403Y-130011418D02*
G01*
X116351066Y-130043934D01*
X116383582Y-130092597D01*
X116395000Y-130150000D01*
X116395000Y-131800000D01*
X116383582Y-131857403D01*
X116351066Y-131906066D01*
X116302403Y-131938582D01*
X116245000Y-131950000D01*
X115945000Y-131950000D01*
X115887597Y-131938582D01*
X115838934Y-131906066D01*
X115806418Y-131857403D01*
X115795000Y-131800000D01*
X115795000Y-130150000D01*
X115806418Y-130092597D01*
X115838934Y-130043934D01*
X115887597Y-130011418D01*
X115945000Y-130000000D01*
X116245000Y-130000000D01*
X116302403Y-130011418D01*
G37*
G36*
X116302403Y-125061418D02*
G01*
X116351066Y-125093934D01*
X116383582Y-125142597D01*
X116395000Y-125200000D01*
X116395000Y-126850000D01*
X116383582Y-126907403D01*
X116351066Y-126956066D01*
X116302403Y-126988582D01*
X116245000Y-127000000D01*
X115945000Y-127000000D01*
X115887597Y-126988582D01*
X115838934Y-126956066D01*
X115806418Y-126907403D01*
X115795000Y-126850000D01*
X115795000Y-125200000D01*
X115806418Y-125142597D01*
X115838934Y-125093934D01*
X115887597Y-125061418D01*
X115945000Y-125050000D01*
X116245000Y-125050000D01*
X116302403Y-125061418D01*
G37*
G36*
X117572403Y-125061418D02*
G01*
X117621066Y-125093934D01*
X117653582Y-125142597D01*
X117665000Y-125200000D01*
X117665000Y-126850000D01*
X117653582Y-126907403D01*
X117621066Y-126956066D01*
X117572403Y-126988582D01*
X117515000Y-127000000D01*
X117215000Y-127000000D01*
X117157597Y-126988582D01*
X117108934Y-126956066D01*
X117076418Y-126907403D01*
X117065000Y-126850000D01*
X117065000Y-125200000D01*
X117076418Y-125142597D01*
X117108934Y-125093934D01*
X117157597Y-125061418D01*
X117215000Y-125050000D01*
X117515000Y-125050000D01*
X117572403Y-125061418D01*
G37*
G36*
X118842403Y-125061418D02*
G01*
X118891066Y-125093934D01*
X118923582Y-125142597D01*
X118935000Y-125200000D01*
X118935000Y-126850000D01*
X118923582Y-126907403D01*
X118891066Y-126956066D01*
X118842403Y-126988582D01*
X118785000Y-127000000D01*
X118485000Y-127000000D01*
X118427597Y-126988582D01*
X118378934Y-126956066D01*
X118346418Y-126907403D01*
X118335000Y-126850000D01*
X118335000Y-125200000D01*
X118346418Y-125142597D01*
X118378934Y-125093934D01*
X118427597Y-125061418D01*
X118485000Y-125050000D01*
X118785000Y-125050000D01*
X118842403Y-125061418D01*
G37*
G36*
X120112403Y-125061418D02*
G01*
X120161066Y-125093934D01*
X120193582Y-125142597D01*
X120205000Y-125200000D01*
X120205000Y-126850000D01*
X120193582Y-126907403D01*
X120161066Y-126956066D01*
X120112403Y-126988582D01*
X120055000Y-127000000D01*
X119755000Y-127000000D01*
X119697597Y-126988582D01*
X119648934Y-126956066D01*
X119616418Y-126907403D01*
X119605000Y-126850000D01*
X119605000Y-125200000D01*
X119616418Y-125142597D01*
X119648934Y-125093934D01*
X119697597Y-125061418D01*
X119755000Y-125050000D01*
X120055000Y-125050000D01*
X120112403Y-125061418D01*
G37*
D19*
X137775000Y-98550000D03*
X137775000Y-94050000D03*
X129825000Y-94050000D03*
X129825000Y-98550000D03*
X125975000Y-98550000D03*
X125975000Y-94050000D03*
X118025000Y-94050000D03*
X118025000Y-98550000D03*
G36*
X114339962Y-129866651D02*
G01*
X114410930Y-129914070D01*
X114458349Y-129985038D01*
X114475000Y-130068750D01*
X114475000Y-130506250D01*
X114458349Y-130589962D01*
X114410930Y-130660930D01*
X114339962Y-130708349D01*
X114256250Y-130725000D01*
X113743750Y-130725000D01*
X113660038Y-130708349D01*
X113589070Y-130660930D01*
X113541651Y-130589962D01*
X113525000Y-130506250D01*
X113525000Y-130068750D01*
X113541651Y-129985038D01*
X113589070Y-129914070D01*
X113660038Y-129866651D01*
X113743750Y-129850000D01*
X114256250Y-129850000D01*
X114339962Y-129866651D01*
G37*
G36*
X114339962Y-128291651D02*
G01*
X114410930Y-128339070D01*
X114458349Y-128410038D01*
X114475000Y-128493750D01*
X114475000Y-128931250D01*
X114458349Y-129014962D01*
X114410930Y-129085930D01*
X114339962Y-129133349D01*
X114256250Y-129150000D01*
X113743750Y-129150000D01*
X113660038Y-129133349D01*
X113589070Y-129085930D01*
X113541651Y-129014962D01*
X113525000Y-128931250D01*
X113525000Y-128493750D01*
X113541651Y-128410038D01*
X113589070Y-128339070D01*
X113660038Y-128291651D01*
X113743750Y-128275000D01*
X114256250Y-128275000D01*
X114339962Y-128291651D01*
G37*
G36*
X104539962Y-131866650D02*
G01*
X104610930Y-131914069D01*
X104658349Y-131985037D01*
X104675000Y-132068749D01*
X104675000Y-132506249D01*
X104658349Y-132589961D01*
X104610930Y-132660929D01*
X104539962Y-132708348D01*
X104456250Y-132724999D01*
X103943750Y-132724999D01*
X103860038Y-132708348D01*
X103789070Y-132660929D01*
X103741651Y-132589961D01*
X103725000Y-132506249D01*
X103725000Y-132068749D01*
X103741651Y-131985037D01*
X103789070Y-131914069D01*
X103860038Y-131866650D01*
X103943750Y-131849999D01*
X104456250Y-131849999D01*
X104539962Y-131866650D01*
G37*
G36*
X104539962Y-130291650D02*
G01*
X104610930Y-130339069D01*
X104658349Y-130410037D01*
X104675000Y-130493749D01*
X104675000Y-130931249D01*
X104658349Y-131014961D01*
X104610930Y-131085929D01*
X104539962Y-131133348D01*
X104456250Y-131149999D01*
X103943750Y-131149999D01*
X103860038Y-131133348D01*
X103789070Y-131085929D01*
X103741651Y-131014961D01*
X103725000Y-130931249D01*
X103725000Y-130493749D01*
X103741651Y-130410037D01*
X103789070Y-130339069D01*
X103860038Y-130291650D01*
X103943750Y-130274999D01*
X104456250Y-130274999D01*
X104539962Y-130291650D01*
G37*
G36*
X97139962Y-131866651D02*
G01*
X97210930Y-131914070D01*
X97258349Y-131985038D01*
X97275000Y-132068750D01*
X97275000Y-132506250D01*
X97258349Y-132589962D01*
X97210930Y-132660930D01*
X97139962Y-132708349D01*
X97056250Y-132725000D01*
X96543750Y-132725000D01*
X96460038Y-132708349D01*
X96389070Y-132660930D01*
X96341651Y-132589962D01*
X96325000Y-132506250D01*
X96325000Y-132068750D01*
X96341651Y-131985038D01*
X96389070Y-131914070D01*
X96460038Y-131866651D01*
X96543750Y-131850000D01*
X97056250Y-131850000D01*
X97139962Y-131866651D01*
G37*
G36*
X97139962Y-130291651D02*
G01*
X97210930Y-130339070D01*
X97258349Y-130410038D01*
X97275000Y-130493750D01*
X97275000Y-130931250D01*
X97258349Y-131014962D01*
X97210930Y-131085930D01*
X97139962Y-131133349D01*
X97056250Y-131150000D01*
X96543750Y-131150000D01*
X96460038Y-131133349D01*
X96389070Y-131085930D01*
X96341651Y-131014962D01*
X96325000Y-130931250D01*
X96325000Y-130493750D01*
X96341651Y-130410038D01*
X96389070Y-130339070D01*
X96460038Y-130291651D01*
X96543750Y-130275000D01*
X97056250Y-130275000D01*
X97139962Y-130291651D01*
G37*
G36*
X112039961Y-130091651D02*
G01*
X112110929Y-130139070D01*
X112158348Y-130210038D01*
X112174999Y-130293750D01*
X112174999Y-130731250D01*
X112158348Y-130814962D01*
X112110929Y-130885930D01*
X112039961Y-130933349D01*
X111956249Y-130950000D01*
X111443749Y-130950000D01*
X111360037Y-130933349D01*
X111289069Y-130885930D01*
X111241650Y-130814962D01*
X111224999Y-130731250D01*
X111224999Y-130293750D01*
X111241650Y-130210038D01*
X111289069Y-130139070D01*
X111360037Y-130091651D01*
X111443749Y-130075000D01*
X111956249Y-130075000D01*
X112039961Y-130091651D01*
G37*
G36*
X112039961Y-131666651D02*
G01*
X112110929Y-131714070D01*
X112158348Y-131785038D01*
X112174999Y-131868750D01*
X112174999Y-132306250D01*
X112158348Y-132389962D01*
X112110929Y-132460930D01*
X112039961Y-132508349D01*
X111956249Y-132525000D01*
X111443749Y-132525000D01*
X111360037Y-132508349D01*
X111289069Y-132460930D01*
X111241650Y-132389962D01*
X111224999Y-132306250D01*
X111224999Y-131868750D01*
X111241650Y-131785038D01*
X111289069Y-131714070D01*
X111360037Y-131666651D01*
X111443749Y-131650000D01*
X111956249Y-131650000D01*
X112039961Y-131666651D01*
G37*
G36*
X110439962Y-130091650D02*
G01*
X110510930Y-130139069D01*
X110558349Y-130210037D01*
X110575000Y-130293749D01*
X110575000Y-130731249D01*
X110558349Y-130814961D01*
X110510930Y-130885929D01*
X110439962Y-130933348D01*
X110356250Y-130949999D01*
X109843750Y-130949999D01*
X109760038Y-130933348D01*
X109689070Y-130885929D01*
X109641651Y-130814961D01*
X109625000Y-130731249D01*
X109625000Y-130293749D01*
X109641651Y-130210037D01*
X109689070Y-130139069D01*
X109760038Y-130091650D01*
X109843750Y-130074999D01*
X110356250Y-130074999D01*
X110439962Y-130091650D01*
G37*
G36*
X110439962Y-131666650D02*
G01*
X110510930Y-131714069D01*
X110558349Y-131785037D01*
X110575000Y-131868749D01*
X110575000Y-132306249D01*
X110558349Y-132389961D01*
X110510930Y-132460929D01*
X110439962Y-132508348D01*
X110356250Y-132524999D01*
X109843750Y-132524999D01*
X109760038Y-132508348D01*
X109689070Y-132460929D01*
X109641651Y-132389961D01*
X109625000Y-132306249D01*
X109625000Y-131868749D01*
X109641651Y-131785037D01*
X109689070Y-131714069D01*
X109760038Y-131666650D01*
X109843750Y-131649999D01*
X110356250Y-131649999D01*
X110439962Y-131666650D01*
G37*
G36*
X122339962Y-126291651D02*
G01*
X122410930Y-126339070D01*
X122458349Y-126410038D01*
X122475000Y-126493750D01*
X122475000Y-126931250D01*
X122458349Y-127014962D01*
X122410930Y-127085930D01*
X122339962Y-127133349D01*
X122256250Y-127150000D01*
X121743750Y-127150000D01*
X121660038Y-127133349D01*
X121589070Y-127085930D01*
X121541651Y-127014962D01*
X121525000Y-126931250D01*
X121525000Y-126493750D01*
X121541651Y-126410038D01*
X121589070Y-126339070D01*
X121660038Y-126291651D01*
X121743750Y-126275000D01*
X122256250Y-126275000D01*
X122339962Y-126291651D01*
G37*
G36*
X122339962Y-127866651D02*
G01*
X122410930Y-127914070D01*
X122458349Y-127985038D01*
X122475000Y-128068750D01*
X122475000Y-128506250D01*
X122458349Y-128589962D01*
X122410930Y-128660930D01*
X122339962Y-128708349D01*
X122256250Y-128725000D01*
X121743750Y-128725000D01*
X121660038Y-128708349D01*
X121589070Y-128660930D01*
X121541651Y-128589962D01*
X121525000Y-128506250D01*
X121525000Y-128068750D01*
X121541651Y-127985038D01*
X121589070Y-127914070D01*
X121660038Y-127866651D01*
X121743750Y-127850000D01*
X122256250Y-127850000D01*
X122339962Y-127866651D01*
G37*
G36*
X138939962Y-113291651D02*
G01*
X139010930Y-113339070D01*
X139058349Y-113410038D01*
X139075000Y-113493750D01*
X139075000Y-113931250D01*
X139058349Y-114014962D01*
X139010930Y-114085930D01*
X138939962Y-114133349D01*
X138856250Y-114150000D01*
X138343750Y-114150000D01*
X138260038Y-114133349D01*
X138189070Y-114085930D01*
X138141651Y-114014962D01*
X138125000Y-113931250D01*
X138125000Y-113493750D01*
X138141651Y-113410038D01*
X138189070Y-113339070D01*
X138260038Y-113291651D01*
X138343750Y-113275000D01*
X138856250Y-113275000D01*
X138939962Y-113291651D01*
G37*
G36*
X138939962Y-114866651D02*
G01*
X139010930Y-114914070D01*
X139058349Y-114985038D01*
X139075000Y-115068750D01*
X139075000Y-115506250D01*
X139058349Y-115589962D01*
X139010930Y-115660930D01*
X138939962Y-115708349D01*
X138856250Y-115725000D01*
X138343750Y-115725000D01*
X138260038Y-115708349D01*
X138189070Y-115660930D01*
X138141651Y-115589962D01*
X138125000Y-115506250D01*
X138125000Y-115068750D01*
X138141651Y-114985038D01*
X138189070Y-114914070D01*
X138260038Y-114866651D01*
X138343750Y-114850000D01*
X138856250Y-114850000D01*
X138939962Y-114866651D01*
G37*
D11*
X106300000Y-131200000D03*
X108300000Y-130250000D03*
X108300000Y-132150000D03*
D20*
X144055000Y-119150000D03*
X144055000Y-118500000D03*
X144055000Y-119800000D03*
X144055000Y-117850000D03*
X144055000Y-120450000D03*
D12*
X141831584Y-123750000D03*
X139031584Y-123750000D03*
D13*
X141801584Y-121150000D03*
X141801584Y-122150000D03*
X140661584Y-121650000D03*
G36*
X133339962Y-128141651D02*
G01*
X133410930Y-128189070D01*
X133458349Y-128260038D01*
X133475000Y-128343750D01*
X133475000Y-128856250D01*
X133458349Y-128939962D01*
X133410930Y-129010930D01*
X133339962Y-129058349D01*
X133256250Y-129075000D01*
X132818750Y-129075000D01*
X132735038Y-129058349D01*
X132664070Y-129010930D01*
X132616651Y-128939962D01*
X132600000Y-128856250D01*
X132600000Y-128343750D01*
X132616651Y-128260038D01*
X132664070Y-128189070D01*
X132735038Y-128141651D01*
X132818750Y-128125000D01*
X133256250Y-128125000D01*
X133339962Y-128141651D01*
G37*
G36*
X131764962Y-128141651D02*
G01*
X131835930Y-128189070D01*
X131883349Y-128260038D01*
X131900000Y-128343750D01*
X131900000Y-128856250D01*
X131883349Y-128939962D01*
X131835930Y-129010930D01*
X131764962Y-129058349D01*
X131681250Y-129075000D01*
X131243750Y-129075000D01*
X131160038Y-129058349D01*
X131089070Y-129010930D01*
X131041651Y-128939962D01*
X131025000Y-128856250D01*
X131025000Y-128343750D01*
X131041651Y-128260038D01*
X131089070Y-128189070D01*
X131160038Y-128141651D01*
X131243750Y-128125000D01*
X131681250Y-128125000D01*
X131764962Y-128141651D01*
G37*
G36*
X122339962Y-129291651D02*
G01*
X122410930Y-129339070D01*
X122458349Y-129410038D01*
X122475000Y-129493750D01*
X122475000Y-129931250D01*
X122458349Y-130014962D01*
X122410930Y-130085930D01*
X122339962Y-130133349D01*
X122256250Y-130150000D01*
X121743750Y-130150000D01*
X121660038Y-130133349D01*
X121589070Y-130085930D01*
X121541651Y-130014962D01*
X121525000Y-129931250D01*
X121525000Y-129493750D01*
X121541651Y-129410038D01*
X121589070Y-129339070D01*
X121660038Y-129291651D01*
X121743750Y-129275000D01*
X122256250Y-129275000D01*
X122339962Y-129291651D01*
G37*
G36*
X122339962Y-130866651D02*
G01*
X122410930Y-130914070D01*
X122458349Y-130985038D01*
X122475000Y-131068750D01*
X122475000Y-131506250D01*
X122458349Y-131589962D01*
X122410930Y-131660930D01*
X122339962Y-131708349D01*
X122256250Y-131725000D01*
X121743750Y-131725000D01*
X121660038Y-131708349D01*
X121589070Y-131660930D01*
X121541651Y-131589962D01*
X121525000Y-131506250D01*
X121525000Y-131068750D01*
X121541651Y-130985038D01*
X121589070Y-130914070D01*
X121660038Y-130866651D01*
X121743750Y-130850000D01*
X122256250Y-130850000D01*
X122339962Y-130866651D01*
G37*
G36*
X128764962Y-122441651D02*
G01*
X128835930Y-122489070D01*
X128883349Y-122560038D01*
X128900000Y-122643750D01*
X128900000Y-123156250D01*
X128883349Y-123239962D01*
X128835930Y-123310930D01*
X128764962Y-123358349D01*
X128681250Y-123375000D01*
X128243750Y-123375000D01*
X128160038Y-123358349D01*
X128089070Y-123310930D01*
X128041651Y-123239962D01*
X128025000Y-123156250D01*
X128025000Y-122643750D01*
X128041651Y-122560038D01*
X128089070Y-122489070D01*
X128160038Y-122441651D01*
X128243750Y-122425000D01*
X128681250Y-122425000D01*
X128764962Y-122441651D01*
G37*
G36*
X130339962Y-122441651D02*
G01*
X130410930Y-122489070D01*
X130458349Y-122560038D01*
X130475000Y-122643750D01*
X130475000Y-123156250D01*
X130458349Y-123239962D01*
X130410930Y-123310930D01*
X130339962Y-123358349D01*
X130256250Y-123375000D01*
X129818750Y-123375000D01*
X129735038Y-123358349D01*
X129664070Y-123310930D01*
X129616651Y-123239962D01*
X129600000Y-123156250D01*
X129600000Y-122643750D01*
X129616651Y-122560038D01*
X129664070Y-122489070D01*
X129735038Y-122441651D01*
X129818750Y-122425000D01*
X130256250Y-122425000D01*
X130339962Y-122441651D01*
G37*
G36*
X103842246Y-121163935D02*
G01*
X103913214Y-121211354D01*
X103960633Y-121282322D01*
X103977284Y-121366034D01*
X103977284Y-121878534D01*
X103960633Y-121962246D01*
X103913214Y-122033214D01*
X103842246Y-122080633D01*
X103758534Y-122097284D01*
X103321034Y-122097284D01*
X103237322Y-122080633D01*
X103166354Y-122033214D01*
X103118935Y-121962246D01*
X103102284Y-121878534D01*
X103102284Y-121366034D01*
X103118935Y-121282322D01*
X103166354Y-121211354D01*
X103237322Y-121163935D01*
X103321034Y-121147284D01*
X103758534Y-121147284D01*
X103842246Y-121163935D01*
G37*
G36*
X105417246Y-121163935D02*
G01*
X105488214Y-121211354D01*
X105535633Y-121282322D01*
X105552284Y-121366034D01*
X105552284Y-121878534D01*
X105535633Y-121962246D01*
X105488214Y-122033214D01*
X105417246Y-122080633D01*
X105333534Y-122097284D01*
X104896034Y-122097284D01*
X104812322Y-122080633D01*
X104741354Y-122033214D01*
X104693935Y-121962246D01*
X104677284Y-121878534D01*
X104677284Y-121366034D01*
X104693935Y-121282322D01*
X104741354Y-121211354D01*
X104812322Y-121163935D01*
X104896034Y-121147284D01*
X105333534Y-121147284D01*
X105417246Y-121163935D01*
G37*
G36*
X138839962Y-109291651D02*
G01*
X138910930Y-109339070D01*
X138958349Y-109410038D01*
X138975000Y-109493750D01*
X138975000Y-109931250D01*
X138958349Y-110014962D01*
X138910930Y-110085930D01*
X138839962Y-110133349D01*
X138756250Y-110150000D01*
X138243750Y-110150000D01*
X138160038Y-110133349D01*
X138089070Y-110085930D01*
X138041651Y-110014962D01*
X138025000Y-109931250D01*
X138025000Y-109493750D01*
X138041651Y-109410038D01*
X138089070Y-109339070D01*
X138160038Y-109291651D01*
X138243750Y-109275000D01*
X138756250Y-109275000D01*
X138839962Y-109291651D01*
G37*
G36*
X138839962Y-110866651D02*
G01*
X138910930Y-110914070D01*
X138958349Y-110985038D01*
X138975000Y-111068750D01*
X138975000Y-111506250D01*
X138958349Y-111589962D01*
X138910930Y-111660930D01*
X138839962Y-111708349D01*
X138756250Y-111725000D01*
X138243750Y-111725000D01*
X138160038Y-111708349D01*
X138089070Y-111660930D01*
X138041651Y-111589962D01*
X138025000Y-111506250D01*
X138025000Y-111068750D01*
X138041651Y-110985038D01*
X138089070Y-110914070D01*
X138160038Y-110866651D01*
X138243750Y-110850000D01*
X138756250Y-110850000D01*
X138839962Y-110866651D01*
G37*
G36*
X137339962Y-109291651D02*
G01*
X137410930Y-109339070D01*
X137458349Y-109410038D01*
X137475000Y-109493750D01*
X137475000Y-109931250D01*
X137458349Y-110014962D01*
X137410930Y-110085930D01*
X137339962Y-110133349D01*
X137256250Y-110150000D01*
X136743750Y-110150000D01*
X136660038Y-110133349D01*
X136589070Y-110085930D01*
X136541651Y-110014962D01*
X136525000Y-109931250D01*
X136525000Y-109493750D01*
X136541651Y-109410038D01*
X136589070Y-109339070D01*
X136660038Y-109291651D01*
X136743750Y-109275000D01*
X137256250Y-109275000D01*
X137339962Y-109291651D01*
G37*
G36*
X137339962Y-110866651D02*
G01*
X137410930Y-110914070D01*
X137458349Y-110985038D01*
X137475000Y-111068750D01*
X137475000Y-111506250D01*
X137458349Y-111589962D01*
X137410930Y-111660930D01*
X137339962Y-111708349D01*
X137256250Y-111725000D01*
X136743750Y-111725000D01*
X136660038Y-111708349D01*
X136589070Y-111660930D01*
X136541651Y-111589962D01*
X136525000Y-111506250D01*
X136525000Y-111068750D01*
X136541651Y-110985038D01*
X136589070Y-110914070D01*
X136660038Y-110866651D01*
X136743750Y-110850000D01*
X137256250Y-110850000D01*
X137339962Y-110866651D01*
G37*
G36*
X128764962Y-128141651D02*
G01*
X128835930Y-128189070D01*
X128883349Y-128260038D01*
X128900000Y-128343750D01*
X128900000Y-128856250D01*
X128883349Y-128939962D01*
X128835930Y-129010930D01*
X128764962Y-129058349D01*
X128681250Y-129075000D01*
X128243750Y-129075000D01*
X128160038Y-129058349D01*
X128089070Y-129010930D01*
X128041651Y-128939962D01*
X128025000Y-128856250D01*
X128025000Y-128343750D01*
X128041651Y-128260038D01*
X128089070Y-128189070D01*
X128160038Y-128141651D01*
X128243750Y-128125000D01*
X128681250Y-128125000D01*
X128764962Y-128141651D01*
G37*
G36*
X130339962Y-128141651D02*
G01*
X130410930Y-128189070D01*
X130458349Y-128260038D01*
X130475000Y-128343750D01*
X130475000Y-128856250D01*
X130458349Y-128939962D01*
X130410930Y-129010930D01*
X130339962Y-129058349D01*
X130256250Y-129075000D01*
X129818750Y-129075000D01*
X129735038Y-129058349D01*
X129664070Y-129010930D01*
X129616651Y-128939962D01*
X129600000Y-128856250D01*
X129600000Y-128343750D01*
X129616651Y-128260038D01*
X129664070Y-128189070D01*
X129735038Y-128141651D01*
X129818750Y-128125000D01*
X130256250Y-128125000D01*
X130339962Y-128141651D01*
G37*
G36*
X135989962Y-118241651D02*
G01*
X136060930Y-118289070D01*
X136108349Y-118360038D01*
X136125000Y-118443750D01*
X136125000Y-118956250D01*
X136108349Y-119039962D01*
X136060930Y-119110930D01*
X135989962Y-119158349D01*
X135906250Y-119175000D01*
X135468750Y-119175000D01*
X135385038Y-119158349D01*
X135314070Y-119110930D01*
X135266651Y-119039962D01*
X135250000Y-118956250D01*
X135250000Y-118443750D01*
X135266651Y-118360038D01*
X135314070Y-118289070D01*
X135385038Y-118241651D01*
X135468750Y-118225000D01*
X135906250Y-118225000D01*
X135989962Y-118241651D01*
G37*
G36*
X134414962Y-118241651D02*
G01*
X134485930Y-118289070D01*
X134533349Y-118360038D01*
X134550000Y-118443750D01*
X134550000Y-118956250D01*
X134533349Y-119039962D01*
X134485930Y-119110930D01*
X134414962Y-119158349D01*
X134331250Y-119175000D01*
X133893750Y-119175000D01*
X133810038Y-119158349D01*
X133739070Y-119110930D01*
X133691651Y-119039962D01*
X133675000Y-118956250D01*
X133675000Y-118443750D01*
X133691651Y-118360038D01*
X133739070Y-118289070D01*
X133810038Y-118241651D01*
X133893750Y-118225000D01*
X134331250Y-118225000D01*
X134414962Y-118241651D01*
G37*
G36*
X123614962Y-111341651D02*
G01*
X123685930Y-111389070D01*
X123733349Y-111460038D01*
X123750000Y-111543750D01*
X123750000Y-112056250D01*
X123733349Y-112139962D01*
X123685930Y-112210930D01*
X123614962Y-112258349D01*
X123531250Y-112275000D01*
X123093750Y-112275000D01*
X123010038Y-112258349D01*
X122939070Y-112210930D01*
X122891651Y-112139962D01*
X122875000Y-112056250D01*
X122875000Y-111543750D01*
X122891651Y-111460038D01*
X122939070Y-111389070D01*
X123010038Y-111341651D01*
X123093750Y-111325000D01*
X123531250Y-111325000D01*
X123614962Y-111341651D01*
G37*
G36*
X125189962Y-111341651D02*
G01*
X125260930Y-111389070D01*
X125308349Y-111460038D01*
X125325000Y-111543750D01*
X125325000Y-112056250D01*
X125308349Y-112139962D01*
X125260930Y-112210930D01*
X125189962Y-112258349D01*
X125106250Y-112275000D01*
X124668750Y-112275000D01*
X124585038Y-112258349D01*
X124514070Y-112210930D01*
X124466651Y-112139962D01*
X124450000Y-112056250D01*
X124450000Y-111543750D01*
X124466651Y-111460038D01*
X124514070Y-111389070D01*
X124585038Y-111341651D01*
X124668750Y-111325000D01*
X125106250Y-111325000D01*
X125189962Y-111341651D01*
G37*
G36*
X132439962Y-104291651D02*
G01*
X132510930Y-104339070D01*
X132558349Y-104410038D01*
X132575000Y-104493750D01*
X132575000Y-104931250D01*
X132558349Y-105014962D01*
X132510930Y-105085930D01*
X132439962Y-105133349D01*
X132356250Y-105150000D01*
X131843750Y-105150000D01*
X131760038Y-105133349D01*
X131689070Y-105085930D01*
X131641651Y-105014962D01*
X131625000Y-104931250D01*
X131625000Y-104493750D01*
X131641651Y-104410038D01*
X131689070Y-104339070D01*
X131760038Y-104291651D01*
X131843750Y-104275000D01*
X132356250Y-104275000D01*
X132439962Y-104291651D01*
G37*
G36*
X132439962Y-105866651D02*
G01*
X132510930Y-105914070D01*
X132558349Y-105985038D01*
X132575000Y-106068750D01*
X132575000Y-106506250D01*
X132558349Y-106589962D01*
X132510930Y-106660930D01*
X132439962Y-106708349D01*
X132356250Y-106725000D01*
X131843750Y-106725000D01*
X131760038Y-106708349D01*
X131689070Y-106660930D01*
X131641651Y-106589962D01*
X131625000Y-106506250D01*
X131625000Y-106068750D01*
X131641651Y-105985038D01*
X131689070Y-105914070D01*
X131760038Y-105866651D01*
X131843750Y-105850000D01*
X132356250Y-105850000D01*
X132439962Y-105866651D01*
G37*
G36*
X137339962Y-114866651D02*
G01*
X137410930Y-114914070D01*
X137458349Y-114985038D01*
X137475000Y-115068750D01*
X137475000Y-115506250D01*
X137458349Y-115589962D01*
X137410930Y-115660930D01*
X137339962Y-115708349D01*
X137256250Y-115725000D01*
X136743750Y-115725000D01*
X136660038Y-115708349D01*
X136589070Y-115660930D01*
X136541651Y-115589962D01*
X136525000Y-115506250D01*
X136525000Y-115068750D01*
X136541651Y-114985038D01*
X136589070Y-114914070D01*
X136660038Y-114866651D01*
X136743750Y-114850000D01*
X137256250Y-114850000D01*
X137339962Y-114866651D01*
G37*
G36*
X137339962Y-113291651D02*
G01*
X137410930Y-113339070D01*
X137458349Y-113410038D01*
X137475000Y-113493750D01*
X137475000Y-113931250D01*
X137458349Y-114014962D01*
X137410930Y-114085930D01*
X137339962Y-114133349D01*
X137256250Y-114150000D01*
X136743750Y-114150000D01*
X136660038Y-114133349D01*
X136589070Y-114085930D01*
X136541651Y-114014962D01*
X136525000Y-113931250D01*
X136525000Y-113493750D01*
X136541651Y-113410038D01*
X136589070Y-113339070D01*
X136660038Y-113291651D01*
X136743750Y-113275000D01*
X137256250Y-113275000D01*
X137339962Y-113291651D01*
G37*
G36*
X134039962Y-101591651D02*
G01*
X134110930Y-101639070D01*
X134158349Y-101710038D01*
X134175000Y-101793750D01*
X134175000Y-102231250D01*
X134158349Y-102314962D01*
X134110930Y-102385930D01*
X134039962Y-102433349D01*
X133956250Y-102450000D01*
X133443750Y-102450000D01*
X133360038Y-102433349D01*
X133289070Y-102385930D01*
X133241651Y-102314962D01*
X133225000Y-102231250D01*
X133225000Y-101793750D01*
X133241651Y-101710038D01*
X133289070Y-101639070D01*
X133360038Y-101591651D01*
X133443750Y-101575000D01*
X133956250Y-101575000D01*
X134039962Y-101591651D01*
G37*
G36*
X134039962Y-103166651D02*
G01*
X134110930Y-103214070D01*
X134158349Y-103285038D01*
X134175000Y-103368750D01*
X134175000Y-103806250D01*
X134158349Y-103889962D01*
X134110930Y-103960930D01*
X134039962Y-104008349D01*
X133956250Y-104025000D01*
X133443750Y-104025000D01*
X133360038Y-104008349D01*
X133289070Y-103960930D01*
X133241651Y-103889962D01*
X133225000Y-103806250D01*
X133225000Y-103368750D01*
X133241651Y-103285038D01*
X133289070Y-103214070D01*
X133360038Y-103166651D01*
X133443750Y-103150000D01*
X133956250Y-103150000D01*
X134039962Y-103166651D01*
G37*
G36*
X136439962Y-101591651D02*
G01*
X136510930Y-101639070D01*
X136558349Y-101710038D01*
X136575000Y-101793750D01*
X136575000Y-102231250D01*
X136558349Y-102314962D01*
X136510930Y-102385930D01*
X136439962Y-102433349D01*
X136356250Y-102450000D01*
X135843750Y-102450000D01*
X135760038Y-102433349D01*
X135689070Y-102385930D01*
X135641651Y-102314962D01*
X135625000Y-102231250D01*
X135625000Y-101793750D01*
X135641651Y-101710038D01*
X135689070Y-101639070D01*
X135760038Y-101591651D01*
X135843750Y-101575000D01*
X136356250Y-101575000D01*
X136439962Y-101591651D01*
G37*
G36*
X136439962Y-103166651D02*
G01*
X136510930Y-103214070D01*
X136558349Y-103285038D01*
X136575000Y-103368750D01*
X136575000Y-103806250D01*
X136558349Y-103889962D01*
X136510930Y-103960930D01*
X136439962Y-104008349D01*
X136356250Y-104025000D01*
X135843750Y-104025000D01*
X135760038Y-104008349D01*
X135689070Y-103960930D01*
X135641651Y-103889962D01*
X135625000Y-103806250D01*
X135625000Y-103368750D01*
X135641651Y-103285038D01*
X135689070Y-103214070D01*
X135760038Y-103166651D01*
X135843750Y-103150000D01*
X136356250Y-103150000D01*
X136439962Y-103166651D01*
G37*
D21*
X135250000Y-109950000D03*
X135250000Y-110450000D03*
X135250000Y-110950000D03*
X135250000Y-111450000D03*
X135250000Y-111950000D03*
X135250000Y-112450000D03*
X135250000Y-112950000D03*
X135250000Y-113450000D03*
X135250000Y-113950000D03*
X135250000Y-114450000D03*
X135250000Y-114950000D03*
X135250000Y-115450000D03*
D22*
X133650000Y-117050000D03*
X133150000Y-117050000D03*
X132650000Y-117050000D03*
X132150000Y-117050000D03*
X131650000Y-117050000D03*
X131150000Y-117050000D03*
X130650000Y-117050000D03*
X130150000Y-117050000D03*
X129650000Y-117050000D03*
X129150000Y-117050000D03*
X128650000Y-117050000D03*
X128150000Y-117050000D03*
D21*
X126550000Y-115450000D03*
X126550000Y-114950000D03*
X126550000Y-114450000D03*
X126550000Y-113950000D03*
X126550000Y-113450000D03*
X126550000Y-112950000D03*
X126550000Y-112450000D03*
X126550000Y-111950000D03*
X126550000Y-111450000D03*
X126550000Y-110950000D03*
X126550000Y-110450000D03*
X126550000Y-109950000D03*
D22*
X128150000Y-108350000D03*
X128650000Y-108350000D03*
X129150000Y-108350000D03*
X129650000Y-108350000D03*
X130150000Y-108350000D03*
X130650000Y-108350000D03*
X131150000Y-108350000D03*
X131650000Y-108350000D03*
X132150000Y-108350000D03*
X132650000Y-108350000D03*
X133150000Y-108350000D03*
X133650000Y-108350000D03*
M02*
